G75*
G70*
%OFA0B0*%
%FSLAX24Y24*%
%IPPOS*%
%LPD*%
%AMOC8*
5,1,8,0,0,1.08239X$1,22.5*
%
%ADD10C,0.0100*%
%ADD11C,0.0520*%
%ADD12OC8,0.0520*%
%ADD13C,0.1580*%
%ADD14C,0.0440*%
%ADD15OC8,0.0660*%
%ADD16C,0.0000*%
%ADD17C,0.1306*%
%ADD18C,0.1050*%
%ADD19C,0.0740*%
%ADD20C,0.0705*%
%ADD21C,0.0600*%
%ADD22OC8,0.0700*%
%ADD23C,0.0700*%
%ADD24OC8,0.0630*%
%ADD25C,0.0630*%
%ADD26C,0.0520*%
%ADD27C,0.0240*%
%ADD28C,0.0160*%
D10*
X001151Y000494D02*
X000151Y001494D01*
X000151Y017994D01*
X001151Y018994D01*
X038651Y018994D01*
X039651Y017994D01*
X039651Y001494D01*
X038651Y000494D01*
X001151Y000494D01*
X001358Y000994D02*
X000651Y001701D01*
X000651Y017787D01*
X001358Y018494D01*
X007179Y018494D01*
X007096Y018411D01*
X007096Y018088D01*
X007325Y017860D01*
X007648Y017860D01*
X007876Y018088D01*
X007876Y018411D01*
X007794Y018494D01*
X022659Y018494D01*
X022615Y018386D01*
X022615Y018043D01*
X022746Y017725D01*
X022989Y017482D01*
X023306Y017351D01*
X023650Y017351D01*
X023967Y017482D01*
X024210Y017725D01*
X024341Y018043D01*
X024341Y018386D01*
X024297Y018494D01*
X026006Y018494D01*
X025961Y018386D01*
X025961Y018043D01*
X026092Y017725D01*
X026335Y017482D01*
X026653Y017351D01*
X026996Y017351D01*
X027313Y017482D01*
X027556Y017725D01*
X027688Y018043D01*
X027688Y018386D01*
X027643Y018494D01*
X028159Y018494D01*
X028115Y018386D01*
X028115Y018043D01*
X028246Y017725D01*
X028489Y017482D01*
X028806Y017351D01*
X029150Y017351D01*
X029467Y017482D01*
X029710Y017725D01*
X029841Y018043D01*
X029841Y018386D01*
X029797Y018494D01*
X031506Y018494D01*
X031461Y018386D01*
X031461Y018043D01*
X031592Y017725D01*
X031835Y017482D01*
X032153Y017351D01*
X032496Y017351D01*
X032813Y017482D01*
X033056Y017725D01*
X033188Y018043D01*
X033188Y018386D01*
X033143Y018494D01*
X038444Y018494D01*
X039151Y017787D01*
X039151Y001701D01*
X038444Y000994D01*
X001358Y000994D01*
X001368Y001070D02*
X001552Y000994D01*
X001751Y000994D01*
X001934Y001070D01*
X002075Y001211D01*
X002151Y001394D01*
X002151Y001593D01*
X002075Y001777D01*
X001934Y001918D01*
X001751Y001994D01*
X001552Y001994D01*
X001368Y001918D01*
X001227Y001777D01*
X001151Y001593D01*
X001151Y001394D01*
X001227Y001211D01*
X001368Y001070D01*
X001353Y001085D02*
X001267Y001085D01*
X001254Y001184D02*
X001168Y001184D01*
X001198Y001282D02*
X001070Y001282D01*
X001157Y001381D02*
X000971Y001381D01*
X000873Y001479D02*
X001151Y001479D01*
X001151Y001578D02*
X000774Y001578D01*
X000676Y001676D02*
X001186Y001676D01*
X001226Y001775D02*
X000651Y001775D01*
X000651Y001873D02*
X001324Y001873D01*
X001499Y001972D02*
X000651Y001972D01*
X000651Y002071D02*
X002441Y002071D01*
X002441Y002169D02*
X000651Y002169D01*
X000651Y002268D02*
X002441Y002268D01*
X002441Y002366D02*
X000651Y002366D01*
X000651Y002465D02*
X002441Y002465D01*
X002441Y002563D02*
X000651Y002563D01*
X000651Y002662D02*
X002441Y002662D01*
X002441Y002760D02*
X000651Y002760D01*
X000651Y002859D02*
X002441Y002859D01*
X002441Y002957D02*
X000651Y002957D01*
X000651Y003056D02*
X002441Y003056D01*
X002441Y003155D02*
X000651Y003155D01*
X000651Y003253D02*
X002441Y003253D01*
X002441Y003352D02*
X000651Y003352D01*
X000651Y003450D02*
X002441Y003450D01*
X002441Y003549D02*
X000651Y003549D01*
X000651Y003647D02*
X002441Y003647D01*
X002441Y003746D02*
X000651Y003746D01*
X000651Y003844D02*
X002441Y003844D01*
X002441Y003943D02*
X000651Y003943D01*
X000651Y004041D02*
X002441Y004041D01*
X002441Y004081D02*
X002441Y001948D01*
X002368Y001918D01*
X002227Y001777D01*
X002151Y001593D01*
X002151Y001394D01*
X002227Y001211D01*
X002368Y001070D01*
X002552Y000994D01*
X002751Y000994D01*
X002934Y001070D01*
X003075Y001211D01*
X003151Y001394D01*
X003151Y001593D01*
X003075Y001777D01*
X002934Y001918D01*
X002861Y001948D01*
X002861Y003907D01*
X003441Y004487D01*
X003441Y001948D01*
X003368Y001918D01*
X003227Y001777D01*
X003151Y001593D01*
X003151Y001394D01*
X003227Y001211D01*
X003368Y001070D01*
X003552Y000994D01*
X003751Y000994D01*
X003934Y001070D01*
X004075Y001211D01*
X004151Y001394D01*
X004151Y001593D01*
X004075Y001777D01*
X003934Y001918D01*
X003861Y001948D01*
X003861Y004407D01*
X007238Y007784D01*
X007361Y007907D01*
X007361Y014515D01*
X007384Y014525D01*
X007520Y014661D01*
X007594Y014838D01*
X007594Y015030D01*
X007520Y015207D01*
X007384Y015343D01*
X007207Y015416D01*
X007015Y015416D01*
X006838Y015343D01*
X006702Y015207D01*
X006629Y015030D01*
X006629Y014838D01*
X006702Y014661D01*
X006838Y014525D01*
X006941Y014482D01*
X006941Y009866D01*
X006864Y009943D01*
X006687Y010016D01*
X006495Y010016D01*
X006318Y009943D01*
X006182Y009807D01*
X006109Y009630D01*
X006109Y009438D01*
X006182Y009261D01*
X006318Y009125D01*
X006495Y009051D01*
X006687Y009051D01*
X006864Y009125D01*
X006941Y009202D01*
X006941Y008081D01*
X005401Y006541D01*
X005401Y006621D01*
X005401Y010499D01*
X005464Y010525D01*
X005600Y010661D01*
X005674Y010838D01*
X005674Y011030D01*
X005600Y011207D01*
X005464Y011343D01*
X005287Y011416D01*
X005095Y011416D01*
X004918Y011343D01*
X004782Y011207D01*
X004709Y011030D01*
X004709Y010838D01*
X004782Y010661D01*
X004918Y010525D01*
X004981Y010499D01*
X004981Y006621D01*
X002564Y004204D01*
X002441Y004081D01*
X002500Y004140D02*
X000651Y004140D01*
X000651Y004239D02*
X002599Y004239D01*
X002697Y004337D02*
X000651Y004337D01*
X000651Y004436D02*
X002796Y004436D01*
X002894Y004534D02*
X000651Y004534D01*
X000651Y004633D02*
X002993Y004633D01*
X003092Y004731D02*
X000651Y004731D01*
X000651Y004830D02*
X003190Y004830D01*
X003289Y004928D02*
X000651Y004928D01*
X000651Y005027D02*
X003387Y005027D01*
X003486Y005125D02*
X000651Y005125D01*
X000651Y005224D02*
X003584Y005224D01*
X003683Y005322D02*
X000651Y005322D01*
X000651Y005421D02*
X003781Y005421D01*
X003880Y005520D02*
X000651Y005520D01*
X000651Y005618D02*
X002902Y005618D01*
X002838Y005645D02*
X003015Y005571D01*
X003207Y005571D01*
X003384Y005645D01*
X003520Y005781D01*
X003594Y005958D01*
X003594Y006150D01*
X003520Y006327D01*
X003384Y006463D01*
X003207Y006536D01*
X003015Y006536D01*
X002838Y006463D01*
X002702Y006327D01*
X002629Y006150D01*
X002629Y005958D01*
X002702Y005781D01*
X002838Y005645D01*
X002766Y005717D02*
X000651Y005717D01*
X000651Y005815D02*
X002688Y005815D01*
X002647Y005914D02*
X000651Y005914D01*
X000651Y006012D02*
X002629Y006012D01*
X002629Y006111D02*
X000651Y006111D01*
X000651Y006209D02*
X002653Y006209D01*
X002694Y006308D02*
X000651Y006308D01*
X000651Y006406D02*
X002781Y006406D01*
X002940Y006505D02*
X000651Y006505D01*
X000651Y006604D02*
X004964Y006604D01*
X004981Y006702D02*
X000651Y006702D01*
X000651Y006801D02*
X004981Y006801D01*
X004981Y006899D02*
X000651Y006899D01*
X000651Y006998D02*
X001551Y006998D01*
X001615Y006971D02*
X001807Y006971D01*
X001984Y007045D01*
X002120Y007181D01*
X002194Y007358D01*
X002194Y007550D01*
X002120Y007727D01*
X001984Y007863D01*
X001807Y007936D01*
X001615Y007936D01*
X001438Y007863D01*
X001302Y007727D01*
X001229Y007550D01*
X001229Y007358D01*
X001302Y007181D01*
X001438Y007045D01*
X001615Y006971D01*
X001871Y006998D02*
X004981Y006998D01*
X004981Y007096D02*
X002036Y007096D01*
X002126Y007195D02*
X004981Y007195D01*
X004981Y007293D02*
X002167Y007293D01*
X002194Y007392D02*
X004981Y007392D01*
X004981Y007490D02*
X002194Y007490D01*
X002177Y007589D02*
X004981Y007589D01*
X004981Y007688D02*
X002137Y007688D01*
X002061Y007786D02*
X004981Y007786D01*
X004981Y007885D02*
X001932Y007885D01*
X001490Y007885D02*
X000651Y007885D01*
X000651Y007983D02*
X004981Y007983D01*
X004981Y008082D02*
X000651Y008082D01*
X000651Y008180D02*
X004981Y008180D01*
X004981Y008279D02*
X000651Y008279D01*
X000651Y008377D02*
X004981Y008377D01*
X004981Y008476D02*
X000651Y008476D01*
X000651Y008574D02*
X004981Y008574D01*
X004981Y008673D02*
X000651Y008673D01*
X000651Y008771D02*
X004981Y008771D01*
X004981Y008870D02*
X000651Y008870D01*
X000651Y008969D02*
X004981Y008969D01*
X004981Y009067D02*
X000651Y009067D01*
X000651Y009166D02*
X004981Y009166D01*
X004981Y009264D02*
X000651Y009264D01*
X000651Y009363D02*
X004981Y009363D01*
X004981Y009461D02*
X000651Y009461D01*
X000651Y009560D02*
X004981Y009560D01*
X004981Y009658D02*
X000651Y009658D01*
X000651Y009757D02*
X004981Y009757D01*
X004981Y009855D02*
X000651Y009855D01*
X000651Y009954D02*
X004981Y009954D01*
X004981Y010053D02*
X000651Y010053D01*
X000651Y010151D02*
X004981Y010151D01*
X004981Y010250D02*
X000651Y010250D01*
X000651Y010348D02*
X004981Y010348D01*
X004981Y010447D02*
X000651Y010447D01*
X000651Y010545D02*
X004897Y010545D01*
X004799Y010644D02*
X000651Y010644D01*
X000651Y010742D02*
X004748Y010742D01*
X004709Y010841D02*
X000651Y010841D01*
X000651Y010939D02*
X004709Y010939D01*
X004712Y011038D02*
X000651Y011038D01*
X000651Y011137D02*
X004753Y011137D01*
X004810Y011235D02*
X000651Y011235D01*
X000651Y011334D02*
X004909Y011334D01*
X005474Y011334D02*
X006941Y011334D01*
X006941Y011432D02*
X000651Y011432D01*
X000651Y011531D02*
X006941Y011531D01*
X006941Y011629D02*
X000651Y011629D01*
X000651Y011728D02*
X006941Y011728D01*
X006941Y011826D02*
X000651Y011826D01*
X000651Y011925D02*
X006941Y011925D01*
X006941Y012023D02*
X000651Y012023D01*
X000651Y012122D02*
X006941Y012122D01*
X006941Y012221D02*
X000651Y012221D01*
X000651Y012319D02*
X006941Y012319D01*
X006941Y012418D02*
X000651Y012418D01*
X000651Y012516D02*
X006941Y012516D01*
X006941Y012615D02*
X000651Y012615D01*
X000651Y012713D02*
X006941Y012713D01*
X006941Y012812D02*
X000651Y012812D01*
X000651Y012910D02*
X006941Y012910D01*
X006941Y013009D02*
X000651Y013009D01*
X000651Y013107D02*
X005480Y013107D01*
X005438Y013125D02*
X005615Y013051D01*
X005807Y013051D01*
X005984Y013125D01*
X006120Y013261D01*
X006194Y013438D01*
X006194Y013630D01*
X006120Y013807D01*
X005984Y013943D01*
X005807Y014016D01*
X005615Y014016D01*
X005438Y013943D01*
X005302Y013807D01*
X005229Y013630D01*
X005229Y013438D01*
X005302Y013261D01*
X005438Y013125D01*
X005357Y013206D02*
X000651Y013206D01*
X000651Y013304D02*
X005284Y013304D01*
X005243Y013403D02*
X000651Y013403D01*
X000651Y013502D02*
X005229Y013502D01*
X005229Y013600D02*
X000651Y013600D01*
X000651Y013699D02*
X005257Y013699D01*
X005298Y013797D02*
X000651Y013797D01*
X000651Y013896D02*
X005391Y013896D01*
X005562Y013994D02*
X000651Y013994D01*
X000651Y014093D02*
X006941Y014093D01*
X006941Y014191D02*
X000651Y014191D01*
X000651Y014290D02*
X001047Y014290D01*
X001086Y014274D02*
X001257Y014274D01*
X001415Y014339D01*
X001536Y014460D01*
X001601Y014618D01*
X001601Y014789D01*
X001536Y014947D01*
X001415Y015068D01*
X001257Y015134D01*
X001086Y015134D01*
X000928Y015068D01*
X000807Y014947D01*
X000741Y014789D01*
X000741Y014618D01*
X000807Y014460D01*
X000928Y014339D01*
X001086Y014274D01*
X001295Y014290D02*
X003607Y014290D01*
X003646Y014274D02*
X003817Y014274D01*
X003975Y014339D01*
X004096Y014460D01*
X004161Y014618D01*
X004161Y014789D01*
X004096Y014947D01*
X003975Y015068D01*
X003817Y015134D01*
X003646Y015134D01*
X003488Y015068D01*
X003367Y014947D01*
X003301Y014789D01*
X003301Y014618D01*
X003367Y014460D01*
X003488Y014339D01*
X003646Y014274D01*
X003855Y014290D02*
X006941Y014290D01*
X006941Y014388D02*
X004024Y014388D01*
X004107Y014487D02*
X006929Y014487D01*
X006777Y014586D02*
X004148Y014586D01*
X004161Y014684D02*
X006692Y014684D01*
X006651Y014783D02*
X004161Y014783D01*
X004123Y014881D02*
X006629Y014881D01*
X006629Y014980D02*
X004063Y014980D01*
X003951Y015078D02*
X006649Y015078D01*
X006690Y015177D02*
X000651Y015177D01*
X000651Y015275D02*
X006770Y015275D01*
X006913Y015374D02*
X000651Y015374D01*
X000651Y015472D02*
X010933Y015472D01*
X010974Y015374D02*
X007310Y015374D01*
X007452Y015275D02*
X011014Y015275D01*
X011021Y015260D02*
X011280Y015001D01*
X011618Y014861D01*
X011984Y014861D01*
X012322Y015001D01*
X012581Y015260D01*
X012721Y015598D01*
X012721Y015964D01*
X012581Y016302D01*
X012322Y016561D01*
X011984Y016701D01*
X011618Y016701D01*
X011280Y016561D01*
X011021Y016302D01*
X010881Y015964D01*
X010881Y015598D01*
X011021Y015260D01*
X011104Y015177D02*
X007533Y015177D01*
X007574Y015078D02*
X011203Y015078D01*
X011332Y014980D02*
X007594Y014980D01*
X007594Y014881D02*
X011570Y014881D01*
X012032Y014881D02*
X012772Y014881D01*
X012731Y014783D02*
X012731Y014417D01*
X012871Y014079D01*
X013130Y013820D01*
X013468Y013680D01*
X013834Y013680D01*
X014172Y013820D01*
X014431Y014079D01*
X014571Y014417D01*
X014571Y014783D01*
X014431Y015121D01*
X014172Y015380D01*
X013834Y015520D01*
X013468Y015520D01*
X013130Y015380D01*
X012871Y015121D01*
X012731Y014783D01*
X007571Y014783D01*
X007530Y014684D02*
X012731Y014684D01*
X012731Y014586D02*
X007445Y014586D01*
X007361Y014487D02*
X012731Y014487D01*
X012743Y014388D02*
X007361Y014388D01*
X007361Y014290D02*
X012784Y014290D01*
X012825Y014191D02*
X007361Y014191D01*
X007361Y014093D02*
X012865Y014093D01*
X012956Y013994D02*
X007361Y013994D01*
X007361Y013896D02*
X013054Y013896D01*
X013186Y013797D02*
X007361Y013797D01*
X007361Y013699D02*
X013423Y013699D01*
X013879Y013699D02*
X016205Y013699D01*
X016191Y013684D02*
X016191Y013303D01*
X016441Y013053D01*
X016441Y009907D01*
X016564Y009784D01*
X016847Y009501D01*
X016821Y009475D01*
X016761Y009331D01*
X016761Y008656D01*
X016821Y008513D01*
X016930Y008403D01*
X017074Y008344D01*
X017229Y008344D01*
X017372Y008403D01*
X017441Y008472D01*
X017441Y007581D01*
X016064Y006204D01*
X014738Y006204D01*
X014564Y006204D01*
X012941Y004581D01*
X012941Y004407D01*
X012941Y002407D01*
X013064Y002284D01*
X013564Y001784D01*
X013738Y001784D01*
X014697Y001784D01*
X014727Y001711D01*
X014868Y001570D01*
X015028Y001504D01*
X011438Y001504D01*
X009738Y003204D01*
X009564Y003204D01*
X006564Y003204D01*
X006441Y003081D01*
X005441Y002081D01*
X005441Y001948D01*
X005368Y001918D01*
X005227Y001777D01*
X005151Y001593D01*
X005075Y001777D01*
X004934Y001918D01*
X004751Y001994D01*
X004552Y001994D01*
X004368Y001918D01*
X004227Y001777D01*
X004151Y001593D01*
X004151Y001394D01*
X004227Y001211D01*
X004368Y001070D01*
X004552Y000994D01*
X004751Y000994D01*
X004934Y001070D01*
X005075Y001211D01*
X005151Y001394D01*
X005151Y001593D01*
X005151Y001394D01*
X005227Y001211D01*
X005368Y001070D01*
X005552Y000994D01*
X005751Y000994D01*
X005934Y001070D01*
X006075Y001211D01*
X006151Y001394D01*
X006151Y001593D01*
X006075Y001777D01*
X005934Y001918D01*
X005890Y001936D01*
X006738Y002784D01*
X009564Y002784D01*
X011264Y001084D01*
X011438Y001084D01*
X021564Y001084D01*
X021738Y001084D01*
X022438Y001784D01*
X031738Y001784D01*
X031861Y001907D01*
X032861Y002907D01*
X032861Y003081D01*
X032861Y004407D01*
X032861Y004581D01*
X032361Y005081D01*
X032361Y006407D01*
X033238Y007284D01*
X036504Y007284D01*
X036678Y007284D01*
X037452Y008058D01*
X037515Y008031D01*
X037707Y008031D01*
X037884Y008105D01*
X038020Y008241D01*
X038094Y008418D01*
X038094Y008610D01*
X038020Y008787D01*
X037884Y008923D01*
X037707Y008996D01*
X037515Y008996D01*
X037452Y008970D01*
X036718Y009704D01*
X036544Y009704D01*
X031238Y009704D01*
X029455Y011487D01*
X029482Y011513D01*
X029541Y011656D01*
X029541Y012331D01*
X029482Y012475D01*
X029372Y012584D01*
X029229Y012644D01*
X029074Y012644D01*
X028930Y012584D01*
X028861Y012515D01*
X028861Y012581D01*
X028738Y012704D01*
X028238Y013204D01*
X028064Y013204D01*
X027064Y013204D01*
X026941Y013081D01*
X026408Y012548D01*
X026372Y012584D01*
X026229Y012644D01*
X026074Y012644D01*
X025930Y012584D01*
X025861Y012515D01*
X025861Y014407D01*
X025861Y014581D01*
X025554Y014888D01*
X025707Y015040D01*
X025807Y015281D01*
X025807Y015541D01*
X025707Y015782D01*
X025523Y015966D01*
X025282Y016066D01*
X025021Y016066D01*
X024781Y015966D01*
X024597Y015782D01*
X024497Y015541D01*
X024497Y015281D01*
X024597Y015040D01*
X024781Y014856D01*
X025021Y014756D01*
X025092Y014756D01*
X025441Y014407D01*
X025441Y012544D01*
X025383Y012601D01*
X025233Y012664D01*
X025181Y012664D01*
X025181Y012024D01*
X025121Y012024D01*
X025121Y012664D01*
X025070Y012664D01*
X024919Y012601D01*
X024804Y012486D01*
X024741Y012335D01*
X024741Y012024D01*
X025121Y012024D01*
X025121Y011964D01*
X024741Y011964D01*
X024741Y011652D01*
X024804Y011502D01*
X024919Y011386D01*
X025070Y011324D01*
X025121Y011324D01*
X025121Y011964D01*
X025181Y011964D01*
X025181Y011324D01*
X025233Y011324D01*
X025383Y011386D01*
X025441Y011444D01*
X025441Y011407D01*
X025564Y011284D01*
X026064Y010784D01*
X026238Y010784D01*
X027238Y010784D01*
X027361Y010907D01*
X027894Y011440D01*
X027930Y011403D01*
X028074Y011344D01*
X028229Y011344D01*
X028372Y011403D01*
X028441Y011472D01*
X028441Y011407D01*
X030204Y009644D01*
X030074Y009644D01*
X029930Y009584D01*
X029821Y009475D01*
X029761Y009331D01*
X029761Y008656D01*
X029821Y008513D01*
X029930Y008403D01*
X029955Y008393D01*
X030441Y007907D01*
X030441Y007755D01*
X030313Y007884D01*
X029990Y007884D01*
X029761Y007655D01*
X029761Y007401D01*
X029564Y007204D01*
X028501Y007204D01*
X028501Y007283D01*
X028448Y007412D01*
X028349Y007511D01*
X028221Y007564D01*
X028082Y007564D01*
X027953Y007511D01*
X027942Y007500D01*
X027098Y008344D01*
X027229Y008344D01*
X027372Y008403D01*
X027482Y008513D01*
X027541Y008656D01*
X027541Y009331D01*
X027482Y009475D01*
X027372Y009584D01*
X027229Y009644D01*
X027074Y009644D01*
X026930Y009584D01*
X026821Y009475D01*
X026761Y009331D01*
X026761Y008681D01*
X026541Y008901D01*
X026541Y009331D01*
X026482Y009475D01*
X026372Y009584D01*
X026229Y009644D01*
X026074Y009644D01*
X025930Y009584D01*
X025821Y009475D01*
X025761Y009331D01*
X025761Y008656D01*
X025821Y008513D01*
X025930Y008403D01*
X026074Y008344D01*
X026229Y008344D01*
X026372Y008403D01*
X026408Y008440D01*
X027801Y007047D01*
X027801Y006704D01*
X027854Y006576D01*
X027953Y006477D01*
X028082Y006424D01*
X028221Y006424D01*
X028349Y006477D01*
X028448Y006576D01*
X028501Y006704D01*
X028501Y006784D01*
X029564Y006784D01*
X029738Y006784D01*
X030058Y007104D01*
X030313Y007104D01*
X030441Y007232D01*
X030441Y007081D01*
X029564Y006204D01*
X029441Y006081D01*
X029441Y004448D01*
X029368Y004418D01*
X029227Y004277D01*
X029151Y004093D01*
X029075Y004277D01*
X028934Y004418D01*
X028751Y004494D01*
X028552Y004494D01*
X028368Y004418D01*
X028227Y004277D01*
X028162Y004119D01*
X028092Y004288D01*
X027946Y004435D01*
X027755Y004514D01*
X027701Y004514D01*
X027701Y004044D01*
X027601Y004044D01*
X027601Y004514D01*
X027548Y004514D01*
X027357Y004435D01*
X027210Y004288D01*
X027140Y004119D01*
X027075Y004277D01*
X026934Y004418D01*
X026751Y004494D01*
X026552Y004494D01*
X026368Y004418D01*
X026227Y004277D01*
X026151Y004093D01*
X026075Y004277D01*
X025934Y004418D01*
X025861Y004448D01*
X025861Y004581D01*
X025738Y004704D01*
X024861Y005581D01*
X024861Y008472D01*
X024930Y008403D01*
X024941Y008399D01*
X024941Y008081D01*
X024941Y007907D01*
X025801Y007047D01*
X025801Y006704D01*
X025854Y006576D01*
X025941Y006489D01*
X025941Y005835D01*
X025761Y005655D01*
X025761Y005332D01*
X025990Y005104D01*
X026313Y005104D01*
X026541Y005332D01*
X026541Y005655D01*
X026361Y005835D01*
X026361Y006489D01*
X026448Y006576D01*
X026501Y006704D01*
X026501Y007283D01*
X026448Y007412D01*
X026349Y007511D01*
X026221Y007564D01*
X026082Y007564D01*
X025953Y007511D01*
X025942Y007500D01*
X025361Y008081D01*
X025361Y008399D01*
X025372Y008403D01*
X025482Y008513D01*
X025541Y008656D01*
X025541Y009331D01*
X025482Y009475D01*
X025372Y009584D01*
X025229Y009644D01*
X025074Y009644D01*
X024930Y009584D01*
X024861Y009515D01*
X024861Y011081D01*
X024738Y011204D01*
X024455Y011487D01*
X024482Y011513D01*
X024541Y011656D01*
X024541Y012331D01*
X024482Y012475D01*
X024372Y012584D01*
X024229Y012644D01*
X024074Y012644D01*
X023930Y012584D01*
X023821Y012475D01*
X023761Y012331D01*
X023761Y011656D01*
X023821Y011513D01*
X023930Y011403D01*
X023955Y011393D01*
X024064Y011284D01*
X024064Y011284D01*
X024441Y010907D01*
X024441Y009515D01*
X024372Y009584D01*
X024229Y009644D01*
X024074Y009644D01*
X023930Y009584D01*
X023821Y009475D01*
X023761Y009331D01*
X023761Y008656D01*
X023821Y008513D01*
X023930Y008403D01*
X024074Y008344D01*
X024229Y008344D01*
X024372Y008403D01*
X024441Y008472D01*
X024441Y007854D01*
X024342Y007954D01*
X023961Y007954D01*
X023691Y007684D01*
X023691Y007303D01*
X023961Y007034D01*
X024342Y007034D01*
X024441Y007133D01*
X024441Y005581D01*
X024441Y005407D01*
X025412Y004436D01*
X025368Y004418D01*
X025227Y004277D01*
X025151Y004093D01*
X025075Y004277D01*
X024934Y004418D01*
X024861Y004448D01*
X024861Y004581D01*
X024738Y004704D01*
X022361Y007081D01*
X022361Y007907D01*
X022701Y008247D01*
X022701Y007804D01*
X022702Y007803D01*
X022702Y007723D01*
X022671Y007693D01*
X022671Y007524D01*
X023121Y007524D01*
X023121Y007974D01*
X023080Y007974D01*
X023080Y008324D01*
X023121Y008324D01*
X023121Y008964D01*
X023181Y008964D01*
X023181Y008324D01*
X023223Y008324D01*
X023223Y007974D01*
X023181Y007974D01*
X023181Y007524D01*
X023121Y007524D01*
X023121Y007464D01*
X022671Y007464D01*
X022671Y007295D01*
X022952Y007014D01*
X023121Y007014D01*
X023121Y007464D01*
X023181Y007464D01*
X023181Y007524D01*
X023631Y007524D01*
X023631Y007693D01*
X023612Y007712D01*
X023612Y007845D01*
X023612Y007845D01*
X023612Y008514D01*
X023611Y008515D01*
X023611Y009257D01*
X023616Y009264D01*
X023761Y009264D01*
X023761Y009166D02*
X023611Y009166D01*
X023616Y009264D02*
X023611Y009302D01*
X023611Y009339D01*
X023605Y009346D01*
X023594Y009421D01*
X023464Y009604D01*
X023464Y009604D01*
X023464Y009604D01*
X023264Y009707D01*
X023264Y009707D01*
X023039Y009707D01*
X022861Y009616D01*
X022861Y010407D01*
X022861Y010581D01*
X022361Y011081D01*
X022361Y011399D01*
X022372Y011403D01*
X022482Y011513D01*
X022541Y011656D01*
X022541Y012331D01*
X022482Y012475D01*
X022372Y012584D01*
X022229Y012644D01*
X022074Y012644D01*
X021930Y012584D01*
X021821Y012475D01*
X021761Y012331D01*
X021761Y011656D01*
X021821Y011513D01*
X021930Y011403D01*
X021941Y011399D01*
X021941Y010907D01*
X022064Y010784D01*
X022441Y010407D01*
X022441Y009515D01*
X022372Y009584D01*
X022229Y009644D01*
X022074Y009644D01*
X021930Y009584D01*
X021861Y009515D01*
X021861Y010581D01*
X021738Y010704D01*
X021361Y011081D01*
X021361Y011399D01*
X021372Y011403D01*
X021482Y011513D01*
X021541Y011656D01*
X021541Y012331D01*
X021482Y012475D01*
X021372Y012584D01*
X021229Y012644D01*
X021074Y012644D01*
X020930Y012584D01*
X020821Y012475D01*
X020761Y012331D01*
X020761Y011656D01*
X020821Y011513D01*
X020930Y011403D01*
X020941Y011399D01*
X020941Y010907D01*
X021064Y010784D01*
X021441Y010407D01*
X021441Y009515D01*
X021372Y009584D01*
X021229Y009644D01*
X021074Y009644D01*
X020930Y009584D01*
X020861Y009515D01*
X020861Y009581D01*
X020738Y009704D01*
X020361Y010081D01*
X020361Y011399D01*
X020372Y011403D01*
X020482Y011513D01*
X020541Y011656D01*
X020541Y012331D01*
X020482Y012475D01*
X020372Y012584D01*
X020229Y012644D01*
X020074Y012644D01*
X019930Y012584D01*
X019821Y012475D01*
X019761Y012331D01*
X019761Y011656D01*
X019821Y011513D01*
X019930Y011403D01*
X019941Y011399D01*
X019941Y010081D01*
X019941Y009907D01*
X020204Y009644D01*
X020074Y009644D01*
X019930Y009584D01*
X019861Y009515D01*
X019861Y010907D01*
X019861Y011081D01*
X019455Y011487D01*
X019482Y011513D01*
X019541Y011656D01*
X019541Y012331D01*
X019482Y012475D01*
X019372Y012584D01*
X019229Y012644D01*
X019098Y012644D01*
X020738Y014284D01*
X020861Y014407D01*
X020861Y014540D01*
X020934Y014570D01*
X021075Y014711D01*
X021151Y014894D01*
X021151Y015093D01*
X021075Y015277D01*
X020934Y015418D01*
X020751Y015494D01*
X020552Y015494D01*
X020368Y015418D01*
X020227Y015277D01*
X020151Y015093D01*
X020075Y015277D01*
X019934Y015418D01*
X019751Y015494D01*
X019552Y015494D01*
X019368Y015418D01*
X019227Y015277D01*
X019162Y015119D01*
X019092Y015288D01*
X018946Y015435D01*
X018755Y015514D01*
X018701Y015514D01*
X018701Y015044D01*
X018601Y015044D01*
X018601Y015514D01*
X018548Y015514D01*
X018357Y015435D01*
X018210Y015288D01*
X018140Y015119D01*
X018075Y015277D01*
X017934Y015418D01*
X017751Y015494D01*
X017552Y015494D01*
X017368Y015418D01*
X017227Y015277D01*
X017151Y015093D01*
X017075Y015277D01*
X016934Y015418D01*
X016751Y015494D01*
X016552Y015494D01*
X016368Y015418D01*
X016227Y015277D01*
X016151Y015093D01*
X016151Y014894D01*
X016227Y014711D01*
X016368Y014570D01*
X016552Y014494D01*
X016751Y014494D01*
X016934Y014570D01*
X017075Y014711D01*
X017151Y014894D01*
X017151Y015093D01*
X017151Y014894D01*
X017227Y014711D01*
X017368Y014570D01*
X017552Y014494D01*
X017751Y014494D01*
X017934Y014570D01*
X018075Y014711D01*
X018140Y014868D01*
X018210Y014699D01*
X018357Y014553D01*
X018548Y014474D01*
X018601Y014474D01*
X018601Y014944D01*
X018701Y014944D01*
X018701Y014474D01*
X018755Y014474D01*
X018891Y014530D01*
X018814Y014454D01*
X018314Y014454D01*
X018191Y014331D01*
X018064Y014204D01*
X017941Y014081D01*
X017941Y013854D01*
X017842Y013954D01*
X017461Y013954D01*
X017191Y013684D01*
X017191Y013303D01*
X017461Y013034D01*
X017842Y013034D01*
X017941Y013133D01*
X017941Y013081D01*
X017564Y012704D01*
X017441Y012581D01*
X017441Y012515D01*
X017372Y012584D01*
X017229Y012644D01*
X017074Y012644D01*
X016930Y012584D01*
X016861Y012515D01*
X016861Y013053D01*
X017111Y013303D01*
X017111Y013684D01*
X016842Y013954D01*
X016461Y013954D01*
X016191Y013684D01*
X016191Y013600D02*
X007361Y013600D01*
X007361Y013502D02*
X016191Y013502D01*
X016191Y013403D02*
X007361Y013403D01*
X007361Y013304D02*
X016191Y013304D01*
X016289Y013206D02*
X007361Y013206D01*
X007361Y013107D02*
X016387Y013107D01*
X016441Y013009D02*
X007361Y013009D01*
X007361Y012910D02*
X016441Y012910D01*
X016441Y012812D02*
X007361Y012812D01*
X007361Y012713D02*
X016441Y012713D01*
X016441Y012615D02*
X007361Y012615D01*
X007361Y012516D02*
X016441Y012516D01*
X016441Y012418D02*
X007361Y012418D01*
X007361Y012319D02*
X016441Y012319D01*
X016441Y012221D02*
X007361Y012221D01*
X007361Y012122D02*
X016441Y012122D01*
X016441Y012023D02*
X007361Y012023D01*
X007361Y011925D02*
X010468Y011925D01*
X010495Y011936D02*
X010318Y011863D01*
X010182Y011727D01*
X010109Y011550D01*
X010109Y011358D01*
X010182Y011181D01*
X010318Y011045D01*
X010495Y010971D01*
X010687Y010971D01*
X010864Y011045D01*
X011000Y011181D01*
X011074Y011358D01*
X011074Y011550D01*
X011000Y011727D01*
X010864Y011863D01*
X010687Y011936D01*
X010495Y011936D01*
X010715Y011925D02*
X016441Y011925D01*
X016441Y011826D02*
X010901Y011826D01*
X011000Y011728D02*
X016441Y011728D01*
X016441Y011629D02*
X011041Y011629D01*
X011074Y011531D02*
X016441Y011531D01*
X016441Y011432D02*
X011074Y011432D01*
X011064Y011334D02*
X012909Y011334D01*
X012918Y011343D02*
X012782Y011207D01*
X012709Y011030D01*
X012709Y010838D01*
X012782Y010661D01*
X012918Y010525D01*
X013095Y010451D01*
X013287Y010451D01*
X013464Y010525D01*
X013600Y010661D01*
X013674Y010838D01*
X013674Y011030D01*
X013600Y011207D01*
X013464Y011343D01*
X013287Y011416D01*
X013095Y011416D01*
X012918Y011343D01*
X012810Y011235D02*
X011023Y011235D01*
X010956Y011137D02*
X012753Y011137D01*
X012712Y011038D02*
X010848Y011038D01*
X010334Y011038D02*
X007361Y011038D01*
X007361Y011137D02*
X010226Y011137D01*
X010159Y011235D02*
X007361Y011235D01*
X007361Y011334D02*
X010119Y011334D01*
X010109Y011432D02*
X007361Y011432D01*
X007361Y011531D02*
X010109Y011531D01*
X010142Y011629D02*
X007361Y011629D01*
X007361Y011728D02*
X010183Y011728D01*
X010281Y011826D02*
X007361Y011826D01*
X006941Y011235D02*
X005572Y011235D01*
X005629Y011137D02*
X006941Y011137D01*
X006941Y011038D02*
X005670Y011038D01*
X005674Y010939D02*
X006941Y010939D01*
X006941Y010841D02*
X005674Y010841D01*
X005634Y010742D02*
X006941Y010742D01*
X006941Y010644D02*
X005584Y010644D01*
X005485Y010545D02*
X006941Y010545D01*
X006941Y010447D02*
X005401Y010447D01*
X005401Y010348D02*
X006941Y010348D01*
X006941Y010250D02*
X005401Y010250D01*
X005401Y010151D02*
X006941Y010151D01*
X006941Y010053D02*
X005401Y010053D01*
X005401Y009954D02*
X006345Y009954D01*
X006230Y009855D02*
X005401Y009855D01*
X005401Y009757D02*
X006161Y009757D01*
X006121Y009658D02*
X005401Y009658D01*
X005401Y009560D02*
X006109Y009560D01*
X006109Y009461D02*
X005401Y009461D01*
X005401Y009363D02*
X006140Y009363D01*
X006181Y009264D02*
X005401Y009264D01*
X005401Y009166D02*
X006277Y009166D01*
X006457Y009067D02*
X005401Y009067D01*
X005401Y008969D02*
X006941Y008969D01*
X006941Y009067D02*
X006725Y009067D01*
X006905Y009166D02*
X006941Y009166D01*
X006941Y008870D02*
X005401Y008870D01*
X005401Y008771D02*
X006941Y008771D01*
X006941Y008673D02*
X005401Y008673D01*
X005401Y008574D02*
X006941Y008574D01*
X006941Y008476D02*
X005401Y008476D01*
X005401Y008377D02*
X006941Y008377D01*
X006941Y008279D02*
X005401Y008279D01*
X005401Y008180D02*
X006941Y008180D01*
X006941Y008082D02*
X005401Y008082D01*
X005401Y007983D02*
X006844Y007983D01*
X006745Y007885D02*
X005401Y007885D01*
X005401Y007786D02*
X006646Y007786D01*
X006548Y007688D02*
X005401Y007688D01*
X005401Y007589D02*
X006449Y007589D01*
X006351Y007490D02*
X005401Y007490D01*
X005401Y007392D02*
X006252Y007392D01*
X006154Y007293D02*
X005401Y007293D01*
X005401Y007195D02*
X006055Y007195D01*
X005957Y007096D02*
X005401Y007096D01*
X005401Y006998D02*
X005858Y006998D01*
X005760Y006899D02*
X005401Y006899D01*
X005401Y006801D02*
X005661Y006801D01*
X005562Y006702D02*
X005401Y006702D01*
X005401Y006604D02*
X005464Y006604D01*
X005762Y006308D02*
X010694Y006308D01*
X010702Y006327D02*
X010629Y006150D01*
X010629Y005958D01*
X010702Y005781D01*
X010838Y005645D01*
X011015Y005571D01*
X011207Y005571D01*
X011384Y005645D01*
X011520Y005781D01*
X011594Y005958D01*
X011594Y006150D01*
X011520Y006327D01*
X011384Y006463D01*
X011207Y006536D01*
X011015Y006536D01*
X010838Y006463D01*
X010702Y006327D01*
X010781Y006406D02*
X005861Y006406D01*
X005959Y006505D02*
X006886Y006505D01*
X006838Y006525D02*
X007015Y006451D01*
X007207Y006451D01*
X007384Y006525D01*
X007520Y006661D01*
X007594Y006838D01*
X007594Y007030D01*
X007520Y007207D01*
X007384Y007343D01*
X007207Y007416D01*
X007015Y007416D01*
X006838Y007343D01*
X006702Y007207D01*
X006629Y007030D01*
X006629Y006838D01*
X006702Y006661D01*
X006838Y006525D01*
X006759Y006604D02*
X006058Y006604D01*
X006156Y006702D02*
X006685Y006702D01*
X006644Y006801D02*
X006255Y006801D01*
X006353Y006899D02*
X006629Y006899D01*
X006629Y006998D02*
X006452Y006998D01*
X006551Y007096D02*
X006656Y007096D01*
X006649Y007195D02*
X006697Y007195D01*
X006748Y007293D02*
X006788Y007293D01*
X006846Y007392D02*
X006956Y007392D01*
X006945Y007490D02*
X009229Y007490D01*
X009229Y007550D02*
X009229Y007358D01*
X009302Y007181D01*
X009438Y007045D01*
X009615Y006971D01*
X009807Y006971D01*
X009984Y007045D01*
X010120Y007181D01*
X010194Y007358D01*
X010194Y007550D01*
X010120Y007727D01*
X009984Y007863D01*
X009807Y007936D01*
X009615Y007936D01*
X009438Y007863D01*
X009302Y007727D01*
X009229Y007550D01*
X009245Y007589D02*
X007043Y007589D01*
X007142Y007688D02*
X009286Y007688D01*
X009361Y007786D02*
X007240Y007786D01*
X007339Y007885D02*
X009490Y007885D01*
X009932Y007885D02*
X017441Y007885D01*
X017441Y007983D02*
X007361Y007983D01*
X007361Y008082D02*
X017441Y008082D01*
X017441Y008180D02*
X007361Y008180D01*
X007361Y008279D02*
X017441Y008279D01*
X017441Y008377D02*
X017310Y008377D01*
X016993Y008377D02*
X007361Y008377D01*
X007361Y008476D02*
X016858Y008476D01*
X016795Y008574D02*
X007361Y008574D01*
X007361Y008673D02*
X016761Y008673D01*
X016761Y008771D02*
X007361Y008771D01*
X007361Y008870D02*
X016761Y008870D01*
X016761Y008969D02*
X007361Y008969D01*
X007361Y009067D02*
X014457Y009067D01*
X014495Y009051D02*
X014687Y009051D01*
X014864Y009125D01*
X015000Y009261D01*
X015074Y009438D01*
X015074Y009630D01*
X015000Y009807D01*
X014864Y009943D01*
X014687Y010016D01*
X014495Y010016D01*
X014318Y009943D01*
X014182Y009807D01*
X014109Y009630D01*
X014109Y009438D01*
X014182Y009261D01*
X014318Y009125D01*
X014495Y009051D01*
X014725Y009067D02*
X016761Y009067D01*
X016761Y009166D02*
X014905Y009166D01*
X015002Y009264D02*
X016761Y009264D01*
X016774Y009363D02*
X015043Y009363D01*
X015074Y009461D02*
X016815Y009461D01*
X016788Y009560D02*
X015074Y009560D01*
X015062Y009658D02*
X016690Y009658D01*
X016591Y009757D02*
X015021Y009757D01*
X014952Y009855D02*
X016493Y009855D01*
X016441Y009954D02*
X014838Y009954D01*
X014345Y009954D02*
X009672Y009954D01*
X009674Y009958D02*
X009600Y009781D01*
X009464Y009645D01*
X009287Y009571D01*
X009095Y009571D01*
X008918Y009645D01*
X008782Y009781D01*
X008709Y009958D01*
X008709Y010150D01*
X008782Y010327D01*
X008918Y010463D01*
X009095Y010536D01*
X009287Y010536D01*
X009464Y010463D01*
X009600Y010327D01*
X009674Y010150D01*
X009674Y009958D01*
X009674Y010053D02*
X016441Y010053D01*
X016441Y010151D02*
X009673Y010151D01*
X009632Y010250D02*
X016441Y010250D01*
X016441Y010348D02*
X009579Y010348D01*
X009481Y010447D02*
X016441Y010447D01*
X016441Y010545D02*
X013485Y010545D01*
X013584Y010644D02*
X016441Y010644D01*
X016441Y010742D02*
X013634Y010742D01*
X013674Y010841D02*
X016441Y010841D01*
X016441Y010939D02*
X013674Y010939D01*
X013670Y011038D02*
X016441Y011038D01*
X016441Y011137D02*
X013629Y011137D01*
X013572Y011235D02*
X016441Y011235D01*
X016441Y011334D02*
X013474Y011334D01*
X012709Y010939D02*
X007361Y010939D01*
X007361Y010841D02*
X012709Y010841D01*
X012748Y010742D02*
X007361Y010742D01*
X007361Y010644D02*
X012799Y010644D01*
X012897Y010545D02*
X007361Y010545D01*
X007361Y010447D02*
X008902Y010447D01*
X008803Y010348D02*
X007361Y010348D01*
X007361Y010250D02*
X008750Y010250D01*
X008709Y010151D02*
X007361Y010151D01*
X007361Y010053D02*
X008709Y010053D01*
X008710Y009954D02*
X007361Y009954D01*
X007361Y009855D02*
X008751Y009855D01*
X008806Y009757D02*
X007361Y009757D01*
X007361Y009658D02*
X008904Y009658D01*
X009478Y009658D02*
X014121Y009658D01*
X014109Y009560D02*
X007361Y009560D01*
X007361Y009461D02*
X014109Y009461D01*
X014140Y009363D02*
X007361Y009363D01*
X007361Y009264D02*
X014181Y009264D01*
X014277Y009166D02*
X007361Y009166D01*
X006941Y009954D02*
X006838Y009954D01*
X009577Y009757D02*
X014161Y009757D01*
X014230Y009855D02*
X009631Y009855D01*
X010061Y007786D02*
X017441Y007786D01*
X017441Y007688D02*
X010137Y007688D01*
X010177Y007589D02*
X017441Y007589D01*
X017351Y007490D02*
X010194Y007490D01*
X010194Y007392D02*
X017252Y007392D01*
X017154Y007293D02*
X010167Y007293D01*
X010126Y007195D02*
X017055Y007195D01*
X016957Y007096D02*
X010036Y007096D01*
X009871Y006998D02*
X016858Y006998D01*
X016760Y006899D02*
X007594Y006899D01*
X007594Y006998D02*
X009551Y006998D01*
X009386Y007096D02*
X007566Y007096D01*
X007525Y007195D02*
X009296Y007195D01*
X009255Y007293D02*
X007434Y007293D01*
X007266Y007392D02*
X009229Y007392D01*
X007578Y006801D02*
X016661Y006801D01*
X016562Y006702D02*
X007537Y006702D01*
X007463Y006604D02*
X016464Y006604D01*
X016365Y006505D02*
X011283Y006505D01*
X011441Y006406D02*
X016267Y006406D01*
X016168Y006308D02*
X011528Y006308D01*
X011569Y006209D02*
X016070Y006209D01*
X016368Y005914D02*
X016441Y005914D01*
X016441Y005987D02*
X016441Y003581D01*
X016064Y003204D01*
X015605Y003204D01*
X015575Y003277D01*
X015434Y003418D01*
X015277Y003483D01*
X015446Y003553D01*
X015592Y003699D01*
X015671Y003890D01*
X015671Y003944D01*
X015201Y003944D01*
X015201Y004044D01*
X015671Y004044D01*
X015671Y004097D01*
X015592Y004288D01*
X015446Y004435D01*
X015277Y004505D01*
X015434Y004570D01*
X015575Y004711D01*
X015651Y004894D01*
X015651Y005093D01*
X015575Y005277D01*
X015434Y005418D01*
X015251Y005494D01*
X015052Y005494D01*
X014868Y005418D01*
X014727Y005277D01*
X014651Y005093D01*
X014651Y004894D01*
X014727Y004711D01*
X014868Y004570D01*
X015026Y004505D01*
X014857Y004435D01*
X014710Y004288D01*
X014631Y004097D01*
X014631Y004044D01*
X015101Y004044D01*
X015101Y003944D01*
X014631Y003944D01*
X014631Y003890D01*
X014710Y003699D01*
X014857Y003553D01*
X015026Y003483D01*
X014868Y003418D01*
X014727Y003277D01*
X014651Y003093D01*
X014651Y002894D01*
X014727Y002711D01*
X014868Y002570D01*
X015052Y002494D01*
X015251Y002494D01*
X015434Y002570D01*
X015575Y002711D01*
X015605Y002784D01*
X016238Y002784D01*
X016361Y002907D01*
X016861Y003407D01*
X016861Y003581D01*
X016861Y005907D01*
X018861Y007907D01*
X018861Y008081D01*
X018861Y008472D01*
X018930Y008403D01*
X019074Y008344D01*
X019229Y008344D01*
X019372Y008403D01*
X019441Y008472D01*
X019441Y007907D01*
X019564Y007784D01*
X020441Y006907D01*
X020441Y005948D01*
X020368Y005918D01*
X020227Y005777D01*
X020151Y005593D01*
X020075Y005777D01*
X019934Y005918D01*
X019751Y005994D01*
X019552Y005994D01*
X019368Y005918D01*
X019227Y005777D01*
X019162Y005619D01*
X019092Y005788D01*
X018946Y005935D01*
X018755Y006014D01*
X018701Y006014D01*
X018701Y005544D01*
X018601Y005544D01*
X018601Y006014D01*
X018548Y006014D01*
X018357Y005935D01*
X018210Y005788D01*
X018140Y005619D01*
X018075Y005777D01*
X017934Y005918D01*
X017751Y005994D01*
X017552Y005994D01*
X017368Y005918D01*
X017227Y005777D01*
X017151Y005593D01*
X017151Y005394D01*
X017227Y005211D01*
X017368Y005070D01*
X017552Y004994D01*
X017751Y004994D01*
X017934Y005070D01*
X018075Y005211D01*
X018140Y005368D01*
X018210Y005199D01*
X018357Y005053D01*
X018548Y004974D01*
X018601Y004974D01*
X018601Y005444D01*
X018701Y005444D01*
X018701Y004974D01*
X018755Y004974D01*
X018946Y005053D01*
X019092Y005199D01*
X019162Y005368D01*
X019227Y005211D01*
X019368Y005070D01*
X019552Y004994D01*
X019751Y004994D01*
X019934Y005070D01*
X020075Y005211D01*
X020151Y005394D01*
X020151Y005593D01*
X020151Y005394D01*
X020227Y005211D01*
X020368Y005070D01*
X020552Y004994D01*
X020751Y004994D01*
X020934Y005070D01*
X021075Y005211D01*
X021151Y005394D01*
X021151Y005593D01*
X021075Y005777D01*
X020934Y005918D01*
X020861Y005948D01*
X020861Y006907D01*
X020861Y006987D01*
X022441Y005407D01*
X022441Y004448D01*
X022368Y004418D01*
X022227Y004277D01*
X022151Y004093D01*
X022151Y003894D01*
X022182Y003821D01*
X021093Y002733D01*
X021075Y002777D01*
X020934Y002918D01*
X020751Y002994D01*
X020552Y002994D01*
X020368Y002918D01*
X020227Y002777D01*
X020151Y002593D01*
X020075Y002777D01*
X019934Y002918D01*
X019751Y002994D01*
X019552Y002994D01*
X019368Y002918D01*
X019227Y002777D01*
X019162Y002619D01*
X019092Y002788D01*
X018946Y002935D01*
X018755Y003014D01*
X018701Y003014D01*
X018701Y002544D01*
X018601Y002544D01*
X018601Y003014D01*
X018548Y003014D01*
X018357Y002935D01*
X018210Y002788D01*
X018140Y002619D01*
X018075Y002777D01*
X017934Y002918D01*
X017751Y002994D01*
X017552Y002994D01*
X017368Y002918D01*
X017227Y002777D01*
X017151Y002593D01*
X017151Y002394D01*
X017227Y002211D01*
X017368Y002070D01*
X017552Y001994D01*
X017751Y001994D01*
X017934Y002070D01*
X018075Y002211D01*
X018140Y002368D01*
X018210Y002199D01*
X018357Y002053D01*
X018548Y001974D01*
X018601Y001974D01*
X018601Y002444D01*
X018701Y002444D01*
X018701Y001974D01*
X018755Y001974D01*
X018946Y002053D01*
X019092Y002199D01*
X019162Y002368D01*
X019227Y002211D01*
X019368Y002070D01*
X019552Y001994D01*
X019751Y001994D01*
X019934Y002070D01*
X020075Y002211D01*
X020151Y002394D01*
X020151Y002593D01*
X020151Y002394D01*
X020227Y002211D01*
X020368Y002070D01*
X020552Y001994D01*
X020751Y001994D01*
X020934Y002070D01*
X021075Y002211D01*
X021105Y002284D01*
X021238Y002284D01*
X022478Y003524D01*
X022552Y003494D01*
X022751Y003494D01*
X022934Y003570D01*
X023075Y003711D01*
X023151Y003894D01*
X023151Y004093D01*
X023075Y004277D01*
X022934Y004418D01*
X022861Y004448D01*
X022861Y005487D01*
X023441Y004907D01*
X023441Y004448D01*
X023368Y004418D01*
X023227Y004277D01*
X023151Y004093D01*
X023151Y003894D01*
X023227Y003711D01*
X023368Y003570D01*
X023552Y003494D01*
X023751Y003494D01*
X023934Y003570D01*
X024075Y003711D01*
X024151Y003894D01*
X024151Y004093D01*
X024075Y004277D01*
X023934Y004418D01*
X023861Y004448D01*
X023861Y004987D01*
X024412Y004436D01*
X024368Y004418D01*
X024227Y004277D01*
X024151Y004093D01*
X024151Y003894D01*
X024227Y003711D01*
X024368Y003570D01*
X024552Y003494D01*
X024751Y003494D01*
X024934Y003570D01*
X025075Y003711D01*
X025151Y003894D01*
X025151Y004093D01*
X025151Y003894D01*
X025227Y003711D01*
X025368Y003570D01*
X025552Y003494D01*
X025751Y003494D01*
X025934Y003570D01*
X026075Y003711D01*
X026151Y003894D01*
X026151Y004093D01*
X026151Y003894D01*
X026227Y003711D01*
X026368Y003570D01*
X026552Y003494D01*
X026751Y003494D01*
X026934Y003570D01*
X027075Y003711D01*
X027140Y003868D01*
X027210Y003699D01*
X027357Y003553D01*
X027548Y003474D01*
X027601Y003474D01*
X027601Y003944D01*
X027701Y003944D01*
X027701Y003474D01*
X027755Y003474D01*
X027946Y003553D01*
X028092Y003699D01*
X028162Y003868D01*
X028227Y003711D01*
X028368Y003570D01*
X028552Y003494D01*
X028751Y003494D01*
X028934Y003570D01*
X029075Y003711D01*
X029151Y003894D01*
X029151Y004093D01*
X029151Y003894D01*
X029227Y003711D01*
X029368Y003570D01*
X029552Y003494D01*
X029751Y003494D01*
X029934Y003570D01*
X030075Y003711D01*
X030151Y003894D01*
X030151Y004093D01*
X030075Y004277D01*
X029934Y004418D01*
X029861Y004448D01*
X029861Y005232D01*
X029990Y005104D01*
X030313Y005104D01*
X030541Y005332D01*
X030541Y005655D01*
X030313Y005884D01*
X029990Y005884D01*
X029861Y005755D01*
X029861Y005907D01*
X030861Y006907D01*
X030861Y007081D01*
X030861Y008081D01*
X030738Y008204D01*
X030455Y008487D01*
X030482Y008513D01*
X030541Y008656D01*
X030541Y009307D01*
X031441Y008407D01*
X031441Y004448D01*
X031368Y004418D01*
X031227Y004277D01*
X031151Y004093D01*
X031075Y004277D01*
X030934Y004418D01*
X030751Y004494D01*
X030552Y004494D01*
X030368Y004418D01*
X030227Y004277D01*
X030151Y004093D01*
X030151Y003894D01*
X030227Y003711D01*
X030368Y003570D01*
X030552Y003494D01*
X030751Y003494D01*
X030934Y003570D01*
X031075Y003711D01*
X031151Y003894D01*
X031151Y004093D01*
X031151Y003894D01*
X031227Y003711D01*
X031368Y003570D01*
X031552Y003494D01*
X031751Y003494D01*
X031934Y003570D01*
X032075Y003711D01*
X032151Y003894D01*
X032151Y004093D01*
X032075Y004277D01*
X031934Y004418D01*
X031861Y004448D01*
X031861Y008581D01*
X031738Y008704D01*
X031158Y009284D01*
X036544Y009284D01*
X037155Y008673D01*
X033148Y008673D01*
X033174Y008610D02*
X033100Y008787D01*
X032964Y008923D01*
X032787Y008996D01*
X032595Y008996D01*
X032418Y008923D01*
X032282Y008787D01*
X032209Y008610D01*
X032209Y008418D01*
X032282Y008241D01*
X032418Y008105D01*
X032595Y008031D01*
X032787Y008031D01*
X032964Y008105D01*
X033100Y008241D01*
X033174Y008418D01*
X033174Y008610D01*
X033174Y008574D02*
X037129Y008574D01*
X037129Y008610D02*
X037129Y008418D01*
X037155Y008355D01*
X036504Y007704D01*
X033064Y007704D01*
X032941Y007581D01*
X032941Y007581D01*
X031941Y006581D01*
X031941Y006407D01*
X031941Y005081D01*
X031941Y004907D01*
X032441Y004407D01*
X032441Y003081D01*
X031564Y002204D01*
X022438Y002204D01*
X022264Y002204D01*
X021564Y001504D01*
X015275Y001504D01*
X015434Y001570D01*
X015575Y001711D01*
X015651Y001894D01*
X015651Y002093D01*
X015575Y002277D01*
X015434Y002418D01*
X015251Y002494D01*
X015052Y002494D01*
X014868Y002418D01*
X014727Y002277D01*
X014697Y002204D01*
X013738Y002204D01*
X013361Y002581D01*
X013361Y004407D01*
X014738Y005784D01*
X016238Y005784D01*
X016361Y005907D01*
X016441Y005987D01*
X016441Y005815D02*
X016269Y005815D01*
X016441Y005717D02*
X014671Y005717D01*
X014572Y005618D02*
X016441Y005618D01*
X016441Y005520D02*
X014474Y005520D01*
X014375Y005421D02*
X014876Y005421D01*
X014773Y005322D02*
X014277Y005322D01*
X014178Y005224D02*
X014705Y005224D01*
X014664Y005125D02*
X014080Y005125D01*
X013981Y005027D02*
X014651Y005027D01*
X014651Y004928D02*
X013883Y004928D01*
X013784Y004830D02*
X014678Y004830D01*
X014719Y004731D02*
X013686Y004731D01*
X013587Y004633D02*
X014805Y004633D01*
X014954Y004534D02*
X013488Y004534D01*
X013390Y004436D02*
X014859Y004436D01*
X014759Y004337D02*
X013361Y004337D01*
X013361Y004239D02*
X014690Y004239D01*
X014649Y004140D02*
X013361Y004140D01*
X013361Y004041D02*
X015101Y004041D01*
X015201Y004041D02*
X016441Y004041D01*
X016441Y003943D02*
X015671Y003943D01*
X015652Y003844D02*
X016441Y003844D01*
X016441Y003746D02*
X015611Y003746D01*
X015540Y003647D02*
X016441Y003647D01*
X016409Y003549D02*
X015435Y003549D01*
X015356Y003450D02*
X016311Y003450D01*
X016212Y003352D02*
X015500Y003352D01*
X015585Y003253D02*
X016113Y003253D01*
X016412Y002957D02*
X017464Y002957D01*
X017309Y002859D02*
X016313Y002859D01*
X016510Y003056D02*
X021416Y003056D01*
X021318Y002957D02*
X020838Y002957D01*
X020993Y002859D02*
X021219Y002859D01*
X021121Y002760D02*
X021082Y002760D01*
X021518Y002563D02*
X031924Y002563D01*
X032022Y002662D02*
X021616Y002662D01*
X021715Y002760D02*
X032121Y002760D01*
X032219Y002859D02*
X021813Y002859D01*
X021912Y002957D02*
X032318Y002957D01*
X032416Y003056D02*
X022010Y003056D01*
X022109Y003155D02*
X032441Y003155D01*
X032441Y003253D02*
X022207Y003253D01*
X022306Y003352D02*
X032441Y003352D01*
X032441Y003450D02*
X022404Y003450D01*
X022106Y003746D02*
X016861Y003746D01*
X016861Y003844D02*
X022172Y003844D01*
X022151Y003943D02*
X016861Y003943D01*
X016861Y004041D02*
X022151Y004041D01*
X022171Y004140D02*
X016861Y004140D01*
X016861Y004239D02*
X022211Y004239D01*
X022287Y004337D02*
X016861Y004337D01*
X016861Y004436D02*
X022411Y004436D01*
X022441Y004534D02*
X016861Y004534D01*
X016861Y004633D02*
X022441Y004633D01*
X022441Y004731D02*
X016861Y004731D01*
X016861Y004830D02*
X022441Y004830D01*
X022441Y004928D02*
X016861Y004928D01*
X016861Y005027D02*
X017472Y005027D01*
X017313Y005125D02*
X016861Y005125D01*
X016861Y005224D02*
X017222Y005224D01*
X017181Y005322D02*
X016861Y005322D01*
X016861Y005421D02*
X017151Y005421D01*
X017151Y005520D02*
X016861Y005520D01*
X016861Y005618D02*
X017161Y005618D01*
X017202Y005717D02*
X016861Y005717D01*
X016861Y005815D02*
X017265Y005815D01*
X017364Y005914D02*
X016868Y005914D01*
X016967Y006012D02*
X018544Y006012D01*
X018601Y006012D02*
X018701Y006012D01*
X018758Y006012D02*
X020441Y006012D01*
X020441Y006111D02*
X017065Y006111D01*
X017164Y006209D02*
X020441Y006209D01*
X020441Y006308D02*
X017262Y006308D01*
X017361Y006406D02*
X020441Y006406D01*
X020441Y006505D02*
X017459Y006505D01*
X017558Y006604D02*
X020441Y006604D01*
X020441Y006702D02*
X017656Y006702D01*
X017755Y006801D02*
X020441Y006801D01*
X020441Y006899D02*
X017853Y006899D01*
X017952Y006998D02*
X020350Y006998D01*
X020252Y007096D02*
X018051Y007096D01*
X018149Y007195D02*
X020153Y007195D01*
X020055Y007293D02*
X018248Y007293D01*
X018346Y007392D02*
X019956Y007392D01*
X019858Y007490D02*
X018445Y007490D01*
X018543Y007589D02*
X019759Y007589D01*
X019661Y007688D02*
X018642Y007688D01*
X018740Y007786D02*
X019562Y007786D01*
X019463Y007885D02*
X018839Y007885D01*
X018861Y007983D02*
X019441Y007983D01*
X019441Y008082D02*
X018861Y008082D01*
X018861Y008180D02*
X019441Y008180D01*
X019441Y008279D02*
X018861Y008279D01*
X018861Y008377D02*
X018993Y008377D01*
X019310Y008377D02*
X019441Y008377D01*
X019861Y009560D02*
X019906Y009560D01*
X019861Y009658D02*
X020190Y009658D01*
X020091Y009757D02*
X019861Y009757D01*
X019861Y009855D02*
X019993Y009855D01*
X019941Y009954D02*
X019861Y009954D01*
X019861Y010053D02*
X019941Y010053D01*
X019941Y010151D02*
X019861Y010151D01*
X019861Y010250D02*
X019941Y010250D01*
X019941Y010348D02*
X019861Y010348D01*
X019861Y010447D02*
X019941Y010447D01*
X019941Y010545D02*
X019861Y010545D01*
X019861Y010644D02*
X019941Y010644D01*
X019941Y010742D02*
X019861Y010742D01*
X019861Y010841D02*
X019941Y010841D01*
X019941Y010939D02*
X019861Y010939D01*
X019861Y011038D02*
X019941Y011038D01*
X019941Y011137D02*
X019805Y011137D01*
X019707Y011235D02*
X019941Y011235D01*
X019941Y011334D02*
X019608Y011334D01*
X019510Y011432D02*
X019901Y011432D01*
X019813Y011531D02*
X019489Y011531D01*
X019530Y011629D02*
X019772Y011629D01*
X019761Y011728D02*
X019541Y011728D01*
X019541Y011826D02*
X019761Y011826D01*
X019761Y011925D02*
X019541Y011925D01*
X019541Y012023D02*
X019761Y012023D01*
X019761Y012122D02*
X019541Y012122D01*
X019541Y012221D02*
X019761Y012221D01*
X019761Y012319D02*
X019541Y012319D01*
X019505Y012418D02*
X019797Y012418D01*
X019862Y012516D02*
X019440Y012516D01*
X019299Y012615D02*
X020003Y012615D01*
X020299Y012615D02*
X021003Y012615D01*
X020862Y012516D02*
X020440Y012516D01*
X020505Y012418D02*
X020797Y012418D01*
X020761Y012319D02*
X020541Y012319D01*
X020541Y012221D02*
X020761Y012221D01*
X020761Y012122D02*
X020541Y012122D01*
X020541Y012023D02*
X020761Y012023D01*
X020761Y011925D02*
X020541Y011925D01*
X020541Y011826D02*
X020761Y011826D01*
X020761Y011728D02*
X020541Y011728D01*
X020530Y011629D02*
X020772Y011629D01*
X020813Y011531D02*
X020489Y011531D01*
X020401Y011432D02*
X020901Y011432D01*
X020941Y011334D02*
X020361Y011334D01*
X020361Y011235D02*
X020941Y011235D01*
X020941Y011137D02*
X020361Y011137D01*
X020361Y011038D02*
X020941Y011038D01*
X020941Y010939D02*
X020361Y010939D01*
X020361Y010841D02*
X021007Y010841D01*
X021106Y010742D02*
X020361Y010742D01*
X020361Y010644D02*
X021204Y010644D01*
X021303Y010545D02*
X020361Y010545D01*
X020361Y010447D02*
X021401Y010447D01*
X021441Y010348D02*
X020361Y010348D01*
X020361Y010250D02*
X021441Y010250D01*
X021441Y010151D02*
X020361Y010151D01*
X020389Y010053D02*
X021441Y010053D01*
X021441Y009954D02*
X020488Y009954D01*
X020586Y009855D02*
X021441Y009855D01*
X021441Y009757D02*
X020685Y009757D01*
X020784Y009658D02*
X021441Y009658D01*
X021441Y009560D02*
X021397Y009560D01*
X021861Y009560D02*
X021906Y009560D01*
X021861Y009658D02*
X022441Y009658D01*
X022441Y009560D02*
X022397Y009560D01*
X022441Y009757D02*
X021861Y009757D01*
X021861Y009855D02*
X022441Y009855D01*
X022441Y009954D02*
X021861Y009954D01*
X021861Y010053D02*
X022441Y010053D01*
X022441Y010151D02*
X021861Y010151D01*
X021861Y010250D02*
X022441Y010250D01*
X022441Y010348D02*
X021861Y010348D01*
X021861Y010447D02*
X022401Y010447D01*
X022303Y010545D02*
X021861Y010545D01*
X021798Y010644D02*
X022204Y010644D01*
X022106Y010742D02*
X021700Y010742D01*
X021601Y010841D02*
X022007Y010841D01*
X021941Y010939D02*
X021503Y010939D01*
X021404Y011038D02*
X021941Y011038D01*
X021941Y011137D02*
X021361Y011137D01*
X021361Y011235D02*
X021941Y011235D01*
X021941Y011334D02*
X021361Y011334D01*
X021401Y011432D02*
X021901Y011432D01*
X021813Y011531D02*
X021489Y011531D01*
X021530Y011629D02*
X021772Y011629D01*
X021761Y011728D02*
X021541Y011728D01*
X021541Y011826D02*
X021761Y011826D01*
X021761Y011925D02*
X021541Y011925D01*
X021541Y012023D02*
X021761Y012023D01*
X021761Y012122D02*
X021541Y012122D01*
X021541Y012221D02*
X021761Y012221D01*
X021761Y012319D02*
X021541Y012319D01*
X021505Y012418D02*
X021797Y012418D01*
X021862Y012516D02*
X021440Y012516D01*
X021299Y012615D02*
X022003Y012615D01*
X022299Y012615D02*
X023003Y012615D01*
X023074Y012644D02*
X022930Y012584D01*
X022821Y012475D01*
X022761Y012331D01*
X022761Y011656D01*
X022821Y011513D01*
X022930Y011403D01*
X023074Y011344D01*
X023229Y011344D01*
X023372Y011403D01*
X023482Y011513D01*
X023541Y011656D01*
X023541Y012331D01*
X023482Y012475D01*
X023372Y012584D01*
X023229Y012644D01*
X023074Y012644D01*
X023299Y012615D02*
X024003Y012615D01*
X023862Y012516D02*
X023440Y012516D01*
X023505Y012418D02*
X023797Y012418D01*
X023761Y012319D02*
X023541Y012319D01*
X023541Y012221D02*
X023761Y012221D01*
X023761Y012122D02*
X023541Y012122D01*
X023541Y012023D02*
X023761Y012023D01*
X023761Y011925D02*
X023541Y011925D01*
X023541Y011826D02*
X023761Y011826D01*
X023761Y011728D02*
X023541Y011728D01*
X023530Y011629D02*
X023772Y011629D01*
X023813Y011531D02*
X023489Y011531D01*
X023401Y011432D02*
X023901Y011432D01*
X024014Y011334D02*
X022361Y011334D01*
X022361Y011235D02*
X024113Y011235D01*
X024212Y011137D02*
X022361Y011137D01*
X022404Y011038D02*
X024310Y011038D01*
X024409Y010939D02*
X022503Y010939D01*
X022601Y010841D02*
X024441Y010841D01*
X024441Y010742D02*
X022700Y010742D01*
X022798Y010644D02*
X024441Y010644D01*
X024441Y010545D02*
X022861Y010545D01*
X022861Y010447D02*
X024441Y010447D01*
X024441Y010348D02*
X022861Y010348D01*
X022861Y010250D02*
X024441Y010250D01*
X024441Y010151D02*
X022861Y010151D01*
X022861Y010053D02*
X024441Y010053D01*
X024441Y009954D02*
X022861Y009954D01*
X022861Y009855D02*
X024441Y009855D01*
X024441Y009757D02*
X022861Y009757D01*
X022861Y009658D02*
X022944Y009658D01*
X023039Y009707D02*
X023039Y009707D01*
X023359Y009658D02*
X024441Y009658D01*
X024441Y009560D02*
X024397Y009560D01*
X024861Y009560D02*
X024906Y009560D01*
X024861Y009658D02*
X030190Y009658D01*
X030091Y009757D02*
X024861Y009757D01*
X024861Y009855D02*
X029993Y009855D01*
X029894Y009954D02*
X024861Y009954D01*
X024861Y010053D02*
X029795Y010053D01*
X029697Y010151D02*
X024861Y010151D01*
X024861Y010250D02*
X029598Y010250D01*
X029500Y010348D02*
X024861Y010348D01*
X024861Y010447D02*
X029401Y010447D01*
X029303Y010545D02*
X024861Y010545D01*
X024861Y010644D02*
X029204Y010644D01*
X029106Y010742D02*
X024861Y010742D01*
X024861Y010841D02*
X026007Y010841D01*
X025909Y010939D02*
X024861Y010939D01*
X024861Y011038D02*
X025810Y011038D01*
X025711Y011137D02*
X024805Y011137D01*
X024738Y011204D02*
X024738Y011204D01*
X024707Y011235D02*
X025613Y011235D01*
X025514Y011334D02*
X025256Y011334D01*
X025181Y011334D02*
X025121Y011334D01*
X025046Y011334D02*
X024608Y011334D01*
X024510Y011432D02*
X024873Y011432D01*
X024791Y011531D02*
X024489Y011531D01*
X024530Y011629D02*
X024751Y011629D01*
X024741Y011728D02*
X024541Y011728D01*
X024541Y011826D02*
X024741Y011826D01*
X024741Y011925D02*
X024541Y011925D01*
X024541Y012023D02*
X025121Y012023D01*
X025121Y011925D02*
X025181Y011925D01*
X025181Y011826D02*
X025121Y011826D01*
X025121Y011728D02*
X025181Y011728D01*
X025181Y011629D02*
X025121Y011629D01*
X025121Y011531D02*
X025181Y011531D01*
X025181Y011432D02*
X025121Y011432D01*
X025429Y011432D02*
X025441Y011432D01*
X025181Y012122D02*
X025121Y012122D01*
X025121Y012221D02*
X025181Y012221D01*
X025181Y012319D02*
X025121Y012319D01*
X025121Y012418D02*
X025181Y012418D01*
X025181Y012516D02*
X025121Y012516D01*
X025121Y012615D02*
X025181Y012615D01*
X025351Y012615D02*
X025441Y012615D01*
X025441Y012713D02*
X019167Y012713D01*
X019266Y012812D02*
X025441Y012812D01*
X025441Y012910D02*
X019365Y012910D01*
X019463Y013009D02*
X025441Y013009D01*
X025441Y013107D02*
X022944Y013107D01*
X022850Y013014D02*
X023131Y013295D01*
X023131Y013464D01*
X022681Y013464D01*
X022681Y013524D01*
X022621Y013524D01*
X022621Y013974D01*
X022452Y013974D01*
X022171Y013693D01*
X022171Y013524D01*
X022621Y013524D01*
X022621Y013464D01*
X022171Y013464D01*
X022171Y013295D01*
X022452Y013014D01*
X022621Y013014D01*
X022621Y013464D01*
X022681Y013464D01*
X022681Y013014D01*
X022850Y013014D01*
X022681Y013107D02*
X022621Y013107D01*
X022621Y013206D02*
X022681Y013206D01*
X022681Y013304D02*
X022621Y013304D01*
X022621Y013403D02*
X022681Y013403D01*
X022681Y013502D02*
X025441Y013502D01*
X025441Y013600D02*
X023131Y013600D01*
X023131Y013524D02*
X023131Y013693D01*
X022850Y013974D01*
X022681Y013974D01*
X022681Y013524D01*
X023131Y013524D01*
X023131Y013403D02*
X025441Y013403D01*
X025441Y013304D02*
X023131Y013304D01*
X023042Y013206D02*
X025441Y013206D01*
X025861Y013206D02*
X026310Y013206D01*
X026408Y013107D02*
X025861Y013107D01*
X025861Y013009D02*
X026869Y013009D01*
X026835Y013049D02*
X027096Y013310D01*
X027096Y013678D01*
X026835Y013939D01*
X026467Y013939D01*
X026206Y013678D01*
X026206Y013310D01*
X026467Y013049D01*
X026835Y013049D01*
X026894Y013107D02*
X026968Y013107D01*
X026993Y013206D02*
X028310Y013206D01*
X028335Y013107D02*
X028408Y013107D01*
X028467Y013049D02*
X028835Y013049D01*
X029096Y013310D01*
X029096Y013678D01*
X028835Y013939D01*
X028467Y013939D01*
X028206Y013678D01*
X028206Y013310D01*
X028467Y013049D01*
X028433Y013009D02*
X039151Y013009D01*
X039151Y013107D02*
X028894Y013107D01*
X028993Y013206D02*
X039151Y013206D01*
X039151Y013304D02*
X029091Y013304D01*
X029096Y013403D02*
X039151Y013403D01*
X039151Y013502D02*
X029096Y013502D01*
X029096Y013600D02*
X033394Y013600D01*
X033461Y013534D02*
X033842Y013534D01*
X034111Y013803D01*
X034111Y014184D01*
X033842Y014454D01*
X033461Y014454D01*
X033224Y014218D01*
X031861Y015581D01*
X031738Y015704D01*
X031241Y015704D01*
X032321Y016784D01*
X033211Y016784D01*
X033461Y016534D01*
X033842Y016534D01*
X034111Y016803D01*
X034111Y017184D01*
X033861Y017434D01*
X033861Y017553D01*
X034111Y017803D01*
X034111Y018184D01*
X033842Y018454D01*
X033461Y018454D01*
X033191Y018184D01*
X033191Y017803D01*
X033441Y017553D01*
X033441Y017434D01*
X033211Y017204D01*
X032321Y017204D01*
X032147Y017204D01*
X030943Y015999D01*
X030782Y016066D01*
X030521Y016066D01*
X030281Y015966D01*
X030097Y015782D01*
X029997Y015541D01*
X029997Y015281D01*
X030097Y015040D01*
X030281Y014856D01*
X030521Y014756D01*
X030782Y014756D01*
X031023Y014856D01*
X031207Y015040D01*
X031307Y015281D01*
X031307Y015284D01*
X031564Y015284D01*
X033064Y013784D01*
X033211Y013784D01*
X033461Y013534D01*
X033296Y013699D02*
X029076Y013699D01*
X028977Y013797D02*
X033051Y013797D01*
X032952Y013896D02*
X028879Y013896D01*
X028424Y013896D02*
X026879Y013896D01*
X026977Y013797D02*
X028325Y013797D01*
X028227Y013699D02*
X027076Y013699D01*
X027096Y013600D02*
X028206Y013600D01*
X028206Y013502D02*
X027096Y013502D01*
X027096Y013403D02*
X028206Y013403D01*
X028211Y013304D02*
X027091Y013304D01*
X026771Y012910D02*
X025861Y012910D01*
X025861Y012812D02*
X026672Y012812D01*
X026574Y012713D02*
X025861Y012713D01*
X025861Y012615D02*
X026003Y012615D01*
X025862Y012516D02*
X025861Y012516D01*
X026299Y012615D02*
X026475Y012615D01*
X026211Y013304D02*
X025861Y013304D01*
X025861Y013403D02*
X026206Y013403D01*
X026206Y013502D02*
X025861Y013502D01*
X025861Y013600D02*
X026206Y013600D01*
X026227Y013699D02*
X025861Y013699D01*
X025861Y013797D02*
X026325Y013797D01*
X026424Y013896D02*
X025861Y013896D01*
X025861Y013994D02*
X032854Y013994D01*
X032755Y014093D02*
X025861Y014093D01*
X025861Y014191D02*
X032657Y014191D01*
X032558Y014290D02*
X025861Y014290D01*
X025861Y014388D02*
X032460Y014388D01*
X032361Y014487D02*
X025861Y014487D01*
X025856Y014586D02*
X032262Y014586D01*
X032164Y014684D02*
X025758Y014684D01*
X025659Y014783D02*
X030458Y014783D01*
X030255Y014881D02*
X025561Y014881D01*
X025647Y014980D02*
X030157Y014980D01*
X030081Y015078D02*
X025723Y015078D01*
X025764Y015177D02*
X030040Y015177D01*
X029999Y015275D02*
X025804Y015275D01*
X025807Y015374D02*
X029997Y015374D01*
X029997Y015472D02*
X025807Y015472D01*
X025795Y015571D02*
X030009Y015571D01*
X030050Y015670D02*
X025754Y015670D01*
X025713Y015768D02*
X030091Y015768D01*
X030181Y015867D02*
X025623Y015867D01*
X025524Y015965D02*
X030279Y015965D01*
X030516Y016064D02*
X025288Y016064D01*
X025307Y016211D02*
X025595Y016330D01*
X025815Y016550D01*
X025934Y016838D01*
X025934Y017150D01*
X025815Y017437D01*
X025595Y017657D01*
X025307Y017777D01*
X024995Y017777D01*
X024708Y017657D01*
X024488Y017437D01*
X024368Y017150D01*
X024368Y016838D01*
X024488Y016550D01*
X024708Y016330D01*
X024995Y016211D01*
X025307Y016211D01*
X025427Y016261D02*
X030375Y016261D01*
X030495Y016211D02*
X030807Y016211D01*
X031095Y016330D01*
X031315Y016550D01*
X031434Y016838D01*
X031434Y017150D01*
X031315Y017437D01*
X031095Y017657D01*
X030807Y017777D01*
X030495Y017777D01*
X030208Y017657D01*
X029988Y017437D01*
X029868Y017150D01*
X029868Y016838D01*
X029988Y016550D01*
X030208Y016330D01*
X030495Y016211D01*
X030788Y016064D02*
X031007Y016064D01*
X031106Y016162D02*
X014124Y016162D01*
X014172Y016182D02*
X014431Y016441D01*
X014571Y016779D01*
X014571Y017145D01*
X014431Y017483D01*
X014172Y017742D01*
X013834Y017882D01*
X013468Y017882D01*
X013130Y017742D01*
X012871Y017483D01*
X012731Y017145D01*
X012731Y016779D01*
X012871Y016441D01*
X013130Y016182D01*
X013468Y016042D01*
X013834Y016042D01*
X014172Y016182D01*
X014251Y016261D02*
X024875Y016261D01*
X024679Y016359D02*
X014349Y016359D01*
X014438Y016458D02*
X024580Y016458D01*
X024485Y016556D02*
X014479Y016556D01*
X014520Y016655D02*
X024444Y016655D01*
X024403Y016754D02*
X014560Y016754D01*
X014571Y016852D02*
X024368Y016852D01*
X024368Y016951D02*
X014571Y016951D01*
X014571Y017049D02*
X024368Y017049D01*
X024368Y017148D02*
X014570Y017148D01*
X014529Y017246D02*
X024409Y017246D01*
X024449Y017345D02*
X014489Y017345D01*
X014448Y017443D02*
X023083Y017443D01*
X022929Y017542D02*
X014373Y017542D01*
X014274Y017640D02*
X022831Y017640D01*
X022740Y017739D02*
X014176Y017739D01*
X013942Y017837D02*
X022699Y017837D01*
X022659Y017936D02*
X010888Y017936D01*
X010850Y017974D02*
X010452Y017974D01*
X010171Y017693D01*
X010171Y017295D01*
X010452Y017014D01*
X010850Y017014D01*
X011131Y017295D01*
X011131Y017693D01*
X010850Y017974D01*
X010986Y017837D02*
X013360Y017837D01*
X013127Y017739D02*
X011085Y017739D01*
X011131Y017640D02*
X013028Y017640D01*
X012930Y017542D02*
X011131Y017542D01*
X011131Y017443D02*
X012855Y017443D01*
X012814Y017345D02*
X011131Y017345D01*
X011082Y017246D02*
X012773Y017246D01*
X012732Y017148D02*
X010984Y017148D01*
X010885Y017049D02*
X012731Y017049D01*
X012731Y016951D02*
X000651Y016951D01*
X000651Y017049D02*
X009470Y017049D01*
X009556Y017014D02*
X009747Y017014D01*
X009923Y017087D01*
X010058Y017222D01*
X010131Y017398D01*
X010131Y017589D01*
X010058Y017766D01*
X009923Y017901D01*
X009747Y017974D01*
X009556Y017974D01*
X009379Y017901D01*
X009244Y017766D01*
X009171Y017589D01*
X009171Y017398D01*
X009244Y017222D01*
X009379Y017087D01*
X009556Y017014D01*
X009319Y017148D02*
X008186Y017148D01*
X008148Y017110D02*
X008376Y017338D01*
X008376Y017661D01*
X008148Y017890D01*
X007825Y017890D01*
X007596Y017661D01*
X007596Y017338D01*
X007825Y017110D01*
X008148Y017110D01*
X008284Y017246D02*
X009234Y017246D01*
X009193Y017345D02*
X008376Y017345D01*
X008376Y017443D02*
X009171Y017443D01*
X009171Y017542D02*
X008376Y017542D01*
X008376Y017640D02*
X009192Y017640D01*
X009233Y017739D02*
X008299Y017739D01*
X008200Y017837D02*
X009316Y017837D01*
X009464Y017936D02*
X007724Y017936D01*
X007772Y017837D02*
X007228Y017837D01*
X007248Y017936D02*
X005620Y017936D01*
X005584Y017972D02*
X005216Y017972D01*
X004955Y017711D01*
X004955Y017343D01*
X005216Y017082D01*
X005584Y017082D01*
X005845Y017343D01*
X005845Y017711D01*
X005584Y017972D01*
X005719Y017837D02*
X006744Y017837D01*
X006816Y017910D02*
X006576Y017670D01*
X006576Y017530D01*
X006956Y017530D01*
X006956Y017910D01*
X006816Y017910D01*
X006956Y017837D02*
X007016Y017837D01*
X007016Y017910D02*
X007156Y017910D01*
X007396Y017670D01*
X007396Y017530D01*
X007016Y017530D01*
X006956Y017530D01*
X006956Y017470D01*
X006576Y017470D01*
X006576Y017330D01*
X006816Y017090D01*
X006956Y017090D01*
X006956Y017470D01*
X007016Y017470D01*
X007016Y017530D01*
X007016Y017910D01*
X007016Y017739D02*
X006956Y017739D01*
X006956Y017640D02*
X007016Y017640D01*
X007016Y017542D02*
X006956Y017542D01*
X007016Y017470D02*
X007396Y017470D01*
X007396Y017330D01*
X007156Y017090D01*
X007016Y017090D01*
X007016Y017470D01*
X007016Y017443D02*
X006956Y017443D01*
X006956Y017345D02*
X007016Y017345D01*
X007016Y017246D02*
X006956Y017246D01*
X006956Y017148D02*
X007016Y017148D01*
X007214Y017148D02*
X007787Y017148D01*
X007688Y017246D02*
X007312Y017246D01*
X007396Y017345D02*
X007596Y017345D01*
X007596Y017443D02*
X007396Y017443D01*
X007396Y017542D02*
X007596Y017542D01*
X007596Y017640D02*
X007396Y017640D01*
X007327Y017739D02*
X007674Y017739D01*
X007822Y018035D02*
X022618Y018035D01*
X022615Y018133D02*
X007876Y018133D01*
X007876Y018232D02*
X022615Y018232D01*
X022615Y018330D02*
X007876Y018330D01*
X007859Y018429D02*
X022632Y018429D01*
X024026Y017542D02*
X024592Y017542D01*
X024494Y017443D02*
X023873Y017443D01*
X024125Y017640D02*
X024691Y017640D01*
X024905Y017739D02*
X024216Y017739D01*
X024256Y017837D02*
X026046Y017837D01*
X026087Y017739D02*
X025398Y017739D01*
X025612Y017640D02*
X026177Y017640D01*
X026276Y017542D02*
X025710Y017542D01*
X025809Y017443D02*
X026430Y017443D01*
X025894Y017246D02*
X029909Y017246D01*
X029868Y017148D02*
X025934Y017148D01*
X025934Y017049D02*
X029868Y017049D01*
X029868Y016951D02*
X025934Y016951D01*
X025934Y016852D02*
X029868Y016852D01*
X029903Y016754D02*
X025899Y016754D01*
X025858Y016655D02*
X029944Y016655D01*
X029985Y016556D02*
X025817Y016556D01*
X025722Y016458D02*
X030080Y016458D01*
X030179Y016359D02*
X025624Y016359D01*
X025016Y016064D02*
X013886Y016064D01*
X013417Y016064D02*
X012680Y016064D01*
X012639Y016162D02*
X013179Y016162D01*
X013052Y016261D02*
X012598Y016261D01*
X012524Y016359D02*
X012953Y016359D01*
X012864Y016458D02*
X012425Y016458D01*
X012327Y016556D02*
X012824Y016556D01*
X012783Y016655D02*
X012095Y016655D01*
X011506Y016655D02*
X004126Y016655D01*
X004096Y016727D02*
X003975Y016848D01*
X003817Y016914D01*
X003646Y016914D01*
X003488Y016848D01*
X003367Y016727D01*
X003301Y016569D01*
X003301Y016398D01*
X003367Y016240D01*
X003488Y016119D01*
X003646Y016054D01*
X003817Y016054D01*
X003975Y016119D01*
X004096Y016240D01*
X004161Y016398D01*
X004161Y016569D01*
X004096Y016727D01*
X004070Y016754D02*
X012742Y016754D01*
X012731Y016852D02*
X003966Y016852D01*
X004137Y017133D02*
X004006Y017263D01*
X003935Y017434D01*
X003935Y017497D01*
X004370Y017497D01*
X004370Y017557D01*
X004370Y017992D01*
X004308Y017992D01*
X004137Y017921D01*
X004006Y017790D01*
X003935Y017619D01*
X003935Y017557D01*
X004370Y017557D01*
X004430Y017557D01*
X004430Y017992D01*
X004493Y017992D01*
X004664Y017921D01*
X004794Y017790D01*
X004865Y017619D01*
X004865Y017557D01*
X004430Y017557D01*
X004430Y017497D01*
X004865Y017497D01*
X004865Y017434D01*
X004794Y017263D01*
X004664Y017133D01*
X004493Y017062D01*
X004430Y017062D01*
X004430Y017497D01*
X004370Y017497D01*
X004370Y017062D01*
X004308Y017062D01*
X004137Y017133D01*
X004122Y017148D02*
X000651Y017148D01*
X000651Y017246D02*
X004023Y017246D01*
X003972Y017345D02*
X000651Y017345D01*
X000651Y017443D02*
X003935Y017443D01*
X003944Y017640D02*
X000651Y017640D01*
X000651Y017542D02*
X004370Y017542D01*
X004430Y017542D02*
X004955Y017542D01*
X004955Y017640D02*
X004856Y017640D01*
X004816Y017739D02*
X004983Y017739D01*
X005081Y017837D02*
X004747Y017837D01*
X004627Y017936D02*
X005180Y017936D01*
X004955Y017443D02*
X004865Y017443D01*
X004828Y017345D02*
X004955Y017345D01*
X005051Y017246D02*
X004777Y017246D01*
X004679Y017148D02*
X005150Y017148D01*
X005650Y017148D02*
X006759Y017148D01*
X006660Y017246D02*
X005749Y017246D01*
X005845Y017345D02*
X006576Y017345D01*
X006576Y017443D02*
X005845Y017443D01*
X005845Y017542D02*
X006576Y017542D01*
X006576Y017640D02*
X005845Y017640D01*
X005817Y017739D02*
X006645Y017739D01*
X007150Y018035D02*
X000899Y018035D01*
X000997Y018133D02*
X007096Y018133D01*
X007096Y018232D02*
X001096Y018232D01*
X001195Y018330D02*
X007096Y018330D01*
X007114Y018429D02*
X001293Y018429D01*
X000800Y017936D02*
X004173Y017936D01*
X004053Y017837D02*
X000702Y017837D01*
X000651Y017739D02*
X003985Y017739D01*
X004370Y017739D02*
X004430Y017739D01*
X004430Y017837D02*
X004370Y017837D01*
X004370Y017936D02*
X004430Y017936D01*
X004430Y017640D02*
X004370Y017640D01*
X004370Y017443D02*
X004430Y017443D01*
X004430Y017345D02*
X004370Y017345D01*
X004370Y017246D02*
X004430Y017246D01*
X004430Y017148D02*
X004370Y017148D01*
X003497Y016852D02*
X001406Y016852D01*
X001415Y016848D02*
X001257Y016914D01*
X001086Y016914D01*
X000928Y016848D01*
X000807Y016727D01*
X000741Y016569D01*
X000741Y016398D01*
X000807Y016240D01*
X000928Y016119D01*
X001086Y016054D01*
X001257Y016054D01*
X001415Y016119D01*
X001536Y016240D01*
X001601Y016398D01*
X001601Y016569D01*
X001536Y016727D01*
X001415Y016848D01*
X001510Y016754D02*
X003393Y016754D01*
X003337Y016655D02*
X001566Y016655D01*
X001601Y016556D02*
X003301Y016556D01*
X003301Y016458D02*
X001601Y016458D01*
X001585Y016359D02*
X003317Y016359D01*
X003358Y016261D02*
X001544Y016261D01*
X001458Y016162D02*
X003445Y016162D01*
X003622Y016064D02*
X001280Y016064D01*
X001062Y016064D02*
X000651Y016064D01*
X000651Y016162D02*
X000885Y016162D01*
X000798Y016261D02*
X000651Y016261D01*
X000651Y016359D02*
X000757Y016359D01*
X000741Y016458D02*
X000651Y016458D01*
X000651Y016556D02*
X000741Y016556D01*
X000777Y016655D02*
X000651Y016655D01*
X000651Y016754D02*
X000833Y016754D01*
X000937Y016852D02*
X000651Y016852D01*
X000651Y015965D02*
X010881Y015965D01*
X010881Y015867D02*
X000651Y015867D01*
X000651Y015768D02*
X010881Y015768D01*
X010881Y015670D02*
X000651Y015670D01*
X000651Y015571D02*
X010892Y015571D01*
X010922Y016064D02*
X003840Y016064D01*
X004018Y016162D02*
X010963Y016162D01*
X011004Y016261D02*
X004104Y016261D01*
X004145Y016359D02*
X011078Y016359D01*
X011176Y016458D02*
X004161Y016458D01*
X004161Y016556D02*
X011275Y016556D01*
X010417Y017049D02*
X009832Y017049D01*
X009984Y017148D02*
X010319Y017148D01*
X010220Y017246D02*
X010068Y017246D01*
X010109Y017345D02*
X010171Y017345D01*
X010171Y017443D02*
X010131Y017443D01*
X010131Y017542D02*
X010171Y017542D01*
X010171Y017640D02*
X010110Y017640D01*
X010069Y017739D02*
X010217Y017739D01*
X010316Y017837D02*
X009986Y017837D01*
X009838Y017936D02*
X010415Y017936D01*
X012720Y015965D02*
X024779Y015965D01*
X024681Y015867D02*
X012721Y015867D01*
X012721Y015768D02*
X024591Y015768D01*
X024550Y015670D02*
X012721Y015670D01*
X012709Y015571D02*
X024509Y015571D01*
X024497Y015472D02*
X021802Y015472D01*
X021751Y015494D02*
X021934Y015418D01*
X022075Y015277D01*
X022151Y015093D01*
X022151Y014894D01*
X022075Y014711D01*
X021934Y014570D01*
X021751Y014494D01*
X021552Y014494D01*
X021368Y014570D01*
X021227Y014711D01*
X021151Y014894D01*
X021151Y015093D01*
X021227Y015277D01*
X021368Y015418D01*
X021552Y015494D01*
X021751Y015494D01*
X021500Y015472D02*
X020802Y015472D01*
X020978Y015374D02*
X021324Y015374D01*
X021227Y015275D02*
X021076Y015275D01*
X021117Y015177D02*
X021186Y015177D01*
X021151Y015078D02*
X021151Y015078D01*
X021151Y014980D02*
X021151Y014980D01*
X021146Y014881D02*
X021157Y014881D01*
X021197Y014783D02*
X021105Y014783D01*
X021049Y014684D02*
X021254Y014684D01*
X021352Y014586D02*
X020950Y014586D01*
X020861Y014487D02*
X025361Y014487D01*
X025441Y014388D02*
X020843Y014388D01*
X020744Y014290D02*
X025441Y014290D01*
X025441Y014191D02*
X020646Y014191D01*
X020547Y014093D02*
X025441Y014093D01*
X025441Y013994D02*
X020449Y013994D01*
X020350Y013896D02*
X022374Y013896D01*
X022276Y013797D02*
X020251Y013797D01*
X020153Y013699D02*
X022177Y013699D01*
X022171Y013600D02*
X020054Y013600D01*
X019956Y013502D02*
X022621Y013502D01*
X022621Y013600D02*
X022681Y013600D01*
X022681Y013699D02*
X022621Y013699D01*
X022621Y013797D02*
X022681Y013797D01*
X022681Y013896D02*
X022621Y013896D01*
X022928Y013896D02*
X025441Y013896D01*
X025441Y013797D02*
X023027Y013797D01*
X023125Y013699D02*
X025441Y013699D01*
X025262Y014586D02*
X021950Y014586D01*
X022049Y014684D02*
X025164Y014684D01*
X024958Y014783D02*
X022105Y014783D01*
X022146Y014881D02*
X024755Y014881D01*
X024657Y014980D02*
X022151Y014980D01*
X022151Y015078D02*
X024581Y015078D01*
X024540Y015177D02*
X022117Y015177D01*
X022076Y015275D02*
X024499Y015275D01*
X024497Y015374D02*
X021978Y015374D01*
X020500Y015472D02*
X019802Y015472D01*
X019978Y015374D02*
X020324Y015374D01*
X020227Y015275D02*
X020076Y015275D01*
X020117Y015177D02*
X020186Y015177D01*
X020151Y015093D02*
X020151Y014894D01*
X020075Y014711D01*
X019934Y014570D01*
X019751Y014494D01*
X019552Y014494D01*
X019478Y014524D01*
X018988Y014034D01*
X018814Y014034D01*
X018488Y014034D01*
X018361Y013907D01*
X018361Y013854D01*
X018461Y013954D01*
X018842Y013954D01*
X019111Y013684D01*
X019111Y013303D01*
X018842Y013034D01*
X018461Y013034D01*
X018361Y013133D01*
X018361Y013081D01*
X018361Y012907D01*
X018098Y012644D01*
X018229Y012644D01*
X018372Y012584D01*
X018441Y012515D01*
X018441Y012581D01*
X020412Y014552D01*
X020368Y014570D01*
X020227Y014711D01*
X020151Y014894D01*
X020151Y015093D01*
X020151Y015078D02*
X020151Y015078D01*
X020151Y014980D02*
X020151Y014980D01*
X020146Y014881D02*
X020157Y014881D01*
X020197Y014783D02*
X020105Y014783D01*
X020049Y014684D02*
X020254Y014684D01*
X020352Y014586D02*
X019950Y014586D01*
X020249Y014388D02*
X019343Y014388D01*
X019244Y014290D02*
X020150Y014290D01*
X020052Y014191D02*
X019146Y014191D01*
X019047Y014093D02*
X019953Y014093D01*
X019855Y013994D02*
X018449Y013994D01*
X018403Y013896D02*
X018361Y013896D01*
X017941Y013896D02*
X017900Y013896D01*
X017941Y013994D02*
X014346Y013994D01*
X014437Y014093D02*
X017953Y014093D01*
X018052Y014191D02*
X014478Y014191D01*
X014518Y014290D02*
X018150Y014290D01*
X018064Y014204D02*
X018064Y014204D01*
X018249Y014388D02*
X014559Y014388D01*
X014571Y014487D02*
X018516Y014487D01*
X018601Y014487D02*
X018701Y014487D01*
X018786Y014487D02*
X018847Y014487D01*
X018701Y014586D02*
X018601Y014586D01*
X018601Y014684D02*
X018701Y014684D01*
X018701Y014783D02*
X018601Y014783D01*
X018601Y014881D02*
X018701Y014881D01*
X018701Y015078D02*
X018601Y015078D01*
X018601Y015177D02*
X018701Y015177D01*
X018701Y015275D02*
X018601Y015275D01*
X018601Y015374D02*
X018701Y015374D01*
X018701Y015472D02*
X018601Y015472D01*
X018448Y015472D02*
X017802Y015472D01*
X017978Y015374D02*
X018296Y015374D01*
X018205Y015275D02*
X018076Y015275D01*
X018117Y015177D02*
X018164Y015177D01*
X018176Y014783D02*
X018105Y014783D01*
X018049Y014684D02*
X018226Y014684D01*
X018324Y014586D02*
X017950Y014586D01*
X017352Y014586D02*
X016950Y014586D01*
X017049Y014684D02*
X017254Y014684D01*
X017197Y014783D02*
X017105Y014783D01*
X017146Y014881D02*
X017157Y014881D01*
X017151Y014980D02*
X017151Y014980D01*
X017151Y015078D02*
X017151Y015078D01*
X017117Y015177D02*
X017186Y015177D01*
X017227Y015275D02*
X017076Y015275D01*
X016978Y015374D02*
X017324Y015374D01*
X017500Y015472D02*
X016802Y015472D01*
X016500Y015472D02*
X013949Y015472D01*
X014178Y015374D02*
X016324Y015374D01*
X016227Y015275D02*
X014277Y015275D01*
X014376Y015177D02*
X016186Y015177D01*
X016151Y015078D02*
X014449Y015078D01*
X014490Y014980D02*
X016151Y014980D01*
X016157Y014881D02*
X014531Y014881D01*
X014571Y014783D02*
X016197Y014783D01*
X016254Y014684D02*
X014571Y014684D01*
X014571Y014586D02*
X016352Y014586D01*
X016403Y013896D02*
X014248Y013896D01*
X014117Y013797D02*
X016304Y013797D01*
X016900Y013896D02*
X017403Y013896D01*
X017304Y013797D02*
X016998Y013797D01*
X017097Y013699D02*
X017205Y013699D01*
X017191Y013600D02*
X017111Y013600D01*
X017111Y013502D02*
X017191Y013502D01*
X017191Y013403D02*
X017111Y013403D01*
X017111Y013304D02*
X017191Y013304D01*
X017289Y013206D02*
X017014Y013206D01*
X016915Y013107D02*
X017387Y013107D01*
X017672Y012812D02*
X016861Y012812D01*
X016861Y012910D02*
X017771Y012910D01*
X017869Y013009D02*
X016861Y013009D01*
X016861Y012713D02*
X017574Y012713D01*
X017475Y012615D02*
X017299Y012615D01*
X017440Y012516D02*
X017441Y012516D01*
X017003Y012615D02*
X016861Y012615D01*
X016861Y012516D02*
X016862Y012516D01*
X017915Y013107D02*
X017941Y013107D01*
X018361Y013107D02*
X018387Y013107D01*
X018361Y013009D02*
X018869Y013009D01*
X018915Y013107D02*
X018968Y013107D01*
X019014Y013206D02*
X019066Y013206D01*
X019111Y013304D02*
X019165Y013304D01*
X019111Y013403D02*
X019263Y013403D01*
X019362Y013502D02*
X019111Y013502D01*
X019111Y013600D02*
X019461Y013600D01*
X019559Y013699D02*
X019097Y013699D01*
X018998Y013797D02*
X019658Y013797D01*
X019756Y013896D02*
X018900Y013896D01*
X019759Y013304D02*
X022171Y013304D01*
X022171Y013403D02*
X019857Y013403D01*
X019660Y013206D02*
X022260Y013206D01*
X022359Y013107D02*
X019562Y013107D01*
X018771Y012910D02*
X018361Y012910D01*
X018266Y012812D02*
X018672Y012812D01*
X018574Y012713D02*
X018167Y012713D01*
X018299Y012615D02*
X018475Y012615D01*
X018441Y012516D02*
X018440Y012516D01*
X019441Y014487D02*
X020347Y014487D01*
X019186Y015177D02*
X019138Y015177D01*
X019097Y015275D02*
X019227Y015275D01*
X019324Y015374D02*
X019006Y015374D01*
X018854Y015472D02*
X019500Y015472D01*
X024297Y017936D02*
X026005Y017936D01*
X025964Y018035D02*
X024338Y018035D01*
X024341Y018133D02*
X025961Y018133D01*
X025961Y018232D02*
X024341Y018232D01*
X024341Y018330D02*
X025961Y018330D01*
X025979Y018429D02*
X024324Y018429D01*
X025853Y017345D02*
X029949Y017345D01*
X029994Y017443D02*
X029373Y017443D01*
X029526Y017542D02*
X030092Y017542D01*
X030191Y017640D02*
X029625Y017640D01*
X029716Y017739D02*
X030405Y017739D01*
X030898Y017739D02*
X031587Y017739D01*
X031546Y017837D02*
X029756Y017837D01*
X029797Y017936D02*
X031505Y017936D01*
X031464Y018035D02*
X029838Y018035D01*
X029841Y018133D02*
X031461Y018133D01*
X031461Y018232D02*
X029841Y018232D01*
X029841Y018330D02*
X031461Y018330D01*
X031479Y018429D02*
X029824Y018429D01*
X031112Y017640D02*
X031677Y017640D01*
X031776Y017542D02*
X031210Y017542D01*
X031309Y017443D02*
X031930Y017443D01*
X032091Y017148D02*
X031434Y017148D01*
X031434Y017049D02*
X031993Y017049D01*
X031894Y016951D02*
X031434Y016951D01*
X031434Y016852D02*
X031796Y016852D01*
X031697Y016754D02*
X031399Y016754D01*
X031358Y016655D02*
X031599Y016655D01*
X031500Y016556D02*
X031317Y016556D01*
X031402Y016458D02*
X031222Y016458D01*
X031303Y016359D02*
X031124Y016359D01*
X031204Y016261D02*
X030927Y016261D01*
X031503Y015965D02*
X033261Y015965D01*
X033261Y015916D02*
X033261Y016071D01*
X033321Y016215D01*
X033430Y016324D01*
X033574Y016384D01*
X033729Y016384D01*
X033872Y016324D01*
X033982Y016215D01*
X034041Y016071D01*
X034041Y015916D01*
X033982Y015773D01*
X033872Y015663D01*
X033729Y015604D01*
X033574Y015604D01*
X033430Y015663D01*
X033321Y015773D01*
X033261Y015916D01*
X033282Y015867D02*
X031404Y015867D01*
X031306Y015768D02*
X033325Y015768D01*
X033424Y015670D02*
X031772Y015670D01*
X031871Y015571D02*
X037931Y015571D01*
X037941Y015581D02*
X037740Y015379D01*
X037729Y015384D01*
X037574Y015384D01*
X037430Y015324D01*
X037321Y015215D01*
X037261Y015071D01*
X037261Y014916D01*
X037321Y014773D01*
X037430Y014663D01*
X037574Y014604D01*
X037729Y014604D01*
X037872Y014663D01*
X037982Y014773D01*
X038041Y014916D01*
X038041Y015071D01*
X038037Y015082D01*
X038361Y015407D01*
X038361Y015581D01*
X038361Y017581D01*
X038238Y017704D01*
X038111Y017831D01*
X038111Y018184D01*
X037842Y018454D01*
X037461Y018454D01*
X037191Y018184D01*
X037191Y017803D01*
X037461Y017534D01*
X037814Y017534D01*
X037941Y017407D01*
X037941Y017354D01*
X037842Y017454D01*
X037461Y017454D01*
X037191Y017184D01*
X037191Y016803D01*
X037441Y016553D01*
X037441Y016329D01*
X037430Y016324D01*
X037321Y016215D01*
X037261Y016071D01*
X037261Y015916D01*
X037321Y015773D01*
X037430Y015663D01*
X037574Y015604D01*
X037729Y015604D01*
X037872Y015663D01*
X037941Y015732D01*
X037941Y015581D01*
X037941Y015670D02*
X037878Y015670D01*
X037833Y015472D02*
X031970Y015472D01*
X032068Y015374D02*
X033550Y015374D01*
X033574Y015384D02*
X033430Y015324D01*
X033321Y015215D01*
X033261Y015071D01*
X033261Y014916D01*
X033321Y014773D01*
X033430Y014663D01*
X033574Y014604D01*
X033729Y014604D01*
X033872Y014663D01*
X033982Y014773D01*
X034041Y014916D01*
X034041Y015071D01*
X033982Y015215D01*
X033872Y015324D01*
X033729Y015384D01*
X033574Y015384D01*
X033753Y015374D02*
X037550Y015374D01*
X037381Y015275D02*
X033921Y015275D01*
X033998Y015177D02*
X037305Y015177D01*
X037264Y015078D02*
X034038Y015078D01*
X034041Y014980D02*
X037261Y014980D01*
X037276Y014881D02*
X034027Y014881D01*
X033986Y014783D02*
X037316Y014783D01*
X037409Y014684D02*
X033893Y014684D01*
X033907Y014388D02*
X037395Y014388D01*
X037461Y014454D02*
X037191Y014184D01*
X037191Y013803D01*
X037461Y013534D01*
X037842Y013534D01*
X038111Y013803D01*
X038111Y014184D01*
X037842Y014454D01*
X037461Y014454D01*
X037297Y014290D02*
X034006Y014290D01*
X034104Y014191D02*
X037198Y014191D01*
X037191Y014093D02*
X034111Y014093D01*
X034111Y013994D02*
X037191Y013994D01*
X037191Y013896D02*
X034111Y013896D01*
X034105Y013797D02*
X037197Y013797D01*
X037296Y013699D02*
X034006Y013699D01*
X033908Y013600D02*
X037394Y013600D01*
X037908Y013600D02*
X039151Y013600D01*
X039151Y013699D02*
X038006Y013699D01*
X038105Y013797D02*
X039151Y013797D01*
X039151Y013896D02*
X038111Y013896D01*
X038111Y013994D02*
X039151Y013994D01*
X039151Y014093D02*
X038111Y014093D01*
X038104Y014191D02*
X039151Y014191D01*
X039151Y014290D02*
X038006Y014290D01*
X037907Y014388D02*
X039151Y014388D01*
X039151Y014487D02*
X032955Y014487D01*
X033054Y014388D02*
X033395Y014388D01*
X033297Y014290D02*
X033152Y014290D01*
X032856Y014586D02*
X039151Y014586D01*
X039151Y014684D02*
X037893Y014684D01*
X037986Y014783D02*
X039151Y014783D01*
X039151Y014881D02*
X038027Y014881D01*
X038041Y014980D02*
X039151Y014980D01*
X039151Y015078D02*
X038038Y015078D01*
X038131Y015177D02*
X039151Y015177D01*
X039151Y015275D02*
X038230Y015275D01*
X038328Y015374D02*
X039151Y015374D01*
X039151Y015472D02*
X038361Y015472D01*
X038361Y015571D02*
X039151Y015571D01*
X039151Y015670D02*
X038361Y015670D01*
X038361Y015768D02*
X039151Y015768D01*
X039151Y015867D02*
X038361Y015867D01*
X038361Y015965D02*
X039151Y015965D01*
X039151Y016064D02*
X038361Y016064D01*
X038361Y016162D02*
X039151Y016162D01*
X039151Y016261D02*
X038361Y016261D01*
X038361Y016359D02*
X039151Y016359D01*
X039151Y016458D02*
X038361Y016458D01*
X038361Y016556D02*
X039151Y016556D01*
X039151Y016655D02*
X038361Y016655D01*
X038361Y016754D02*
X039151Y016754D01*
X039151Y016852D02*
X038361Y016852D01*
X038361Y016951D02*
X039151Y016951D01*
X039151Y017049D02*
X038361Y017049D01*
X038361Y017148D02*
X039151Y017148D01*
X039151Y017246D02*
X038361Y017246D01*
X038361Y017345D02*
X039151Y017345D01*
X039151Y017443D02*
X038361Y017443D01*
X038361Y017542D02*
X039151Y017542D01*
X039151Y017640D02*
X038302Y017640D01*
X038203Y017739D02*
X039151Y017739D01*
X039100Y017837D02*
X038111Y017837D01*
X038111Y017936D02*
X039002Y017936D01*
X038903Y018035D02*
X038111Y018035D01*
X038111Y018133D02*
X038805Y018133D01*
X038706Y018232D02*
X038064Y018232D01*
X037965Y018330D02*
X038608Y018330D01*
X038509Y018429D02*
X037867Y018429D01*
X037436Y018429D02*
X033867Y018429D01*
X033965Y018330D02*
X037337Y018330D01*
X037238Y018232D02*
X034064Y018232D01*
X034111Y018133D02*
X037191Y018133D01*
X037191Y018035D02*
X034111Y018035D01*
X034111Y017936D02*
X037191Y017936D01*
X037191Y017837D02*
X034111Y017837D01*
X034047Y017739D02*
X037256Y017739D01*
X037354Y017640D02*
X033948Y017640D01*
X033861Y017542D02*
X037453Y017542D01*
X037450Y017443D02*
X033861Y017443D01*
X033951Y017345D02*
X037352Y017345D01*
X037253Y017246D02*
X034049Y017246D01*
X034111Y017148D02*
X037191Y017148D01*
X037191Y017049D02*
X034111Y017049D01*
X034111Y016951D02*
X037191Y016951D01*
X037191Y016852D02*
X034111Y016852D01*
X034061Y016754D02*
X037241Y016754D01*
X037340Y016655D02*
X033963Y016655D01*
X033864Y016556D02*
X037438Y016556D01*
X037441Y016458D02*
X031995Y016458D01*
X031897Y016359D02*
X033514Y016359D01*
X033367Y016261D02*
X031798Y016261D01*
X031700Y016162D02*
X033299Y016162D01*
X033261Y016064D02*
X031601Y016064D01*
X032094Y016556D02*
X033438Y016556D01*
X033340Y016655D02*
X032193Y016655D01*
X032291Y016754D02*
X033241Y016754D01*
X033253Y017246D02*
X031394Y017246D01*
X031353Y017345D02*
X033352Y017345D01*
X033441Y017443D02*
X032719Y017443D01*
X032873Y017542D02*
X033441Y017542D01*
X033354Y017640D02*
X032971Y017640D01*
X033062Y017739D02*
X033256Y017739D01*
X033191Y017837D02*
X033103Y017837D01*
X033144Y017936D02*
X033191Y017936D01*
X033184Y018035D02*
X033191Y018035D01*
X033188Y018133D02*
X033191Y018133D01*
X033188Y018232D02*
X033238Y018232D01*
X033188Y018330D02*
X033337Y018330D01*
X033436Y018429D02*
X033170Y018429D01*
X033788Y016359D02*
X037441Y016359D01*
X037367Y016261D02*
X033936Y016261D01*
X034004Y016162D02*
X037299Y016162D01*
X037261Y016064D02*
X034041Y016064D01*
X034041Y015965D02*
X037261Y015965D01*
X037282Y015867D02*
X034021Y015867D01*
X033977Y015768D02*
X037325Y015768D01*
X037424Y015670D02*
X033878Y015670D01*
X033381Y015275D02*
X032167Y015275D01*
X032265Y015177D02*
X033305Y015177D01*
X033264Y015078D02*
X032364Y015078D01*
X032462Y014980D02*
X033261Y014980D01*
X033276Y014881D02*
X032561Y014881D01*
X032659Y014783D02*
X033316Y014783D01*
X033409Y014684D02*
X032758Y014684D01*
X032065Y014783D02*
X030846Y014783D01*
X031048Y014881D02*
X031967Y014881D01*
X031868Y014980D02*
X031147Y014980D01*
X031223Y015078D02*
X031770Y015078D01*
X031671Y015177D02*
X031264Y015177D01*
X031304Y015275D02*
X031573Y015275D01*
X028583Y017443D02*
X027219Y017443D01*
X027373Y017542D02*
X028429Y017542D01*
X028331Y017640D02*
X027471Y017640D01*
X027562Y017739D02*
X028240Y017739D01*
X028199Y017837D02*
X027603Y017837D01*
X027644Y017936D02*
X028159Y017936D01*
X028118Y018035D02*
X027684Y018035D01*
X027688Y018133D02*
X028115Y018133D01*
X028115Y018232D02*
X027688Y018232D01*
X027688Y018330D02*
X028115Y018330D01*
X028132Y018429D02*
X027670Y018429D01*
X028532Y012910D02*
X039151Y012910D01*
X039151Y012812D02*
X028630Y012812D01*
X028729Y012713D02*
X039151Y012713D01*
X039151Y012615D02*
X030299Y012615D01*
X030229Y012644D02*
X030372Y012584D01*
X030482Y012475D01*
X030541Y012331D01*
X030541Y011656D01*
X030482Y011513D01*
X030372Y011403D01*
X030229Y011344D01*
X030074Y011344D01*
X029930Y011403D01*
X029821Y011513D01*
X029761Y011656D01*
X029761Y012331D01*
X029821Y012475D01*
X029930Y012584D01*
X030074Y012644D01*
X030229Y012644D01*
X030003Y012615D02*
X029299Y012615D01*
X029440Y012516D02*
X029862Y012516D01*
X029797Y012418D02*
X029505Y012418D01*
X029541Y012319D02*
X029761Y012319D01*
X029761Y012221D02*
X029541Y012221D01*
X029541Y012122D02*
X029761Y012122D01*
X029761Y012023D02*
X029541Y012023D01*
X029541Y011925D02*
X029761Y011925D01*
X029761Y011826D02*
X029541Y011826D01*
X029541Y011728D02*
X029761Y011728D01*
X029772Y011629D02*
X029530Y011629D01*
X029489Y011531D02*
X029813Y011531D01*
X029901Y011432D02*
X029510Y011432D01*
X029608Y011334D02*
X039151Y011334D01*
X039151Y011432D02*
X030401Y011432D01*
X030489Y011531D02*
X039151Y011531D01*
X039151Y011629D02*
X030530Y011629D01*
X030541Y011728D02*
X039151Y011728D01*
X039151Y011826D02*
X030541Y011826D01*
X030541Y011925D02*
X039151Y011925D01*
X039151Y012023D02*
X030541Y012023D01*
X030541Y012122D02*
X039151Y012122D01*
X039151Y012221D02*
X030541Y012221D01*
X030541Y012319D02*
X039151Y012319D01*
X039151Y012418D02*
X030505Y012418D01*
X030440Y012516D02*
X039151Y012516D01*
X039151Y011235D02*
X029707Y011235D01*
X029805Y011137D02*
X039151Y011137D01*
X039151Y011038D02*
X029904Y011038D01*
X030003Y010939D02*
X032554Y010939D01*
X032595Y010956D02*
X032418Y010883D01*
X032282Y010747D01*
X032209Y010570D01*
X032209Y010378D01*
X032282Y010201D01*
X032418Y010065D01*
X032595Y009991D01*
X032787Y009991D01*
X032964Y010065D01*
X033100Y010201D01*
X033174Y010378D01*
X033174Y010570D01*
X033100Y010747D01*
X032964Y010883D01*
X032787Y010956D01*
X032595Y010956D01*
X032828Y010939D02*
X037474Y010939D01*
X037515Y010956D02*
X037338Y010883D01*
X037202Y010747D01*
X037129Y010570D01*
X037129Y010378D01*
X037202Y010201D01*
X037338Y010065D01*
X037515Y009991D01*
X037707Y009991D01*
X037884Y010065D01*
X038020Y010201D01*
X038094Y010378D01*
X038094Y010570D01*
X038020Y010747D01*
X037884Y010883D01*
X037707Y010956D01*
X037515Y010956D01*
X037748Y010939D02*
X039151Y010939D01*
X039151Y010841D02*
X037926Y010841D01*
X038022Y010742D02*
X039151Y010742D01*
X039151Y010644D02*
X038063Y010644D01*
X038094Y010545D02*
X039151Y010545D01*
X039151Y010447D02*
X038094Y010447D01*
X038081Y010348D02*
X039151Y010348D01*
X039151Y010250D02*
X038041Y010250D01*
X037971Y010151D02*
X039151Y010151D01*
X039151Y010053D02*
X037855Y010053D01*
X037367Y010053D02*
X032935Y010053D01*
X033051Y010151D02*
X037252Y010151D01*
X037182Y010250D02*
X033121Y010250D01*
X033161Y010348D02*
X037141Y010348D01*
X037129Y010447D02*
X033174Y010447D01*
X033174Y010545D02*
X037129Y010545D01*
X037159Y010644D02*
X033143Y010644D01*
X033102Y010742D02*
X037200Y010742D01*
X037296Y010841D02*
X033006Y010841D01*
X032376Y010841D02*
X030101Y010841D01*
X030200Y010742D02*
X032280Y010742D01*
X032239Y010644D02*
X030298Y010644D01*
X030397Y010545D02*
X032209Y010545D01*
X032209Y010447D02*
X030495Y010447D01*
X030594Y010348D02*
X032221Y010348D01*
X032262Y010250D02*
X030692Y010250D01*
X030791Y010151D02*
X032332Y010151D01*
X032447Y010053D02*
X030889Y010053D01*
X030988Y009954D02*
X039151Y009954D01*
X039151Y009855D02*
X031086Y009855D01*
X031185Y009757D02*
X039151Y009757D01*
X039151Y009658D02*
X036764Y009658D01*
X036862Y009560D02*
X039151Y009560D01*
X039151Y009461D02*
X036961Y009461D01*
X037059Y009363D02*
X039151Y009363D01*
X039151Y009264D02*
X037158Y009264D01*
X037256Y009166D02*
X039151Y009166D01*
X039151Y009067D02*
X037355Y009067D01*
X037057Y008771D02*
X033107Y008771D01*
X033017Y008870D02*
X036958Y008870D01*
X036859Y008969D02*
X032854Y008969D01*
X032528Y008969D02*
X031473Y008969D01*
X031375Y009067D02*
X036761Y009067D01*
X036662Y009166D02*
X031276Y009166D01*
X031178Y009264D02*
X036564Y009264D01*
X037155Y008673D02*
X037129Y008610D01*
X037129Y008476D02*
X033174Y008476D01*
X033157Y008377D02*
X037145Y008377D01*
X037079Y008279D02*
X033116Y008279D01*
X033040Y008180D02*
X036981Y008180D01*
X036882Y008082D02*
X032909Y008082D01*
X032474Y008082D02*
X031861Y008082D01*
X031861Y008180D02*
X032342Y008180D01*
X032266Y008279D02*
X031861Y008279D01*
X031861Y008377D02*
X032225Y008377D01*
X032209Y008476D02*
X031861Y008476D01*
X031861Y008574D02*
X032209Y008574D01*
X032235Y008673D02*
X031769Y008673D01*
X031670Y008771D02*
X032276Y008771D01*
X032365Y008870D02*
X031572Y008870D01*
X031274Y008574D02*
X030507Y008574D01*
X030541Y008673D02*
X031175Y008673D01*
X031077Y008771D02*
X030541Y008771D01*
X030541Y008870D02*
X030978Y008870D01*
X030879Y008969D02*
X030541Y008969D01*
X030541Y009067D02*
X030781Y009067D01*
X030682Y009166D02*
X030541Y009166D01*
X030541Y009264D02*
X030584Y009264D01*
X029906Y009560D02*
X029397Y009560D01*
X029372Y009584D02*
X029229Y009644D01*
X029074Y009644D01*
X028930Y009584D01*
X028821Y009475D01*
X028761Y009331D01*
X028761Y008656D01*
X028821Y008513D01*
X028930Y008403D01*
X029074Y008344D01*
X029229Y008344D01*
X029372Y008403D01*
X029482Y008513D01*
X029541Y008656D01*
X029541Y009331D01*
X029482Y009475D01*
X029372Y009584D01*
X029487Y009461D02*
X029815Y009461D01*
X029774Y009363D02*
X029528Y009363D01*
X029541Y009264D02*
X029761Y009264D01*
X029761Y009166D02*
X029541Y009166D01*
X029541Y009067D02*
X029761Y009067D01*
X029761Y008969D02*
X029541Y008969D01*
X029541Y008870D02*
X029761Y008870D01*
X029761Y008771D02*
X029541Y008771D01*
X029541Y008673D02*
X029761Y008673D01*
X029795Y008574D02*
X029507Y008574D01*
X029445Y008476D02*
X029858Y008476D01*
X029971Y008377D02*
X029310Y008377D01*
X028993Y008377D02*
X028310Y008377D01*
X028372Y008403D02*
X028482Y008513D01*
X028541Y008656D01*
X028541Y009331D01*
X028482Y009475D01*
X028372Y009584D01*
X028229Y009644D01*
X028074Y009644D01*
X027930Y009584D01*
X027821Y009475D01*
X027761Y009331D01*
X027761Y008656D01*
X027821Y008513D01*
X027930Y008403D01*
X028074Y008344D01*
X028229Y008344D01*
X028372Y008403D01*
X028445Y008476D02*
X028858Y008476D01*
X028795Y008574D02*
X028507Y008574D01*
X028541Y008673D02*
X028761Y008673D01*
X028761Y008771D02*
X028541Y008771D01*
X028541Y008870D02*
X028761Y008870D01*
X028761Y008969D02*
X028541Y008969D01*
X028541Y009067D02*
X028761Y009067D01*
X028761Y009166D02*
X028541Y009166D01*
X028541Y009264D02*
X028761Y009264D01*
X028774Y009363D02*
X028528Y009363D01*
X028487Y009461D02*
X028815Y009461D01*
X028906Y009560D02*
X028397Y009560D01*
X027906Y009560D02*
X027397Y009560D01*
X027487Y009461D02*
X027815Y009461D01*
X027774Y009363D02*
X027528Y009363D01*
X027541Y009264D02*
X027761Y009264D01*
X027761Y009166D02*
X027541Y009166D01*
X027541Y009067D02*
X027761Y009067D01*
X027761Y008969D02*
X027541Y008969D01*
X027541Y008870D02*
X027761Y008870D01*
X027761Y008771D02*
X027541Y008771D01*
X027541Y008673D02*
X027761Y008673D01*
X027795Y008574D02*
X027507Y008574D01*
X027445Y008476D02*
X027858Y008476D01*
X027993Y008377D02*
X027310Y008377D01*
X027163Y008279D02*
X030069Y008279D01*
X030168Y008180D02*
X027262Y008180D01*
X027360Y008082D02*
X030266Y008082D01*
X030365Y007983D02*
X027459Y007983D01*
X027557Y007885D02*
X030441Y007885D01*
X030441Y007786D02*
X030410Y007786D01*
X030861Y007786D02*
X031441Y007786D01*
X031441Y007688D02*
X030861Y007688D01*
X030861Y007589D02*
X031441Y007589D01*
X031441Y007490D02*
X030861Y007490D01*
X030861Y007392D02*
X031441Y007392D01*
X031441Y007293D02*
X030861Y007293D01*
X030861Y007195D02*
X031441Y007195D01*
X031441Y007096D02*
X030861Y007096D01*
X030861Y006998D02*
X031441Y006998D01*
X031441Y006899D02*
X030853Y006899D01*
X030755Y006801D02*
X031441Y006801D01*
X031441Y006702D02*
X030656Y006702D01*
X030558Y006604D02*
X031441Y006604D01*
X031441Y006505D02*
X030459Y006505D01*
X030361Y006406D02*
X031441Y006406D01*
X031441Y006308D02*
X030262Y006308D01*
X030164Y006209D02*
X031441Y006209D01*
X031441Y006111D02*
X030065Y006111D01*
X029967Y006012D02*
X031441Y006012D01*
X031441Y005914D02*
X029868Y005914D01*
X029861Y005815D02*
X029921Y005815D01*
X030381Y005815D02*
X031441Y005815D01*
X031441Y005717D02*
X030480Y005717D01*
X030541Y005618D02*
X031441Y005618D01*
X031441Y005520D02*
X030541Y005520D01*
X030541Y005421D02*
X031441Y005421D01*
X031441Y005322D02*
X030531Y005322D01*
X030433Y005224D02*
X031441Y005224D01*
X031441Y005125D02*
X030334Y005125D01*
X029968Y005125D02*
X029861Y005125D01*
X029861Y005027D02*
X031441Y005027D01*
X031441Y004928D02*
X029861Y004928D01*
X029861Y004830D02*
X031441Y004830D01*
X031441Y004731D02*
X029861Y004731D01*
X029861Y004633D02*
X031441Y004633D01*
X031441Y004534D02*
X029861Y004534D01*
X029891Y004436D02*
X030411Y004436D01*
X030287Y004337D02*
X030015Y004337D01*
X030091Y004239D02*
X030211Y004239D01*
X030171Y004140D02*
X030132Y004140D01*
X030151Y004041D02*
X030151Y004041D01*
X030151Y003943D02*
X030151Y003943D01*
X030130Y003844D02*
X030172Y003844D01*
X030213Y003746D02*
X030090Y003746D01*
X030012Y003647D02*
X030291Y003647D01*
X030419Y003549D02*
X029883Y003549D01*
X029419Y003549D02*
X028883Y003549D01*
X029012Y003647D02*
X029291Y003647D01*
X029213Y003746D02*
X029090Y003746D01*
X029130Y003844D02*
X029172Y003844D01*
X029151Y003943D02*
X029151Y003943D01*
X029151Y004041D02*
X029151Y004041D01*
X029132Y004140D02*
X029171Y004140D01*
X029211Y004239D02*
X029091Y004239D01*
X029015Y004337D02*
X029287Y004337D01*
X029411Y004436D02*
X028891Y004436D01*
X028411Y004436D02*
X027943Y004436D01*
X028043Y004337D02*
X028287Y004337D01*
X028211Y004239D02*
X028113Y004239D01*
X028153Y004140D02*
X028171Y004140D01*
X028152Y003844D02*
X028172Y003844D01*
X028213Y003746D02*
X028111Y003746D01*
X028040Y003647D02*
X028291Y003647D01*
X028419Y003549D02*
X027935Y003549D01*
X027701Y003549D02*
X027601Y003549D01*
X027601Y003647D02*
X027701Y003647D01*
X027701Y003746D02*
X027601Y003746D01*
X027601Y003844D02*
X027701Y003844D01*
X027701Y003943D02*
X027601Y003943D01*
X027601Y004140D02*
X027701Y004140D01*
X027701Y004239D02*
X027601Y004239D01*
X027601Y004337D02*
X027701Y004337D01*
X027701Y004436D02*
X027601Y004436D01*
X027359Y004436D02*
X026891Y004436D01*
X027015Y004337D02*
X027259Y004337D01*
X027190Y004239D02*
X027091Y004239D01*
X027132Y004140D02*
X027149Y004140D01*
X027130Y003844D02*
X027150Y003844D01*
X027191Y003746D02*
X027090Y003746D01*
X027012Y003647D02*
X027262Y003647D01*
X027367Y003549D02*
X026883Y003549D01*
X026419Y003549D02*
X025883Y003549D01*
X026012Y003647D02*
X026291Y003647D01*
X026213Y003746D02*
X026090Y003746D01*
X026130Y003844D02*
X026172Y003844D01*
X026151Y003943D02*
X026151Y003943D01*
X026151Y004041D02*
X026151Y004041D01*
X026132Y004140D02*
X026171Y004140D01*
X026211Y004239D02*
X026091Y004239D01*
X026015Y004337D02*
X026287Y004337D01*
X026411Y004436D02*
X025891Y004436D01*
X025861Y004534D02*
X029441Y004534D01*
X029441Y004633D02*
X025809Y004633D01*
X025711Y004731D02*
X029441Y004731D01*
X029441Y004830D02*
X025612Y004830D01*
X025514Y004928D02*
X029441Y004928D01*
X029441Y005027D02*
X025415Y005027D01*
X025317Y005125D02*
X025968Y005125D01*
X025870Y005224D02*
X025218Y005224D01*
X025119Y005322D02*
X025771Y005322D01*
X025761Y005421D02*
X025021Y005421D01*
X024922Y005520D02*
X025761Y005520D01*
X025761Y005618D02*
X024861Y005618D01*
X024861Y005717D02*
X025823Y005717D01*
X025921Y005815D02*
X024861Y005815D01*
X024861Y005914D02*
X025941Y005914D01*
X025941Y006012D02*
X024861Y006012D01*
X024861Y006111D02*
X025941Y006111D01*
X025941Y006209D02*
X024861Y006209D01*
X024861Y006308D02*
X025941Y006308D01*
X025941Y006406D02*
X024861Y006406D01*
X024861Y006505D02*
X025925Y006505D01*
X025843Y006604D02*
X024861Y006604D01*
X024861Y006702D02*
X025802Y006702D01*
X025801Y006801D02*
X024861Y006801D01*
X024861Y006899D02*
X025801Y006899D01*
X025801Y006998D02*
X024861Y006998D01*
X024861Y007096D02*
X025752Y007096D01*
X025653Y007195D02*
X024861Y007195D01*
X024861Y007293D02*
X025555Y007293D01*
X025456Y007392D02*
X024861Y007392D01*
X024861Y007490D02*
X025358Y007490D01*
X025259Y007589D02*
X024861Y007589D01*
X024861Y007688D02*
X025161Y007688D01*
X025062Y007786D02*
X024861Y007786D01*
X024861Y007885D02*
X024963Y007885D01*
X024941Y007983D02*
X024861Y007983D01*
X024861Y008082D02*
X024941Y008082D01*
X024941Y008180D02*
X024861Y008180D01*
X024861Y008279D02*
X024941Y008279D01*
X024941Y008377D02*
X024861Y008377D01*
X024441Y008377D02*
X024310Y008377D01*
X024441Y008279D02*
X023612Y008279D01*
X023612Y008377D02*
X023993Y008377D01*
X023858Y008476D02*
X023612Y008476D01*
X023611Y008574D02*
X023795Y008574D01*
X023761Y008673D02*
X023611Y008673D01*
X023611Y008771D02*
X023761Y008771D01*
X023761Y008870D02*
X023611Y008870D01*
X023611Y008969D02*
X023761Y008969D01*
X023761Y009067D02*
X023611Y009067D01*
X023602Y009363D02*
X023774Y009363D01*
X023815Y009461D02*
X023565Y009461D01*
X023594Y009421D02*
X023594Y009421D01*
X023495Y009560D02*
X023906Y009560D01*
X023181Y008870D02*
X023121Y008870D01*
X023121Y008771D02*
X023181Y008771D01*
X023181Y008673D02*
X023121Y008673D01*
X023121Y008574D02*
X023181Y008574D01*
X023181Y008476D02*
X023121Y008476D01*
X023121Y008377D02*
X023181Y008377D01*
X023223Y008279D02*
X023080Y008279D01*
X023080Y008180D02*
X023223Y008180D01*
X023223Y008082D02*
X023080Y008082D01*
X023080Y007983D02*
X023223Y007983D01*
X023181Y007885D02*
X023121Y007885D01*
X023121Y007786D02*
X023181Y007786D01*
X023181Y007688D02*
X023121Y007688D01*
X023121Y007589D02*
X023181Y007589D01*
X023181Y007490D02*
X023691Y007490D01*
X023631Y007464D02*
X023181Y007464D01*
X023181Y007014D01*
X023350Y007014D01*
X023631Y007295D01*
X023631Y007464D01*
X023631Y007392D02*
X023691Y007392D01*
X023701Y007293D02*
X023629Y007293D01*
X023531Y007195D02*
X023800Y007195D01*
X023898Y007096D02*
X023432Y007096D01*
X023181Y007096D02*
X023121Y007096D01*
X023121Y007195D02*
X023181Y007195D01*
X023181Y007293D02*
X023121Y007293D01*
X023121Y007392D02*
X023181Y007392D01*
X023121Y007490D02*
X022361Y007490D01*
X022361Y007392D02*
X022671Y007392D01*
X022673Y007293D02*
X022361Y007293D01*
X022361Y007195D02*
X022771Y007195D01*
X022870Y007096D02*
X022361Y007096D01*
X022444Y006998D02*
X024441Y006998D01*
X024441Y007096D02*
X024404Y007096D01*
X024441Y006899D02*
X022543Y006899D01*
X022641Y006801D02*
X024441Y006801D01*
X024441Y006702D02*
X022740Y006702D01*
X022838Y006604D02*
X024441Y006604D01*
X024441Y006505D02*
X022937Y006505D01*
X023036Y006406D02*
X024441Y006406D01*
X024441Y006308D02*
X023134Y006308D01*
X023233Y006209D02*
X024441Y006209D01*
X024441Y006111D02*
X023331Y006111D01*
X023430Y006012D02*
X024441Y006012D01*
X024441Y005914D02*
X023528Y005914D01*
X023627Y005815D02*
X024441Y005815D01*
X024441Y005717D02*
X023725Y005717D01*
X023824Y005618D02*
X024441Y005618D01*
X024441Y005520D02*
X023922Y005520D01*
X024021Y005421D02*
X024441Y005421D01*
X024526Y005322D02*
X024119Y005322D01*
X024218Y005224D02*
X024624Y005224D01*
X024723Y005125D02*
X024317Y005125D01*
X024415Y005027D02*
X024821Y005027D01*
X024920Y004928D02*
X024514Y004928D01*
X024612Y004830D02*
X025018Y004830D01*
X025117Y004731D02*
X024711Y004731D01*
X024809Y004633D02*
X025215Y004633D01*
X025314Y004534D02*
X024861Y004534D01*
X024891Y004436D02*
X025411Y004436D01*
X025287Y004337D02*
X025015Y004337D01*
X025091Y004239D02*
X025211Y004239D01*
X025171Y004140D02*
X025132Y004140D01*
X025151Y004041D02*
X025151Y004041D01*
X025151Y003943D02*
X025151Y003943D01*
X025130Y003844D02*
X025172Y003844D01*
X025213Y003746D02*
X025090Y003746D01*
X025012Y003647D02*
X025291Y003647D01*
X025419Y003549D02*
X024883Y003549D01*
X024419Y003549D02*
X023883Y003549D01*
X024012Y003647D02*
X024291Y003647D01*
X024213Y003746D02*
X024090Y003746D01*
X024130Y003844D02*
X024172Y003844D01*
X024151Y003943D02*
X024151Y003943D01*
X024151Y004041D02*
X024151Y004041D01*
X024132Y004140D02*
X024171Y004140D01*
X024211Y004239D02*
X024091Y004239D01*
X024015Y004337D02*
X024287Y004337D01*
X024411Y004436D02*
X023891Y004436D01*
X023861Y004534D02*
X024314Y004534D01*
X024215Y004633D02*
X023861Y004633D01*
X023861Y004731D02*
X024117Y004731D01*
X024018Y004830D02*
X023861Y004830D01*
X023861Y004928D02*
X023920Y004928D01*
X023441Y004830D02*
X022861Y004830D01*
X022861Y004928D02*
X023420Y004928D01*
X023321Y005027D02*
X022861Y005027D01*
X022861Y005125D02*
X023223Y005125D01*
X023124Y005224D02*
X022861Y005224D01*
X022861Y005322D02*
X023026Y005322D01*
X022927Y005421D02*
X022861Y005421D01*
X022441Y005322D02*
X021121Y005322D01*
X021151Y005421D02*
X022427Y005421D01*
X022328Y005520D02*
X021151Y005520D01*
X021141Y005618D02*
X022230Y005618D01*
X022131Y005717D02*
X021100Y005717D01*
X021037Y005815D02*
X022033Y005815D01*
X021934Y005914D02*
X020938Y005914D01*
X020861Y006012D02*
X021836Y006012D01*
X021737Y006111D02*
X020861Y006111D01*
X020861Y006209D02*
X021639Y006209D01*
X021540Y006308D02*
X020861Y006308D01*
X020861Y006406D02*
X021442Y006406D01*
X021343Y006505D02*
X020861Y006505D01*
X020861Y006604D02*
X021244Y006604D01*
X021146Y006702D02*
X020861Y006702D01*
X020861Y006801D02*
X021047Y006801D01*
X020949Y006899D02*
X020861Y006899D01*
X020364Y005914D02*
X019938Y005914D01*
X020037Y005815D02*
X020265Y005815D01*
X020202Y005717D02*
X020100Y005717D01*
X020141Y005618D02*
X020161Y005618D01*
X020151Y005520D02*
X020151Y005520D01*
X020151Y005421D02*
X020151Y005421D01*
X020121Y005322D02*
X020181Y005322D01*
X020222Y005224D02*
X020081Y005224D01*
X019990Y005125D02*
X020313Y005125D01*
X020472Y005027D02*
X019830Y005027D01*
X019472Y005027D02*
X018882Y005027D01*
X019018Y005125D02*
X019313Y005125D01*
X019222Y005224D02*
X019102Y005224D01*
X019143Y005322D02*
X019181Y005322D01*
X018701Y005322D02*
X018601Y005322D01*
X018601Y005224D02*
X018701Y005224D01*
X018701Y005125D02*
X018601Y005125D01*
X018601Y005027D02*
X018701Y005027D01*
X018420Y005027D02*
X017830Y005027D01*
X017990Y005125D02*
X018284Y005125D01*
X018200Y005224D02*
X018081Y005224D01*
X018121Y005322D02*
X018159Y005322D01*
X018601Y005421D02*
X018701Y005421D01*
X018701Y005618D02*
X018601Y005618D01*
X018601Y005717D02*
X018701Y005717D01*
X018701Y005815D02*
X018601Y005815D01*
X018601Y005914D02*
X018701Y005914D01*
X018967Y005914D02*
X019364Y005914D01*
X019265Y005815D02*
X019065Y005815D01*
X019122Y005717D02*
X019202Y005717D01*
X018336Y005914D02*
X017938Y005914D01*
X018037Y005815D02*
X018237Y005815D01*
X018181Y005717D02*
X018100Y005717D01*
X016441Y005421D02*
X015426Y005421D01*
X015530Y005322D02*
X016441Y005322D01*
X016441Y005224D02*
X015597Y005224D01*
X015638Y005125D02*
X016441Y005125D01*
X016441Y005027D02*
X015651Y005027D01*
X015651Y004928D02*
X016441Y004928D01*
X016441Y004830D02*
X015624Y004830D01*
X015584Y004731D02*
X016441Y004731D01*
X016441Y004633D02*
X015497Y004633D01*
X015348Y004534D02*
X016441Y004534D01*
X016441Y004436D02*
X015443Y004436D01*
X015543Y004337D02*
X016441Y004337D01*
X016441Y004239D02*
X015613Y004239D01*
X015653Y004140D02*
X016441Y004140D01*
X016861Y003647D02*
X022008Y003647D01*
X021909Y003549D02*
X016861Y003549D01*
X016861Y003450D02*
X021811Y003450D01*
X021712Y003352D02*
X016806Y003352D01*
X016707Y003253D02*
X021613Y003253D01*
X021515Y003155D02*
X016609Y003155D01*
X017220Y002760D02*
X015596Y002760D01*
X015526Y002662D02*
X017180Y002662D01*
X017151Y002563D02*
X015418Y002563D01*
X015321Y002465D02*
X017151Y002465D01*
X017163Y002366D02*
X015486Y002366D01*
X015579Y002268D02*
X017204Y002268D01*
X017269Y002169D02*
X015620Y002169D01*
X015651Y002071D02*
X017367Y002071D01*
X017935Y002071D02*
X018339Y002071D01*
X018241Y002169D02*
X018034Y002169D01*
X018099Y002268D02*
X018182Y002268D01*
X018141Y002366D02*
X018139Y002366D01*
X018123Y002662D02*
X018158Y002662D01*
X018199Y002760D02*
X018082Y002760D01*
X017993Y002859D02*
X018281Y002859D01*
X018412Y002957D02*
X017838Y002957D01*
X018601Y002957D02*
X018701Y002957D01*
X018701Y002859D02*
X018601Y002859D01*
X018601Y002760D02*
X018701Y002760D01*
X018701Y002662D02*
X018601Y002662D01*
X018601Y002563D02*
X018701Y002563D01*
X018701Y002366D02*
X018601Y002366D01*
X018601Y002268D02*
X018701Y002268D01*
X018701Y002169D02*
X018601Y002169D01*
X018601Y002071D02*
X018701Y002071D01*
X018963Y002071D02*
X019367Y002071D01*
X019269Y002169D02*
X019062Y002169D01*
X019120Y002268D02*
X019204Y002268D01*
X019163Y002366D02*
X019161Y002366D01*
X019144Y002662D02*
X019180Y002662D01*
X019220Y002760D02*
X019104Y002760D01*
X019021Y002859D02*
X019309Y002859D01*
X019464Y002957D02*
X018891Y002957D01*
X019838Y002957D02*
X020464Y002957D01*
X020309Y002859D02*
X019993Y002859D01*
X020082Y002760D02*
X020220Y002760D01*
X020180Y002662D02*
X020123Y002662D01*
X020151Y002563D02*
X020151Y002563D01*
X020151Y002465D02*
X020151Y002465D01*
X020139Y002366D02*
X020163Y002366D01*
X020204Y002268D02*
X020099Y002268D01*
X020034Y002169D02*
X020269Y002169D01*
X020367Y002071D02*
X019935Y002071D01*
X020935Y002071D02*
X022131Y002071D01*
X022229Y002169D02*
X021034Y002169D01*
X021099Y002268D02*
X031628Y002268D01*
X031727Y002366D02*
X021320Y002366D01*
X021419Y002465D02*
X031825Y002465D01*
X032123Y002169D02*
X039151Y002169D01*
X039151Y002071D02*
X032025Y002071D01*
X031926Y001972D02*
X039151Y001972D01*
X039151Y001873D02*
X031828Y001873D01*
X032222Y002268D02*
X039151Y002268D01*
X039151Y002366D02*
X032320Y002366D01*
X032419Y002465D02*
X039151Y002465D01*
X039151Y002563D02*
X032518Y002563D01*
X032616Y002662D02*
X039151Y002662D01*
X039151Y002760D02*
X032715Y002760D01*
X032813Y002859D02*
X039151Y002859D01*
X039151Y002957D02*
X032861Y002957D01*
X032861Y003056D02*
X039151Y003056D01*
X039151Y003155D02*
X032861Y003155D01*
X032861Y003253D02*
X039151Y003253D01*
X039151Y003352D02*
X032861Y003352D01*
X032861Y003450D02*
X039151Y003450D01*
X039151Y003549D02*
X032861Y003549D01*
X032861Y003647D02*
X039151Y003647D01*
X039151Y003746D02*
X032861Y003746D01*
X032861Y003844D02*
X039151Y003844D01*
X039151Y003943D02*
X032861Y003943D01*
X032861Y004041D02*
X039151Y004041D01*
X039151Y004140D02*
X032861Y004140D01*
X032861Y004239D02*
X039151Y004239D01*
X039151Y004337D02*
X032861Y004337D01*
X032861Y004436D02*
X039151Y004436D01*
X039151Y004534D02*
X032861Y004534D01*
X032809Y004633D02*
X039151Y004633D01*
X039151Y004731D02*
X032711Y004731D01*
X032612Y004830D02*
X039151Y004830D01*
X039151Y004928D02*
X032514Y004928D01*
X032415Y005027D02*
X039151Y005027D01*
X039151Y005125D02*
X032361Y005125D01*
X032361Y005224D02*
X039151Y005224D01*
X039151Y005322D02*
X032361Y005322D01*
X032361Y005421D02*
X039151Y005421D01*
X039151Y005520D02*
X032361Y005520D01*
X032361Y005618D02*
X039151Y005618D01*
X039151Y005717D02*
X032361Y005717D01*
X032361Y005815D02*
X039151Y005815D01*
X039151Y005914D02*
X032361Y005914D01*
X032361Y006012D02*
X039151Y006012D01*
X039151Y006111D02*
X032361Y006111D01*
X032361Y006209D02*
X039151Y006209D01*
X039151Y006308D02*
X032361Y006308D01*
X032361Y006406D02*
X039151Y006406D01*
X039151Y006505D02*
X032459Y006505D01*
X032558Y006604D02*
X039151Y006604D01*
X039151Y006702D02*
X032656Y006702D01*
X032755Y006801D02*
X039151Y006801D01*
X039151Y006899D02*
X032853Y006899D01*
X032952Y006998D02*
X039151Y006998D01*
X039151Y007096D02*
X033051Y007096D01*
X033149Y007195D02*
X039151Y007195D01*
X039151Y007293D02*
X036688Y007293D01*
X036786Y007392D02*
X039151Y007392D01*
X039151Y007490D02*
X036885Y007490D01*
X036983Y007589D02*
X039151Y007589D01*
X039151Y007688D02*
X037082Y007688D01*
X037180Y007786D02*
X039151Y007786D01*
X039151Y007885D02*
X037279Y007885D01*
X037377Y007983D02*
X039151Y007983D01*
X039151Y008082D02*
X037829Y008082D01*
X037960Y008180D02*
X039151Y008180D01*
X039151Y008279D02*
X038036Y008279D01*
X038077Y008377D02*
X039151Y008377D01*
X039151Y008476D02*
X038094Y008476D01*
X038094Y008574D02*
X039151Y008574D01*
X039151Y008673D02*
X038068Y008673D01*
X038027Y008771D02*
X039151Y008771D01*
X039151Y008870D02*
X037937Y008870D01*
X037774Y008969D02*
X039151Y008969D01*
X036784Y007983D02*
X031861Y007983D01*
X031861Y007885D02*
X036685Y007885D01*
X036586Y007786D02*
X031861Y007786D01*
X031861Y007688D02*
X033048Y007688D01*
X032949Y007589D02*
X031861Y007589D01*
X031861Y007490D02*
X032851Y007490D01*
X032752Y007392D02*
X031861Y007392D01*
X031861Y007293D02*
X032654Y007293D01*
X032555Y007195D02*
X031861Y007195D01*
X031861Y007096D02*
X032457Y007096D01*
X032358Y006998D02*
X031861Y006998D01*
X031861Y006899D02*
X032260Y006899D01*
X032161Y006801D02*
X031861Y006801D01*
X031861Y006702D02*
X032062Y006702D01*
X031964Y006604D02*
X031861Y006604D01*
X031861Y006505D02*
X031941Y006505D01*
X031941Y006406D02*
X031861Y006406D01*
X031861Y006308D02*
X031941Y006308D01*
X031941Y006209D02*
X031861Y006209D01*
X031861Y006111D02*
X031941Y006111D01*
X031941Y006012D02*
X031861Y006012D01*
X031861Y005914D02*
X031941Y005914D01*
X031941Y005815D02*
X031861Y005815D01*
X031861Y005717D02*
X031941Y005717D01*
X031941Y005618D02*
X031861Y005618D01*
X031861Y005520D02*
X031941Y005520D01*
X031941Y005421D02*
X031861Y005421D01*
X031861Y005322D02*
X031941Y005322D01*
X031941Y005224D02*
X031861Y005224D01*
X031861Y005125D02*
X031941Y005125D01*
X031941Y005027D02*
X031861Y005027D01*
X031861Y004928D02*
X031941Y004928D01*
X032018Y004830D02*
X031861Y004830D01*
X031861Y004731D02*
X032117Y004731D01*
X032215Y004633D02*
X031861Y004633D01*
X031861Y004534D02*
X032314Y004534D01*
X032412Y004436D02*
X031891Y004436D01*
X032015Y004337D02*
X032441Y004337D01*
X032441Y004239D02*
X032091Y004239D01*
X032132Y004140D02*
X032441Y004140D01*
X032441Y004041D02*
X032151Y004041D01*
X032151Y003943D02*
X032441Y003943D01*
X032441Y003844D02*
X032130Y003844D01*
X032090Y003746D02*
X032441Y003746D01*
X032441Y003647D02*
X032012Y003647D01*
X031883Y003549D02*
X032441Y003549D01*
X031419Y003549D02*
X030883Y003549D01*
X031012Y003647D02*
X031291Y003647D01*
X031213Y003746D02*
X031090Y003746D01*
X031130Y003844D02*
X031172Y003844D01*
X031151Y003943D02*
X031151Y003943D01*
X031151Y004041D02*
X031151Y004041D01*
X031132Y004140D02*
X031171Y004140D01*
X031211Y004239D02*
X031091Y004239D01*
X031015Y004337D02*
X031287Y004337D01*
X031411Y004436D02*
X030891Y004436D01*
X029870Y005224D02*
X029861Y005224D01*
X029441Y005224D02*
X028433Y005224D01*
X028531Y005322D02*
X029441Y005322D01*
X029441Y005421D02*
X028541Y005421D01*
X028541Y005332D02*
X028313Y005104D01*
X027990Y005104D01*
X027761Y005332D01*
X027761Y005655D01*
X027990Y005884D01*
X028313Y005884D01*
X028541Y005655D01*
X028541Y005332D01*
X028541Y005520D02*
X029441Y005520D01*
X029441Y005618D02*
X028541Y005618D01*
X028480Y005717D02*
X029441Y005717D01*
X029441Y005815D02*
X028381Y005815D01*
X027921Y005815D02*
X026381Y005815D01*
X026361Y005914D02*
X029441Y005914D01*
X029441Y006012D02*
X026361Y006012D01*
X026361Y006111D02*
X029471Y006111D01*
X029570Y006209D02*
X026361Y006209D01*
X026361Y006308D02*
X029668Y006308D01*
X029767Y006406D02*
X026361Y006406D01*
X026377Y006505D02*
X027925Y006505D01*
X027843Y006604D02*
X026459Y006604D01*
X026500Y006702D02*
X027802Y006702D01*
X027801Y006801D02*
X026501Y006801D01*
X026501Y006899D02*
X027801Y006899D01*
X027801Y006998D02*
X026501Y006998D01*
X026501Y007096D02*
X027752Y007096D01*
X027653Y007195D02*
X026501Y007195D01*
X026497Y007293D02*
X027555Y007293D01*
X027456Y007392D02*
X026456Y007392D01*
X026370Y007490D02*
X027358Y007490D01*
X027259Y007589D02*
X025853Y007589D01*
X025754Y007688D02*
X027161Y007688D01*
X027062Y007786D02*
X025656Y007786D01*
X025557Y007885D02*
X026963Y007885D01*
X026865Y007983D02*
X025459Y007983D01*
X025361Y008082D02*
X026766Y008082D01*
X026668Y008180D02*
X025361Y008180D01*
X025361Y008279D02*
X026569Y008279D01*
X026471Y008377D02*
X026310Y008377D01*
X025993Y008377D02*
X025361Y008377D01*
X025445Y008476D02*
X025858Y008476D01*
X025795Y008574D02*
X025507Y008574D01*
X025541Y008673D02*
X025761Y008673D01*
X025761Y008771D02*
X025541Y008771D01*
X025541Y008870D02*
X025761Y008870D01*
X025761Y008969D02*
X025541Y008969D01*
X025541Y009067D02*
X025761Y009067D01*
X025761Y009166D02*
X025541Y009166D01*
X025541Y009264D02*
X025761Y009264D01*
X025774Y009363D02*
X025528Y009363D01*
X025487Y009461D02*
X025815Y009461D01*
X025906Y009560D02*
X025397Y009560D01*
X026397Y009560D02*
X026906Y009560D01*
X026815Y009461D02*
X026487Y009461D01*
X026528Y009363D02*
X026774Y009363D01*
X026761Y009264D02*
X026541Y009264D01*
X026541Y009166D02*
X026761Y009166D01*
X026761Y009067D02*
X026541Y009067D01*
X026541Y008969D02*
X026761Y008969D01*
X026761Y008870D02*
X026572Y008870D01*
X026670Y008771D02*
X026761Y008771D01*
X027656Y007786D02*
X029892Y007786D01*
X029793Y007688D02*
X027754Y007688D01*
X027853Y007589D02*
X029761Y007589D01*
X029761Y007490D02*
X028370Y007490D01*
X028456Y007392D02*
X029752Y007392D01*
X029654Y007293D02*
X028497Y007293D01*
X028500Y006702D02*
X030062Y006702D01*
X029964Y006604D02*
X028459Y006604D01*
X028377Y006505D02*
X029865Y006505D01*
X029755Y006801D02*
X030161Y006801D01*
X030260Y006899D02*
X029853Y006899D01*
X029952Y006998D02*
X030358Y006998D01*
X030441Y007096D02*
X030051Y007096D01*
X030404Y007195D02*
X030441Y007195D01*
X030861Y007885D02*
X031441Y007885D01*
X031441Y007983D02*
X030861Y007983D01*
X030860Y008082D02*
X031441Y008082D01*
X031441Y008180D02*
X030762Y008180D01*
X030663Y008279D02*
X031441Y008279D01*
X031441Y008377D02*
X030565Y008377D01*
X030466Y008476D02*
X031372Y008476D01*
X029007Y010841D02*
X027295Y010841D01*
X027394Y010939D02*
X028909Y010939D01*
X028810Y011038D02*
X027492Y011038D01*
X027591Y011137D02*
X028711Y011137D01*
X028613Y011235D02*
X027689Y011235D01*
X027788Y011334D02*
X028514Y011334D01*
X028441Y011432D02*
X028401Y011432D01*
X027901Y011432D02*
X027886Y011432D01*
X028861Y012516D02*
X028862Y012516D01*
X028827Y012615D02*
X029003Y012615D01*
X024951Y012615D02*
X024299Y012615D01*
X024440Y012516D02*
X024834Y012516D01*
X024775Y012418D02*
X024505Y012418D01*
X024541Y012319D02*
X024741Y012319D01*
X024741Y012221D02*
X024541Y012221D01*
X024541Y012122D02*
X024741Y012122D01*
X022862Y012516D02*
X022440Y012516D01*
X022505Y012418D02*
X022797Y012418D01*
X022761Y012319D02*
X022541Y012319D01*
X022541Y012221D02*
X022761Y012221D01*
X022761Y012122D02*
X022541Y012122D01*
X022541Y012023D02*
X022761Y012023D01*
X022761Y011925D02*
X022541Y011925D01*
X022541Y011826D02*
X022761Y011826D01*
X022761Y011728D02*
X022541Y011728D01*
X022530Y011629D02*
X022772Y011629D01*
X022813Y011531D02*
X022489Y011531D01*
X022401Y011432D02*
X022901Y011432D01*
X020906Y009560D02*
X020861Y009560D01*
X022536Y008082D02*
X022701Y008082D01*
X022701Y008180D02*
X022634Y008180D01*
X022701Y007983D02*
X022437Y007983D01*
X022361Y007885D02*
X022701Y007885D01*
X022702Y007786D02*
X022361Y007786D01*
X022361Y007688D02*
X022671Y007688D01*
X022671Y007589D02*
X022361Y007589D01*
X023612Y007786D02*
X023793Y007786D01*
X023891Y007885D02*
X023612Y007885D01*
X023612Y007983D02*
X024441Y007983D01*
X024441Y007885D02*
X024411Y007885D01*
X024441Y008082D02*
X023612Y008082D01*
X023612Y008180D02*
X024441Y008180D01*
X023694Y007688D02*
X023631Y007688D01*
X023631Y007589D02*
X023691Y007589D01*
X026480Y005717D02*
X027822Y005717D01*
X027761Y005618D02*
X026541Y005618D01*
X026541Y005520D02*
X027761Y005520D01*
X027761Y005421D02*
X026541Y005421D01*
X026531Y005322D02*
X027771Y005322D01*
X027870Y005224D02*
X026433Y005224D01*
X026334Y005125D02*
X027968Y005125D01*
X028334Y005125D02*
X029441Y005125D01*
X023441Y004731D02*
X022861Y004731D01*
X022861Y004633D02*
X023441Y004633D01*
X023441Y004534D02*
X022861Y004534D01*
X022891Y004436D02*
X023411Y004436D01*
X023287Y004337D02*
X023015Y004337D01*
X023091Y004239D02*
X023211Y004239D01*
X023171Y004140D02*
X023132Y004140D01*
X023151Y004041D02*
X023151Y004041D01*
X023151Y003943D02*
X023151Y003943D01*
X023130Y003844D02*
X023172Y003844D01*
X023213Y003746D02*
X023090Y003746D01*
X023012Y003647D02*
X023291Y003647D01*
X023419Y003549D02*
X022883Y003549D01*
X022441Y005027D02*
X020830Y005027D01*
X020990Y005125D02*
X022441Y005125D01*
X022441Y005224D02*
X021081Y005224D01*
X022032Y001972D02*
X015651Y001972D01*
X015642Y001873D02*
X021934Y001873D01*
X021835Y001775D02*
X015602Y001775D01*
X015541Y001676D02*
X021737Y001676D01*
X021638Y001578D02*
X015442Y001578D01*
X014860Y001578D02*
X011364Y001578D01*
X011266Y001676D02*
X014762Y001676D01*
X014701Y001775D02*
X011167Y001775D01*
X011069Y001873D02*
X013475Y001873D01*
X013376Y001972D02*
X010970Y001972D01*
X010871Y002071D02*
X013277Y002071D01*
X013179Y002169D02*
X010773Y002169D01*
X010674Y002268D02*
X013080Y002268D01*
X012982Y002366D02*
X010576Y002366D01*
X010477Y002465D02*
X012941Y002465D01*
X012941Y002563D02*
X010379Y002563D01*
X010280Y002662D02*
X012941Y002662D01*
X012941Y002760D02*
X010182Y002760D01*
X010083Y002859D02*
X012941Y002859D01*
X012941Y002957D02*
X009985Y002957D01*
X009886Y003056D02*
X010307Y003056D01*
X010318Y003045D02*
X010495Y002971D01*
X010687Y002971D01*
X010864Y003045D01*
X011000Y003181D01*
X011074Y003358D01*
X011074Y003550D01*
X011000Y003727D01*
X010864Y003863D01*
X010687Y003936D01*
X010495Y003936D01*
X010318Y003863D01*
X010182Y003727D01*
X010109Y003550D01*
X010109Y003358D01*
X010182Y003181D01*
X010318Y003045D01*
X010208Y003155D02*
X009787Y003155D01*
X010152Y003253D02*
X003861Y003253D01*
X003861Y003155D02*
X006515Y003155D01*
X006416Y003056D02*
X003861Y003056D01*
X003861Y002957D02*
X006318Y002957D01*
X006219Y002859D02*
X003861Y002859D01*
X003861Y002760D02*
X006121Y002760D01*
X006022Y002662D02*
X003861Y002662D01*
X003861Y002563D02*
X005924Y002563D01*
X005825Y002465D02*
X003861Y002465D01*
X003861Y002366D02*
X005727Y002366D01*
X005628Y002268D02*
X003861Y002268D01*
X003861Y002169D02*
X005529Y002169D01*
X005441Y002071D02*
X003861Y002071D01*
X003861Y001972D02*
X004499Y001972D01*
X004324Y001873D02*
X003979Y001873D01*
X004076Y001775D02*
X004226Y001775D01*
X004186Y001676D02*
X004117Y001676D01*
X004151Y001578D02*
X004151Y001578D01*
X004151Y001479D02*
X004151Y001479D01*
X004145Y001381D02*
X004157Y001381D01*
X004198Y001282D02*
X004105Y001282D01*
X004048Y001184D02*
X004254Y001184D01*
X004353Y001085D02*
X003950Y001085D01*
X003353Y001085D02*
X002950Y001085D01*
X003048Y001184D02*
X003254Y001184D01*
X003198Y001282D02*
X003105Y001282D01*
X003145Y001381D02*
X003157Y001381D01*
X003151Y001479D02*
X003151Y001479D01*
X003151Y001578D02*
X003151Y001578D01*
X003117Y001676D02*
X003186Y001676D01*
X003226Y001775D02*
X003076Y001775D01*
X002979Y001873D02*
X003324Y001873D01*
X003441Y001972D02*
X002861Y001972D01*
X002861Y002071D02*
X003441Y002071D01*
X003441Y002169D02*
X002861Y002169D01*
X002861Y002268D02*
X003441Y002268D01*
X003441Y002366D02*
X002861Y002366D01*
X002861Y002465D02*
X003441Y002465D01*
X003441Y002563D02*
X002861Y002563D01*
X002861Y002662D02*
X003441Y002662D01*
X003441Y002760D02*
X002861Y002760D01*
X002861Y002859D02*
X003441Y002859D01*
X003441Y002957D02*
X002861Y002957D01*
X002861Y003056D02*
X003441Y003056D01*
X003441Y003155D02*
X002861Y003155D01*
X002861Y003253D02*
X003441Y003253D01*
X003441Y003352D02*
X002861Y003352D01*
X002861Y003450D02*
X003441Y003450D01*
X003441Y003549D02*
X002861Y003549D01*
X002861Y003647D02*
X003441Y003647D01*
X003441Y003746D02*
X002861Y003746D01*
X002861Y003844D02*
X003441Y003844D01*
X003441Y003943D02*
X002897Y003943D01*
X002996Y004041D02*
X003441Y004041D01*
X003441Y004140D02*
X003094Y004140D01*
X003193Y004239D02*
X003441Y004239D01*
X003441Y004337D02*
X003291Y004337D01*
X003390Y004436D02*
X003441Y004436D01*
X003861Y004337D02*
X012941Y004337D01*
X012941Y004239D02*
X003861Y004239D01*
X003861Y004140D02*
X012941Y004140D01*
X012941Y004041D02*
X003861Y004041D01*
X003861Y003943D02*
X012941Y003943D01*
X012941Y003844D02*
X010883Y003844D01*
X010982Y003746D02*
X012941Y003746D01*
X012941Y003647D02*
X011033Y003647D01*
X011074Y003549D02*
X012941Y003549D01*
X012941Y003450D02*
X011074Y003450D01*
X011071Y003352D02*
X012941Y003352D01*
X012941Y003253D02*
X011030Y003253D01*
X010974Y003155D02*
X012941Y003155D01*
X012941Y003056D02*
X010876Y003056D01*
X010111Y003352D02*
X003861Y003352D01*
X003861Y003450D02*
X010109Y003450D01*
X010109Y003549D02*
X003861Y003549D01*
X003861Y003647D02*
X010149Y003647D01*
X010201Y003746D02*
X003861Y003746D01*
X003861Y003844D02*
X010299Y003844D01*
X009588Y002760D02*
X006715Y002760D01*
X006616Y002662D02*
X009686Y002662D01*
X009785Y002563D02*
X006518Y002563D01*
X006419Y002465D02*
X008922Y002465D01*
X008918Y002463D02*
X008782Y002327D01*
X008709Y002150D01*
X008709Y001958D01*
X008782Y001781D01*
X008918Y001645D01*
X009095Y001571D01*
X009287Y001571D01*
X009464Y001645D01*
X009600Y001781D01*
X009674Y001958D01*
X009674Y002150D01*
X009600Y002327D01*
X009464Y002463D01*
X009287Y002536D01*
X009095Y002536D01*
X008918Y002463D01*
X008821Y002366D02*
X006320Y002366D01*
X006222Y002268D02*
X008757Y002268D01*
X008717Y002169D02*
X006123Y002169D01*
X006025Y002071D02*
X008709Y002071D01*
X008709Y001972D02*
X006803Y001972D01*
X006751Y001994D02*
X006552Y001994D01*
X006368Y001918D01*
X006227Y001777D01*
X006151Y001593D01*
X006151Y001394D01*
X006227Y001211D01*
X006368Y001070D01*
X006552Y000994D01*
X006751Y000994D01*
X006934Y001070D01*
X007075Y001211D01*
X007151Y001394D01*
X007151Y001593D01*
X007075Y001777D01*
X006934Y001918D01*
X006751Y001994D01*
X006499Y001972D02*
X005926Y001972D01*
X005979Y001873D02*
X006324Y001873D01*
X006226Y001775D02*
X006076Y001775D01*
X006117Y001676D02*
X006186Y001676D01*
X006151Y001578D02*
X006151Y001578D01*
X006151Y001479D02*
X006151Y001479D01*
X006145Y001381D02*
X006157Y001381D01*
X006198Y001282D02*
X006105Y001282D01*
X006048Y001184D02*
X006254Y001184D01*
X006353Y001085D02*
X005950Y001085D01*
X005353Y001085D02*
X004950Y001085D01*
X005048Y001184D02*
X005254Y001184D01*
X005198Y001282D02*
X005105Y001282D01*
X005145Y001381D02*
X005157Y001381D01*
X005151Y001479D02*
X005151Y001479D01*
X005151Y001578D02*
X005151Y001578D01*
X005117Y001676D02*
X005186Y001676D01*
X005226Y001775D02*
X005076Y001775D01*
X004979Y001873D02*
X005324Y001873D01*
X005441Y001972D02*
X004803Y001972D01*
X006950Y001085D02*
X011263Y001085D01*
X011164Y001184D02*
X007048Y001184D01*
X007105Y001282D02*
X011066Y001282D01*
X010967Y001381D02*
X007145Y001381D01*
X007151Y001479D02*
X010869Y001479D01*
X010770Y001578D02*
X009303Y001578D01*
X009496Y001676D02*
X010672Y001676D01*
X010573Y001775D02*
X009595Y001775D01*
X009639Y001873D02*
X010475Y001873D01*
X010376Y001972D02*
X009674Y001972D01*
X009674Y002071D02*
X010277Y002071D01*
X010179Y002169D02*
X009666Y002169D01*
X009625Y002268D02*
X010080Y002268D01*
X009982Y002366D02*
X009561Y002366D01*
X009460Y002465D02*
X009883Y002465D01*
X009079Y001578D02*
X007151Y001578D01*
X007117Y001676D02*
X008886Y001676D01*
X008788Y001775D02*
X007076Y001775D01*
X006979Y001873D02*
X008744Y001873D01*
X013361Y002662D02*
X014776Y002662D01*
X014707Y002760D02*
X013361Y002760D01*
X013361Y002859D02*
X014666Y002859D01*
X014651Y002957D02*
X013361Y002957D01*
X013361Y003056D02*
X014651Y003056D01*
X014677Y003155D02*
X013361Y003155D01*
X013361Y003253D02*
X014717Y003253D01*
X014802Y003352D02*
X013361Y003352D01*
X013361Y003450D02*
X014946Y003450D01*
X014867Y003549D02*
X013361Y003549D01*
X013361Y003647D02*
X014762Y003647D01*
X014691Y003746D02*
X013361Y003746D01*
X013361Y003844D02*
X014650Y003844D01*
X014631Y003943D02*
X013361Y003943D01*
X012941Y004436D02*
X003890Y004436D01*
X003988Y004534D02*
X012941Y004534D01*
X012993Y004633D02*
X004087Y004633D01*
X004186Y004731D02*
X013092Y004731D01*
X013190Y004830D02*
X004284Y004830D01*
X004383Y004928D02*
X013289Y004928D01*
X013387Y005027D02*
X004481Y005027D01*
X004580Y005125D02*
X005437Y005125D01*
X005438Y005125D02*
X005615Y005051D01*
X005807Y005051D01*
X005984Y005125D01*
X006120Y005261D01*
X006194Y005438D01*
X006194Y005630D01*
X006120Y005807D01*
X005984Y005943D01*
X005807Y006016D01*
X005615Y006016D01*
X005438Y005943D01*
X005302Y005807D01*
X005229Y005630D01*
X005229Y005438D01*
X005302Y005261D01*
X005438Y005125D01*
X005339Y005224D02*
X004678Y005224D01*
X004777Y005322D02*
X005276Y005322D01*
X005236Y005421D02*
X004875Y005421D01*
X004974Y005520D02*
X005229Y005520D01*
X005229Y005618D02*
X005072Y005618D01*
X005171Y005717D02*
X005265Y005717D01*
X005269Y005815D02*
X005310Y005815D01*
X005368Y005914D02*
X005409Y005914D01*
X005467Y006012D02*
X005605Y006012D01*
X005565Y006111D02*
X010629Y006111D01*
X010629Y006012D02*
X005817Y006012D01*
X006014Y005914D02*
X010647Y005914D01*
X010688Y005815D02*
X006112Y005815D01*
X006158Y005717D02*
X010766Y005717D01*
X010902Y005618D02*
X006194Y005618D01*
X006194Y005520D02*
X013880Y005520D01*
X013978Y005618D02*
X011320Y005618D01*
X011456Y005717D02*
X014077Y005717D01*
X014176Y005815D02*
X011535Y005815D01*
X011575Y005914D02*
X014274Y005914D01*
X014373Y006012D02*
X011594Y006012D01*
X011594Y006111D02*
X014471Y006111D01*
X013781Y005421D02*
X006187Y005421D01*
X006146Y005322D02*
X013683Y005322D01*
X013584Y005224D02*
X006084Y005224D01*
X005985Y005125D02*
X013486Y005125D01*
X010653Y006209D02*
X005664Y006209D01*
X004865Y006505D02*
X003283Y006505D01*
X003441Y006406D02*
X004767Y006406D01*
X004668Y006308D02*
X003528Y006308D01*
X003569Y006209D02*
X004570Y006209D01*
X004471Y006111D02*
X003594Y006111D01*
X003594Y006012D02*
X004373Y006012D01*
X004274Y005914D02*
X003575Y005914D01*
X003535Y005815D02*
X004176Y005815D01*
X004077Y005717D02*
X003456Y005717D01*
X003320Y005618D02*
X003978Y005618D01*
X001386Y007096D02*
X000651Y007096D01*
X000651Y007195D02*
X001296Y007195D01*
X001255Y007293D02*
X000651Y007293D01*
X000651Y007392D02*
X001229Y007392D01*
X001229Y007490D02*
X000651Y007490D01*
X000651Y007589D02*
X001245Y007589D01*
X001286Y007688D02*
X000651Y007688D01*
X000651Y007786D02*
X001361Y007786D01*
X007337Y006505D02*
X010940Y006505D01*
X013379Y002563D02*
X014884Y002563D01*
X014981Y002465D02*
X013477Y002465D01*
X013576Y002366D02*
X014816Y002366D01*
X014723Y002268D02*
X013674Y002268D01*
X021739Y001085D02*
X038535Y001085D01*
X038634Y001184D02*
X021838Y001184D01*
X021936Y001282D02*
X038732Y001282D01*
X038831Y001381D02*
X022035Y001381D01*
X022134Y001479D02*
X038930Y001479D01*
X039028Y001578D02*
X022232Y001578D01*
X022331Y001676D02*
X039127Y001676D01*
X039151Y001775D02*
X022429Y001775D01*
X002441Y001972D02*
X001803Y001972D01*
X001979Y001873D02*
X002324Y001873D01*
X002226Y001775D02*
X002076Y001775D01*
X002117Y001676D02*
X002186Y001676D01*
X002151Y001578D02*
X002151Y001578D01*
X002151Y001479D02*
X002151Y001479D01*
X002145Y001381D02*
X002157Y001381D01*
X002198Y001282D02*
X002105Y001282D01*
X002048Y001184D02*
X002254Y001184D01*
X002353Y001085D02*
X001950Y001085D01*
X005942Y013107D02*
X006941Y013107D01*
X006941Y013206D02*
X006066Y013206D01*
X006138Y013304D02*
X006941Y013304D01*
X006941Y013403D02*
X006179Y013403D01*
X006194Y013502D02*
X006941Y013502D01*
X006941Y013600D02*
X006194Y013600D01*
X006165Y013699D02*
X006941Y013699D01*
X006941Y013797D02*
X006124Y013797D01*
X006032Y013896D02*
X006941Y013896D01*
X006941Y013994D02*
X005860Y013994D01*
X003438Y014388D02*
X001464Y014388D01*
X001547Y014487D02*
X003356Y014487D01*
X003315Y014586D02*
X001588Y014586D01*
X001601Y014684D02*
X003301Y014684D01*
X003301Y014783D02*
X001601Y014783D01*
X001563Y014881D02*
X003339Y014881D01*
X003399Y014980D02*
X001503Y014980D01*
X001391Y015078D02*
X003512Y015078D01*
X000952Y015078D02*
X000651Y015078D01*
X000651Y014980D02*
X000839Y014980D01*
X000779Y014881D02*
X000651Y014881D01*
X000651Y014783D02*
X000741Y014783D01*
X000741Y014684D02*
X000651Y014684D01*
X000651Y014586D02*
X000755Y014586D01*
X000796Y014487D02*
X000651Y014487D01*
X000651Y014388D02*
X000878Y014388D01*
X012270Y014980D02*
X012813Y014980D01*
X012853Y015078D02*
X012399Y015078D01*
X012497Y015177D02*
X012927Y015177D01*
X013025Y015275D02*
X012587Y015275D01*
X012628Y015374D02*
X013124Y015374D01*
X013353Y015472D02*
X012669Y015472D01*
X037852Y017443D02*
X037905Y017443D01*
D11*
X030151Y012254D02*
X030151Y011734D01*
X029151Y011734D02*
X029151Y012254D01*
X028151Y012254D02*
X028151Y011734D01*
X027151Y011734D02*
X027151Y012254D01*
X026151Y012254D02*
X026151Y011734D01*
X025151Y011734D02*
X025151Y012254D01*
X024151Y012254D02*
X024151Y011734D01*
X023151Y011734D02*
X023151Y012254D01*
X022151Y012254D02*
X022151Y011734D01*
X021151Y011734D02*
X021151Y012254D01*
X020151Y012254D02*
X020151Y011734D01*
X019151Y011734D02*
X019151Y012254D01*
X018151Y012254D02*
X018151Y011734D01*
X017151Y011734D02*
X017151Y012254D01*
X017151Y009254D02*
X017151Y008734D01*
X018151Y008734D02*
X018151Y009254D01*
X019151Y009254D02*
X019151Y008734D01*
X020151Y008734D02*
X020151Y009254D01*
X021151Y009254D02*
X021151Y008734D01*
X022151Y008734D02*
X022151Y009254D01*
X023151Y009254D02*
X023151Y008734D01*
X024151Y008734D02*
X024151Y009254D01*
X025151Y009254D02*
X025151Y008734D01*
X026151Y008734D02*
X026151Y009254D01*
X027151Y009254D02*
X027151Y008734D01*
X028151Y008734D02*
X028151Y009254D01*
X029151Y009254D02*
X029151Y008734D01*
X030151Y008734D02*
X030151Y009254D01*
D12*
X030151Y007494D03*
X030151Y005494D03*
X028151Y005494D03*
X026151Y005494D03*
X007986Y017500D03*
X006986Y017500D03*
X007486Y018250D03*
D13*
X011801Y015781D03*
X013651Y014600D03*
X013651Y016962D03*
D14*
X026151Y007214D02*
X026151Y006774D01*
X028151Y006774D02*
X028151Y007214D01*
D15*
X024151Y007494D03*
X023151Y007494D03*
X022651Y013494D03*
X018651Y013494D03*
X017651Y013494D03*
X016651Y013494D03*
X033651Y013994D03*
X037651Y013994D03*
X037651Y016994D03*
X037651Y017994D03*
X033651Y017994D03*
X033651Y016994D03*
D16*
X031911Y018214D02*
X031913Y018254D01*
X031919Y018295D01*
X031929Y018334D01*
X031942Y018372D01*
X031960Y018409D01*
X031981Y018443D01*
X032005Y018476D01*
X032032Y018506D01*
X032062Y018533D01*
X032095Y018557D01*
X032129Y018578D01*
X032166Y018596D01*
X032204Y018609D01*
X032243Y018619D01*
X032284Y018625D01*
X032324Y018627D01*
X032364Y018625D01*
X032405Y018619D01*
X032444Y018609D01*
X032482Y018596D01*
X032519Y018578D01*
X032553Y018557D01*
X032586Y018533D01*
X032616Y018506D01*
X032643Y018476D01*
X032667Y018443D01*
X032688Y018409D01*
X032706Y018372D01*
X032719Y018334D01*
X032729Y018295D01*
X032735Y018254D01*
X032737Y018214D01*
X032735Y018174D01*
X032729Y018133D01*
X032719Y018094D01*
X032706Y018056D01*
X032688Y018019D01*
X032667Y017985D01*
X032643Y017952D01*
X032616Y017922D01*
X032586Y017895D01*
X032553Y017871D01*
X032519Y017850D01*
X032482Y017832D01*
X032444Y017819D01*
X032405Y017809D01*
X032364Y017803D01*
X032324Y017801D01*
X032284Y017803D01*
X032243Y017809D01*
X032204Y017819D01*
X032166Y017832D01*
X032129Y017850D01*
X032095Y017871D01*
X032062Y017895D01*
X032032Y017922D01*
X032005Y017952D01*
X031981Y017985D01*
X031960Y018019D01*
X031942Y018056D01*
X031929Y018094D01*
X031919Y018133D01*
X031913Y018174D01*
X031911Y018214D01*
X028565Y018214D02*
X028567Y018254D01*
X028573Y018295D01*
X028583Y018334D01*
X028596Y018372D01*
X028614Y018409D01*
X028635Y018443D01*
X028659Y018476D01*
X028686Y018506D01*
X028716Y018533D01*
X028749Y018557D01*
X028783Y018578D01*
X028820Y018596D01*
X028858Y018609D01*
X028897Y018619D01*
X028938Y018625D01*
X028978Y018627D01*
X029018Y018625D01*
X029059Y018619D01*
X029098Y018609D01*
X029136Y018596D01*
X029173Y018578D01*
X029207Y018557D01*
X029240Y018533D01*
X029270Y018506D01*
X029297Y018476D01*
X029321Y018443D01*
X029342Y018409D01*
X029360Y018372D01*
X029373Y018334D01*
X029383Y018295D01*
X029389Y018254D01*
X029391Y018214D01*
X029389Y018174D01*
X029383Y018133D01*
X029373Y018094D01*
X029360Y018056D01*
X029342Y018019D01*
X029321Y017985D01*
X029297Y017952D01*
X029270Y017922D01*
X029240Y017895D01*
X029207Y017871D01*
X029173Y017850D01*
X029136Y017832D01*
X029098Y017819D01*
X029059Y017809D01*
X029018Y017803D01*
X028978Y017801D01*
X028938Y017803D01*
X028897Y017809D01*
X028858Y017819D01*
X028820Y017832D01*
X028783Y017850D01*
X028749Y017871D01*
X028716Y017895D01*
X028686Y017922D01*
X028659Y017952D01*
X028635Y017985D01*
X028614Y018019D01*
X028596Y018056D01*
X028583Y018094D01*
X028573Y018133D01*
X028567Y018174D01*
X028565Y018214D01*
X026411Y018214D02*
X026413Y018254D01*
X026419Y018295D01*
X026429Y018334D01*
X026442Y018372D01*
X026460Y018409D01*
X026481Y018443D01*
X026505Y018476D01*
X026532Y018506D01*
X026562Y018533D01*
X026595Y018557D01*
X026629Y018578D01*
X026666Y018596D01*
X026704Y018609D01*
X026743Y018619D01*
X026784Y018625D01*
X026824Y018627D01*
X026864Y018625D01*
X026905Y018619D01*
X026944Y018609D01*
X026982Y018596D01*
X027019Y018578D01*
X027053Y018557D01*
X027086Y018533D01*
X027116Y018506D01*
X027143Y018476D01*
X027167Y018443D01*
X027188Y018409D01*
X027206Y018372D01*
X027219Y018334D01*
X027229Y018295D01*
X027235Y018254D01*
X027237Y018214D01*
X027235Y018174D01*
X027229Y018133D01*
X027219Y018094D01*
X027206Y018056D01*
X027188Y018019D01*
X027167Y017985D01*
X027143Y017952D01*
X027116Y017922D01*
X027086Y017895D01*
X027053Y017871D01*
X027019Y017850D01*
X026982Y017832D01*
X026944Y017819D01*
X026905Y017809D01*
X026864Y017803D01*
X026824Y017801D01*
X026784Y017803D01*
X026743Y017809D01*
X026704Y017819D01*
X026666Y017832D01*
X026629Y017850D01*
X026595Y017871D01*
X026562Y017895D01*
X026532Y017922D01*
X026505Y017952D01*
X026481Y017985D01*
X026460Y018019D01*
X026442Y018056D01*
X026429Y018094D01*
X026419Y018133D01*
X026413Y018174D01*
X026411Y018214D01*
X023065Y018214D02*
X023067Y018254D01*
X023073Y018295D01*
X023083Y018334D01*
X023096Y018372D01*
X023114Y018409D01*
X023135Y018443D01*
X023159Y018476D01*
X023186Y018506D01*
X023216Y018533D01*
X023249Y018557D01*
X023283Y018578D01*
X023320Y018596D01*
X023358Y018609D01*
X023397Y018619D01*
X023438Y018625D01*
X023478Y018627D01*
X023518Y018625D01*
X023559Y018619D01*
X023598Y018609D01*
X023636Y018596D01*
X023673Y018578D01*
X023707Y018557D01*
X023740Y018533D01*
X023770Y018506D01*
X023797Y018476D01*
X023821Y018443D01*
X023842Y018409D01*
X023860Y018372D01*
X023873Y018334D01*
X023883Y018295D01*
X023889Y018254D01*
X023891Y018214D01*
X023889Y018174D01*
X023883Y018133D01*
X023873Y018094D01*
X023860Y018056D01*
X023842Y018019D01*
X023821Y017985D01*
X023797Y017952D01*
X023770Y017922D01*
X023740Y017895D01*
X023707Y017871D01*
X023673Y017850D01*
X023636Y017832D01*
X023598Y017819D01*
X023559Y017809D01*
X023518Y017803D01*
X023478Y017801D01*
X023438Y017803D01*
X023397Y017809D01*
X023358Y017819D01*
X023320Y017832D01*
X023283Y017850D01*
X023249Y017871D01*
X023216Y017895D01*
X023186Y017922D01*
X023159Y017952D01*
X023135Y017985D01*
X023114Y018019D01*
X023096Y018056D01*
X023083Y018094D01*
X023073Y018133D01*
X023067Y018174D01*
X023065Y018214D01*
D17*
X025151Y016994D03*
X030651Y016994D03*
D18*
X030652Y015411D03*
X025152Y015411D03*
D19*
X021651Y014994D03*
X020651Y014994D03*
X019651Y014994D03*
X018651Y014994D03*
X017651Y014994D03*
X016651Y014994D03*
X017651Y005494D03*
X018651Y005494D03*
X019651Y005494D03*
X020651Y005494D03*
X022651Y003994D03*
X023651Y003994D03*
X024651Y003994D03*
X025651Y003994D03*
X026651Y003994D03*
X027651Y003994D03*
X028651Y003994D03*
X029651Y003994D03*
X030651Y003994D03*
X031651Y003994D03*
X020651Y002494D03*
X019651Y002494D03*
X018651Y002494D03*
X017651Y002494D03*
X015151Y002994D03*
X015151Y003994D03*
X015151Y004994D03*
X015151Y001994D03*
X006651Y001494D03*
X005651Y001494D03*
X004651Y001494D03*
X003651Y001494D03*
X002651Y001494D03*
X001651Y001494D03*
D20*
X005711Y005534D03*
X007111Y006934D03*
X009711Y007454D03*
X011111Y006054D03*
X010591Y003454D03*
X009191Y002054D03*
X003111Y006054D03*
X001711Y007454D03*
X006591Y009534D03*
X005191Y010934D03*
X009191Y010054D03*
X010591Y011454D03*
X013191Y010934D03*
X014591Y009534D03*
X005711Y013534D03*
X007111Y014934D03*
X032691Y010474D03*
X032691Y008514D03*
X037611Y008514D03*
X037611Y010474D03*
D21*
X003731Y014704D03*
X001171Y014704D03*
X001171Y016484D03*
X003731Y016484D03*
D22*
X010651Y017494D03*
D23*
X009651Y017494D03*
D24*
X005400Y017527D03*
X026651Y013494D03*
X028651Y013494D03*
D25*
X004400Y017527D03*
D26*
X033651Y015994D03*
X033651Y014994D03*
X037651Y014994D03*
X037651Y015994D03*
D27*
X023151Y008994D02*
X023151Y007494D01*
D28*
X022151Y006994D02*
X022151Y007994D01*
X022651Y008494D01*
X022651Y010494D01*
X022151Y010994D01*
X022151Y011994D01*
X021151Y011994D02*
X021151Y010994D01*
X021651Y010494D01*
X021651Y006994D01*
X023651Y004994D01*
X023651Y003994D01*
X022651Y003994D02*
X021151Y002494D01*
X020651Y002494D01*
X021651Y001294D02*
X022351Y001994D01*
X031651Y001994D01*
X032651Y002994D01*
X032651Y004494D01*
X032151Y004994D01*
X032151Y006494D01*
X033151Y007494D01*
X036591Y007494D01*
X037611Y008514D01*
X036631Y009494D01*
X031151Y009494D01*
X029151Y011494D01*
X029151Y011994D01*
X028651Y011494D02*
X028651Y012494D01*
X028151Y012994D01*
X027151Y012994D01*
X026151Y011994D01*
X025651Y011494D02*
X025651Y014494D01*
X025151Y014994D01*
X025151Y015411D01*
X025152Y015411D01*
X020651Y014994D02*
X020651Y014494D01*
X018651Y012494D01*
X018651Y011494D01*
X019151Y010994D01*
X019151Y008994D01*
X018151Y008994D02*
X018151Y010994D01*
X017651Y011494D01*
X017651Y012494D01*
X018151Y012994D01*
X018151Y013994D01*
X018401Y014244D01*
X018901Y014244D01*
X019651Y014994D01*
X016651Y013494D02*
X016651Y009994D01*
X017151Y009494D01*
X017151Y008994D01*
X018651Y007994D02*
X016651Y005994D01*
X016651Y003494D01*
X016151Y002994D01*
X015151Y002994D01*
X015151Y001994D02*
X013651Y001994D01*
X013151Y002494D01*
X013151Y004494D01*
X014651Y005994D01*
X016151Y005994D01*
X017651Y007494D01*
X017651Y010994D01*
X017151Y011494D01*
X017151Y011994D01*
X018151Y011994D02*
X018151Y011494D01*
X018651Y010994D01*
X018651Y007994D01*
X019651Y007994D02*
X019651Y010994D01*
X019151Y011494D01*
X019151Y011994D01*
X020151Y011994D02*
X020151Y009994D01*
X020651Y009494D01*
X020651Y007494D01*
X022651Y005494D01*
X022651Y003994D01*
X024651Y003994D02*
X024651Y004494D01*
X022151Y006994D01*
X020651Y006994D02*
X019651Y007994D01*
X020651Y006994D02*
X020651Y005494D01*
X024651Y005494D02*
X025651Y004494D01*
X025651Y003994D01*
X026151Y005494D02*
X026151Y006994D01*
X025151Y007994D01*
X025151Y008994D01*
X026151Y008994D02*
X028151Y006994D01*
X029651Y006994D01*
X030151Y007494D01*
X030651Y006994D02*
X030651Y007994D01*
X030151Y008494D01*
X030151Y008994D01*
X031651Y008494D02*
X031651Y003994D01*
X029651Y003994D02*
X029651Y005994D01*
X030651Y006994D01*
X031651Y008494D02*
X028651Y011494D01*
X028151Y011994D02*
X027151Y010994D01*
X026151Y010994D01*
X025651Y011494D01*
X024651Y010994D02*
X024651Y005494D01*
X021651Y001294D02*
X011351Y001294D01*
X009651Y002994D01*
X006651Y002994D01*
X005651Y001994D01*
X005651Y001494D01*
X003651Y001494D02*
X003651Y004494D01*
X007151Y007994D01*
X007151Y014894D01*
X007111Y014934D01*
X005191Y010934D02*
X005191Y006534D01*
X002651Y003994D01*
X002651Y001494D01*
X024151Y011494D02*
X024151Y011994D01*
X024151Y011494D02*
X024651Y010994D01*
X030652Y015411D02*
X030734Y015494D01*
X031651Y015494D01*
X033151Y013994D01*
X033651Y013994D01*
X030652Y015411D02*
X032234Y016994D01*
X033651Y016994D01*
X033651Y017994D01*
X037651Y017994D02*
X038151Y017494D01*
X038151Y015494D01*
X037651Y014994D01*
X037651Y015994D02*
X037651Y016994D01*
M02*
