%
M48
M72
T01C0.0240
T02C0.0320
T03C0.0400
T04C0.0470
T05C0.0700
T06C0.0827
T07C0.0906
T08C0.1180
%
T01
X26151Y6994
X28151Y6994
T02
X30151Y7494
X30151Y8994
X29151Y8994
X28151Y8994
X27151Y8994
X26151Y8994
X25151Y8994
X24151Y8994
X23151Y8994
X22151Y8994
X21151Y8994
X20151Y8994
X19151Y8994
X18151Y8994
X17151Y8994
X17151Y11994
X18151Y11994
X19151Y11994
X20151Y11994
X21151Y11994
X22151Y11994
X23151Y11994
X24151Y11994
X25151Y11994
X26151Y11994
X27151Y11994
X28151Y11994
X29151Y11994
X30151Y11994
X28651Y13494
X26651Y13494
X22651Y13494
X18651Y13494
X17651Y13494
X16651Y13494
X10651Y17494
X9651Y17494
X7986Y17500
X6986Y17500
X7486Y18250
X5400Y17527
X4400Y17527
X23151Y7494
X24151Y7494
X26151Y5494
X28151Y5494
X30151Y5494
X33651Y13994
X33651Y14994
X33651Y15994
X33651Y16994
X33651Y17994
X37651Y17994
X37651Y16994
X37651Y15994
X37651Y14994
X37651Y13994
T03
X1651Y1494
X2651Y1494
X3651Y1494
X4651Y1494
X5651Y1494
X6651Y1494
X15151Y1994
X15151Y2994
X15151Y3994
X15151Y4994
X17651Y5494
X18651Y5494
X19651Y5494
X20651Y5494
X22651Y3994
X23651Y3994
X24651Y3994
X25651Y3994
X26651Y3994
X27651Y3994
X28651Y3994
X29651Y3994
X30651Y3994
X31651Y3994
X20651Y2494
X19651Y2494
X18651Y2494
X17651Y2494
X3731Y14704
X1171Y14704
X1171Y16484
X3731Y16484
X16651Y14994
X17651Y14994
X18651Y14994
X19651Y14994
X20651Y14994
X21651Y14994
T04
X13191Y10934
X14591Y9534
X10591Y11454
X9191Y10054
X6591Y9534
X5191Y10934
X5711Y13534
X7111Y14934
X9711Y7454
X7111Y6934
X5711Y5534
X3111Y6054
X1711Y7454
X10591Y3454
X9191Y2054
X11111Y6054
X32691Y8514
X32691Y10474
X37611Y10474
X37611Y8514
T05
X30652Y15411
X25152Y15411
T06
X26824Y18214
X28978Y18214
X32324Y18214
X23478Y18214
T07
X25151Y16994
X30651Y16994
T08
X13651Y16962
X11801Y15781
X13651Y14600
M30
