G75*
G70*
%OFA0B0*%
%FSLAX24Y24*%
%IPPOS*%
%LPD*%
%AMOC8*
5,1,8,0,0,1.08239X$1,22.5*
%
%ADD10C,0.0100*%
%ADD11C,0.0070*%
%ADD12C,0.0050*%
%ADD13C,0.0030*%
%ADD14R,0.0288X0.0004*%
%ADD15R,0.0356X0.0004*%
%ADD16R,0.0408X0.0004*%
%ADD17R,0.0444X0.0004*%
%ADD18R,0.0472X0.0004*%
%ADD19R,0.0504X0.0004*%
%ADD20R,0.0524X0.0004*%
%ADD21R,0.0544X0.0004*%
%ADD22R,0.0564X0.0004*%
%ADD23R,0.0580X0.0004*%
%ADD24R,0.0596X0.0004*%
%ADD25R,0.0604X0.0004*%
%ADD26R,0.0616X0.0004*%
%ADD27R,0.0208X0.0004*%
%ADD28R,0.0212X0.0004*%
%ADD29R,0.0176X0.0004*%
%ADD30R,0.0188X0.0004*%
%ADD31R,0.0160X0.0004*%
%ADD32R,0.0168X0.0004*%
%ADD33R,0.0148X0.0004*%
%ADD34R,0.0160X0.0004*%
%ADD35R,0.0136X0.0004*%
%ADD36R,0.0152X0.0004*%
%ADD37R,0.0132X0.0004*%
%ADD38R,0.0144X0.0004*%
%ADD39R,0.0128X0.0004*%
%ADD40R,0.0140X0.0004*%
%ADD41R,0.0124X0.0004*%
%ADD42R,0.0136X0.0004*%
%ADD43R,0.0124X0.0004*%
%ADD44R,0.0136X0.0004*%
%ADD45R,0.0120X0.0004*%
%ADD46R,0.0128X0.0004*%
%ADD47R,0.0116X0.0004*%
%ADD48R,0.0112X0.0004*%
%ADD49R,0.0116X0.0004*%
%ADD50R,0.0112X0.0004*%
%ADD51R,0.0120X0.0004*%
%ADD52R,0.0116X0.0004*%
%ADD53R,0.0116X0.0004*%
%ADD54R,0.0204X0.0004*%
%ADD55R,0.0268X0.0004*%
%ADD56R,0.0200X0.0004*%
%ADD57R,0.0300X0.0004*%
%ADD58R,0.0308X0.0004*%
%ADD59R,0.0368X0.0004*%
%ADD60R,0.0292X0.0004*%
%ADD61R,0.0352X0.0004*%
%ADD62R,0.0368X0.0004*%
%ADD63R,0.0424X0.0004*%
%ADD64R,0.0348X0.0004*%
%ADD65R,0.0392X0.0004*%
%ADD66R,0.0408X0.0004*%
%ADD67R,0.0464X0.0004*%
%ADD68R,0.0388X0.0004*%
%ADD69R,0.0444X0.0004*%
%ADD70R,0.0496X0.0004*%
%ADD71R,0.0416X0.0004*%
%ADD72R,0.0452X0.0004*%
%ADD73R,0.0468X0.0004*%
%ADD74R,0.0524X0.0004*%
%ADD75R,0.0444X0.0004*%
%ADD76R,0.0492X0.0004*%
%ADD77R,0.0544X0.0004*%
%ADD78R,0.0468X0.0004*%
%ADD79R,0.0488X0.0004*%
%ADD80R,0.0516X0.0004*%
%ADD81R,0.0564X0.0004*%
%ADD82R,0.0508X0.0004*%
%ADD83R,0.0536X0.0004*%
%ADD84R,0.0580X0.0004*%
%ADD85R,0.0524X0.0004*%
%ADD86R,0.0552X0.0004*%
%ADD87R,0.0596X0.0004*%
%ADD88R,0.0540X0.0004*%
%ADD89R,0.0564X0.0004*%
%ADD90R,0.0612X0.0004*%
%ADD91R,0.0536X0.0004*%
%ADD92R,0.0576X0.0004*%
%ADD93R,0.0624X0.0004*%
%ADD94R,0.0680X0.0004*%
%ADD95R,0.0592X0.0004*%
%ADD96R,0.0632X0.0004*%
%ADD97R,0.0560X0.0004*%
%ADD98R,0.0688X0.0004*%
%ADD99R,0.0600X0.0004*%
%ADD100R,0.0644X0.0004*%
%ADD101R,0.0236X0.0004*%
%ADD102R,0.0312X0.0004*%
%ADD103R,0.0216X0.0004*%
%ADD104R,0.0224X0.0004*%
%ADD105R,0.0200X0.0004*%
%ADD106R,0.0244X0.0004*%
%ADD107R,0.0196X0.0004*%
%ADD108R,0.0264X0.0004*%
%ADD109R,0.0176X0.0004*%
%ADD110R,0.0172X0.0004*%
%ADD111R,0.0260X0.0004*%
%ADD112R,0.0180X0.0004*%
%ADD113R,0.0240X0.0004*%
%ADD114R,0.0152X0.0004*%
%ADD115R,0.0152X0.0004*%
%ADD116R,0.0236X0.0004*%
%ADD117R,0.0168X0.0004*%
%ADD118R,0.0224X0.0004*%
%ADD119R,0.0164X0.0004*%
%ADD120R,0.0220X0.0004*%
%ADD121R,0.0212X0.0004*%
%ADD122R,0.0140X0.0004*%
%ADD123R,0.0132X0.0004*%
%ADD124R,0.0124X0.0004*%
%ADD125R,0.0156X0.0004*%
%ADD126R,0.0204X0.0004*%
%ADD127R,0.0148X0.0004*%
%ADD128R,0.0192X0.0004*%
%ADD129R,0.0192X0.0004*%
%ADD130R,0.0184X0.0004*%
%ADD131R,0.0184X0.0004*%
%ADD132R,0.0108X0.0004*%
%ADD133R,0.0176X0.0004*%
%ADD134R,0.0136X0.0004*%
%ADD135R,0.0132X0.0004*%
%ADD136R,0.0168X0.0004*%
%ADD137R,0.0108X0.0004*%
%ADD138R,0.0164X0.0004*%
%ADD139R,0.0108X0.0004*%
%ADD140R,0.0104X0.0004*%
%ADD141R,0.0124X0.0004*%
%ADD142R,0.0156X0.0004*%
%ADD143R,0.0156X0.0004*%
%ADD144R,0.0112X0.0004*%
%ADD145R,0.0108X0.0004*%
%ADD146R,0.0104X0.0004*%
%ADD147R,0.0112X0.0004*%
%ADD148R,0.0104X0.0004*%
%ADD149R,0.0144X0.0004*%
%ADD150R,0.0144X0.0004*%
%ADD151R,0.0104X0.0004*%
%ADD152R,0.0100X0.0004*%
%ADD153R,0.0100X0.0004*%
%ADD154R,0.0096X0.0004*%
%ADD155R,0.0128X0.0004*%
%ADD156R,0.0148X0.0004*%
%ADD157R,0.0228X0.0004*%
%ADD158R,0.0504X0.0004*%
%ADD159R,0.0532X0.0004*%
%ADD160R,0.0552X0.0004*%
%ADD161R,0.0688X0.0004*%
%ADD162R,0.0564X0.0004*%
%ADD163R,0.0568X0.0004*%
%ADD164R,0.0568X0.0004*%
%ADD165R,0.0552X0.0004*%
%ADD166R,0.0536X0.0004*%
%ADD167R,0.0472X0.0004*%
%ADD168R,0.0196X0.0004*%
%ADD169R,0.0132X0.0004*%
%ADD170R,0.0164X0.0004*%
%ADD171R,0.0172X0.0004*%
%ADD172R,0.0172X0.0004*%
%ADD173R,0.0188X0.0004*%
%ADD174R,0.0192X0.0004*%
%ADD175R,0.0204X0.0004*%
%ADD176R,0.0156X0.0004*%
%ADD177R,0.0172X0.0004*%
%ADD178R,0.0216X0.0004*%
%ADD179R,0.0216X0.0004*%
%ADD180R,0.0232X0.0004*%
%ADD181R,0.0168X0.0004*%
%ADD182R,0.0228X0.0004*%
%ADD183R,0.0232X0.0004*%
%ADD184R,0.0204X0.0004*%
%ADD185R,0.0256X0.0004*%
%ADD186R,0.0252X0.0004*%
%ADD187R,0.0256X0.0004*%
%ADD188R,0.0320X0.0004*%
%ADD189R,0.0224X0.0004*%
%ADD190R,0.0300X0.0004*%
%ADD191R,0.0236X0.0004*%
%ADD192R,0.0684X0.0004*%
%ADD193R,0.0636X0.0004*%
%ADD194R,0.0548X0.0004*%
%ADD195R,0.0556X0.0004*%
%ADD196R,0.0560X0.0004*%
%ADD197R,0.0624X0.0004*%
%ADD198R,0.0548X0.0004*%
%ADD199R,0.0612X0.0004*%
%ADD200R,0.0540X0.0004*%
%ADD201R,0.0600X0.0004*%
%ADD202R,0.0508X0.0004*%
%ADD203R,0.0516X0.0004*%
%ADD204R,0.0516X0.0004*%
%ADD205R,0.0584X0.0004*%
%ADD206R,0.0496X0.0004*%
%ADD207R,0.0500X0.0004*%
%ADD208R,0.0476X0.0004*%
%ADD209R,0.0480X0.0004*%
%ADD210R,0.0472X0.0004*%
%ADD211R,0.0460X0.0004*%
%ADD212R,0.0460X0.0004*%
%ADD213R,0.0452X0.0004*%
%ADD214R,0.0432X0.0004*%
%ADD215R,0.0436X0.0004*%
%ADD216R,0.0428X0.0004*%
%ADD217R,0.0408X0.0004*%
%ADD218R,0.0484X0.0004*%
%ADD219R,0.0396X0.0004*%
%ADD220R,0.0376X0.0004*%
%ADD221R,0.0376X0.0004*%
%ADD222R,0.0376X0.0004*%
%ADD223R,0.0448X0.0004*%
%ADD224R,0.0340X0.0004*%
%ADD225R,0.0332X0.0004*%
%ADD226R,0.0412X0.0004*%
%ADD227R,0.0312X0.0004*%
%ADD228R,0.0296X0.0004*%
%ADD229R,0.0280X0.0004*%
%ADD230R,0.0356X0.0004*%
%ADD231R,0.0188X0.0004*%
%ADD232R,0.0272X0.0004*%
%ADD233R,0.0284X0.0004*%
%ADD234R,0.0308X0.0004*%
%ADD235R,0.0316X0.0004*%
%ADD236R,0.0360X0.0004*%
%ADD237R,0.0348X0.0004*%
%ADD238R,0.0380X0.0004*%
%ADD239R,0.0400X0.0004*%
%ADD240R,0.0372X0.0004*%
%ADD241R,0.0412X0.0004*%
%ADD242R,0.0396X0.0004*%
%ADD243R,0.0440X0.0004*%
%ADD244R,0.0428X0.0004*%
%ADD245R,0.0484X0.0004*%
%ADD246R,0.0504X0.0004*%
%ADD247R,0.0520X0.0004*%
%ADD248R,0.0504X0.0004*%
%ADD249R,0.0536X0.0004*%
%ADD250R,0.0452X0.0004*%
%ADD251R,0.0464X0.0004*%
%ADD252R,0.0476X0.0004*%
%ADD253R,0.0576X0.0004*%
%ADD254R,0.0556X0.0004*%
%ADD255R,0.0588X0.0004*%
%ADD256R,0.0492X0.0004*%
%ADD257R,0.0684X0.0004*%
%ADD258R,0.0216X0.0004*%
%ADD259R,0.0304X0.0004*%
%ADD260R,0.0248X0.0004*%
%ADD261R,0.0148X0.0004*%
%ADD262R,0.0232X0.0004*%
%ADD263R,0.0180X0.0004*%
%ADD264R,0.0212X0.0004*%
%ADD265R,0.0144X0.0004*%
%ADD266R,0.0152X0.0004*%
%ADD267R,0.0164X0.0004*%
%ADD268R,0.0184X0.0004*%
%ADD269R,0.0192X0.0004*%
%ADD270R,0.0208X0.0004*%
%ADD271R,0.0252X0.0004*%
%ADD272R,0.0244X0.0004*%
%ADD273R,0.0276X0.0004*%
%ADD274R,0.0268X0.0004*%
%ADD275R,0.0184X0.0004*%
%ADD276R,0.0224X0.0004*%
%ADD277R,0.0592X0.0004*%
%ADD278R,0.0264X0.0004*%
%ADD279R,0.0324X0.0004*%
%ADD280R,0.0252X0.0004*%
%ADD281R,0.0228X0.0004*%
%ADD282R,0.0572X0.0004*%
%ADD283R,0.0584X0.0004*%
%ADD284R,0.0524X0.0004*%
%ADD285R,0.0528X0.0004*%
%ADD286R,0.0512X0.0004*%
%ADD287R,0.0476X0.0004*%
%ADD288R,0.0516X0.0004*%
%ADD289R,0.0488X0.0004*%
%ADD290R,0.0432X0.0004*%
%ADD291R,0.0436X0.0004*%
%ADD292R,0.0476X0.0004*%
%ADD293R,0.0416X0.0004*%
%ADD294R,0.0416X0.0004*%
%ADD295R,0.0376X0.0004*%
%ADD296R,0.0420X0.0004*%
%ADD297R,0.0424X0.0004*%
%ADD298R,0.0384X0.0004*%
%ADD299R,0.0384X0.0004*%
%ADD300R,0.0336X0.0004*%
%ADD301R,0.0388X0.0004*%
%ADD302R,0.0296X0.0004*%
%ADD303R,0.0344X0.0004*%
%ADD304R,0.0344X0.0004*%
%ADD305R,0.0288X0.0004*%
%ADD306R,0.0280X0.0004*%
%ADD307C,0.0080*%
%ADD308C,0.0040*%
%ADD309C,0.0060*%
%ADD310R,0.0450X0.0010*%
%ADD311R,0.0230X0.0010*%
%ADD312R,0.1580X0.0010*%
%ADD313R,0.2480X0.0010*%
%ADD314R,0.0680X0.0010*%
%ADD315R,0.0220X0.0010*%
%ADD316C,0.0020*%
%ADD317R,0.0340X0.0240*%
%ADD318C,0.0120*%
%ADD319C,0.0160*%
%ADD320R,0.0200X0.0800*%
%ADD321R,0.0750X0.0200*%
D10*
X001151Y000494D02*
X038651Y000494D01*
X039651Y001494D01*
X039651Y017994D01*
X038651Y018994D01*
X001151Y018994D01*
X000151Y017994D01*
X000151Y001494D01*
X001151Y000494D01*
X013711Y013146D02*
X013713Y013169D01*
X013719Y013192D01*
X013728Y013214D01*
X013741Y013233D01*
X013757Y013250D01*
X013775Y013265D01*
X013796Y013276D01*
X013818Y013284D01*
X013841Y013288D01*
X013865Y013288D01*
X013888Y013284D01*
X013910Y013276D01*
X013931Y013265D01*
X013949Y013250D01*
X013965Y013233D01*
X013978Y013214D01*
X013987Y013192D01*
X013993Y013169D01*
X013995Y013146D01*
X013993Y013123D01*
X013987Y013100D01*
X013978Y013078D01*
X013965Y013059D01*
X013949Y013042D01*
X013931Y013027D01*
X013910Y013016D01*
X013888Y013008D01*
X013865Y013004D01*
X013841Y013004D01*
X013818Y013008D01*
X013796Y013016D01*
X013775Y013027D01*
X013757Y013042D01*
X013741Y013059D01*
X013728Y013078D01*
X013719Y013100D01*
X013713Y013123D01*
X013711Y013146D01*
X013803Y013146D02*
X013805Y013159D01*
X013810Y013172D01*
X013819Y013183D01*
X013830Y013190D01*
X013843Y013195D01*
X013856Y013196D01*
X013870Y013193D01*
X013882Y013187D01*
X013892Y013178D01*
X013899Y013166D01*
X013903Y013153D01*
X013903Y013139D01*
X013899Y013126D01*
X013892Y013114D01*
X013882Y013105D01*
X013870Y013099D01*
X013856Y013096D01*
X013843Y013097D01*
X013830Y013102D01*
X013819Y013109D01*
X013810Y013120D01*
X013805Y013133D01*
X013803Y013146D01*
D11*
X012700Y013886D02*
X012700Y014306D01*
X012280Y014306D02*
X012280Y013886D01*
X012490Y013676D01*
X012700Y013886D01*
X012056Y013781D02*
X012056Y014201D01*
X011950Y014306D01*
X011740Y014306D01*
X011635Y014201D01*
X011635Y014096D01*
X011740Y013991D01*
X012056Y013991D01*
X012056Y013781D02*
X011950Y013676D01*
X011740Y013676D01*
X011635Y013781D01*
X023736Y013879D02*
X023736Y014299D01*
X023946Y014509D01*
X024157Y014299D01*
X024157Y013879D01*
X024381Y013984D02*
X024486Y013879D01*
X024696Y013879D01*
X024801Y013984D01*
X024801Y014509D01*
X025025Y014509D02*
X025340Y014509D01*
X025446Y014404D01*
X025446Y013984D01*
X025340Y013879D01*
X025025Y013879D01*
X025025Y014509D01*
X025670Y014509D02*
X025880Y014509D01*
X025775Y014509D02*
X025775Y013879D01*
X025670Y013879D02*
X025880Y013879D01*
X026099Y013984D02*
X026205Y013879D01*
X026415Y013879D01*
X026520Y013984D01*
X026520Y014404D01*
X026415Y014509D01*
X026205Y014509D01*
X026099Y014404D01*
X026099Y013984D01*
X024381Y013984D02*
X024381Y014509D01*
X024157Y014194D02*
X023736Y014194D01*
X029336Y014089D02*
X029546Y013879D01*
X029757Y014089D01*
X029757Y014509D01*
X029981Y014509D02*
X030191Y014509D01*
X030086Y014509D02*
X030086Y013879D01*
X029981Y013879D02*
X030191Y013879D01*
X030410Y013879D02*
X030726Y013879D01*
X030831Y013984D01*
X030831Y014404D01*
X030726Y014509D01*
X030410Y014509D01*
X030410Y013879D01*
X031055Y013879D02*
X031475Y013879D01*
X031699Y013984D02*
X031805Y013879D01*
X032015Y013879D01*
X032120Y013984D01*
X032120Y014404D01*
X032015Y014509D01*
X031805Y014509D01*
X031699Y014404D01*
X031699Y013984D01*
X031265Y014194D02*
X031055Y014194D01*
X031055Y014509D02*
X031055Y013879D01*
X031055Y014509D02*
X031475Y014509D01*
X029336Y014509D02*
X029336Y014089D01*
X030686Y001659D02*
X030686Y001029D01*
X030686Y001344D02*
X031107Y001344D01*
X031331Y001134D02*
X031436Y001239D01*
X031751Y001239D01*
X031751Y001344D02*
X031751Y001029D01*
X031436Y001029D01*
X031331Y001134D01*
X031107Y001029D02*
X031107Y001659D01*
X031436Y001449D02*
X031646Y001449D01*
X031751Y001344D01*
X031975Y001344D02*
X032080Y001449D01*
X032396Y001449D01*
X032620Y001239D02*
X032935Y001449D01*
X033157Y001449D02*
X033367Y001029D01*
X033577Y001449D01*
X033801Y001449D02*
X033906Y001449D01*
X033906Y001029D01*
X033801Y001029D02*
X034012Y001029D01*
X034231Y001029D02*
X034546Y001029D01*
X034651Y001134D01*
X034546Y001239D01*
X034336Y001239D01*
X034231Y001344D01*
X034336Y001449D01*
X034651Y001449D01*
X034876Y001449D02*
X034981Y001449D01*
X034981Y001029D01*
X034876Y001029D02*
X035086Y001029D01*
X035305Y001134D02*
X035410Y001029D01*
X035621Y001029D01*
X035726Y001134D01*
X035726Y001344D01*
X035621Y001449D01*
X035410Y001449D01*
X035305Y001344D01*
X035305Y001134D01*
X035950Y001029D02*
X035950Y001449D01*
X036265Y001449D01*
X036370Y001344D01*
X036370Y001029D01*
X037239Y001449D02*
X037449Y001029D01*
X037659Y001449D01*
X037883Y001449D02*
X038094Y001659D01*
X038094Y001029D01*
X038304Y001029D02*
X037883Y001029D01*
X034981Y001659D02*
X034981Y001764D01*
X033906Y001764D02*
X033906Y001659D01*
X032935Y001029D02*
X032620Y001239D01*
X032620Y001029D02*
X032620Y001659D01*
X031975Y001344D02*
X031975Y001134D01*
X032080Y001029D01*
X032396Y001029D01*
D12*
X029876Y002569D02*
X029876Y002794D01*
X029801Y002869D01*
X029501Y002869D01*
X029426Y002794D01*
X029426Y002569D01*
X029876Y002569D01*
X029801Y003029D02*
X029726Y003029D01*
X029651Y003104D01*
X029651Y003254D01*
X029726Y003329D01*
X029801Y003329D01*
X029876Y003254D01*
X029876Y003104D01*
X029801Y003029D01*
X029651Y003104D02*
X029576Y003029D01*
X029501Y003029D01*
X029426Y003104D01*
X029426Y003254D01*
X029501Y003329D01*
X029576Y003329D01*
X029651Y003254D01*
X028876Y003254D02*
X028876Y003104D01*
X028801Y003029D01*
X028651Y003029D01*
X028651Y003254D01*
X028726Y003329D01*
X028801Y003329D01*
X028876Y003254D01*
X028651Y003029D02*
X028501Y003179D01*
X028426Y003329D01*
X028501Y002869D02*
X028426Y002794D01*
X028426Y002569D01*
X028876Y002569D01*
X028876Y002794D01*
X028801Y002869D01*
X028501Y002869D01*
X024876Y002869D02*
X024576Y002869D01*
X024426Y002719D01*
X024576Y002569D01*
X024876Y002569D01*
X024651Y002569D02*
X024651Y002869D01*
X024501Y003029D02*
X024426Y003104D01*
X024426Y003254D01*
X024501Y003329D01*
X024801Y003029D01*
X024876Y003104D01*
X024876Y003254D01*
X024801Y003329D01*
X024501Y003329D01*
X024501Y003029D02*
X024801Y003029D01*
X023876Y003029D02*
X023876Y003329D01*
X023876Y003179D02*
X023426Y003179D01*
X023576Y003029D01*
X023576Y002869D02*
X023876Y002869D01*
X023651Y002869D02*
X023651Y002569D01*
X023576Y002569D02*
X023426Y002719D01*
X023576Y002869D01*
X023576Y002569D02*
X023876Y002569D01*
X022876Y002569D02*
X022576Y002569D01*
X022426Y002719D01*
X022576Y002869D01*
X022876Y002869D01*
X022876Y003029D02*
X022576Y003329D01*
X022501Y003329D01*
X022426Y003254D01*
X022426Y003104D01*
X022501Y003029D01*
X022651Y002869D02*
X022651Y002569D01*
X022876Y003029D02*
X022876Y003329D01*
X020899Y003319D02*
X020899Y003244D01*
X020824Y003169D01*
X020599Y003169D01*
X020599Y003619D01*
X020824Y003619D01*
X020899Y003544D01*
X020899Y003469D01*
X020824Y003394D01*
X020599Y003394D01*
X020824Y003394D02*
X020899Y003319D01*
X019978Y003169D02*
X019678Y003169D01*
X019678Y003619D01*
X019978Y003619D01*
X019828Y003394D02*
X019678Y003394D01*
X019518Y003169D02*
X019218Y003169D01*
X019218Y003619D01*
X019057Y003544D02*
X018982Y003619D01*
X018757Y003619D01*
X018757Y003169D01*
X018982Y003169D01*
X019057Y003244D01*
X019057Y003544D01*
X018597Y003544D02*
X018597Y003244D01*
X018522Y003169D01*
X018297Y003169D01*
X018297Y003619D01*
X018522Y003619D01*
X018597Y003544D01*
X018137Y003469D02*
X018137Y003169D01*
X018137Y003394D02*
X017837Y003394D01*
X017837Y003469D02*
X017987Y003619D01*
X018137Y003469D01*
X017837Y003469D02*
X017837Y003169D01*
X017676Y003394D02*
X017601Y003319D01*
X017376Y003319D01*
X017376Y003169D02*
X017376Y003619D01*
X017601Y003619D01*
X017676Y003544D01*
X017676Y003394D01*
X016537Y002994D02*
X016237Y002994D01*
X016462Y003219D01*
X016462Y002769D01*
X016076Y002769D02*
X016076Y003069D01*
X015926Y003219D01*
X015776Y003069D01*
X015776Y002769D01*
X015776Y002994D02*
X016076Y002994D01*
X015926Y002219D02*
X016076Y002069D01*
X016076Y001769D01*
X016237Y001844D02*
X016312Y001769D01*
X016462Y001769D01*
X016537Y001844D01*
X016537Y001994D01*
X016462Y002069D01*
X016387Y002069D01*
X016237Y001994D01*
X016237Y002219D01*
X016537Y002219D01*
X016076Y001994D02*
X015776Y001994D01*
X015776Y002069D02*
X015776Y001769D01*
X015776Y002069D02*
X015926Y002219D01*
X014426Y002204D02*
X014351Y002279D01*
X013976Y002279D01*
X013976Y002440D02*
X014426Y002740D01*
X013976Y002740D01*
X014051Y002900D02*
X014351Y002900D01*
X014426Y002975D01*
X014426Y003125D01*
X014351Y003200D01*
X014426Y003360D02*
X013976Y003360D01*
X014051Y003200D02*
X013976Y003125D01*
X013976Y002975D01*
X014051Y002900D01*
X013976Y002440D02*
X014426Y002440D01*
X014426Y002204D02*
X014426Y002054D01*
X014351Y001979D01*
X013976Y001979D01*
X013976Y001819D02*
X014426Y001819D01*
X013976Y001519D01*
X014426Y001519D01*
X014201Y003360D02*
X014201Y003661D01*
X014351Y003821D02*
X013976Y003821D01*
X013976Y003661D02*
X014426Y003661D01*
X014351Y003821D02*
X014426Y003896D01*
X014426Y004046D01*
X014351Y004121D01*
X013976Y004121D01*
X013976Y004281D02*
X014426Y004281D01*
X014276Y004281D02*
X013976Y004581D01*
X014201Y004356D02*
X014426Y004581D01*
X017376Y006219D02*
X017376Y006669D01*
X017601Y006669D01*
X017676Y006594D01*
X017676Y006444D01*
X017601Y006369D01*
X017376Y006369D01*
X017837Y006444D02*
X018137Y006444D01*
X018137Y006519D02*
X017987Y006669D01*
X017837Y006519D01*
X017837Y006219D01*
X018137Y006219D02*
X018137Y006519D01*
X018297Y006669D02*
X018522Y006669D01*
X018597Y006594D01*
X018597Y006294D01*
X018522Y006219D01*
X018297Y006219D01*
X018297Y006669D01*
X018757Y006669D02*
X018982Y006669D01*
X019057Y006594D01*
X019057Y006294D01*
X018982Y006219D01*
X018757Y006219D01*
X018757Y006669D01*
X019218Y006669D02*
X019218Y006219D01*
X019518Y006219D01*
X019678Y006219D02*
X019978Y006219D01*
X019828Y006444D02*
X019678Y006444D01*
X019678Y006669D02*
X019678Y006219D01*
X019678Y006669D02*
X019978Y006669D01*
X020599Y006519D02*
X020599Y006219D01*
X020599Y006444D02*
X020899Y006444D01*
X020899Y006519D02*
X020749Y006669D01*
X020599Y006519D01*
X020899Y006519D02*
X020899Y006219D01*
X023176Y006394D02*
X023251Y006319D01*
X023401Y006319D01*
X023476Y006394D01*
X023637Y006394D02*
X023712Y006319D01*
X023862Y006319D01*
X023937Y006394D01*
X023937Y006544D01*
X023862Y006619D01*
X023787Y006619D01*
X023637Y006544D01*
X023637Y006769D01*
X023937Y006769D01*
X023476Y006694D02*
X023401Y006769D01*
X023251Y006769D01*
X023176Y006694D01*
X023176Y006394D01*
X024676Y005694D02*
X024676Y005394D01*
X024751Y005319D01*
X024901Y005319D01*
X024976Y005394D01*
X025137Y005394D02*
X025212Y005319D01*
X025362Y005319D01*
X025437Y005394D01*
X025437Y005469D01*
X025362Y005544D01*
X025287Y005544D01*
X025362Y005544D02*
X025437Y005619D01*
X025437Y005694D01*
X025362Y005769D01*
X025212Y005769D01*
X025137Y005694D01*
X024976Y005694D02*
X024901Y005769D01*
X024751Y005769D01*
X024676Y005694D01*
X026676Y006894D02*
X026751Y006819D01*
X026901Y006819D01*
X026976Y006894D01*
X026976Y007194D01*
X026901Y007269D01*
X026751Y007269D01*
X026676Y007194D01*
X026676Y006894D01*
X026826Y006969D02*
X026976Y006819D01*
X027137Y006819D02*
X027437Y006819D01*
X027287Y006819D02*
X027287Y007269D01*
X027137Y007119D01*
X030876Y007594D02*
X030951Y007519D01*
X031101Y007519D01*
X031176Y007594D01*
X031337Y007744D02*
X031637Y007744D01*
X031562Y007519D02*
X031562Y007969D01*
X031337Y007744D01*
X031176Y007894D02*
X031101Y007969D01*
X030951Y007969D01*
X030876Y007894D01*
X030876Y007594D01*
X024244Y010319D02*
X023943Y010319D01*
X024094Y010319D02*
X024094Y010769D01*
X023943Y010619D01*
X023783Y010694D02*
X023708Y010769D01*
X023558Y010769D01*
X023483Y010694D01*
X023483Y010394D01*
X023558Y010319D01*
X023708Y010319D01*
X023783Y010394D01*
X023326Y010319D02*
X023176Y010319D01*
X023251Y010319D02*
X023251Y010769D01*
X023176Y010769D02*
X023326Y010769D01*
X023176Y012819D02*
X023176Y013269D01*
X023401Y013269D01*
X023476Y013194D01*
X023476Y013044D01*
X023401Y012969D01*
X023176Y012969D01*
X023326Y012969D02*
X023476Y012819D01*
X023637Y012819D02*
X023937Y012819D01*
X023787Y012819D02*
X023787Y013269D01*
X023637Y013119D01*
X021247Y013269D02*
X021022Y013494D01*
X020947Y013419D02*
X021247Y013719D01*
X020947Y013719D02*
X020947Y013269D01*
X020787Y013344D02*
X020787Y013644D01*
X020487Y013344D01*
X020562Y013269D01*
X020712Y013269D01*
X020787Y013344D01*
X020787Y013644D02*
X020712Y013719D01*
X020562Y013719D01*
X020487Y013644D01*
X020487Y013344D01*
X020326Y013269D02*
X020026Y013269D01*
X020176Y013269D02*
X020176Y013719D01*
X020026Y013569D01*
X016687Y012769D02*
X016537Y012694D01*
X016387Y012544D01*
X016612Y012544D01*
X016687Y012469D01*
X016687Y012394D01*
X016612Y012319D01*
X016462Y012319D01*
X016387Y012394D01*
X016387Y012544D01*
X016226Y012394D02*
X016151Y012319D01*
X016001Y012319D01*
X015926Y012394D01*
X015926Y012694D01*
X016001Y012769D01*
X016151Y012769D01*
X016226Y012694D01*
X014862Y011269D02*
X014712Y011269D01*
X014637Y011194D01*
X014476Y011194D02*
X014401Y011269D01*
X014176Y011269D01*
X014176Y010819D01*
X014401Y010819D01*
X014476Y010894D01*
X014476Y011194D01*
X014862Y011269D02*
X014937Y011194D01*
X014937Y011119D01*
X014637Y010819D01*
X014937Y010819D01*
X014220Y012772D02*
X014186Y012742D01*
X014151Y012714D01*
X014113Y012689D01*
X014073Y012668D01*
X014031Y012650D01*
X013988Y012636D01*
X013944Y012625D01*
X013899Y012619D01*
X013854Y012616D01*
X013808Y012617D01*
X013763Y012622D01*
X013719Y012631D01*
X013675Y012644D01*
X013633Y012660D01*
X013592Y012680D01*
X013553Y012703D01*
X013517Y012729D01*
X013482Y012759D01*
X013451Y012791D01*
X013422Y012826D01*
X013396Y012864D01*
X013374Y012903D01*
X013355Y012944D01*
X013339Y012987D01*
X013328Y013030D01*
X013320Y013075D01*
X013316Y013120D01*
X013315Y013166D01*
X013319Y013211D01*
X013327Y013255D01*
X013338Y013299D01*
X013353Y013342D01*
X013372Y013383D01*
X013394Y013423D01*
X013419Y013460D01*
X013448Y013496D01*
X013479Y013528D01*
X013513Y013558D01*
X013550Y013585D01*
X013589Y013608D01*
X013629Y013628D01*
X013671Y013645D01*
X013715Y013658D01*
X013759Y013667D01*
X013804Y013672D01*
X013849Y013674D01*
X013895Y013672D01*
X013940Y013665D01*
X013984Y013655D01*
X014027Y013641D01*
X014069Y013624D01*
X014109Y013603D01*
X014147Y013579D01*
X014183Y013551D01*
X014217Y013521D01*
X010437Y015819D02*
X010137Y015819D01*
X010287Y015819D02*
X010287Y016269D01*
X010137Y016119D01*
X009976Y016194D02*
X009901Y016269D01*
X009751Y016269D01*
X009676Y016194D01*
X009676Y015894D01*
X009751Y015819D01*
X009901Y015819D01*
X009976Y015894D01*
X008094Y016269D02*
X007793Y016269D01*
X008094Y016569D01*
X008094Y016644D01*
X008019Y016719D01*
X007868Y016719D01*
X007793Y016644D01*
X007633Y016644D02*
X007558Y016719D01*
X007408Y016719D01*
X007333Y016644D01*
X007333Y016344D01*
X007408Y016269D01*
X007558Y016269D01*
X007633Y016344D01*
X007176Y016269D02*
X007026Y016269D01*
X007101Y016269D02*
X007101Y016719D01*
X007026Y016719D02*
X007176Y016719D01*
X005437Y016194D02*
X005437Y016119D01*
X005137Y015819D01*
X005437Y015819D01*
X004976Y015894D02*
X004901Y015819D01*
X004751Y015819D01*
X004676Y015894D01*
X004676Y016194D01*
X004751Y016269D01*
X004901Y016269D01*
X004976Y016194D01*
X005137Y016194D02*
X005212Y016269D01*
X005362Y016269D01*
X005437Y016194D01*
X003415Y017087D02*
X003415Y017537D01*
X003265Y017537D02*
X003565Y017537D01*
X003104Y017537D02*
X002804Y017537D01*
X002804Y017087D01*
X003104Y017087D01*
X002954Y017312D02*
X002804Y017312D01*
X002644Y017237D02*
X002569Y017312D01*
X002419Y017312D01*
X002344Y017387D01*
X002344Y017462D01*
X002419Y017537D01*
X002569Y017537D01*
X002644Y017462D01*
X002644Y017237D02*
X002644Y017162D01*
X002569Y017087D01*
X002419Y017087D01*
X002344Y017162D01*
X002184Y017087D02*
X001884Y017087D01*
X001884Y017537D01*
X002184Y017537D01*
X002034Y017312D02*
X001884Y017312D01*
X001723Y017312D02*
X001648Y017237D01*
X001423Y017237D01*
X001423Y017087D02*
X001423Y017537D01*
X001648Y017537D01*
X001723Y017462D01*
X001723Y017312D01*
X001573Y017237D02*
X001723Y017087D01*
X005676Y014769D02*
X005901Y014769D01*
X005976Y014694D01*
X005976Y014394D01*
X005901Y014319D01*
X005676Y014319D01*
X005676Y014769D01*
X006137Y014544D02*
X006437Y014544D01*
X006362Y014319D02*
X006362Y014769D01*
X006137Y014544D01*
X002362Y010769D02*
X002437Y010694D01*
X002437Y010619D01*
X002362Y010544D01*
X002437Y010469D01*
X002437Y010394D01*
X002362Y010319D01*
X002212Y010319D01*
X002137Y010394D01*
X001976Y010394D02*
X001976Y010694D01*
X001901Y010769D01*
X001676Y010769D01*
X001676Y010319D01*
X001901Y010319D01*
X001976Y010394D01*
X002137Y010694D02*
X002212Y010769D01*
X002362Y010769D01*
X002362Y010544D02*
X002287Y010544D01*
X005501Y003390D02*
X005801Y003090D01*
X005876Y003165D01*
X005876Y003315D01*
X005801Y003390D01*
X005501Y003390D01*
X005426Y003315D01*
X005426Y003165D01*
X005501Y003090D01*
X005801Y003090D01*
X005876Y002929D02*
X005876Y002629D01*
X005876Y002779D02*
X005426Y002779D01*
X005576Y002629D01*
X005501Y002469D02*
X005426Y002394D01*
X005426Y002169D01*
X005876Y002169D01*
X005876Y002394D01*
X005801Y002469D01*
X005501Y002469D01*
X004876Y002394D02*
X004876Y002169D01*
X004426Y002169D01*
X004426Y002394D01*
X004501Y002469D01*
X004801Y002469D01*
X004876Y002394D01*
X004801Y002629D02*
X004876Y002704D01*
X004876Y002854D01*
X004801Y002929D01*
X004651Y002929D01*
X004576Y002854D01*
X004576Y002779D01*
X004651Y002629D01*
X004426Y002629D01*
X004426Y002929D01*
X003876Y002854D02*
X003426Y002854D01*
X003651Y002629D01*
X003651Y002929D01*
X002876Y002854D02*
X002876Y002704D01*
X002801Y002629D01*
X002801Y002469D02*
X002501Y002469D01*
X002426Y002394D01*
X002426Y002169D01*
X002876Y002169D01*
X002876Y002394D01*
X002801Y002469D01*
X002501Y002629D02*
X002426Y002704D01*
X002426Y002854D01*
X002501Y002929D01*
X002576Y002929D01*
X002651Y002854D01*
X002726Y002929D01*
X002801Y002929D01*
X002876Y002854D01*
X002651Y002854D02*
X002651Y002779D01*
X001876Y002629D02*
X001576Y002929D01*
X001501Y002929D01*
X001426Y002854D01*
X001426Y002704D01*
X001501Y002629D01*
X001501Y002469D02*
X001426Y002394D01*
X001426Y002169D01*
X001876Y002169D01*
X001876Y002394D01*
X001801Y002469D01*
X001501Y002469D01*
X001876Y002629D02*
X001876Y002929D01*
X003426Y002394D02*
X003426Y002169D01*
X003876Y002169D01*
X003876Y002394D01*
X003801Y002469D01*
X003501Y002469D01*
X003426Y002394D01*
X010676Y002319D02*
X010901Y002319D01*
X010976Y002394D01*
X010976Y002694D01*
X010901Y002769D01*
X010676Y002769D01*
X010676Y002319D01*
X011137Y002394D02*
X011212Y002319D01*
X011362Y002319D01*
X011437Y002394D01*
X011437Y002544D01*
X011362Y002619D01*
X011287Y002619D01*
X011137Y002544D01*
X011137Y002769D01*
X011437Y002769D01*
X019426Y001679D02*
X019576Y001529D01*
X019501Y001369D02*
X019426Y001294D01*
X019426Y001069D01*
X019876Y001069D01*
X019876Y001294D01*
X019801Y001369D01*
X019501Y001369D01*
X019426Y001679D02*
X019876Y001679D01*
X019876Y001529D02*
X019876Y001829D01*
X020426Y001754D02*
X020426Y001604D01*
X020501Y001529D01*
X020576Y001369D02*
X020876Y001369D01*
X020876Y001529D02*
X020576Y001829D01*
X020501Y001829D01*
X020426Y001754D01*
X020576Y001369D02*
X020426Y001219D01*
X020576Y001069D01*
X020876Y001069D01*
X020651Y001069D02*
X020651Y001369D01*
X020876Y001529D02*
X020876Y001829D01*
X020876Y004069D02*
X020576Y004069D01*
X020426Y004219D01*
X020576Y004369D01*
X020876Y004369D01*
X020801Y004529D02*
X020876Y004604D01*
X020876Y004754D01*
X020801Y004829D01*
X020726Y004829D01*
X020651Y004754D01*
X020651Y004679D01*
X020651Y004754D02*
X020576Y004829D01*
X020501Y004829D01*
X020426Y004754D01*
X020426Y004604D01*
X020501Y004529D01*
X020651Y004369D02*
X020651Y004069D01*
X019876Y004069D02*
X019876Y004294D01*
X019801Y004369D01*
X019501Y004369D01*
X019426Y004294D01*
X019426Y004069D01*
X019876Y004069D01*
X019801Y004529D02*
X019501Y004529D01*
X019426Y004604D01*
X019426Y004754D01*
X019501Y004829D01*
X019801Y004529D01*
X019876Y004604D01*
X019876Y004754D01*
X019801Y004829D01*
X019501Y004829D01*
X027176Y012819D02*
X027176Y013269D01*
X027401Y013269D01*
X027476Y013194D01*
X027476Y013044D01*
X027401Y012969D01*
X027176Y012969D01*
X027637Y013044D02*
X027937Y013044D01*
X027937Y013119D02*
X027937Y012819D01*
X028097Y012819D02*
X028397Y012819D01*
X028097Y012819D02*
X028097Y013269D01*
X027937Y013119D02*
X027787Y013269D01*
X027637Y013119D01*
X027637Y012819D01*
X034676Y012769D02*
X034676Y012319D01*
X034901Y012319D01*
X034976Y012394D01*
X034976Y012694D01*
X034901Y012769D01*
X034676Y012769D01*
X035137Y012619D02*
X035287Y012769D01*
X035287Y012319D01*
X035137Y012319D02*
X035437Y012319D01*
X035597Y012394D02*
X035897Y012694D01*
X035897Y012394D01*
X035822Y012319D01*
X035672Y012319D01*
X035597Y012394D01*
X035597Y012694D01*
X035672Y012769D01*
X035822Y012769D01*
X035897Y012694D01*
X035862Y013769D02*
X035787Y013844D01*
X035862Y013769D02*
X036012Y013769D01*
X036087Y013844D01*
X036087Y013994D01*
X036012Y014069D01*
X035937Y014069D01*
X035787Y013994D01*
X035787Y014219D01*
X036087Y014219D01*
X035626Y014219D02*
X035626Y014144D01*
X035326Y013844D01*
X035326Y013769D01*
X035326Y014219D02*
X035626Y014219D01*
X038176Y014269D02*
X038176Y013819D01*
X038176Y013969D02*
X038401Y013969D01*
X038476Y014044D01*
X038476Y014194D01*
X038401Y014269D01*
X038176Y014269D01*
X038326Y013969D02*
X038476Y013819D01*
X038637Y014044D02*
X038937Y014044D01*
X038862Y013819D02*
X038862Y014269D01*
X038637Y014044D01*
X038637Y014819D02*
X038937Y014819D01*
X038787Y014819D02*
X038787Y015269D01*
X038637Y015119D01*
X038476Y015194D02*
X038401Y015269D01*
X038176Y015269D01*
X038176Y014819D01*
X038401Y014819D01*
X038476Y014894D01*
X038476Y015194D01*
X038401Y015819D02*
X038476Y015894D01*
X038476Y016194D01*
X038401Y016269D01*
X038176Y016269D01*
X038176Y015819D01*
X038401Y015819D01*
X038637Y015819D02*
X038937Y016119D01*
X038937Y016194D01*
X038862Y016269D01*
X038712Y016269D01*
X038637Y016194D01*
X038637Y015819D02*
X038937Y015819D01*
X038862Y016819D02*
X038712Y016819D01*
X038637Y016894D01*
X038476Y016819D02*
X038326Y016969D01*
X038401Y016969D02*
X038176Y016969D01*
X038176Y016819D02*
X038176Y017269D01*
X038401Y017269D01*
X038476Y017194D01*
X038476Y017044D01*
X038401Y016969D01*
X038637Y017194D02*
X038712Y017269D01*
X038862Y017269D01*
X038937Y017194D01*
X038937Y017119D01*
X038862Y017044D01*
X038937Y016969D01*
X038937Y016894D01*
X038862Y016819D01*
X038862Y017044D02*
X038787Y017044D01*
X038937Y017819D02*
X038637Y017819D01*
X038937Y018119D01*
X038937Y018194D01*
X038862Y018269D01*
X038712Y018269D01*
X038637Y018194D01*
X038476Y018194D02*
X038476Y018044D01*
X038401Y017969D01*
X038176Y017969D01*
X038176Y017819D02*
X038176Y018269D01*
X038401Y018269D01*
X038476Y018194D01*
X038326Y017969D02*
X038476Y017819D01*
X036297Y017844D02*
X036222Y017769D01*
X036072Y017769D01*
X035997Y017844D01*
X036297Y018144D01*
X036297Y017844D01*
X035997Y017844D02*
X035997Y018144D01*
X036072Y018219D01*
X036222Y018219D01*
X036297Y018144D01*
X035837Y018144D02*
X035762Y018219D01*
X035612Y018219D01*
X035537Y018144D01*
X035376Y018144D02*
X035376Y018069D01*
X035301Y017994D01*
X035376Y017919D01*
X035376Y017844D01*
X035301Y017769D01*
X035151Y017769D01*
X035076Y017844D01*
X035226Y017994D02*
X035301Y017994D01*
X035376Y018144D02*
X035301Y018219D01*
X035151Y018219D01*
X035076Y018144D01*
X035537Y017844D02*
X035612Y017769D01*
X035762Y017769D01*
X035837Y017844D01*
X035837Y017919D01*
X035762Y017994D01*
X035687Y017994D01*
X035762Y017994D02*
X035837Y018069D01*
X035837Y018144D01*
X035787Y017219D02*
X035787Y016769D01*
X035787Y016919D02*
X036087Y017219D01*
X035862Y016994D02*
X036087Y016769D01*
X035626Y016769D02*
X035326Y016769D01*
X035476Y016769D02*
X035476Y017219D01*
X035326Y017069D01*
X022426Y017594D02*
X022426Y017744D01*
X022351Y017819D01*
X022201Y017819D01*
X022201Y017669D01*
X022051Y017819D02*
X021976Y017744D01*
X021976Y017594D01*
X022051Y017519D01*
X022351Y017519D01*
X022426Y017594D01*
X022426Y017979D02*
X021976Y017979D01*
X021976Y018204D01*
X022051Y018279D01*
X022201Y018279D01*
X022276Y018204D01*
X022276Y017979D01*
X022276Y018129D02*
X022426Y018279D01*
X022426Y018440D02*
X021976Y018440D01*
X022426Y018740D01*
X021976Y018740D01*
X016426Y018740D02*
X016201Y018515D01*
X016276Y018440D02*
X015976Y018740D01*
X015976Y018440D02*
X016426Y018440D01*
X016426Y018279D02*
X016426Y017979D01*
X015976Y017979D01*
X016051Y017819D02*
X016126Y017819D01*
X016201Y017744D01*
X016201Y017519D01*
X016201Y017744D02*
X016276Y017819D01*
X016351Y017819D01*
X016426Y017744D01*
X016426Y017519D01*
X015976Y017519D01*
X015976Y017744D01*
X016051Y017819D01*
D13*
X016061Y005149D02*
X016254Y004859D01*
X016254Y005149D01*
X016355Y005149D02*
X016501Y005149D01*
X016549Y005101D01*
X016549Y004907D01*
X016501Y004859D01*
X016355Y004859D01*
X016355Y005149D01*
X016061Y005149D02*
X016061Y004859D01*
X015960Y004907D02*
X015960Y005004D01*
X015863Y005004D01*
X015960Y005101D02*
X015911Y005149D01*
X015815Y005149D01*
X015766Y005101D01*
X015766Y004907D01*
X015815Y004859D01*
X015911Y004859D01*
X015960Y004907D01*
X016010Y004149D02*
X015816Y004149D01*
X015816Y004004D01*
X015913Y004052D01*
X015961Y004052D01*
X016010Y004004D01*
X016010Y003907D01*
X015961Y003859D01*
X015865Y003859D01*
X015816Y003907D01*
X016111Y003956D02*
X016111Y004149D01*
X016304Y004149D02*
X016304Y003956D01*
X016208Y003859D01*
X016111Y003956D01*
X017496Y004107D02*
X017544Y004059D01*
X017738Y004059D01*
X017786Y004107D01*
X017786Y004204D01*
X017738Y004252D01*
X017641Y004252D01*
X017641Y004156D01*
X017544Y004252D02*
X017496Y004204D01*
X017496Y004107D01*
X017496Y004354D02*
X017786Y004547D01*
X017496Y004547D01*
X017496Y004648D02*
X017496Y004793D01*
X017544Y004842D01*
X017738Y004842D01*
X017786Y004793D01*
X017786Y004648D01*
X017496Y004648D01*
X017496Y004354D02*
X017786Y004354D01*
X018496Y004359D02*
X018641Y004359D01*
X018593Y004456D01*
X018593Y004504D01*
X018641Y004552D01*
X018738Y004552D01*
X018786Y004504D01*
X018786Y004407D01*
X018738Y004359D01*
X018496Y004359D02*
X018496Y004552D01*
X018496Y004654D02*
X018689Y004654D01*
X018786Y004750D01*
X018689Y004847D01*
X018496Y004847D01*
X018546Y001847D02*
X018739Y001847D01*
X018836Y001750D01*
X018739Y001654D01*
X018546Y001654D01*
X018546Y001552D02*
X018546Y001359D01*
X018691Y001359D01*
X018643Y001456D01*
X018643Y001504D01*
X018691Y001552D01*
X018788Y001552D01*
X018836Y001504D01*
X018836Y001407D01*
X018788Y001359D01*
X017786Y001354D02*
X017496Y001354D01*
X017786Y001547D01*
X017496Y001547D01*
X017496Y001648D02*
X017496Y001793D01*
X017544Y001842D01*
X017738Y001842D01*
X017786Y001793D01*
X017786Y001648D01*
X017496Y001648D01*
X017544Y001252D02*
X017496Y001204D01*
X017496Y001107D01*
X017544Y001059D01*
X017738Y001059D01*
X017786Y001107D01*
X017786Y001204D01*
X017738Y001252D01*
X017641Y001252D01*
X017641Y001156D01*
X025484Y002358D02*
X025581Y002454D01*
X025774Y002454D01*
X025774Y002556D02*
X025484Y002556D01*
X025484Y002701D01*
X025532Y002749D01*
X025629Y002749D01*
X025677Y002701D01*
X025677Y002556D01*
X025677Y002652D02*
X025774Y002749D01*
X025774Y002850D02*
X025774Y003044D01*
X025774Y003145D02*
X025484Y003145D01*
X025484Y003338D01*
X025629Y003242D02*
X025629Y003145D01*
X025484Y003044D02*
X025484Y002850D01*
X025774Y002850D01*
X025629Y002850D02*
X025629Y002947D01*
X026496Y002854D02*
X026786Y003047D01*
X026496Y003047D01*
X026786Y003047D01*
X026496Y002854D01*
X026786Y002854D01*
X026496Y002854D01*
X026544Y002752D02*
X026496Y002704D01*
X026496Y002607D01*
X026544Y002559D01*
X026738Y002559D01*
X026786Y002607D01*
X026786Y002704D01*
X026738Y002752D01*
X026641Y002752D01*
X026641Y002656D01*
X026641Y002752D01*
X026738Y002752D01*
X026786Y002704D01*
X026786Y002607D01*
X026738Y002559D01*
X026544Y002559D01*
X026496Y002607D01*
X026496Y002704D01*
X026544Y002752D01*
X026496Y003148D02*
X026496Y003293D01*
X026544Y003342D01*
X026738Y003342D01*
X026786Y003293D01*
X026786Y003148D01*
X026496Y003148D01*
X026496Y003293D01*
X026544Y003342D01*
X026738Y003342D01*
X026786Y003293D01*
X026786Y003148D01*
X026496Y003148D01*
X027496Y003154D02*
X027689Y003154D01*
X027786Y003250D01*
X027689Y003347D01*
X027496Y003347D01*
X027496Y003052D02*
X027496Y002859D01*
X027641Y002859D01*
X027593Y002956D01*
X027593Y003004D01*
X027641Y003052D01*
X027738Y003052D01*
X027786Y003004D01*
X027786Y002907D01*
X027738Y002859D01*
X025774Y002261D02*
X025581Y002261D01*
X025484Y002358D01*
X025629Y002454D02*
X025629Y002261D01*
X030596Y002559D02*
X030596Y002704D01*
X030644Y002752D01*
X030838Y002752D01*
X030886Y002704D01*
X030886Y002559D01*
X030596Y002559D01*
X030693Y002854D02*
X030596Y002950D01*
X030886Y002950D01*
X030886Y002854D02*
X030886Y003047D01*
X030886Y003148D02*
X030693Y003342D01*
X030644Y003342D01*
X030596Y003293D01*
X030596Y003196D01*
X030644Y003148D01*
X030886Y003148D02*
X030886Y003342D01*
X031596Y003293D02*
X031644Y003342D01*
X031693Y003342D01*
X031741Y003293D01*
X031789Y003342D01*
X031838Y003342D01*
X031886Y003293D01*
X031886Y003196D01*
X031838Y003148D01*
X031886Y003047D02*
X031886Y002854D01*
X031886Y002950D02*
X031596Y002950D01*
X031693Y002854D01*
X031644Y002752D02*
X031596Y002704D01*
X031596Y002559D01*
X031886Y002559D01*
X031886Y002704D01*
X031838Y002752D01*
X031644Y002752D01*
X031644Y003148D02*
X031596Y003196D01*
X031596Y003293D01*
X031741Y003293D02*
X031741Y003245D01*
X007949Y001101D02*
X007901Y001149D01*
X007755Y001149D01*
X007755Y000859D01*
X007901Y000859D01*
X007949Y000907D01*
X007949Y001101D01*
X007654Y001149D02*
X007654Y000859D01*
X007461Y001149D01*
X007461Y000859D01*
X007360Y000907D02*
X007360Y001004D01*
X007263Y001004D01*
X007360Y001101D02*
X007311Y001149D01*
X007215Y001149D01*
X007166Y001101D01*
X007166Y000907D01*
X007215Y000859D01*
X007311Y000859D01*
X007360Y000907D01*
D14*
X033643Y006310D03*
X034451Y006310D03*
X036823Y006310D03*
X035595Y004970D03*
D15*
X035593Y004974D03*
X035585Y005594D03*
X034453Y005874D03*
X033645Y005874D03*
X036825Y005874D03*
D16*
X035595Y004978D03*
X033635Y005590D03*
D17*
X033645Y006294D03*
X034453Y006294D03*
X036825Y006294D03*
X035593Y004982D03*
D18*
X035595Y004986D03*
X032755Y005182D03*
D19*
X035595Y004990D03*
D20*
X035597Y004994D03*
X036541Y005562D03*
D21*
X035595Y004998D03*
X037703Y005910D03*
D22*
X035597Y005002D03*
D23*
X035597Y005006D03*
D24*
X035597Y005010D03*
D25*
X035597Y005014D03*
D26*
X035599Y005018D03*
D27*
X035387Y005022D03*
X034227Y005214D03*
X036231Y006254D03*
D28*
X035805Y005022D03*
X038633Y005922D03*
X038825Y005866D03*
D29*
X038611Y005926D03*
X037391Y006226D03*
X035739Y006222D03*
X035367Y005026D03*
D30*
X035825Y005026D03*
X035373Y005546D03*
X034453Y006314D03*
X033645Y006314D03*
X036825Y006314D03*
X037397Y005942D03*
D31*
X037935Y005938D03*
X038599Y005930D03*
X035891Y005250D03*
X035355Y005030D03*
X034703Y005218D03*
X034191Y005418D03*
X032519Y005230D03*
D32*
X035839Y005030D03*
D33*
X035897Y005262D03*
X035897Y005506D03*
X035345Y005034D03*
X034693Y005542D03*
X033865Y005542D03*
X033401Y005226D03*
X033077Y005266D03*
X033077Y005506D03*
X032505Y005526D03*
X035725Y006202D03*
X037377Y006206D03*
X037377Y005966D03*
D34*
X036223Y005514D03*
X035847Y005034D03*
X035731Y006214D03*
X033411Y005222D03*
X032519Y005534D03*
X032483Y006222D03*
D35*
X032471Y006198D03*
X033051Y006230D03*
X035339Y005038D03*
X036211Y005490D03*
X035719Y006190D03*
X037371Y005978D03*
D36*
X037051Y006250D03*
X036595Y005930D03*
X035895Y005510D03*
X035895Y005258D03*
X035855Y005038D03*
X034223Y005930D03*
X034227Y006250D03*
X033871Y006250D03*
X033415Y005930D03*
X033075Y005510D03*
X032511Y005530D03*
X037943Y006238D03*
X039055Y005930D03*
D37*
X037965Y006222D03*
X037961Y006226D03*
X036581Y006242D03*
X035717Y006186D03*
X035717Y006182D03*
X035485Y005942D03*
X035325Y005526D03*
X035313Y005246D03*
X035333Y005042D03*
X035905Y005282D03*
X035905Y005486D03*
X034697Y006242D03*
X033401Y006242D03*
X033053Y006226D03*
X033085Y005486D03*
X033085Y005286D03*
X033085Y005282D03*
X033385Y005234D03*
X033901Y005234D03*
X032481Y005506D03*
D38*
X033043Y006234D03*
X033883Y005934D03*
X034183Y005226D03*
X035863Y005042D03*
X036215Y005502D03*
X036783Y005526D03*
X037063Y005934D03*
X037375Y006202D03*
X038583Y006242D03*
D39*
X038571Y006234D03*
X038571Y005946D03*
X039075Y006242D03*
X037975Y005966D03*
X037367Y006182D03*
X036571Y005942D03*
X036295Y006226D03*
X035715Y006174D03*
X035487Y005946D03*
X035091Y005942D03*
X035087Y005946D03*
X034711Y005534D03*
X034723Y005226D03*
X035327Y005046D03*
X035887Y005062D03*
X035891Y005066D03*
X035907Y005286D03*
X035907Y005482D03*
X036207Y005482D03*
X036807Y005506D03*
X033883Y005534D03*
X033395Y005534D03*
X033087Y005482D03*
X033087Y005294D03*
X032487Y005254D03*
X033391Y005942D03*
X033067Y006214D03*
X032467Y006186D03*
D40*
X032473Y006202D03*
X032473Y006206D03*
X033409Y006246D03*
X033405Y005934D03*
X033881Y006246D03*
X034217Y006246D03*
X034213Y005934D03*
X034689Y006246D03*
X035101Y005934D03*
X035477Y005934D03*
X035721Y006194D03*
X036285Y006234D03*
X036589Y006246D03*
X036585Y005934D03*
X037061Y006246D03*
X037373Y005974D03*
X036213Y005494D03*
X035869Y005046D03*
X034713Y005222D03*
X034177Y005542D03*
X033889Y005226D03*
X033081Y005274D03*
X039065Y005934D03*
D41*
X038565Y005950D03*
X038565Y006230D03*
X037365Y006170D03*
X037365Y005998D03*
X037073Y006238D03*
X036573Y006238D03*
X035713Y006170D03*
X035085Y005950D03*
X035313Y005518D03*
X035305Y005510D03*
X035325Y005050D03*
X035893Y005070D03*
X036205Y005470D03*
X036813Y005498D03*
X034165Y005430D03*
X034165Y005238D03*
X033905Y005238D03*
X033893Y006238D03*
X033393Y006238D03*
X032465Y006178D03*
D42*
X032495Y005518D03*
X033083Y005278D03*
X033895Y005230D03*
X033875Y005538D03*
X034703Y005538D03*
X035095Y005938D03*
X035875Y005050D03*
D43*
X035897Y005074D03*
X035901Y005082D03*
X035909Y005294D03*
X035909Y005474D03*
X035309Y005514D03*
X035321Y005054D03*
X034169Y005234D03*
X033909Y005242D03*
X033377Y005242D03*
X033089Y005302D03*
X033089Y005474D03*
X033897Y005942D03*
X035081Y005954D03*
X036809Y005502D03*
X037077Y005942D03*
X037981Y005974D03*
X038561Y005954D03*
D44*
X039067Y006246D03*
X037371Y006194D03*
X036791Y005522D03*
X035879Y005054D03*
X035319Y005242D03*
X034711Y005346D03*
X034171Y005426D03*
X032499Y005242D03*
D45*
X032475Y005270D03*
X032455Y005458D03*
X032459Y005470D03*
X032463Y005478D03*
X033091Y005310D03*
X033387Y005530D03*
X033915Y005250D03*
X034727Y005338D03*
X035295Y005270D03*
X035303Y005258D03*
X035319Y005058D03*
X035899Y005078D03*
X035911Y005310D03*
X035911Y005458D03*
X036203Y005458D03*
X036203Y005450D03*
X036819Y005490D03*
X036823Y005478D03*
X036827Y005470D03*
X037087Y005950D03*
X037363Y006010D03*
X037363Y006158D03*
X037983Y006198D03*
X037995Y005998D03*
X037991Y005990D03*
X037983Y005978D03*
X039079Y006238D03*
X036323Y006178D03*
X036319Y006190D03*
X036315Y006198D03*
X035711Y006158D03*
X035711Y006150D03*
X035499Y005970D03*
X035495Y005958D03*
X035079Y005958D03*
X034715Y005950D03*
X035295Y005498D03*
X035291Y005490D03*
X033907Y005950D03*
X033087Y006178D03*
X033083Y006190D03*
X033079Y006198D03*
X032463Y006170D03*
X032463Y006158D03*
D46*
X032467Y006190D03*
X033063Y006218D03*
X032475Y005498D03*
X032483Y005258D03*
X033087Y005290D03*
X035311Y005250D03*
X035907Y005290D03*
X035907Y005478D03*
X036207Y005478D03*
X036803Y005510D03*
X037367Y005990D03*
X037367Y006178D03*
X037967Y006218D03*
X035715Y006178D03*
X035883Y005058D03*
D47*
X035909Y005102D03*
X035909Y005106D03*
X036201Y005162D03*
X036201Y005166D03*
X036201Y005174D03*
X036201Y005182D03*
X036201Y005186D03*
X036201Y005194D03*
X036201Y005202D03*
X036201Y005206D03*
X036201Y005214D03*
X036201Y005222D03*
X036201Y005226D03*
X036201Y005234D03*
X036201Y005242D03*
X036201Y005246D03*
X036201Y005254D03*
X036201Y005262D03*
X036201Y005266D03*
X036201Y005274D03*
X036201Y005282D03*
X036201Y005286D03*
X036201Y005294D03*
X036201Y005302D03*
X036201Y005306D03*
X036201Y005314D03*
X036201Y005322D03*
X036201Y005326D03*
X036201Y005334D03*
X036201Y005342D03*
X036201Y005346D03*
X036201Y005354D03*
X036201Y005362D03*
X036201Y005366D03*
X036201Y005374D03*
X036201Y005382D03*
X036201Y005386D03*
X036201Y005394D03*
X036201Y005402D03*
X036201Y005406D03*
X036201Y005414D03*
X036201Y005422D03*
X036201Y005426D03*
X036201Y005434D03*
X036201Y005442D03*
X036201Y005446D03*
X036201Y005554D03*
X036201Y005562D03*
X036201Y005566D03*
X036201Y005574D03*
X036201Y005582D03*
X036201Y005586D03*
X036201Y005594D03*
X036201Y005602D03*
X036829Y005466D03*
X036829Y005462D03*
X036829Y005454D03*
X036557Y005954D03*
X036569Y006234D03*
X036329Y006154D03*
X036329Y006146D03*
X036329Y006142D03*
X036329Y006134D03*
X036321Y006182D03*
X036317Y006194D03*
X035709Y006146D03*
X035709Y006142D03*
X035709Y006134D03*
X035709Y006126D03*
X035709Y006122D03*
X035709Y006114D03*
X035709Y006106D03*
X035709Y006102D03*
X035709Y006094D03*
X035709Y006086D03*
X035709Y006082D03*
X035709Y006074D03*
X035709Y006066D03*
X035709Y006062D03*
X035709Y006054D03*
X035709Y006046D03*
X035709Y006042D03*
X035709Y006034D03*
X035709Y006026D03*
X035709Y006022D03*
X035709Y006014D03*
X035709Y006006D03*
X035709Y006002D03*
X035709Y005994D03*
X035709Y005986D03*
X035709Y005982D03*
X035709Y005974D03*
X035709Y005966D03*
X035709Y005962D03*
X035709Y005954D03*
X035709Y005946D03*
X035709Y005942D03*
X035709Y005934D03*
X035709Y005926D03*
X035709Y005922D03*
X035709Y005914D03*
X035709Y005906D03*
X035709Y005902D03*
X035709Y005894D03*
X035709Y005886D03*
X035709Y005882D03*
X035709Y005874D03*
X035709Y005866D03*
X035501Y005974D03*
X035501Y005982D03*
X035501Y005986D03*
X035497Y005966D03*
X035709Y006262D03*
X035709Y006266D03*
X035709Y006274D03*
X035709Y006282D03*
X035709Y006286D03*
X035709Y006294D03*
X035709Y006302D03*
X035709Y006306D03*
X035069Y006314D03*
X035069Y006322D03*
X035069Y006326D03*
X035069Y006334D03*
X035069Y006342D03*
X035069Y006346D03*
X035069Y006354D03*
X035069Y006362D03*
X035069Y006366D03*
X035069Y006374D03*
X035069Y006382D03*
X035069Y006386D03*
X035069Y006394D03*
X035069Y006246D03*
X035069Y006242D03*
X035069Y006234D03*
X035069Y006226D03*
X035069Y006222D03*
X035069Y006214D03*
X035069Y006206D03*
X035069Y006202D03*
X035069Y006194D03*
X035069Y006186D03*
X035069Y006182D03*
X035069Y006174D03*
X035069Y006166D03*
X035069Y006162D03*
X035069Y006154D03*
X035069Y006146D03*
X035069Y006142D03*
X035069Y006134D03*
X035069Y006126D03*
X035069Y006122D03*
X035069Y006114D03*
X035069Y006106D03*
X035069Y006102D03*
X035069Y006094D03*
X035069Y006086D03*
X035069Y006082D03*
X035069Y006074D03*
X035069Y006066D03*
X035069Y006062D03*
X035069Y006054D03*
X035069Y006046D03*
X035069Y006042D03*
X035069Y006034D03*
X035069Y006026D03*
X035069Y006022D03*
X035069Y006014D03*
X035069Y006006D03*
X035069Y006002D03*
X035069Y005994D03*
X035069Y005986D03*
X035069Y005982D03*
X035077Y005962D03*
X034989Y005786D03*
X034989Y005782D03*
X034989Y005774D03*
X034989Y005766D03*
X034989Y005762D03*
X034989Y005754D03*
X034989Y005746D03*
X034989Y005742D03*
X034989Y005734D03*
X034989Y005726D03*
X034989Y005722D03*
X034989Y005602D03*
X034989Y005594D03*
X034989Y005586D03*
X034989Y005582D03*
X034989Y005574D03*
X034989Y005566D03*
X034989Y005562D03*
X034989Y005554D03*
X034989Y005546D03*
X034989Y005542D03*
X034989Y005534D03*
X034989Y005526D03*
X034989Y005522D03*
X034989Y005514D03*
X034989Y005506D03*
X034989Y005502D03*
X034989Y005494D03*
X034989Y005486D03*
X034989Y005482D03*
X034989Y005474D03*
X034989Y005466D03*
X034989Y005462D03*
X034989Y005454D03*
X034989Y005446D03*
X034989Y005442D03*
X034989Y005434D03*
X034989Y005426D03*
X034989Y005422D03*
X034989Y005414D03*
X034989Y005406D03*
X034989Y005402D03*
X034989Y005394D03*
X034989Y005386D03*
X034989Y005382D03*
X034989Y005374D03*
X034989Y005366D03*
X034989Y005362D03*
X034989Y005354D03*
X034989Y005346D03*
X034989Y005342D03*
X034989Y005334D03*
X034989Y005326D03*
X034989Y005322D03*
X034989Y005314D03*
X034989Y005306D03*
X034989Y005302D03*
X034989Y005294D03*
X034989Y005286D03*
X034989Y005282D03*
X034989Y005274D03*
X034989Y005266D03*
X034989Y005262D03*
X034989Y005254D03*
X034989Y005246D03*
X034989Y005242D03*
X034989Y005234D03*
X034989Y005226D03*
X034989Y005222D03*
X034989Y005214D03*
X034989Y005206D03*
X034989Y005202D03*
X034989Y005194D03*
X034989Y005186D03*
X034989Y005182D03*
X034989Y005174D03*
X034989Y005166D03*
X034989Y005162D03*
X035289Y005282D03*
X035297Y005266D03*
X035277Y005442D03*
X035277Y005446D03*
X035277Y005454D03*
X035281Y005462D03*
X035281Y005466D03*
X035289Y005482D03*
X035289Y005486D03*
X035317Y005062D03*
X034161Y005242D03*
X034157Y005246D03*
X033917Y005254D03*
X033381Y005526D03*
X033377Y005954D03*
X033389Y006234D03*
X033089Y006174D03*
X033089Y006166D03*
X033089Y006162D03*
X032461Y006154D03*
X032461Y006146D03*
X032461Y006142D03*
X032461Y006134D03*
X032461Y006126D03*
X032461Y006122D03*
X032461Y006114D03*
X032461Y006106D03*
X032461Y006102D03*
X032461Y006094D03*
X032461Y006086D03*
X032461Y006082D03*
X032461Y006074D03*
X032461Y006066D03*
X032461Y006062D03*
X032461Y006054D03*
X032461Y006046D03*
X032461Y006042D03*
X032461Y006034D03*
X032461Y006026D03*
X032461Y006022D03*
X032461Y006014D03*
X032461Y006006D03*
X032461Y006002D03*
X032461Y005994D03*
X032461Y005986D03*
X032461Y005982D03*
X032461Y005974D03*
X032461Y005966D03*
X032461Y005962D03*
X032461Y005954D03*
X032461Y005946D03*
X032461Y005942D03*
X032461Y005934D03*
X032461Y005926D03*
X032461Y005922D03*
X032461Y005914D03*
X032461Y005906D03*
X032461Y005902D03*
X032461Y005894D03*
X032461Y005886D03*
X032461Y005882D03*
X032461Y005874D03*
X032461Y005866D03*
X032461Y006262D03*
X032461Y006266D03*
X032461Y006274D03*
X032461Y006282D03*
X032461Y006286D03*
X032461Y006294D03*
X032461Y006302D03*
X032461Y006306D03*
X032457Y005466D03*
X032457Y005462D03*
X032449Y005434D03*
X032449Y005426D03*
X032449Y005422D03*
X032449Y005414D03*
X032449Y005406D03*
X032449Y005402D03*
X032449Y005394D03*
X032449Y005386D03*
X032449Y005382D03*
X032449Y005374D03*
X032449Y005366D03*
X034197Y006234D03*
X037361Y006274D03*
X037361Y006282D03*
X037361Y006286D03*
X037361Y006294D03*
X037361Y006302D03*
X037361Y006306D03*
X037361Y006154D03*
X037361Y006146D03*
X037361Y006142D03*
X037361Y006026D03*
X037361Y006022D03*
X037361Y006014D03*
X037361Y005914D03*
X037361Y005906D03*
X037361Y005902D03*
X037361Y005894D03*
X037361Y005886D03*
X037361Y005882D03*
X037361Y005874D03*
X037361Y005866D03*
X037361Y005862D03*
X037361Y005854D03*
X037361Y005846D03*
X037361Y005842D03*
X037361Y005834D03*
X037361Y005826D03*
X037361Y005822D03*
X037361Y005814D03*
X037361Y005806D03*
X037361Y005802D03*
X037361Y005794D03*
X037361Y005786D03*
X037361Y005782D03*
X037361Y005774D03*
X037361Y005766D03*
X037361Y005762D03*
X037361Y005754D03*
X037361Y005746D03*
X037361Y005742D03*
X037361Y005734D03*
X037361Y005726D03*
X037361Y005722D03*
X037361Y005714D03*
X037361Y005706D03*
X037361Y005702D03*
X037361Y005694D03*
X037361Y005686D03*
X037997Y006006D03*
X038001Y006022D03*
X038001Y006026D03*
X037989Y006186D03*
X037981Y006202D03*
X038277Y006206D03*
X038277Y006202D03*
X038277Y006194D03*
X038277Y006186D03*
X038277Y006182D03*
X038277Y006174D03*
X038277Y006166D03*
X038277Y006162D03*
X038277Y006154D03*
X038277Y006146D03*
X038277Y006142D03*
X038277Y006134D03*
X038277Y006126D03*
X038277Y006122D03*
X038277Y006114D03*
X038277Y006106D03*
X038277Y006102D03*
X038277Y006094D03*
X038277Y006086D03*
X038277Y006082D03*
X038277Y006074D03*
X038277Y006066D03*
X038277Y006062D03*
X038277Y006054D03*
X038277Y006046D03*
X038277Y006042D03*
X038277Y006034D03*
X038277Y006026D03*
X038277Y006022D03*
X038277Y006014D03*
X038277Y006006D03*
X038277Y006002D03*
X038277Y005994D03*
X038277Y005986D03*
X038277Y005982D03*
X038277Y005974D03*
X038277Y005966D03*
X038277Y005962D03*
X038277Y005954D03*
X038277Y005946D03*
X038277Y005942D03*
X038277Y005934D03*
X038277Y005926D03*
X038277Y005922D03*
X038277Y005914D03*
X038277Y005906D03*
X038277Y005902D03*
X038277Y005894D03*
X038277Y005886D03*
X038277Y005882D03*
X038277Y005874D03*
X038277Y005866D03*
X038277Y006214D03*
X038277Y006222D03*
X038277Y006226D03*
X038277Y006234D03*
X038277Y006242D03*
X038277Y006246D03*
X038277Y006254D03*
X038277Y006262D03*
X038277Y006266D03*
X038277Y006274D03*
X038277Y006282D03*
X038277Y006286D03*
X038277Y006294D03*
X038277Y006302D03*
X038277Y006306D03*
X038277Y006434D03*
X038277Y006442D03*
X038277Y006446D03*
X038277Y006454D03*
X038277Y006462D03*
X038277Y006466D03*
X038277Y006474D03*
X038277Y006482D03*
X038277Y006486D03*
X038277Y006494D03*
X038557Y006222D03*
D48*
X038551Y006214D03*
X038547Y005974D03*
X038551Y005966D03*
X039091Y005954D03*
X039095Y005962D03*
X039103Y005974D03*
X039107Y005986D03*
X039095Y006222D03*
X039091Y006226D03*
X038003Y006142D03*
X038003Y006134D03*
X038003Y006126D03*
X038003Y006122D03*
X038003Y006114D03*
X037995Y006166D03*
X037995Y006174D03*
X037991Y006182D03*
X037091Y006222D03*
X037087Y006226D03*
X037091Y005954D03*
X036551Y005962D03*
X035915Y005434D03*
X035915Y005426D03*
X035915Y005422D03*
X035915Y005414D03*
X035915Y005406D03*
X035915Y005402D03*
X035915Y005394D03*
X035915Y005386D03*
X035915Y005382D03*
X035915Y005374D03*
X035915Y005366D03*
X035915Y005362D03*
X035915Y005354D03*
X035915Y005346D03*
X035915Y005342D03*
X035915Y005334D03*
X035287Y005286D03*
X035283Y005294D03*
X035283Y005302D03*
X035275Y005326D03*
X035275Y005334D03*
X035275Y005342D03*
X035275Y005346D03*
X035275Y005354D03*
X035311Y005082D03*
X035311Y005074D03*
X035315Y005066D03*
X034731Y005334D03*
X034727Y005522D03*
X034151Y005442D03*
X033911Y005506D03*
X033907Y005514D03*
X033923Y005266D03*
X033367Y005254D03*
X033095Y005334D03*
X033095Y005342D03*
X033095Y005346D03*
X033095Y005354D03*
X033095Y005362D03*
X033095Y005366D03*
X033095Y005374D03*
X033095Y005382D03*
X033095Y005386D03*
X033095Y005394D03*
X033095Y005402D03*
X033095Y005406D03*
X033095Y005414D03*
X033095Y005422D03*
X033095Y005426D03*
X033095Y005434D03*
X033095Y005786D03*
X033371Y005962D03*
X033911Y005954D03*
X033911Y006222D03*
X033907Y006226D03*
X034187Y006226D03*
X034715Y006226D03*
X034727Y005966D03*
X032451Y005362D03*
X032451Y005354D03*
X032451Y005346D03*
X032451Y005342D03*
X032451Y005334D03*
X032455Y005326D03*
X032455Y005322D03*
X032455Y005314D03*
X032463Y005294D03*
D49*
X032453Y005450D03*
X033093Y005450D03*
X033093Y005458D03*
X033093Y005558D03*
X033093Y005570D03*
X033093Y005578D03*
X033093Y005590D03*
X033093Y005598D03*
X033093Y005610D03*
X033093Y005618D03*
X033093Y005630D03*
X033093Y005638D03*
X033093Y005650D03*
X033093Y005658D03*
X033093Y005670D03*
X033093Y005678D03*
X033093Y005690D03*
X033093Y005698D03*
X033093Y005710D03*
X033093Y005718D03*
X033093Y005730D03*
X033093Y005738D03*
X033093Y005750D03*
X033093Y005758D03*
X033093Y005770D03*
X033093Y005778D03*
X033093Y005870D03*
X033093Y005878D03*
X033093Y005890D03*
X033093Y005898D03*
X033093Y005910D03*
X033093Y005918D03*
X033093Y005930D03*
X033093Y005938D03*
X033093Y005950D03*
X033093Y005958D03*
X033093Y005970D03*
X033093Y005978D03*
X033093Y005990D03*
X033093Y005998D03*
X033093Y006010D03*
X033093Y006018D03*
X033093Y006030D03*
X033093Y006038D03*
X033093Y006050D03*
X033093Y006058D03*
X033093Y006070D03*
X033093Y006078D03*
X033093Y006090D03*
X033093Y006098D03*
X033093Y006110D03*
X033093Y006118D03*
X033093Y006130D03*
X033093Y006138D03*
X033093Y006150D03*
X033093Y006158D03*
X033385Y006230D03*
X033905Y006230D03*
X034193Y006230D03*
X034713Y006230D03*
X035073Y005978D03*
X035073Y005970D03*
X035285Y005478D03*
X035273Y005430D03*
X035273Y005418D03*
X035273Y005410D03*
X035273Y005398D03*
X035273Y005390D03*
X035273Y005378D03*
X035273Y005370D03*
X035273Y005358D03*
X035285Y005290D03*
X035313Y005070D03*
X035905Y005090D03*
X035913Y005118D03*
X035913Y005130D03*
X035913Y005138D03*
X035913Y005150D03*
X035913Y005158D03*
X035913Y005170D03*
X035913Y005178D03*
X035913Y005190D03*
X035913Y005198D03*
X035913Y005318D03*
X035913Y005330D03*
X035913Y005438D03*
X035913Y005450D03*
X035913Y005558D03*
X035913Y005570D03*
X035913Y005578D03*
X035913Y005590D03*
X035913Y005598D03*
X036833Y005450D03*
X036833Y005438D03*
X036833Y005430D03*
X036833Y005418D03*
X036833Y005410D03*
X036833Y005398D03*
X036833Y005390D03*
X036833Y005378D03*
X036833Y005370D03*
X036833Y005358D03*
X036833Y005350D03*
X036833Y005338D03*
X036833Y005330D03*
X036833Y005318D03*
X036833Y005310D03*
X036833Y005298D03*
X036833Y005290D03*
X036833Y005278D03*
X036833Y005270D03*
X036833Y005258D03*
X036833Y005250D03*
X036833Y005238D03*
X036833Y005230D03*
X036833Y005218D03*
X036833Y005210D03*
X036833Y005198D03*
X036833Y005190D03*
X036833Y005178D03*
X036833Y005170D03*
X036833Y005158D03*
X038005Y006038D03*
X038005Y006050D03*
X038005Y006058D03*
X038005Y006070D03*
X038005Y006078D03*
X038005Y006090D03*
X038005Y006098D03*
X037993Y006178D03*
X038553Y006218D03*
X037085Y006230D03*
X036565Y006230D03*
X036325Y006170D03*
X036325Y006158D03*
X033093Y005330D03*
X033093Y005318D03*
X033093Y005198D03*
X033093Y005190D03*
X033093Y005178D03*
X033093Y005170D03*
X033093Y005158D03*
D50*
X033095Y005338D03*
X033095Y005350D03*
X033095Y005358D03*
X033095Y005370D03*
X033095Y005378D03*
X033095Y005390D03*
X033095Y005398D03*
X033095Y005410D03*
X033095Y005418D03*
X033095Y005430D03*
X033095Y005438D03*
X033363Y005258D03*
X033923Y005270D03*
X033915Y005498D03*
X033903Y005518D03*
X034155Y005438D03*
X034731Y005518D03*
X034735Y005330D03*
X035275Y005330D03*
X035275Y005338D03*
X035275Y005350D03*
X035283Y005298D03*
X035311Y005078D03*
X035915Y005338D03*
X035915Y005350D03*
X035915Y005358D03*
X035915Y005370D03*
X035915Y005378D03*
X035915Y005390D03*
X035915Y005398D03*
X035915Y005410D03*
X035915Y005418D03*
X035915Y005430D03*
X036555Y005958D03*
X036547Y005970D03*
X037095Y005958D03*
X038003Y006110D03*
X038003Y006118D03*
X038003Y006130D03*
X038003Y006138D03*
X037995Y006170D03*
X038547Y006210D03*
X038543Y005978D03*
X038547Y005970D03*
X039095Y005958D03*
X034723Y005958D03*
X034183Y005958D03*
X034175Y005970D03*
X033915Y005958D03*
X033375Y005958D03*
X033367Y005970D03*
X032451Y005358D03*
X032451Y005350D03*
X032451Y005338D03*
X032451Y005330D03*
X032455Y005318D03*
X032455Y005310D03*
X032463Y005290D03*
D51*
X032471Y005274D03*
X032475Y005266D03*
X032479Y005262D03*
X032459Y005474D03*
X032467Y005486D03*
X033091Y005466D03*
X033091Y005462D03*
X033091Y005314D03*
X033091Y005306D03*
X033911Y005246D03*
X033895Y005526D03*
X034163Y005534D03*
X034159Y005434D03*
X034723Y005526D03*
X034711Y005946D03*
X034707Y006234D03*
X035075Y005966D03*
X035495Y005962D03*
X035711Y006154D03*
X035711Y006162D03*
X036311Y006202D03*
X036311Y006206D03*
X036319Y006186D03*
X037079Y006234D03*
X037083Y005946D03*
X037363Y006006D03*
X037363Y006162D03*
X037363Y006166D03*
X037979Y006206D03*
X037999Y006014D03*
X037995Y006002D03*
X037991Y005994D03*
X037987Y005986D03*
X038563Y006226D03*
X039079Y005942D03*
X039083Y005946D03*
X036823Y005482D03*
X036819Y005486D03*
X036815Y005494D03*
X036203Y005462D03*
X036203Y005454D03*
X035911Y005462D03*
X035911Y005466D03*
X035911Y005306D03*
X035911Y005302D03*
X035907Y005094D03*
X035903Y005086D03*
X035299Y005262D03*
X035299Y005502D03*
X035303Y005506D03*
X033903Y005946D03*
X033899Y006234D03*
X033083Y006186D03*
X033079Y006194D03*
X033075Y006202D03*
X032463Y006166D03*
X032463Y006162D03*
D52*
X032461Y006150D03*
X032461Y006138D03*
X032461Y006130D03*
X032461Y006118D03*
X032461Y006110D03*
X032461Y006098D03*
X032461Y006090D03*
X032461Y006078D03*
X032461Y006070D03*
X032461Y006058D03*
X032461Y006050D03*
X032461Y006038D03*
X032461Y006030D03*
X032461Y006018D03*
X032461Y006010D03*
X032461Y005998D03*
X032461Y005990D03*
X032461Y005978D03*
X032461Y005970D03*
X032461Y005958D03*
X032461Y005950D03*
X032461Y005938D03*
X032461Y005930D03*
X032461Y005918D03*
X032461Y005910D03*
X032461Y005898D03*
X032461Y005890D03*
X032461Y005878D03*
X032461Y005870D03*
X032461Y006258D03*
X032461Y006270D03*
X032461Y006278D03*
X032461Y006290D03*
X032461Y006298D03*
X032461Y006310D03*
X033089Y006170D03*
X033381Y005950D03*
X034189Y005950D03*
X034157Y005530D03*
X034737Y005238D03*
X034989Y005238D03*
X034989Y005230D03*
X034989Y005218D03*
X034989Y005210D03*
X034989Y005198D03*
X034989Y005190D03*
X034989Y005178D03*
X034989Y005170D03*
X034989Y005158D03*
X034989Y005250D03*
X034989Y005258D03*
X034989Y005270D03*
X034989Y005278D03*
X034989Y005290D03*
X034989Y005298D03*
X034989Y005310D03*
X034989Y005318D03*
X034989Y005330D03*
X034989Y005338D03*
X034989Y005350D03*
X034989Y005358D03*
X034989Y005370D03*
X034989Y005378D03*
X034989Y005390D03*
X034989Y005398D03*
X034989Y005410D03*
X034989Y005418D03*
X034989Y005430D03*
X034989Y005438D03*
X034989Y005450D03*
X034989Y005458D03*
X034989Y005470D03*
X034989Y005478D03*
X034989Y005490D03*
X034989Y005498D03*
X034989Y005510D03*
X034989Y005518D03*
X034989Y005530D03*
X034989Y005538D03*
X034989Y005550D03*
X034989Y005558D03*
X034989Y005570D03*
X034989Y005578D03*
X034989Y005590D03*
X034989Y005598D03*
X034989Y005730D03*
X034989Y005738D03*
X034989Y005750D03*
X034989Y005758D03*
X034989Y005770D03*
X034989Y005778D03*
X035069Y005990D03*
X035069Y005998D03*
X035069Y006010D03*
X035069Y006018D03*
X035069Y006030D03*
X035069Y006038D03*
X035069Y006050D03*
X035069Y006058D03*
X035069Y006070D03*
X035069Y006078D03*
X035069Y006090D03*
X035069Y006098D03*
X035069Y006110D03*
X035069Y006118D03*
X035069Y006130D03*
X035069Y006138D03*
X035069Y006150D03*
X035069Y006158D03*
X035069Y006170D03*
X035069Y006178D03*
X035069Y006190D03*
X035069Y006198D03*
X035069Y006210D03*
X035069Y006218D03*
X035069Y006230D03*
X035069Y006238D03*
X035069Y006250D03*
X035069Y006318D03*
X035069Y006330D03*
X035069Y006338D03*
X035069Y006350D03*
X035069Y006358D03*
X035069Y006370D03*
X035069Y006378D03*
X035069Y006390D03*
X035069Y006398D03*
X035501Y005978D03*
X035709Y005978D03*
X035709Y005970D03*
X035709Y005958D03*
X035709Y005950D03*
X035709Y005938D03*
X035709Y005930D03*
X035709Y005918D03*
X035709Y005910D03*
X035709Y005898D03*
X035709Y005890D03*
X035709Y005878D03*
X035709Y005870D03*
X035709Y005990D03*
X035709Y005998D03*
X035709Y006010D03*
X035709Y006018D03*
X035709Y006030D03*
X035709Y006038D03*
X035709Y006050D03*
X035709Y006058D03*
X035709Y006070D03*
X035709Y006078D03*
X035709Y006090D03*
X035709Y006098D03*
X035709Y006110D03*
X035709Y006118D03*
X035709Y006130D03*
X035709Y006138D03*
X035709Y006270D03*
X035709Y006278D03*
X035709Y006290D03*
X035709Y006298D03*
X035709Y006310D03*
X036329Y006150D03*
X036329Y006138D03*
X036561Y005950D03*
X036201Y005598D03*
X036201Y005590D03*
X036201Y005578D03*
X036201Y005570D03*
X036201Y005558D03*
X036201Y005550D03*
X036201Y005438D03*
X036201Y005430D03*
X036201Y005418D03*
X036201Y005410D03*
X036201Y005398D03*
X036201Y005390D03*
X036201Y005378D03*
X036201Y005370D03*
X036201Y005358D03*
X036201Y005350D03*
X036201Y005338D03*
X036201Y005330D03*
X036201Y005318D03*
X036201Y005310D03*
X036201Y005298D03*
X036201Y005290D03*
X036201Y005278D03*
X036201Y005270D03*
X036201Y005258D03*
X036201Y005250D03*
X036201Y005238D03*
X036201Y005230D03*
X036201Y005218D03*
X036201Y005210D03*
X036201Y005198D03*
X036201Y005190D03*
X036201Y005178D03*
X036201Y005170D03*
X036201Y005158D03*
X035909Y005110D03*
X035909Y005098D03*
X035289Y005278D03*
X035277Y005438D03*
X035277Y005450D03*
X035281Y005470D03*
X036829Y005458D03*
X037361Y005690D03*
X037361Y005698D03*
X037361Y005710D03*
X037361Y005718D03*
X037361Y005730D03*
X037361Y005738D03*
X037361Y005750D03*
X037361Y005758D03*
X037361Y005770D03*
X037361Y005778D03*
X037361Y005790D03*
X037361Y005798D03*
X037361Y005810D03*
X037361Y005818D03*
X037361Y005830D03*
X037361Y005838D03*
X037361Y005850D03*
X037361Y005858D03*
X037361Y005870D03*
X037361Y005878D03*
X037361Y005890D03*
X037361Y005898D03*
X037361Y005910D03*
X037361Y006018D03*
X037361Y006030D03*
X037361Y006150D03*
X037361Y006270D03*
X037361Y006278D03*
X037361Y006290D03*
X037361Y006298D03*
X037361Y006310D03*
X037989Y006190D03*
X038001Y006030D03*
X038001Y006018D03*
X037997Y006010D03*
X038277Y006010D03*
X038277Y006018D03*
X038277Y006030D03*
X038277Y006038D03*
X038277Y006050D03*
X038277Y006058D03*
X038277Y006070D03*
X038277Y006078D03*
X038277Y006090D03*
X038277Y006098D03*
X038277Y006110D03*
X038277Y006118D03*
X038277Y006130D03*
X038277Y006138D03*
X038277Y006150D03*
X038277Y006158D03*
X038277Y006170D03*
X038277Y006178D03*
X038277Y006190D03*
X038277Y006198D03*
X038277Y006210D03*
X038277Y006218D03*
X038277Y006230D03*
X038277Y006238D03*
X038277Y006250D03*
X038277Y006258D03*
X038277Y006270D03*
X038277Y006278D03*
X038277Y006290D03*
X038277Y006298D03*
X038277Y006310D03*
X038277Y006430D03*
X038277Y006438D03*
X038277Y006450D03*
X038277Y006458D03*
X038277Y006470D03*
X038277Y006478D03*
X038277Y006490D03*
X038277Y005998D03*
X038277Y005990D03*
X038277Y005978D03*
X038277Y005970D03*
X038277Y005958D03*
X038277Y005950D03*
X038277Y005938D03*
X038277Y005930D03*
X038277Y005918D03*
X038277Y005910D03*
X038277Y005898D03*
X038277Y005890D03*
X038277Y005878D03*
X038277Y005870D03*
X038557Y005958D03*
X039089Y005950D03*
X039089Y006230D03*
X033369Y005250D03*
X032469Y005278D03*
X032449Y005370D03*
X032449Y005378D03*
X032449Y005390D03*
X032449Y005398D03*
X032449Y005410D03*
X032449Y005418D03*
X032449Y005430D03*
X032449Y005438D03*
D53*
X032453Y005442D03*
X032453Y005446D03*
X032453Y005454D03*
X032465Y005286D03*
X032465Y005282D03*
X033093Y005322D03*
X033093Y005326D03*
X033093Y005442D03*
X033093Y005446D03*
X033093Y005454D03*
X033093Y005562D03*
X033093Y005566D03*
X033093Y005574D03*
X033093Y005582D03*
X033093Y005586D03*
X033093Y005594D03*
X033093Y005602D03*
X033093Y005606D03*
X033093Y005614D03*
X033093Y005622D03*
X033093Y005626D03*
X033093Y005634D03*
X033093Y005642D03*
X033093Y005646D03*
X033093Y005654D03*
X033093Y005662D03*
X033093Y005666D03*
X033093Y005674D03*
X033093Y005682D03*
X033093Y005686D03*
X033093Y005694D03*
X033093Y005702D03*
X033093Y005706D03*
X033093Y005714D03*
X033093Y005722D03*
X033093Y005726D03*
X033093Y005734D03*
X033093Y005742D03*
X033093Y005746D03*
X033093Y005754D03*
X033093Y005762D03*
X033093Y005766D03*
X033093Y005774D03*
X033093Y005782D03*
X033093Y005866D03*
X033093Y005874D03*
X033093Y005882D03*
X033093Y005886D03*
X033093Y005894D03*
X033093Y005902D03*
X033093Y005906D03*
X033093Y005914D03*
X033093Y005922D03*
X033093Y005926D03*
X033093Y005934D03*
X033093Y005942D03*
X033093Y005946D03*
X033093Y005954D03*
X033093Y005962D03*
X033093Y005966D03*
X033093Y005974D03*
X033093Y005982D03*
X033093Y005986D03*
X033093Y005994D03*
X033093Y006002D03*
X033093Y006006D03*
X033093Y006014D03*
X033093Y006022D03*
X033093Y006026D03*
X033093Y006034D03*
X033093Y006042D03*
X033093Y006046D03*
X033093Y006054D03*
X033093Y006062D03*
X033093Y006066D03*
X033093Y006074D03*
X033093Y006082D03*
X033093Y006086D03*
X033093Y006094D03*
X033093Y006102D03*
X033093Y006106D03*
X033093Y006114D03*
X033093Y006122D03*
X033093Y006126D03*
X033093Y006134D03*
X033093Y006142D03*
X033093Y006146D03*
X033093Y006154D03*
X033085Y006182D03*
X034185Y005954D03*
X034153Y005526D03*
X034733Y005234D03*
X035273Y005362D03*
X035273Y005366D03*
X035273Y005374D03*
X035273Y005382D03*
X035273Y005386D03*
X035273Y005394D03*
X035273Y005402D03*
X035273Y005406D03*
X035273Y005414D03*
X035273Y005422D03*
X035273Y005426D03*
X035273Y005434D03*
X035285Y005474D03*
X035293Y005494D03*
X035293Y005274D03*
X035913Y005314D03*
X035913Y005322D03*
X035913Y005326D03*
X035913Y005442D03*
X035913Y005446D03*
X035913Y005454D03*
X035913Y005554D03*
X035913Y005562D03*
X035913Y005566D03*
X035913Y005574D03*
X035913Y005582D03*
X035913Y005586D03*
X035913Y005594D03*
X035913Y005602D03*
X035913Y005206D03*
X035913Y005202D03*
X035913Y005194D03*
X035913Y005186D03*
X035913Y005182D03*
X035913Y005174D03*
X035913Y005166D03*
X035913Y005162D03*
X035913Y005154D03*
X035913Y005146D03*
X035913Y005142D03*
X035913Y005134D03*
X035913Y005126D03*
X035913Y005122D03*
X035913Y005114D03*
X036833Y005162D03*
X036833Y005166D03*
X036833Y005174D03*
X036833Y005182D03*
X036833Y005186D03*
X036833Y005194D03*
X036833Y005202D03*
X036833Y005206D03*
X036833Y005214D03*
X036833Y005222D03*
X036833Y005226D03*
X036833Y005234D03*
X036833Y005242D03*
X036833Y005246D03*
X036833Y005254D03*
X036833Y005262D03*
X036833Y005266D03*
X036833Y005274D03*
X036833Y005282D03*
X036833Y005286D03*
X036833Y005294D03*
X036833Y005302D03*
X036833Y005306D03*
X036833Y005314D03*
X036833Y005322D03*
X036833Y005326D03*
X036833Y005334D03*
X036833Y005342D03*
X036833Y005346D03*
X036833Y005354D03*
X036833Y005362D03*
X036833Y005366D03*
X036833Y005374D03*
X036833Y005382D03*
X036833Y005386D03*
X036833Y005394D03*
X036833Y005402D03*
X036833Y005406D03*
X036833Y005414D03*
X036833Y005422D03*
X036833Y005426D03*
X036833Y005434D03*
X036833Y005442D03*
X036833Y005446D03*
X036825Y005474D03*
X036325Y006162D03*
X036325Y006166D03*
X036325Y006174D03*
X035073Y005974D03*
X033373Y005246D03*
X033093Y005202D03*
X033093Y005194D03*
X033093Y005186D03*
X033093Y005182D03*
X033093Y005174D03*
X033093Y005166D03*
X033093Y005162D03*
X038005Y006034D03*
X038005Y006042D03*
X038005Y006046D03*
X038005Y006054D03*
X038005Y006062D03*
X038005Y006066D03*
X038005Y006074D03*
X038005Y006082D03*
X038005Y006086D03*
X038005Y006094D03*
X038005Y006102D03*
X038005Y006106D03*
X037985Y006194D03*
X038553Y005962D03*
X039085Y006234D03*
D54*
X036045Y006310D03*
X033633Y005158D03*
X032765Y005158D03*
D55*
X034449Y005158D03*
D56*
X035371Y005218D03*
X035591Y005158D03*
X037403Y005938D03*
X037403Y006238D03*
D57*
X032765Y005162D03*
D58*
X033637Y005162D03*
X035817Y005214D03*
D59*
X034451Y005162D03*
D60*
X035585Y005162D03*
D61*
X032763Y005166D03*
D62*
X033639Y005166D03*
D63*
X034451Y005166D03*
X032759Y005174D03*
D64*
X035581Y005166D03*
X037693Y006306D03*
D65*
X032759Y005170D03*
D66*
X032759Y005590D03*
X033639Y005170D03*
D67*
X034451Y005170D03*
X037699Y006290D03*
D68*
X035581Y005170D03*
D69*
X033641Y005174D03*
X037697Y006294D03*
D70*
X038827Y006286D03*
X034451Y005174D03*
D71*
X035579Y005174D03*
D72*
X032757Y005178D03*
D73*
X033641Y005178D03*
X033645Y006290D03*
X034453Y006290D03*
X036825Y006290D03*
D74*
X036825Y006278D03*
X034453Y006278D03*
X033645Y006278D03*
X034453Y005178D03*
D75*
X035577Y005178D03*
X035289Y005898D03*
D76*
X035577Y005574D03*
X034453Y006286D03*
X033645Y006286D03*
X033641Y005182D03*
X036825Y006286D03*
D77*
X034451Y005182D03*
X033639Y005562D03*
X032751Y005562D03*
D78*
X035577Y005182D03*
D79*
X035575Y005186D03*
X032755Y005186D03*
D80*
X033641Y005186D03*
X034381Y005406D03*
X037701Y005902D03*
D81*
X036825Y006266D03*
X034453Y006266D03*
X033645Y006266D03*
X034453Y005186D03*
D82*
X035573Y005190D03*
X035577Y005570D03*
X032753Y005190D03*
D83*
X033643Y005190D03*
X036543Y005558D03*
D84*
X034453Y005190D03*
D85*
X035573Y005194D03*
X035573Y005566D03*
X032753Y005194D03*
D86*
X032751Y005202D03*
X033643Y005194D03*
X035571Y005202D03*
X036047Y006262D03*
X038823Y005906D03*
D87*
X034453Y005194D03*
D88*
X032753Y005198D03*
D89*
X033645Y005198D03*
X033645Y005910D03*
X034453Y005910D03*
X036825Y005910D03*
X038825Y005910D03*
D90*
X034453Y005198D03*
D91*
X035571Y005198D03*
X038827Y006278D03*
D92*
X038823Y005914D03*
X036823Y005914D03*
X033643Y005914D03*
X033643Y005202D03*
D93*
X034451Y005202D03*
D94*
X032811Y005206D03*
X037643Y006266D03*
D95*
X035211Y006274D03*
X035211Y006282D03*
X035211Y006286D03*
X035211Y006294D03*
X035211Y006302D03*
X035211Y006306D03*
X035211Y006266D03*
X035211Y006262D03*
X035211Y006254D03*
X033643Y005206D03*
D96*
X034451Y005206D03*
D97*
X034467Y005374D03*
X034419Y005394D03*
X035571Y005554D03*
X035571Y005206D03*
D98*
X035627Y005210D03*
X033635Y005370D03*
X033635Y005378D03*
X033635Y005390D03*
X033635Y005398D03*
X033635Y005410D03*
X033635Y005418D03*
X032807Y005210D03*
D99*
X033643Y005210D03*
D100*
X034453Y005210D03*
D101*
X035589Y005602D03*
X035769Y006246D03*
X032577Y005214D03*
D102*
X032995Y005214D03*
D103*
X033447Y005214D03*
X032511Y006246D03*
D104*
X033835Y005214D03*
X036523Y005602D03*
D105*
X035871Y005534D03*
X035291Y005866D03*
X035751Y006234D03*
X034679Y005214D03*
X033051Y005234D03*
X033051Y005534D03*
X037899Y005926D03*
D106*
X035401Y005214D03*
D107*
X034213Y005550D03*
X032553Y005218D03*
D108*
X033019Y005218D03*
D109*
X033423Y005218D03*
X033863Y005218D03*
X032615Y006258D03*
X036355Y005550D03*
D110*
X034205Y005218D03*
D111*
X035841Y005218D03*
X032589Y005550D03*
D112*
X032541Y005542D03*
X032765Y005606D03*
X033061Y005526D03*
X032537Y005222D03*
X033629Y005606D03*
X032493Y006234D03*
X035357Y005222D03*
X036233Y005526D03*
X035741Y006226D03*
X037393Y005946D03*
D113*
X033031Y005222D03*
D114*
X033879Y005222D03*
X032479Y006214D03*
X036219Y005506D03*
X037379Y005962D03*
D115*
X037943Y005942D03*
X038591Y006246D03*
X036271Y006242D03*
X035727Y006206D03*
X034191Y005222D03*
X033075Y005262D03*
X032511Y005234D03*
D116*
X035853Y005222D03*
D117*
X035887Y005246D03*
X035887Y005522D03*
X034687Y005354D03*
X033851Y005546D03*
X032527Y005226D03*
X032487Y006226D03*
X037387Y006222D03*
X037927Y006246D03*
X037927Y005934D03*
X038823Y006314D03*
D118*
X039011Y005922D03*
X033039Y005226D03*
D119*
X033425Y005546D03*
X035345Y005226D03*
X037385Y005954D03*
D120*
X037013Y005922D03*
X035761Y006242D03*
X034641Y005922D03*
X033833Y005922D03*
X035861Y005226D03*
D121*
X035865Y005538D03*
X033045Y005230D03*
D122*
X033081Y005498D03*
X033393Y005230D03*
X032505Y005238D03*
X035325Y005238D03*
X035329Y005530D03*
X035901Y005498D03*
X035901Y005270D03*
X036213Y005498D03*
X037373Y006198D03*
X037957Y006230D03*
X037957Y005950D03*
X038581Y005938D03*
D123*
X038577Y006238D03*
X039073Y005938D03*
X037965Y005958D03*
X037073Y005938D03*
X036577Y005938D03*
X036793Y005518D03*
X035905Y005490D03*
X035905Y005278D03*
X035481Y005938D03*
X034701Y005938D03*
X034205Y005938D03*
X033893Y005938D03*
X033397Y005938D03*
X033401Y005538D03*
X033085Y005490D03*
X032485Y005510D03*
X034177Y005230D03*
D124*
X033889Y005530D03*
X033381Y005238D03*
X033089Y005298D03*
X033089Y005470D03*
X033089Y005478D03*
X032469Y005490D03*
X033069Y006210D03*
X034201Y006238D03*
X034701Y006238D03*
X035489Y005950D03*
X035909Y005470D03*
X035909Y005298D03*
X034729Y005230D03*
X034717Y005530D03*
X036301Y006218D03*
X036309Y006210D03*
X037977Y006210D03*
X037977Y005970D03*
D125*
X037381Y005958D03*
X036221Y005510D03*
X035349Y005538D03*
X035337Y005230D03*
X034681Y005930D03*
X035729Y006210D03*
X032481Y006218D03*
D126*
X035869Y005230D03*
D127*
X035329Y005234D03*
X038589Y005934D03*
D128*
X036735Y005546D03*
X035875Y005234D03*
X035443Y005922D03*
X035135Y005922D03*
X032995Y006254D03*
D129*
X033055Y005238D03*
D130*
X035879Y005238D03*
D131*
X033059Y005242D03*
D132*
X033353Y005274D03*
X033357Y005266D03*
X033361Y005262D03*
X033345Y005442D03*
X033345Y005446D03*
X033361Y005502D03*
X033365Y005506D03*
X033913Y005502D03*
X033917Y005494D03*
X033921Y005486D03*
X033921Y005482D03*
X033921Y005474D03*
X033925Y005466D03*
X033925Y005462D03*
X033925Y005454D03*
X033925Y005446D03*
X033925Y005442D03*
X033925Y005294D03*
X033925Y005286D03*
X033925Y005282D03*
X033925Y005274D03*
X034145Y005514D03*
X034733Y005514D03*
X034737Y005326D03*
X034741Y005322D03*
X034745Y005246D03*
X034741Y005242D03*
X034725Y005962D03*
X034733Y005974D03*
X034733Y005982D03*
X034737Y005986D03*
X034741Y006002D03*
X034741Y006006D03*
X034741Y006162D03*
X034741Y006166D03*
X034737Y006186D03*
X034725Y006214D03*
X034185Y006222D03*
X034177Y006214D03*
X034173Y006202D03*
X034161Y006154D03*
X034161Y006146D03*
X034161Y006026D03*
X034161Y006022D03*
X034161Y006014D03*
X034165Y005994D03*
X034173Y005974D03*
X034177Y005966D03*
X033933Y006002D03*
X033933Y006006D03*
X033925Y005982D03*
X033925Y005974D03*
X033917Y005962D03*
X033933Y006162D03*
X033933Y006166D03*
X033921Y006206D03*
X033917Y006214D03*
X033377Y006222D03*
X033365Y006202D03*
X033361Y006194D03*
X033353Y006154D03*
X033353Y006146D03*
X033353Y006026D03*
X033353Y006022D03*
X033353Y006014D03*
X033357Y005994D03*
X033361Y005986D03*
X033361Y005982D03*
X033365Y005974D03*
X036533Y006014D03*
X036533Y006022D03*
X036533Y006026D03*
X036537Y005994D03*
X036541Y005986D03*
X036541Y005982D03*
X036545Y005974D03*
X036533Y006146D03*
X036533Y006154D03*
X036541Y006194D03*
X036545Y006202D03*
X036557Y006222D03*
X037097Y006214D03*
X037101Y006206D03*
X037113Y006166D03*
X037113Y006162D03*
X037113Y006006D03*
X037113Y006002D03*
X037105Y005982D03*
X037105Y005974D03*
X037097Y005962D03*
X038533Y006006D03*
X038533Y006014D03*
X038537Y005994D03*
X038541Y005986D03*
X038541Y005982D03*
X038533Y006162D03*
X038533Y006166D03*
X038533Y006174D03*
X038537Y006182D03*
X038537Y006186D03*
X038545Y006202D03*
X038545Y006206D03*
X039101Y006214D03*
X039105Y006202D03*
X039105Y005982D03*
D133*
X035883Y005526D03*
X035883Y005242D03*
X033063Y005246D03*
D134*
X033083Y005494D03*
X032495Y005246D03*
X035903Y005274D03*
X035903Y005494D03*
X037963Y005954D03*
X038575Y005942D03*
D135*
X037369Y006190D03*
X036289Y006230D03*
X034169Y005538D03*
X032489Y005250D03*
D136*
X033067Y005250D03*
X035735Y006218D03*
X036227Y005518D03*
D137*
X036541Y005978D03*
X036537Y005998D03*
X036533Y006018D03*
X036533Y006150D03*
X036533Y006158D03*
X036537Y006178D03*
X036553Y006218D03*
X037093Y006218D03*
X037101Y006210D03*
X037105Y006198D03*
X037113Y006170D03*
X037113Y006010D03*
X037105Y005978D03*
X037101Y005970D03*
X038533Y006010D03*
X038537Y005998D03*
X038533Y006170D03*
X038537Y006190D03*
X038541Y006198D03*
X039097Y006218D03*
X039101Y006210D03*
X039105Y006198D03*
X039105Y005978D03*
X039101Y005970D03*
X034741Y006010D03*
X034737Y005990D03*
X034733Y005978D03*
X034741Y006170D03*
X034733Y006198D03*
X034721Y006218D03*
X034181Y006218D03*
X034177Y006210D03*
X034165Y006178D03*
X034161Y006158D03*
X034161Y006150D03*
X034161Y006018D03*
X034165Y005998D03*
X033933Y006010D03*
X033925Y005978D03*
X033921Y005970D03*
X033933Y006170D03*
X033925Y006198D03*
X033921Y006210D03*
X033913Y006218D03*
X033373Y006218D03*
X033357Y006178D03*
X033353Y006158D03*
X033353Y006150D03*
X033353Y006018D03*
X033357Y005998D03*
X033361Y005978D03*
X033373Y005518D03*
X033921Y005478D03*
X033925Y005470D03*
X033925Y005458D03*
X033925Y005450D03*
X033925Y005438D03*
X033925Y005290D03*
X033925Y005278D03*
X034153Y005250D03*
X034145Y005450D03*
X034145Y005518D03*
X034737Y005510D03*
X034745Y005250D03*
D138*
X035117Y005926D03*
X036261Y006246D03*
X033021Y006246D03*
X033069Y005254D03*
D139*
X033369Y005514D03*
X033369Y005966D03*
X033369Y006214D03*
X033929Y006186D03*
X033929Y005986D03*
X034169Y005986D03*
X034169Y005982D03*
X034169Y006194D03*
X034729Y006206D03*
X034149Y005522D03*
X034149Y005446D03*
X034149Y005254D03*
X036549Y005966D03*
X036549Y006214D03*
X037109Y006186D03*
X037109Y005986D03*
X038529Y006034D03*
X038529Y006042D03*
X038529Y006046D03*
X038529Y006102D03*
X038529Y006106D03*
X038529Y006114D03*
X038529Y006122D03*
X038529Y006126D03*
X038529Y006134D03*
X038529Y006142D03*
X038529Y006146D03*
X039109Y006182D03*
X039109Y006186D03*
X039109Y006006D03*
X039109Y006002D03*
X039109Y005994D03*
D140*
X039111Y006014D03*
X039111Y006022D03*
X039111Y006026D03*
X039111Y006034D03*
X039111Y006162D03*
X039111Y006166D03*
X039111Y006174D03*
X039107Y006194D03*
X038539Y006194D03*
X038531Y006154D03*
X038527Y006094D03*
X038527Y006086D03*
X038527Y006082D03*
X038527Y006074D03*
X038527Y006066D03*
X038527Y006062D03*
X038527Y006054D03*
X038531Y006026D03*
X038531Y006022D03*
X037111Y005994D03*
X037111Y006174D03*
X037111Y006182D03*
X037107Y006194D03*
X036547Y006206D03*
X036539Y006186D03*
X036539Y006182D03*
X036531Y006142D03*
X036531Y006134D03*
X036531Y006126D03*
X036531Y006122D03*
X036531Y006114D03*
X036531Y006106D03*
X036531Y006102D03*
X036531Y006094D03*
X036531Y006086D03*
X036531Y006082D03*
X036531Y006074D03*
X036531Y006066D03*
X036531Y006062D03*
X036531Y006054D03*
X036531Y006046D03*
X036531Y006042D03*
X036531Y006034D03*
X034739Y005994D03*
X034739Y006174D03*
X034739Y006182D03*
X034731Y006202D03*
X034167Y006186D03*
X034167Y006182D03*
X034159Y006142D03*
X034159Y006134D03*
X034159Y006126D03*
X034159Y006122D03*
X034159Y006114D03*
X034159Y006106D03*
X034159Y006102D03*
X034159Y006094D03*
X034159Y006086D03*
X034159Y006082D03*
X034159Y006074D03*
X034159Y006066D03*
X034159Y006062D03*
X034159Y006054D03*
X034159Y006046D03*
X034159Y006042D03*
X034159Y006034D03*
X033931Y005994D03*
X033931Y006174D03*
X033931Y006182D03*
X033927Y006194D03*
X033367Y006206D03*
X033359Y006186D03*
X033359Y006182D03*
X033351Y006142D03*
X033351Y006134D03*
X033351Y006126D03*
X033351Y006122D03*
X033351Y006114D03*
X033351Y006106D03*
X033351Y006102D03*
X033351Y006094D03*
X033351Y006086D03*
X033351Y006082D03*
X033351Y006074D03*
X033351Y006066D03*
X033351Y006062D03*
X033351Y006054D03*
X033351Y006046D03*
X033351Y006042D03*
X033351Y006034D03*
X033359Y005494D03*
X033351Y005482D03*
X033351Y005474D03*
X033347Y005466D03*
X033347Y005462D03*
X033347Y005454D03*
X033347Y005306D03*
X033347Y005302D03*
X033347Y005294D03*
X033351Y005286D03*
X033351Y005282D03*
X033927Y005426D03*
X033927Y005434D03*
X034139Y005466D03*
X034139Y005502D03*
X034139Y005282D03*
X034147Y005262D03*
X034747Y005254D03*
X034751Y005262D03*
X034751Y005266D03*
X034747Y005314D03*
X034747Y005482D03*
X034739Y005506D03*
D141*
X034705Y005942D03*
X034193Y005946D03*
X033385Y005946D03*
X033073Y006206D03*
X032465Y006182D03*
X032465Y006174D03*
X032473Y005494D03*
X032465Y005482D03*
X035305Y005254D03*
X036205Y005466D03*
X036205Y005474D03*
X036565Y005946D03*
X036305Y006214D03*
X035713Y006166D03*
X035493Y005954D03*
X037365Y005994D03*
X037365Y006002D03*
X037365Y006174D03*
X037973Y006214D03*
X037985Y005982D03*
D142*
X035893Y005514D03*
X035893Y005254D03*
X033073Y005514D03*
D143*
X033073Y005258D03*
X033873Y005930D03*
X037053Y005930D03*
D144*
X037359Y006038D03*
X037359Y006050D03*
X037359Y006058D03*
X037359Y006070D03*
X037359Y006078D03*
X037359Y006090D03*
X037359Y006098D03*
X037359Y006110D03*
X037359Y006118D03*
X037359Y006130D03*
X037359Y006138D03*
X037999Y006150D03*
X037999Y006158D03*
X038539Y005990D03*
X035279Y005458D03*
X035279Y005318D03*
X035279Y005310D03*
X033919Y005258D03*
X033919Y005490D03*
X032459Y005298D03*
D145*
X033909Y005510D03*
X034149Y005258D03*
X034169Y005978D03*
X033929Y005990D03*
X033369Y006210D03*
X034729Y006210D03*
X034729Y005970D03*
X036329Y006130D03*
X036549Y006210D03*
X037109Y005990D03*
X038529Y006030D03*
X038529Y006038D03*
X038529Y006050D03*
X038529Y006110D03*
X038529Y006118D03*
X038529Y006130D03*
X038529Y006138D03*
X038529Y006150D03*
X039109Y006190D03*
X039109Y005998D03*
X039109Y005990D03*
D146*
X039111Y006010D03*
X039111Y006018D03*
X039111Y006030D03*
X039111Y006038D03*
X039111Y006158D03*
X039111Y006170D03*
X039111Y006178D03*
X038531Y006158D03*
X038527Y006098D03*
X038527Y006090D03*
X038527Y006078D03*
X038527Y006070D03*
X038527Y006058D03*
X038531Y006018D03*
X037111Y005998D03*
X037111Y006178D03*
X037107Y006190D03*
X036539Y006190D03*
X036531Y006138D03*
X036531Y006130D03*
X036531Y006118D03*
X036531Y006110D03*
X036531Y006098D03*
X036531Y006090D03*
X036531Y006078D03*
X036531Y006070D03*
X036531Y006058D03*
X036531Y006050D03*
X036531Y006038D03*
X036531Y006030D03*
X036539Y005990D03*
X034739Y005998D03*
X034739Y006178D03*
X034171Y006198D03*
X034167Y006190D03*
X034159Y006138D03*
X034159Y006130D03*
X034159Y006118D03*
X034159Y006110D03*
X034159Y006098D03*
X034159Y006090D03*
X034159Y006078D03*
X034159Y006070D03*
X034159Y006058D03*
X034159Y006050D03*
X034159Y006038D03*
X034159Y006030D03*
X034167Y005990D03*
X033931Y005998D03*
X033931Y006178D03*
X033927Y006190D03*
X033359Y006190D03*
X033351Y006138D03*
X033351Y006130D03*
X033351Y006118D03*
X033351Y006110D03*
X033351Y006098D03*
X033351Y006090D03*
X033351Y006078D03*
X033351Y006070D03*
X033351Y006058D03*
X033351Y006050D03*
X033351Y006038D03*
X033351Y006030D03*
X033359Y005990D03*
X033367Y005510D03*
X033359Y005498D03*
X033351Y005478D03*
X033351Y005470D03*
X033347Y005458D03*
X033347Y005450D03*
X033347Y005298D03*
X033347Y005290D03*
X033351Y005278D03*
X033927Y005298D03*
X033927Y005430D03*
X034139Y005498D03*
X034747Y005310D03*
X034751Y005258D03*
D147*
X035279Y005306D03*
X035279Y005314D03*
X035279Y005322D03*
X034719Y005954D03*
X034719Y006222D03*
X034179Y005962D03*
X033919Y005966D03*
X033379Y006226D03*
X033379Y005522D03*
X033899Y005522D03*
X033919Y005262D03*
X032459Y005302D03*
X032459Y005306D03*
X036559Y006226D03*
X037099Y005966D03*
X037359Y006034D03*
X037359Y006042D03*
X037359Y006046D03*
X037359Y006054D03*
X037359Y006062D03*
X037359Y006066D03*
X037359Y006074D03*
X037359Y006082D03*
X037359Y006086D03*
X037359Y006094D03*
X037359Y006102D03*
X037359Y006106D03*
X037359Y006114D03*
X037359Y006122D03*
X037359Y006126D03*
X037359Y006134D03*
X037999Y006146D03*
X037999Y006154D03*
X037999Y006162D03*
X039099Y005966D03*
D148*
X039103Y006206D03*
X038535Y006002D03*
X037115Y006014D03*
X037115Y006022D03*
X037115Y006026D03*
X037115Y006034D03*
X037115Y006042D03*
X037115Y006046D03*
X037115Y006054D03*
X037115Y006062D03*
X037115Y006066D03*
X037115Y006074D03*
X037115Y006082D03*
X037115Y006086D03*
X037115Y006094D03*
X037115Y006102D03*
X037115Y006106D03*
X037115Y006114D03*
X037115Y006122D03*
X037115Y006126D03*
X037115Y006134D03*
X037115Y006142D03*
X037115Y006146D03*
X037115Y006154D03*
X037103Y006202D03*
X036535Y006174D03*
X036535Y006166D03*
X036535Y006162D03*
X036535Y006006D03*
X036535Y006002D03*
X034743Y006014D03*
X034743Y006022D03*
X034743Y006026D03*
X034743Y006034D03*
X034743Y006042D03*
X034743Y006046D03*
X034743Y006054D03*
X034743Y006062D03*
X034743Y006066D03*
X034743Y006074D03*
X034743Y006082D03*
X034743Y006086D03*
X034743Y006094D03*
X034743Y006102D03*
X034743Y006106D03*
X034743Y006114D03*
X034743Y006122D03*
X034743Y006126D03*
X034743Y006134D03*
X034743Y006142D03*
X034743Y006146D03*
X034743Y006154D03*
X034735Y006194D03*
X034175Y006206D03*
X034163Y006174D03*
X034163Y006166D03*
X034163Y006162D03*
X034163Y006006D03*
X034163Y006002D03*
X033935Y006014D03*
X033935Y006022D03*
X033935Y006026D03*
X033935Y006034D03*
X033935Y006042D03*
X033935Y006046D03*
X033935Y006054D03*
X033935Y006062D03*
X033935Y006066D03*
X033935Y006074D03*
X033935Y006082D03*
X033935Y006086D03*
X033935Y006094D03*
X033935Y006102D03*
X033935Y006106D03*
X033935Y006114D03*
X033935Y006122D03*
X033935Y006126D03*
X033935Y006134D03*
X033935Y006142D03*
X033935Y006146D03*
X033935Y006154D03*
X033923Y006202D03*
X033355Y006174D03*
X033355Y006166D03*
X033355Y006162D03*
X033355Y006006D03*
X033355Y006002D03*
X033355Y005486D03*
X033343Y005434D03*
X033343Y005426D03*
X033343Y005366D03*
X033343Y005362D03*
X033343Y005354D03*
X033343Y005346D03*
X033343Y005342D03*
X033343Y005334D03*
X033343Y005326D03*
X033343Y005322D03*
X033343Y005314D03*
X034143Y005266D03*
X034143Y005454D03*
D149*
X034179Y005422D03*
X034691Y005934D03*
X035339Y005534D03*
X035899Y005502D03*
X035899Y005266D03*
X037951Y005946D03*
X037951Y006234D03*
X033411Y005542D03*
X033079Y005502D03*
X032499Y005522D03*
D150*
X033079Y005270D03*
X036279Y006238D03*
D151*
X036535Y006170D03*
X036543Y006198D03*
X036535Y006010D03*
X037115Y006018D03*
X037115Y006030D03*
X037115Y006038D03*
X037115Y006050D03*
X037115Y006058D03*
X037115Y006070D03*
X037115Y006078D03*
X037115Y006090D03*
X037115Y006098D03*
X037115Y006110D03*
X037115Y006118D03*
X037115Y006130D03*
X037115Y006138D03*
X037115Y006150D03*
X037115Y006158D03*
X038535Y006178D03*
X034743Y006158D03*
X034743Y006150D03*
X034743Y006138D03*
X034743Y006130D03*
X034743Y006118D03*
X034743Y006110D03*
X034743Y006098D03*
X034743Y006090D03*
X034743Y006078D03*
X034743Y006070D03*
X034743Y006058D03*
X034743Y006050D03*
X034743Y006038D03*
X034743Y006030D03*
X034743Y006018D03*
X034735Y006190D03*
X034163Y006170D03*
X034163Y006010D03*
X033935Y006018D03*
X033935Y006030D03*
X033935Y006038D03*
X033935Y006050D03*
X033935Y006058D03*
X033935Y006070D03*
X033935Y006078D03*
X033935Y006090D03*
X033935Y006098D03*
X033935Y006110D03*
X033935Y006118D03*
X033935Y006130D03*
X033935Y006138D03*
X033935Y006150D03*
X033935Y006158D03*
X033363Y006198D03*
X033355Y006170D03*
X033355Y006010D03*
X033355Y005490D03*
X033343Y005438D03*
X033343Y005430D03*
X033343Y005358D03*
X033343Y005350D03*
X033343Y005338D03*
X033343Y005330D03*
X033343Y005318D03*
X033355Y005270D03*
X034143Y005270D03*
X034143Y005458D03*
X034143Y005510D03*
X034743Y005498D03*
X034743Y005318D03*
D152*
X034753Y005290D03*
X034753Y005278D03*
X034753Y005270D03*
X034749Y005470D03*
X034749Y005478D03*
X034745Y005490D03*
X034137Y005490D03*
X034137Y005478D03*
X034137Y005470D03*
X034137Y005298D03*
X034137Y005290D03*
X034141Y005278D03*
X033345Y005310D03*
D153*
X034137Y005294D03*
X034137Y005286D03*
X034141Y005274D03*
X034141Y005462D03*
X034137Y005474D03*
X034137Y005482D03*
X034137Y005486D03*
X034137Y005494D03*
X034141Y005506D03*
X034741Y005502D03*
X034745Y005494D03*
X034745Y005486D03*
X034749Y005474D03*
X034749Y005466D03*
X034749Y005306D03*
X034749Y005302D03*
X034753Y005294D03*
X034753Y005286D03*
X034753Y005282D03*
X034753Y005274D03*
D154*
X034751Y005298D03*
D155*
X034719Y005342D03*
X035319Y005522D03*
X034199Y005942D03*
X033059Y006222D03*
X032479Y005502D03*
X036299Y006222D03*
X036799Y005514D03*
D156*
X036777Y005530D03*
X034701Y005350D03*
X033037Y006238D03*
X039057Y006250D03*
D157*
X035401Y005550D03*
X034645Y005550D03*
X034657Y005358D03*
D158*
X034511Y005362D03*
D159*
X034493Y005366D03*
X034433Y005582D03*
X033637Y005566D03*
X032753Y005566D03*
X037701Y005906D03*
D160*
X034479Y005370D03*
D161*
X033635Y005374D03*
X033635Y005382D03*
X033635Y005386D03*
X033635Y005394D03*
X033635Y005402D03*
X033635Y005406D03*
X033635Y005414D03*
X033635Y005422D03*
X037647Y006262D03*
D162*
X034457Y005378D03*
X034429Y005390D03*
D163*
X034447Y005382D03*
X034435Y005574D03*
D164*
X034439Y005386D03*
X033639Y005554D03*
D165*
X034407Y005398D03*
X034435Y005578D03*
X034451Y006270D03*
X033643Y006270D03*
X036823Y006270D03*
X037703Y006270D03*
D166*
X037703Y006274D03*
X038823Y005902D03*
X036823Y005902D03*
X034395Y005402D03*
X033643Y005902D03*
X032803Y006266D03*
D167*
X034355Y005410D03*
D168*
X034213Y005414D03*
D169*
X034209Y006242D03*
X033889Y006242D03*
X032469Y006194D03*
X032489Y005514D03*
X036209Y005486D03*
X037069Y006242D03*
X037369Y006186D03*
X037369Y005986D03*
X037369Y005982D03*
X037969Y005962D03*
D170*
X038601Y006250D03*
X036761Y005538D03*
X035889Y005518D03*
X033069Y005518D03*
D171*
X033065Y005522D03*
X033861Y005926D03*
X033857Y006254D03*
X034241Y006254D03*
X034237Y005926D03*
X034665Y006254D03*
X033433Y006254D03*
X036613Y006254D03*
X037037Y006254D03*
X037041Y005926D03*
X039041Y005926D03*
X039041Y006254D03*
D172*
X036749Y005542D03*
X036229Y005522D03*
X036609Y005926D03*
X034669Y005926D03*
X033429Y005926D03*
D173*
X033057Y005530D03*
X035745Y006230D03*
X035877Y005530D03*
D174*
X036239Y005530D03*
X032499Y006238D03*
D175*
X032505Y006242D03*
X033645Y005866D03*
X034453Y005866D03*
X036245Y005534D03*
X036825Y005866D03*
D176*
X036769Y005534D03*
X037381Y006214D03*
X037937Y006242D03*
X035461Y005926D03*
X034189Y005546D03*
X033029Y006242D03*
D177*
X033009Y006250D03*
X032489Y006230D03*
X032529Y005538D03*
X037389Y005950D03*
D178*
X033455Y005550D03*
X033043Y005538D03*
D179*
X036251Y005538D03*
D180*
X033035Y005542D03*
D181*
X034679Y005546D03*
X035359Y005542D03*
D182*
X035857Y005542D03*
X037417Y006246D03*
D183*
X036259Y005542D03*
D184*
X037901Y006254D03*
X032557Y005546D03*
D185*
X033023Y005546D03*
X034423Y005606D03*
D186*
X035845Y005546D03*
D187*
X036271Y005546D03*
X037431Y005926D03*
X032531Y006254D03*
D188*
X032991Y005550D03*
X035811Y006258D03*
D189*
X036643Y006258D03*
X037003Y006258D03*
X033823Y006258D03*
X033463Y006258D03*
X032783Y006310D03*
X033815Y005550D03*
D190*
X033645Y005870D03*
X034453Y005870D03*
X035821Y005550D03*
X036825Y005870D03*
D191*
X036709Y005550D03*
X038649Y006258D03*
X032969Y006258D03*
D192*
X032809Y005554D03*
D193*
X034437Y005554D03*
D194*
X034453Y005906D03*
X033645Y005906D03*
X032805Y006262D03*
X036545Y005554D03*
X036825Y005906D03*
X038825Y006274D03*
D195*
X032749Y005558D03*
D196*
X033639Y005558D03*
X038827Y006270D03*
D197*
X034435Y005558D03*
D198*
X035573Y005558D03*
D199*
X034437Y005562D03*
D200*
X035573Y005562D03*
X034453Y006274D03*
X033645Y006274D03*
X036825Y006274D03*
D201*
X034435Y005566D03*
D202*
X034433Y005586D03*
X034453Y006282D03*
X033645Y006282D03*
X032801Y006274D03*
X036541Y005566D03*
X036825Y006282D03*
X037701Y006282D03*
D203*
X032753Y005570D03*
D204*
X033637Y005570D03*
D205*
X034435Y005570D03*
D206*
X036047Y006278D03*
X036539Y005570D03*
X032799Y006278D03*
D207*
X033645Y005894D03*
X033637Y005574D03*
X034453Y005894D03*
X032753Y005574D03*
X036825Y005894D03*
D208*
X036537Y005574D03*
X032797Y006282D03*
D209*
X032755Y005578D03*
X033635Y005578D03*
X038823Y005890D03*
D210*
X035579Y005578D03*
D211*
X036537Y005578D03*
X037697Y005890D03*
D212*
X038825Y005886D03*
X036825Y005886D03*
X036045Y006286D03*
X034453Y005886D03*
X033645Y005886D03*
X033637Y005582D03*
X032757Y005582D03*
X032797Y006286D03*
D213*
X035581Y005582D03*
D214*
X034451Y005882D03*
X033643Y005882D03*
X036535Y005582D03*
X036823Y005882D03*
X038823Y005882D03*
D215*
X033637Y005586D03*
X032757Y005586D03*
D216*
X035581Y005586D03*
D217*
X036535Y005586D03*
X036043Y006294D03*
X032795Y006294D03*
D218*
X033645Y005890D03*
X034453Y005890D03*
X034433Y005590D03*
X036825Y005890D03*
D219*
X036825Y005878D03*
X035585Y005590D03*
X034453Y005878D03*
X033645Y005878D03*
D220*
X032791Y006298D03*
X036531Y005590D03*
D221*
X032759Y005594D03*
D222*
X033635Y005594D03*
D223*
X034431Y005594D03*
X038827Y006294D03*
D224*
X037693Y005874D03*
X036529Y005594D03*
X032789Y006302D03*
D225*
X032761Y005598D03*
X033633Y005598D03*
D226*
X034429Y005598D03*
X035289Y005890D03*
D227*
X035587Y005598D03*
D228*
X036527Y005598D03*
X037691Y006310D03*
D229*
X033635Y005602D03*
X032763Y005602D03*
D230*
X034429Y005602D03*
D231*
X037689Y005866D03*
X037689Y006314D03*
D232*
X035291Y005870D03*
D233*
X037693Y005870D03*
D234*
X038825Y005870D03*
D235*
X035289Y005874D03*
D236*
X038823Y005874D03*
D237*
X035289Y005878D03*
D238*
X037693Y005878D03*
D239*
X038823Y005878D03*
D240*
X035289Y005882D03*
D241*
X037697Y005882D03*
D242*
X035289Y005886D03*
D243*
X037695Y005886D03*
D244*
X035289Y005894D03*
D245*
X035289Y005914D03*
X037697Y005894D03*
D246*
X038823Y005894D03*
D247*
X038823Y005898D03*
X036823Y005898D03*
X034451Y005898D03*
X033643Y005898D03*
D248*
X037699Y005898D03*
D249*
X036047Y006266D03*
X034451Y005902D03*
D250*
X035289Y005902D03*
D251*
X035291Y005906D03*
D252*
X035289Y005910D03*
D253*
X034451Y005914D03*
D254*
X037705Y005914D03*
D255*
X038825Y005918D03*
X036825Y005918D03*
X034453Y005918D03*
X033645Y005918D03*
D256*
X035289Y005918D03*
D257*
X037645Y005918D03*
D258*
X036635Y005922D03*
X034263Y005922D03*
X033455Y005922D03*
D259*
X037455Y005922D03*
D260*
X037871Y005922D03*
D261*
X035469Y005930D03*
X035109Y005930D03*
D262*
X037419Y005930D03*
X032519Y006250D03*
D263*
X036249Y006250D03*
X037917Y006250D03*
X037913Y005930D03*
D264*
X037409Y005934D03*
X037409Y006242D03*
D265*
X037375Y005970D03*
X035723Y006198D03*
X032475Y006210D03*
D266*
X033419Y006250D03*
X034679Y006250D03*
X036599Y006250D03*
X037379Y006210D03*
D267*
X037385Y006218D03*
D268*
X037395Y006230D03*
D269*
X037399Y006234D03*
D270*
X035755Y006238D03*
D271*
X035777Y006250D03*
D272*
X037425Y006250D03*
D273*
X035789Y006254D03*
D274*
X037437Y006254D03*
D275*
X038615Y006254D03*
D276*
X034631Y006258D03*
X034271Y006258D03*
D277*
X035211Y006258D03*
X035211Y006270D03*
X035211Y006278D03*
X035211Y006290D03*
X035211Y006298D03*
X035211Y006310D03*
D278*
X036195Y006258D03*
D279*
X037465Y006258D03*
D280*
X037869Y006258D03*
D281*
X039009Y006258D03*
D282*
X038825Y006266D03*
X036825Y006262D03*
X034453Y006262D03*
X033645Y006262D03*
D283*
X038827Y006262D03*
D284*
X037701Y006278D03*
X032801Y006270D03*
D285*
X036047Y006270D03*
D286*
X036047Y006274D03*
D287*
X036045Y006282D03*
D288*
X038825Y006282D03*
D289*
X037699Y006286D03*
D290*
X032795Y006290D03*
D291*
X036045Y006290D03*
D292*
X038825Y006290D03*
D293*
X036823Y006298D03*
X033643Y006298D03*
D294*
X034451Y006298D03*
D295*
X036043Y006298D03*
D296*
X037697Y006298D03*
D297*
X038827Y006298D03*
D298*
X036823Y006302D03*
X033643Y006302D03*
D299*
X034451Y006302D03*
D300*
X036043Y006302D03*
D301*
X037693Y006302D03*
X038825Y006302D03*
D302*
X032787Y006306D03*
D303*
X033643Y006306D03*
X036823Y006306D03*
D304*
X038827Y006306D03*
X034451Y006306D03*
D305*
X036039Y006306D03*
D306*
X038827Y006310D03*
D307*
X032151Y004244D02*
X032151Y003744D01*
X031901Y003494D01*
X031401Y003494D01*
X031151Y003744D01*
X030901Y003494D01*
X030401Y003494D01*
X030151Y003744D01*
X029901Y003494D01*
X029401Y003494D01*
X029151Y003744D01*
X028901Y003494D01*
X028401Y003494D01*
X028151Y003744D01*
X027901Y003494D01*
X027401Y003494D01*
X027151Y003744D01*
X026901Y003494D01*
X026401Y003494D01*
X026151Y003744D01*
X025901Y003494D01*
X025401Y003494D01*
X025151Y003744D01*
X024901Y003494D01*
X024401Y003494D01*
X024151Y003744D01*
X023901Y003494D01*
X023401Y003494D01*
X023151Y003744D01*
X022901Y003494D01*
X022401Y003494D01*
X022151Y003744D01*
X022151Y004244D01*
X022401Y004494D01*
X022901Y004494D01*
X023151Y004244D01*
X023401Y004494D01*
X023901Y004494D01*
X024151Y004244D01*
X024401Y004494D01*
X024901Y004494D01*
X025151Y004244D01*
X025401Y004494D01*
X025901Y004494D01*
X026151Y004244D01*
X026401Y004494D01*
X026901Y004494D01*
X027151Y004244D01*
X027401Y004494D01*
X027901Y004494D01*
X028151Y004244D01*
X028401Y004494D01*
X028901Y004494D01*
X029151Y004244D01*
X029401Y004494D01*
X029901Y004494D01*
X030151Y004244D01*
X030401Y004494D01*
X030901Y004494D01*
X031151Y004244D01*
X031401Y004494D01*
X031901Y004494D01*
X032151Y004244D01*
X021151Y005244D02*
X020901Y004994D01*
X020401Y004994D01*
X020151Y005244D01*
X019901Y004994D01*
X019401Y004994D01*
X019151Y005244D01*
X018901Y004994D01*
X018401Y004994D01*
X018151Y005244D01*
X017901Y004994D01*
X017401Y004994D01*
X017151Y005244D01*
X017151Y005744D01*
X017401Y005994D01*
X017901Y005994D01*
X018151Y005744D01*
X018401Y005994D01*
X018901Y005994D01*
X019151Y005744D01*
X019401Y005994D01*
X019901Y005994D01*
X020151Y005744D01*
X020401Y005994D01*
X020901Y005994D01*
X021151Y005744D01*
X021151Y005244D01*
X020901Y002994D02*
X020401Y002994D01*
X020151Y002744D01*
X019901Y002994D01*
X019401Y002994D01*
X019151Y002744D01*
X018901Y002994D01*
X018401Y002994D01*
X018151Y002744D01*
X017901Y002994D01*
X017401Y002994D01*
X017151Y002744D01*
X017151Y002244D01*
X017401Y001994D01*
X017901Y001994D01*
X018151Y002244D01*
X018401Y001994D01*
X018901Y001994D01*
X019151Y002244D01*
X019401Y001994D01*
X019901Y001994D01*
X020151Y002244D01*
X020401Y001994D01*
X020901Y001994D01*
X021151Y002244D01*
X021151Y002744D01*
X020901Y002994D01*
X015651Y003244D02*
X015651Y002744D01*
X015401Y002494D01*
X015651Y002244D01*
X015651Y001744D01*
X015401Y001494D01*
X014901Y001494D01*
X014651Y001744D01*
X014651Y002244D01*
X014901Y002494D01*
X014651Y002744D01*
X014651Y003244D01*
X014901Y003494D01*
X014651Y003744D01*
X014651Y004244D01*
X014901Y004494D01*
X014651Y004744D01*
X014651Y005244D01*
X014901Y005494D01*
X015401Y005494D01*
X015651Y005244D01*
X015651Y004744D01*
X015401Y004494D01*
X015651Y004244D01*
X015651Y003744D01*
X015401Y003494D01*
X015651Y003244D01*
X007151Y001744D02*
X007151Y001244D01*
X006901Y000994D01*
X006401Y000994D01*
X006151Y001244D01*
X005901Y000994D01*
X005401Y000994D01*
X005151Y001244D01*
X004901Y000994D01*
X004401Y000994D01*
X004151Y001244D01*
X003901Y000994D01*
X003401Y000994D01*
X003151Y001244D01*
X002901Y000994D01*
X002401Y000994D01*
X002151Y001244D01*
X001901Y000994D01*
X001401Y000994D01*
X001151Y001244D01*
X001151Y001744D01*
X001401Y001994D01*
X001901Y001994D01*
X002151Y001744D01*
X002401Y001994D01*
X002901Y001994D01*
X003151Y001744D01*
X003401Y001994D01*
X003901Y001994D01*
X004151Y001744D01*
X004401Y001994D01*
X004901Y001994D01*
X005151Y001744D01*
X005401Y001994D01*
X005901Y001994D01*
X006151Y001744D01*
X006401Y001994D01*
X006901Y001994D01*
X007151Y001744D01*
X012524Y013133D02*
X013298Y013133D01*
X014003Y013146D02*
X014780Y013146D01*
X016151Y014744D02*
X016401Y014494D01*
X016901Y014494D01*
X017151Y014744D01*
X017401Y014494D01*
X017901Y014494D01*
X018151Y014744D01*
X018401Y014494D01*
X018901Y014494D01*
X019151Y014744D01*
X019401Y014494D01*
X019901Y014494D01*
X020151Y014744D01*
X020401Y014494D01*
X020901Y014494D01*
X021151Y014744D01*
X021401Y014494D01*
X021901Y014494D01*
X022151Y014744D01*
X022151Y015244D01*
X021901Y015494D01*
X021401Y015494D01*
X021151Y015244D01*
X020901Y015494D01*
X020401Y015494D01*
X020151Y015244D01*
X019901Y015494D01*
X019401Y015494D01*
X019151Y015244D01*
X018901Y015494D01*
X018401Y015494D01*
X018151Y015244D01*
X017901Y015494D01*
X017401Y015494D01*
X017151Y015244D01*
X016901Y015494D01*
X016401Y015494D01*
X016151Y015244D01*
X016151Y014744D01*
X015423Y014600D02*
X014596Y014600D01*
X015423Y014600D02*
X015423Y018813D01*
X011880Y018813D01*
X011880Y016726D01*
X011880Y014876D02*
X011880Y014600D01*
X012706Y014600D01*
X023183Y014710D02*
X027120Y014710D01*
X028683Y014710D02*
X032620Y014710D01*
X032620Y016206D02*
X032620Y017781D01*
X031832Y018569D02*
X029470Y018569D01*
X028683Y017781D02*
X028683Y016206D01*
X027120Y016206D02*
X027120Y017781D01*
X026332Y018569D02*
X023970Y018569D01*
X023183Y017781D02*
X023183Y016206D01*
D308*
X014801Y013148D02*
X014803Y013182D01*
X014809Y013216D01*
X014818Y013249D01*
X014832Y013280D01*
X014849Y013310D01*
X014869Y013338D01*
X014892Y013363D01*
X014918Y013386D01*
X014946Y013405D01*
X014976Y013421D01*
X015008Y013433D01*
X015041Y013442D01*
X015075Y013447D01*
X015110Y013448D01*
X015144Y013445D01*
X015177Y013438D01*
X015210Y013428D01*
X015241Y013413D01*
X015270Y013396D01*
X015297Y013375D01*
X015322Y013351D01*
X015344Y013324D01*
X015362Y013296D01*
X015377Y013265D01*
X015389Y013233D01*
X015397Y013199D01*
X015401Y013165D01*
X015401Y013131D01*
X015397Y013097D01*
X015389Y013063D01*
X015377Y013031D01*
X015362Y013000D01*
X015344Y012972D01*
X015322Y012945D01*
X015297Y012921D01*
X015270Y012900D01*
X015241Y012883D01*
X015210Y012868D01*
X015177Y012858D01*
X015144Y012851D01*
X015110Y012848D01*
X015075Y012849D01*
X015041Y012854D01*
X015008Y012863D01*
X014976Y012875D01*
X014946Y012891D01*
X014918Y012910D01*
X014892Y012933D01*
X014869Y012958D01*
X014849Y012986D01*
X014832Y013016D01*
X014818Y013047D01*
X014809Y013080D01*
X014803Y013114D01*
X014801Y013148D01*
X011902Y013139D02*
X011904Y013173D01*
X011910Y013207D01*
X011919Y013240D01*
X011933Y013271D01*
X011950Y013301D01*
X011970Y013329D01*
X011993Y013354D01*
X012019Y013377D01*
X012047Y013396D01*
X012077Y013412D01*
X012109Y013424D01*
X012142Y013433D01*
X012176Y013438D01*
X012211Y013439D01*
X012245Y013436D01*
X012278Y013429D01*
X012311Y013419D01*
X012342Y013404D01*
X012371Y013387D01*
X012398Y013366D01*
X012423Y013342D01*
X012445Y013315D01*
X012463Y013287D01*
X012478Y013256D01*
X012490Y013224D01*
X012498Y013190D01*
X012502Y013156D01*
X012502Y013122D01*
X012498Y013088D01*
X012490Y013054D01*
X012478Y013022D01*
X012463Y012991D01*
X012445Y012963D01*
X012423Y012936D01*
X012398Y012912D01*
X012371Y012891D01*
X012342Y012874D01*
X012311Y012859D01*
X012278Y012849D01*
X012245Y012842D01*
X012211Y012839D01*
X012176Y012840D01*
X012142Y012845D01*
X012109Y012854D01*
X012077Y012866D01*
X012047Y012882D01*
X012019Y012901D01*
X011993Y012924D01*
X011970Y012949D01*
X011950Y012977D01*
X011933Y013007D01*
X011919Y013038D01*
X011910Y013071D01*
X011904Y013105D01*
X011902Y013139D01*
D309*
X012016Y013134D02*
X012384Y013134D01*
X011486Y012509D02*
X008167Y015848D01*
X008156Y015848D02*
X007551Y015244D01*
X006801Y014494D02*
X006151Y013844D01*
X005401Y013094D02*
X004817Y012509D01*
X004817Y012498D02*
X008156Y009159D01*
X008167Y009159D02*
X008751Y009744D01*
X009501Y010494D02*
X010151Y011144D01*
X010901Y011894D02*
X011486Y012479D01*
X012136Y011829D02*
X008797Y008509D01*
X008797Y008498D02*
X009401Y007894D01*
X008147Y007829D02*
X011486Y004490D01*
X011486Y004479D02*
X010901Y003894D01*
X010151Y003144D02*
X009501Y002494D01*
X008751Y001744D02*
X008147Y001140D01*
X008136Y001140D02*
X004817Y004479D01*
X004817Y004509D02*
X005401Y005094D01*
X004147Y005159D02*
X007486Y008498D01*
X007486Y008509D02*
X006901Y009094D01*
X006151Y009844D02*
X005501Y010494D01*
X004751Y011244D02*
X004167Y011829D01*
X004136Y011829D02*
X000797Y008509D01*
X000797Y008498D02*
X001401Y007894D01*
X002151Y007144D02*
X002801Y006494D01*
X003551Y005744D02*
X004136Y005159D01*
X006151Y005844D02*
X006801Y006494D01*
X007551Y007244D02*
X008136Y007829D01*
X010151Y007144D02*
X010801Y006494D01*
X011551Y005744D02*
X012136Y005159D01*
X012147Y005159D02*
X015486Y008498D01*
X015486Y008509D02*
X014901Y009094D01*
X014151Y009844D02*
X013501Y010494D01*
X012751Y011244D02*
X012167Y011829D01*
X014910Y013146D02*
X015298Y013146D01*
X015103Y012960D02*
X015103Y013338D01*
X016201Y013094D02*
X016201Y013894D01*
X016203Y013911D01*
X016207Y013928D01*
X016214Y013944D01*
X016224Y013958D01*
X016237Y013971D01*
X016251Y013981D01*
X016267Y013988D01*
X016284Y013992D01*
X016301Y013994D01*
X018001Y013994D01*
X018018Y013992D01*
X018035Y013988D01*
X018051Y013981D01*
X018065Y013971D01*
X018078Y013958D01*
X018088Y013944D01*
X018095Y013928D01*
X018099Y013911D01*
X018101Y013894D01*
X018101Y013094D01*
X018099Y013077D01*
X018095Y013060D01*
X018088Y013044D01*
X018078Y013030D01*
X018065Y013017D01*
X018051Y013007D01*
X018035Y013000D01*
X018018Y012996D01*
X018001Y012994D01*
X016301Y012994D01*
X016284Y012996D01*
X016267Y013000D01*
X016251Y013007D01*
X016237Y013017D01*
X016224Y013030D01*
X016214Y013044D01*
X016207Y013060D01*
X016203Y013077D01*
X016201Y013094D01*
X016351Y011594D02*
X016801Y011594D01*
X016351Y011594D02*
X016351Y010744D01*
X016381Y010742D01*
X016411Y010737D01*
X016440Y010728D01*
X016467Y010715D01*
X016493Y010700D01*
X016517Y010681D01*
X016538Y010660D01*
X016557Y010636D01*
X016572Y010610D01*
X016585Y010583D01*
X016594Y010554D01*
X016599Y010524D01*
X016601Y010494D01*
X016599Y010464D01*
X016594Y010434D01*
X016585Y010405D01*
X016572Y010378D01*
X016557Y010352D01*
X016538Y010328D01*
X016517Y010307D01*
X016493Y010288D01*
X016467Y010273D01*
X016440Y010260D01*
X016411Y010251D01*
X016381Y010246D01*
X016351Y010244D01*
X016351Y009394D01*
X016811Y009394D01*
X012901Y008494D02*
X012151Y007744D01*
X011401Y008494D01*
X012151Y009244D01*
X012901Y008494D01*
X012801Y008494D02*
X012151Y007844D01*
X011501Y008494D01*
X012151Y009144D01*
X012801Y008494D01*
X011851Y008494D02*
X011853Y008528D01*
X011859Y008562D01*
X011868Y008595D01*
X011882Y008626D01*
X011899Y008656D01*
X011919Y008684D01*
X011942Y008709D01*
X011968Y008732D01*
X011996Y008751D01*
X012026Y008767D01*
X012058Y008779D01*
X012091Y008788D01*
X012125Y008793D01*
X012160Y008794D01*
X012194Y008791D01*
X012227Y008784D01*
X012260Y008774D01*
X012291Y008759D01*
X012320Y008742D01*
X012347Y008721D01*
X012372Y008697D01*
X012394Y008670D01*
X012412Y008642D01*
X012427Y008611D01*
X012439Y008579D01*
X012447Y008545D01*
X012451Y008511D01*
X012451Y008477D01*
X012447Y008443D01*
X012439Y008409D01*
X012427Y008377D01*
X012412Y008346D01*
X012394Y008318D01*
X012372Y008291D01*
X012347Y008267D01*
X012320Y008246D01*
X012291Y008229D01*
X012260Y008214D01*
X012227Y008204D01*
X012194Y008197D01*
X012160Y008194D01*
X012125Y008195D01*
X012091Y008200D01*
X012058Y008209D01*
X012026Y008221D01*
X011996Y008237D01*
X011968Y008256D01*
X011942Y008279D01*
X011919Y008304D01*
X011899Y008332D01*
X011882Y008362D01*
X011868Y008393D01*
X011859Y008426D01*
X011853Y008460D01*
X011851Y008494D01*
X011751Y008494D02*
X011753Y008534D01*
X011759Y008573D01*
X011769Y008612D01*
X011782Y008649D01*
X011800Y008685D01*
X011821Y008719D01*
X011845Y008751D01*
X011872Y008780D01*
X011902Y008807D01*
X011934Y008830D01*
X011969Y008850D01*
X012005Y008866D01*
X012043Y008879D01*
X012082Y008888D01*
X012121Y008893D01*
X012161Y008894D01*
X012201Y008891D01*
X012240Y008884D01*
X012278Y008873D01*
X012316Y008859D01*
X012351Y008840D01*
X012384Y008819D01*
X012416Y008794D01*
X012444Y008766D01*
X012470Y008736D01*
X012492Y008703D01*
X012511Y008668D01*
X012527Y008631D01*
X012539Y008593D01*
X012547Y008554D01*
X012551Y008514D01*
X012551Y008474D01*
X012547Y008434D01*
X012539Y008395D01*
X012527Y008357D01*
X012511Y008320D01*
X012492Y008285D01*
X012470Y008252D01*
X012444Y008222D01*
X012416Y008194D01*
X012384Y008169D01*
X012351Y008148D01*
X012316Y008129D01*
X012278Y008115D01*
X012240Y008104D01*
X012201Y008097D01*
X012161Y008094D01*
X012121Y008095D01*
X012082Y008100D01*
X012043Y008109D01*
X012005Y008122D01*
X011969Y008138D01*
X011934Y008158D01*
X011902Y008181D01*
X011872Y008208D01*
X011845Y008237D01*
X011821Y008269D01*
X011800Y008303D01*
X011782Y008339D01*
X011769Y008376D01*
X011759Y008415D01*
X011753Y008454D01*
X011751Y008494D01*
X010751Y008494D02*
X010753Y008569D01*
X010759Y008643D01*
X010769Y008717D01*
X010783Y008790D01*
X010800Y008862D01*
X010822Y008934D01*
X010847Y009004D01*
X010876Y009072D01*
X010909Y009140D01*
X010945Y009205D01*
X010984Y009268D01*
X011027Y009329D01*
X011073Y009388D01*
X011122Y009444D01*
X011174Y009497D01*
X011229Y009548D01*
X011286Y009595D01*
X011346Y009640D01*
X011408Y009681D01*
X011473Y009719D01*
X011539Y009753D01*
X011607Y009784D01*
X011676Y009811D01*
X011747Y009834D01*
X011819Y009854D01*
X011892Y009870D01*
X011965Y009882D01*
X012039Y009890D01*
X012114Y009894D01*
X012188Y009894D01*
X012263Y009890D01*
X012337Y009882D01*
X012410Y009870D01*
X012483Y009854D01*
X012555Y009834D01*
X012626Y009811D01*
X012695Y009784D01*
X012763Y009753D01*
X012829Y009719D01*
X012894Y009681D01*
X012956Y009640D01*
X013016Y009595D01*
X013073Y009548D01*
X013128Y009497D01*
X013180Y009444D01*
X013229Y009388D01*
X013275Y009329D01*
X013318Y009268D01*
X013357Y009205D01*
X013393Y009140D01*
X013426Y009072D01*
X013455Y009004D01*
X013480Y008934D01*
X013502Y008862D01*
X013519Y008790D01*
X013533Y008717D01*
X013543Y008643D01*
X013549Y008569D01*
X013551Y008494D01*
X013549Y008419D01*
X013543Y008345D01*
X013533Y008271D01*
X013519Y008198D01*
X013502Y008126D01*
X013480Y008054D01*
X013455Y007984D01*
X013426Y007916D01*
X013393Y007848D01*
X013357Y007783D01*
X013318Y007720D01*
X013275Y007659D01*
X013229Y007600D01*
X013180Y007544D01*
X013128Y007491D01*
X013073Y007440D01*
X013016Y007393D01*
X012956Y007348D01*
X012894Y007307D01*
X012829Y007269D01*
X012763Y007235D01*
X012695Y007204D01*
X012626Y007177D01*
X012555Y007154D01*
X012483Y007134D01*
X012410Y007118D01*
X012337Y007106D01*
X012263Y007098D01*
X012188Y007094D01*
X012114Y007094D01*
X012039Y007098D01*
X011965Y007106D01*
X011892Y007118D01*
X011819Y007134D01*
X011747Y007154D01*
X011676Y007177D01*
X011607Y007204D01*
X011539Y007235D01*
X011473Y007269D01*
X011408Y007307D01*
X011346Y007348D01*
X011286Y007393D01*
X011229Y007440D01*
X011174Y007491D01*
X011122Y007544D01*
X011073Y007600D01*
X011027Y007659D01*
X010984Y007720D01*
X010945Y007783D01*
X010909Y007848D01*
X010876Y007916D01*
X010847Y007984D01*
X010822Y008054D01*
X010800Y008126D01*
X010783Y008198D01*
X010769Y008271D01*
X010759Y008345D01*
X010753Y008419D01*
X010751Y008494D01*
X008151Y005244D02*
X008901Y004494D01*
X008151Y003744D01*
X007401Y004494D01*
X008151Y005244D01*
X008151Y005144D02*
X008801Y004494D01*
X008151Y003844D01*
X007501Y004494D01*
X008151Y005144D01*
X007851Y004494D02*
X007853Y004528D01*
X007859Y004562D01*
X007868Y004595D01*
X007882Y004626D01*
X007899Y004656D01*
X007919Y004684D01*
X007942Y004709D01*
X007968Y004732D01*
X007996Y004751D01*
X008026Y004767D01*
X008058Y004779D01*
X008091Y004788D01*
X008125Y004793D01*
X008160Y004794D01*
X008194Y004791D01*
X008227Y004784D01*
X008260Y004774D01*
X008291Y004759D01*
X008320Y004742D01*
X008347Y004721D01*
X008372Y004697D01*
X008394Y004670D01*
X008412Y004642D01*
X008427Y004611D01*
X008439Y004579D01*
X008447Y004545D01*
X008451Y004511D01*
X008451Y004477D01*
X008447Y004443D01*
X008439Y004409D01*
X008427Y004377D01*
X008412Y004346D01*
X008394Y004318D01*
X008372Y004291D01*
X008347Y004267D01*
X008320Y004246D01*
X008291Y004229D01*
X008260Y004214D01*
X008227Y004204D01*
X008194Y004197D01*
X008160Y004194D01*
X008125Y004195D01*
X008091Y004200D01*
X008058Y004209D01*
X008026Y004221D01*
X007996Y004237D01*
X007968Y004256D01*
X007942Y004279D01*
X007919Y004304D01*
X007899Y004332D01*
X007882Y004362D01*
X007868Y004393D01*
X007859Y004426D01*
X007853Y004460D01*
X007851Y004494D01*
X007751Y004494D02*
X007753Y004534D01*
X007759Y004573D01*
X007769Y004612D01*
X007782Y004649D01*
X007800Y004685D01*
X007821Y004719D01*
X007845Y004751D01*
X007872Y004780D01*
X007902Y004807D01*
X007934Y004830D01*
X007969Y004850D01*
X008005Y004866D01*
X008043Y004879D01*
X008082Y004888D01*
X008121Y004893D01*
X008161Y004894D01*
X008201Y004891D01*
X008240Y004884D01*
X008278Y004873D01*
X008316Y004859D01*
X008351Y004840D01*
X008384Y004819D01*
X008416Y004794D01*
X008444Y004766D01*
X008470Y004736D01*
X008492Y004703D01*
X008511Y004668D01*
X008527Y004631D01*
X008539Y004593D01*
X008547Y004554D01*
X008551Y004514D01*
X008551Y004474D01*
X008547Y004434D01*
X008539Y004395D01*
X008527Y004357D01*
X008511Y004320D01*
X008492Y004285D01*
X008470Y004252D01*
X008444Y004222D01*
X008416Y004194D01*
X008384Y004169D01*
X008351Y004148D01*
X008316Y004129D01*
X008278Y004115D01*
X008240Y004104D01*
X008201Y004097D01*
X008161Y004094D01*
X008121Y004095D01*
X008082Y004100D01*
X008043Y004109D01*
X008005Y004122D01*
X007969Y004138D01*
X007934Y004158D01*
X007902Y004181D01*
X007872Y004208D01*
X007845Y004237D01*
X007821Y004269D01*
X007800Y004303D01*
X007782Y004339D01*
X007769Y004376D01*
X007759Y004415D01*
X007753Y004454D01*
X007751Y004494D01*
X006751Y004494D02*
X006753Y004569D01*
X006759Y004643D01*
X006769Y004717D01*
X006783Y004790D01*
X006800Y004862D01*
X006822Y004934D01*
X006847Y005004D01*
X006876Y005072D01*
X006909Y005140D01*
X006945Y005205D01*
X006984Y005268D01*
X007027Y005329D01*
X007073Y005388D01*
X007122Y005444D01*
X007174Y005497D01*
X007229Y005548D01*
X007286Y005595D01*
X007346Y005640D01*
X007408Y005681D01*
X007473Y005719D01*
X007539Y005753D01*
X007607Y005784D01*
X007676Y005811D01*
X007747Y005834D01*
X007819Y005854D01*
X007892Y005870D01*
X007965Y005882D01*
X008039Y005890D01*
X008114Y005894D01*
X008188Y005894D01*
X008263Y005890D01*
X008337Y005882D01*
X008410Y005870D01*
X008483Y005854D01*
X008555Y005834D01*
X008626Y005811D01*
X008695Y005784D01*
X008763Y005753D01*
X008829Y005719D01*
X008894Y005681D01*
X008956Y005640D01*
X009016Y005595D01*
X009073Y005548D01*
X009128Y005497D01*
X009180Y005444D01*
X009229Y005388D01*
X009275Y005329D01*
X009318Y005268D01*
X009357Y005205D01*
X009393Y005140D01*
X009426Y005072D01*
X009455Y005004D01*
X009480Y004934D01*
X009502Y004862D01*
X009519Y004790D01*
X009533Y004717D01*
X009543Y004643D01*
X009549Y004569D01*
X009551Y004494D01*
X009549Y004419D01*
X009543Y004345D01*
X009533Y004271D01*
X009519Y004198D01*
X009502Y004126D01*
X009480Y004054D01*
X009455Y003984D01*
X009426Y003916D01*
X009393Y003848D01*
X009357Y003783D01*
X009318Y003720D01*
X009275Y003659D01*
X009229Y003600D01*
X009180Y003544D01*
X009128Y003491D01*
X009073Y003440D01*
X009016Y003393D01*
X008956Y003348D01*
X008894Y003307D01*
X008829Y003269D01*
X008763Y003235D01*
X008695Y003204D01*
X008626Y003177D01*
X008555Y003154D01*
X008483Y003134D01*
X008410Y003118D01*
X008337Y003106D01*
X008263Y003098D01*
X008188Y003094D01*
X008114Y003094D01*
X008039Y003098D01*
X007965Y003106D01*
X007892Y003118D01*
X007819Y003134D01*
X007747Y003154D01*
X007676Y003177D01*
X007607Y003204D01*
X007539Y003235D01*
X007473Y003269D01*
X007408Y003307D01*
X007346Y003348D01*
X007286Y003393D01*
X007229Y003440D01*
X007174Y003491D01*
X007122Y003544D01*
X007073Y003600D01*
X007027Y003659D01*
X006984Y003720D01*
X006945Y003783D01*
X006909Y003848D01*
X006876Y003916D01*
X006847Y003984D01*
X006822Y004054D01*
X006800Y004126D01*
X006783Y004198D01*
X006769Y004271D01*
X006759Y004345D01*
X006753Y004419D01*
X006751Y004494D01*
X004151Y007744D02*
X004901Y008494D01*
X004151Y009244D01*
X003401Y008494D01*
X004151Y007744D01*
X004151Y007844D02*
X004801Y008494D01*
X004151Y009144D01*
X003501Y008494D01*
X004151Y007844D01*
X003851Y008494D02*
X003853Y008528D01*
X003859Y008562D01*
X003868Y008595D01*
X003882Y008626D01*
X003899Y008656D01*
X003919Y008684D01*
X003942Y008709D01*
X003968Y008732D01*
X003996Y008751D01*
X004026Y008767D01*
X004058Y008779D01*
X004091Y008788D01*
X004125Y008793D01*
X004160Y008794D01*
X004194Y008791D01*
X004227Y008784D01*
X004260Y008774D01*
X004291Y008759D01*
X004320Y008742D01*
X004347Y008721D01*
X004372Y008697D01*
X004394Y008670D01*
X004412Y008642D01*
X004427Y008611D01*
X004439Y008579D01*
X004447Y008545D01*
X004451Y008511D01*
X004451Y008477D01*
X004447Y008443D01*
X004439Y008409D01*
X004427Y008377D01*
X004412Y008346D01*
X004394Y008318D01*
X004372Y008291D01*
X004347Y008267D01*
X004320Y008246D01*
X004291Y008229D01*
X004260Y008214D01*
X004227Y008204D01*
X004194Y008197D01*
X004160Y008194D01*
X004125Y008195D01*
X004091Y008200D01*
X004058Y008209D01*
X004026Y008221D01*
X003996Y008237D01*
X003968Y008256D01*
X003942Y008279D01*
X003919Y008304D01*
X003899Y008332D01*
X003882Y008362D01*
X003868Y008393D01*
X003859Y008426D01*
X003853Y008460D01*
X003851Y008494D01*
X003751Y008494D02*
X003753Y008534D01*
X003759Y008573D01*
X003769Y008612D01*
X003782Y008649D01*
X003800Y008685D01*
X003821Y008719D01*
X003845Y008751D01*
X003872Y008780D01*
X003902Y008807D01*
X003934Y008830D01*
X003969Y008850D01*
X004005Y008866D01*
X004043Y008879D01*
X004082Y008888D01*
X004121Y008893D01*
X004161Y008894D01*
X004201Y008891D01*
X004240Y008884D01*
X004278Y008873D01*
X004316Y008859D01*
X004351Y008840D01*
X004384Y008819D01*
X004416Y008794D01*
X004444Y008766D01*
X004470Y008736D01*
X004492Y008703D01*
X004511Y008668D01*
X004527Y008631D01*
X004539Y008593D01*
X004547Y008554D01*
X004551Y008514D01*
X004551Y008474D01*
X004547Y008434D01*
X004539Y008395D01*
X004527Y008357D01*
X004511Y008320D01*
X004492Y008285D01*
X004470Y008252D01*
X004444Y008222D01*
X004416Y008194D01*
X004384Y008169D01*
X004351Y008148D01*
X004316Y008129D01*
X004278Y008115D01*
X004240Y008104D01*
X004201Y008097D01*
X004161Y008094D01*
X004121Y008095D01*
X004082Y008100D01*
X004043Y008109D01*
X004005Y008122D01*
X003969Y008138D01*
X003934Y008158D01*
X003902Y008181D01*
X003872Y008208D01*
X003845Y008237D01*
X003821Y008269D01*
X003800Y008303D01*
X003782Y008339D01*
X003769Y008376D01*
X003759Y008415D01*
X003753Y008454D01*
X003751Y008494D01*
X002751Y008494D02*
X002753Y008569D01*
X002759Y008643D01*
X002769Y008717D01*
X002783Y008790D01*
X002800Y008862D01*
X002822Y008934D01*
X002847Y009004D01*
X002876Y009072D01*
X002909Y009140D01*
X002945Y009205D01*
X002984Y009268D01*
X003027Y009329D01*
X003073Y009388D01*
X003122Y009444D01*
X003174Y009497D01*
X003229Y009548D01*
X003286Y009595D01*
X003346Y009640D01*
X003408Y009681D01*
X003473Y009719D01*
X003539Y009753D01*
X003607Y009784D01*
X003676Y009811D01*
X003747Y009834D01*
X003819Y009854D01*
X003892Y009870D01*
X003965Y009882D01*
X004039Y009890D01*
X004114Y009894D01*
X004188Y009894D01*
X004263Y009890D01*
X004337Y009882D01*
X004410Y009870D01*
X004483Y009854D01*
X004555Y009834D01*
X004626Y009811D01*
X004695Y009784D01*
X004763Y009753D01*
X004829Y009719D01*
X004894Y009681D01*
X004956Y009640D01*
X005016Y009595D01*
X005073Y009548D01*
X005128Y009497D01*
X005180Y009444D01*
X005229Y009388D01*
X005275Y009329D01*
X005318Y009268D01*
X005357Y009205D01*
X005393Y009140D01*
X005426Y009072D01*
X005455Y009004D01*
X005480Y008934D01*
X005502Y008862D01*
X005519Y008790D01*
X005533Y008717D01*
X005543Y008643D01*
X005549Y008569D01*
X005551Y008494D01*
X005549Y008419D01*
X005543Y008345D01*
X005533Y008271D01*
X005519Y008198D01*
X005502Y008126D01*
X005480Y008054D01*
X005455Y007984D01*
X005426Y007916D01*
X005393Y007848D01*
X005357Y007783D01*
X005318Y007720D01*
X005275Y007659D01*
X005229Y007600D01*
X005180Y007544D01*
X005128Y007491D01*
X005073Y007440D01*
X005016Y007393D01*
X004956Y007348D01*
X004894Y007307D01*
X004829Y007269D01*
X004763Y007235D01*
X004695Y007204D01*
X004626Y007177D01*
X004555Y007154D01*
X004483Y007134D01*
X004410Y007118D01*
X004337Y007106D01*
X004263Y007098D01*
X004188Y007094D01*
X004114Y007094D01*
X004039Y007098D01*
X003965Y007106D01*
X003892Y007118D01*
X003819Y007134D01*
X003747Y007154D01*
X003676Y007177D01*
X003607Y007204D01*
X003539Y007235D01*
X003473Y007269D01*
X003408Y007307D01*
X003346Y007348D01*
X003286Y007393D01*
X003229Y007440D01*
X003174Y007491D01*
X003122Y007544D01*
X003073Y007600D01*
X003027Y007659D01*
X002984Y007720D01*
X002945Y007783D01*
X002909Y007848D01*
X002876Y007916D01*
X002847Y007984D01*
X002822Y008054D01*
X002800Y008126D01*
X002783Y008198D01*
X002769Y008271D01*
X002759Y008345D01*
X002753Y008419D01*
X002751Y008494D01*
X007401Y012494D02*
X008151Y011744D01*
X008901Y012494D01*
X008151Y013244D01*
X007401Y012494D01*
X007501Y012494D02*
X008151Y011844D01*
X008801Y012494D01*
X008151Y013144D01*
X007501Y012494D01*
X007851Y012494D02*
X007853Y012528D01*
X007859Y012562D01*
X007868Y012595D01*
X007882Y012626D01*
X007899Y012656D01*
X007919Y012684D01*
X007942Y012709D01*
X007968Y012732D01*
X007996Y012751D01*
X008026Y012767D01*
X008058Y012779D01*
X008091Y012788D01*
X008125Y012793D01*
X008160Y012794D01*
X008194Y012791D01*
X008227Y012784D01*
X008260Y012774D01*
X008291Y012759D01*
X008320Y012742D01*
X008347Y012721D01*
X008372Y012697D01*
X008394Y012670D01*
X008412Y012642D01*
X008427Y012611D01*
X008439Y012579D01*
X008447Y012545D01*
X008451Y012511D01*
X008451Y012477D01*
X008447Y012443D01*
X008439Y012409D01*
X008427Y012377D01*
X008412Y012346D01*
X008394Y012318D01*
X008372Y012291D01*
X008347Y012267D01*
X008320Y012246D01*
X008291Y012229D01*
X008260Y012214D01*
X008227Y012204D01*
X008194Y012197D01*
X008160Y012194D01*
X008125Y012195D01*
X008091Y012200D01*
X008058Y012209D01*
X008026Y012221D01*
X007996Y012237D01*
X007968Y012256D01*
X007942Y012279D01*
X007919Y012304D01*
X007899Y012332D01*
X007882Y012362D01*
X007868Y012393D01*
X007859Y012426D01*
X007853Y012460D01*
X007851Y012494D01*
X007751Y012494D02*
X007753Y012534D01*
X007759Y012573D01*
X007769Y012612D01*
X007782Y012649D01*
X007800Y012685D01*
X007821Y012719D01*
X007845Y012751D01*
X007872Y012780D01*
X007902Y012807D01*
X007934Y012830D01*
X007969Y012850D01*
X008005Y012866D01*
X008043Y012879D01*
X008082Y012888D01*
X008121Y012893D01*
X008161Y012894D01*
X008201Y012891D01*
X008240Y012884D01*
X008278Y012873D01*
X008316Y012859D01*
X008351Y012840D01*
X008384Y012819D01*
X008416Y012794D01*
X008444Y012766D01*
X008470Y012736D01*
X008492Y012703D01*
X008511Y012668D01*
X008527Y012631D01*
X008539Y012593D01*
X008547Y012554D01*
X008551Y012514D01*
X008551Y012474D01*
X008547Y012434D01*
X008539Y012395D01*
X008527Y012357D01*
X008511Y012320D01*
X008492Y012285D01*
X008470Y012252D01*
X008444Y012222D01*
X008416Y012194D01*
X008384Y012169D01*
X008351Y012148D01*
X008316Y012129D01*
X008278Y012115D01*
X008240Y012104D01*
X008201Y012097D01*
X008161Y012094D01*
X008121Y012095D01*
X008082Y012100D01*
X008043Y012109D01*
X008005Y012122D01*
X007969Y012138D01*
X007934Y012158D01*
X007902Y012181D01*
X007872Y012208D01*
X007845Y012237D01*
X007821Y012269D01*
X007800Y012303D01*
X007782Y012339D01*
X007769Y012376D01*
X007759Y012415D01*
X007753Y012454D01*
X007751Y012494D01*
X006751Y012494D02*
X006753Y012569D01*
X006759Y012643D01*
X006769Y012717D01*
X006783Y012790D01*
X006800Y012862D01*
X006822Y012934D01*
X006847Y013004D01*
X006876Y013072D01*
X006909Y013140D01*
X006945Y013205D01*
X006984Y013268D01*
X007027Y013329D01*
X007073Y013388D01*
X007122Y013444D01*
X007174Y013497D01*
X007229Y013548D01*
X007286Y013595D01*
X007346Y013640D01*
X007408Y013681D01*
X007473Y013719D01*
X007539Y013753D01*
X007607Y013784D01*
X007676Y013811D01*
X007747Y013834D01*
X007819Y013854D01*
X007892Y013870D01*
X007965Y013882D01*
X008039Y013890D01*
X008114Y013894D01*
X008188Y013894D01*
X008263Y013890D01*
X008337Y013882D01*
X008410Y013870D01*
X008483Y013854D01*
X008555Y013834D01*
X008626Y013811D01*
X008695Y013784D01*
X008763Y013753D01*
X008829Y013719D01*
X008894Y013681D01*
X008956Y013640D01*
X009016Y013595D01*
X009073Y013548D01*
X009128Y013497D01*
X009180Y013444D01*
X009229Y013388D01*
X009275Y013329D01*
X009318Y013268D01*
X009357Y013205D01*
X009393Y013140D01*
X009426Y013072D01*
X009455Y013004D01*
X009480Y012934D01*
X009502Y012862D01*
X009519Y012790D01*
X009533Y012717D01*
X009543Y012643D01*
X009549Y012569D01*
X009551Y012494D01*
X009549Y012419D01*
X009543Y012345D01*
X009533Y012271D01*
X009519Y012198D01*
X009502Y012126D01*
X009480Y012054D01*
X009455Y011984D01*
X009426Y011916D01*
X009393Y011848D01*
X009357Y011783D01*
X009318Y011720D01*
X009275Y011659D01*
X009229Y011600D01*
X009180Y011544D01*
X009128Y011491D01*
X009073Y011440D01*
X009016Y011393D01*
X008956Y011348D01*
X008894Y011307D01*
X008829Y011269D01*
X008763Y011235D01*
X008695Y011204D01*
X008626Y011177D01*
X008555Y011154D01*
X008483Y011134D01*
X008410Y011118D01*
X008337Y011106D01*
X008263Y011098D01*
X008188Y011094D01*
X008114Y011094D01*
X008039Y011098D01*
X007965Y011106D01*
X007892Y011118D01*
X007819Y011134D01*
X007747Y011154D01*
X007676Y011177D01*
X007607Y011204D01*
X007539Y011235D01*
X007473Y011269D01*
X007408Y011307D01*
X007346Y011348D01*
X007286Y011393D01*
X007229Y011440D01*
X007174Y011491D01*
X007122Y011544D01*
X007073Y011600D01*
X007027Y011659D01*
X006984Y011720D01*
X006945Y011783D01*
X006909Y011848D01*
X006876Y011916D01*
X006847Y011984D01*
X006822Y012054D01*
X006800Y012126D01*
X006783Y012198D01*
X006769Y012271D01*
X006759Y012345D01*
X006753Y012419D01*
X006751Y012494D01*
X003301Y014394D02*
X002901Y014394D01*
X001951Y014394D01*
X001601Y014394D01*
X001251Y015194D02*
X001251Y015294D01*
X001151Y015294D01*
X001151Y015894D01*
X001251Y015894D01*
X001251Y015994D01*
X002351Y015594D02*
X002353Y015614D01*
X002359Y015632D01*
X002368Y015650D01*
X002380Y015665D01*
X002395Y015677D01*
X002413Y015686D01*
X002431Y015692D01*
X002451Y015694D01*
X002471Y015692D01*
X002489Y015686D01*
X002507Y015677D01*
X002522Y015665D01*
X002534Y015650D01*
X002543Y015632D01*
X002549Y015614D01*
X002551Y015594D01*
X002549Y015574D01*
X002543Y015556D01*
X002534Y015538D01*
X002522Y015523D01*
X002507Y015511D01*
X002489Y015502D01*
X002471Y015496D01*
X002451Y015494D01*
X002431Y015496D01*
X002413Y015502D01*
X002395Y015511D01*
X002380Y015523D01*
X002368Y015538D01*
X002359Y015556D01*
X002353Y015574D01*
X002351Y015594D01*
X001751Y015594D02*
X001753Y015646D01*
X001759Y015698D01*
X001769Y015750D01*
X001782Y015800D01*
X001799Y015850D01*
X001820Y015898D01*
X001845Y015944D01*
X001873Y015988D01*
X001904Y016030D01*
X001938Y016070D01*
X001975Y016107D01*
X002015Y016141D01*
X002057Y016172D01*
X002101Y016200D01*
X002147Y016225D01*
X002195Y016246D01*
X002245Y016263D01*
X002295Y016276D01*
X002347Y016286D01*
X002399Y016292D01*
X002451Y016294D01*
X002503Y016292D01*
X002555Y016286D01*
X002607Y016276D01*
X002657Y016263D01*
X002707Y016246D01*
X002755Y016225D01*
X002801Y016200D01*
X002845Y016172D01*
X002887Y016141D01*
X002927Y016107D01*
X002964Y016070D01*
X002998Y016030D01*
X003029Y015988D01*
X003057Y015944D01*
X003082Y015898D01*
X003103Y015850D01*
X003120Y015800D01*
X003133Y015750D01*
X003143Y015698D01*
X003149Y015646D01*
X003151Y015594D01*
X003149Y015542D01*
X003143Y015490D01*
X003133Y015438D01*
X003120Y015388D01*
X003103Y015338D01*
X003082Y015290D01*
X003057Y015244D01*
X003029Y015200D01*
X002998Y015158D01*
X002964Y015118D01*
X002927Y015081D01*
X002887Y015047D01*
X002845Y015016D01*
X002801Y014988D01*
X002755Y014963D01*
X002707Y014942D01*
X002657Y014925D01*
X002607Y014912D01*
X002555Y014902D01*
X002503Y014896D01*
X002451Y014894D01*
X002399Y014896D01*
X002347Y014902D01*
X002295Y014912D01*
X002245Y014925D01*
X002195Y014942D01*
X002147Y014963D01*
X002101Y014988D01*
X002057Y015016D01*
X002015Y015047D01*
X001975Y015081D01*
X001938Y015118D01*
X001904Y015158D01*
X001873Y015200D01*
X001845Y015244D01*
X001820Y015290D01*
X001799Y015338D01*
X001782Y015388D01*
X001769Y015438D01*
X001759Y015490D01*
X001753Y015542D01*
X001751Y015594D01*
X003651Y015894D02*
X003651Y015994D01*
X003651Y015894D02*
X003751Y015894D01*
X003751Y015294D01*
X003651Y015294D01*
X003651Y015194D01*
X003301Y016794D02*
X002951Y016794D01*
X001951Y016794D01*
X001601Y016794D01*
X004250Y018027D02*
X004350Y018027D01*
X004350Y018127D01*
X004350Y018027D02*
X004450Y018027D01*
X004350Y018027D02*
X004350Y017927D01*
X003900Y017527D02*
X003902Y017590D01*
X003908Y017652D01*
X003918Y017714D01*
X003931Y017776D01*
X003949Y017836D01*
X003970Y017895D01*
X003995Y017953D01*
X004024Y018009D01*
X004056Y018063D01*
X004091Y018115D01*
X004129Y018164D01*
X004171Y018212D01*
X004215Y018256D01*
X004263Y018298D01*
X004312Y018336D01*
X004364Y018371D01*
X004418Y018403D01*
X004474Y018432D01*
X004532Y018457D01*
X004591Y018478D01*
X004651Y018496D01*
X004713Y018509D01*
X004775Y018519D01*
X004837Y018525D01*
X004900Y018527D01*
X004963Y018525D01*
X005025Y018519D01*
X005087Y018509D01*
X005149Y018496D01*
X005209Y018478D01*
X005268Y018457D01*
X005326Y018432D01*
X005382Y018403D01*
X005436Y018371D01*
X005488Y018336D01*
X005537Y018298D01*
X005585Y018256D01*
X005629Y018212D01*
X005671Y018164D01*
X005709Y018115D01*
X005744Y018063D01*
X005776Y018009D01*
X005805Y017953D01*
X005830Y017895D01*
X005851Y017836D01*
X005869Y017776D01*
X005882Y017714D01*
X005892Y017652D01*
X005898Y017590D01*
X005900Y017527D01*
X005898Y017464D01*
X005892Y017402D01*
X005882Y017340D01*
X005869Y017278D01*
X005851Y017218D01*
X005830Y017159D01*
X005805Y017101D01*
X005776Y017045D01*
X005744Y016991D01*
X005709Y016939D01*
X005671Y016890D01*
X005629Y016842D01*
X005585Y016798D01*
X005537Y016756D01*
X005488Y016718D01*
X005436Y016683D01*
X005382Y016651D01*
X005326Y016622D01*
X005268Y016597D01*
X005209Y016576D01*
X005149Y016558D01*
X005087Y016545D01*
X005025Y016535D01*
X004963Y016529D01*
X004900Y016527D01*
X004837Y016529D01*
X004775Y016535D01*
X004713Y016545D01*
X004651Y016558D01*
X004591Y016576D01*
X004532Y016597D01*
X004474Y016622D01*
X004418Y016651D01*
X004364Y016683D01*
X004312Y016718D01*
X004263Y016756D01*
X004215Y016798D01*
X004171Y016842D01*
X004129Y016890D01*
X004091Y016939D01*
X004056Y016991D01*
X004024Y017045D01*
X003995Y017101D01*
X003970Y017159D01*
X003949Y017218D01*
X003931Y017278D01*
X003918Y017340D01*
X003908Y017402D01*
X003902Y017464D01*
X003900Y017527D01*
X006441Y017400D02*
X006599Y017400D01*
X006661Y016850D02*
X008311Y016850D01*
X008374Y017400D02*
X008531Y017400D01*
X008311Y016850D02*
X008348Y016901D01*
X008383Y016954D01*
X008415Y017010D01*
X008443Y017067D01*
X008467Y017126D01*
X008488Y017186D01*
X008505Y017247D01*
X008519Y017309D01*
X008528Y017372D01*
X008534Y017435D01*
X008536Y017499D01*
X008534Y017563D01*
X008528Y017626D01*
X008519Y017689D01*
X008506Y017751D01*
X008488Y017812D01*
X008468Y017872D01*
X008443Y017931D01*
X008416Y017988D01*
X008384Y018044D01*
X008350Y018097D01*
X008312Y018148D01*
X008271Y018197D01*
X008227Y018243D01*
X008181Y018287D01*
X008132Y018328D01*
X008081Y018365D01*
X008027Y018400D01*
X007972Y018431D01*
X007915Y018459D01*
X007856Y018483D01*
X007796Y018503D01*
X009371Y018094D02*
X009521Y018094D01*
X009521Y018244D01*
X009521Y018094D02*
X009671Y018094D01*
X009521Y018094D02*
X009521Y017944D01*
X009051Y017494D02*
X009053Y017560D01*
X009059Y017625D01*
X009069Y017690D01*
X009082Y017755D01*
X009100Y017818D01*
X009121Y017881D01*
X009146Y017941D01*
X009175Y018001D01*
X009207Y018058D01*
X009242Y018114D01*
X009281Y018167D01*
X009323Y018218D01*
X009367Y018266D01*
X009415Y018311D01*
X009465Y018354D01*
X009518Y018393D01*
X009573Y018430D01*
X009630Y018463D01*
X009689Y018492D01*
X009749Y018518D01*
X009811Y018540D01*
X009874Y018559D01*
X009938Y018573D01*
X010003Y018584D01*
X010069Y018591D01*
X010135Y018594D01*
X010200Y018593D01*
X010266Y018588D01*
X010331Y018579D01*
X010396Y018566D01*
X010459Y018550D01*
X010522Y018530D01*
X010583Y018505D01*
X010643Y018478D01*
X010701Y018447D01*
X010757Y018412D01*
X010811Y018374D01*
X010862Y018333D01*
X010911Y018289D01*
X010957Y018242D01*
X011001Y018193D01*
X011041Y018141D01*
X011078Y018086D01*
X011112Y018030D01*
X011142Y017971D01*
X011169Y017911D01*
X011192Y017850D01*
X011211Y017787D01*
X011227Y017723D01*
X011239Y017658D01*
X011247Y017593D01*
X011251Y017527D01*
X011251Y017461D01*
X011247Y017395D01*
X011239Y017330D01*
X011227Y017265D01*
X011211Y017201D01*
X011192Y017138D01*
X011169Y017077D01*
X011142Y017017D01*
X011112Y016958D01*
X011078Y016902D01*
X011041Y016847D01*
X011001Y016795D01*
X010957Y016746D01*
X010911Y016699D01*
X010862Y016655D01*
X010811Y016614D01*
X010757Y016576D01*
X010701Y016541D01*
X010643Y016510D01*
X010583Y016483D01*
X010522Y016458D01*
X010459Y016438D01*
X010396Y016422D01*
X010331Y016409D01*
X010266Y016400D01*
X010200Y016395D01*
X010135Y016394D01*
X010069Y016397D01*
X010003Y016404D01*
X009938Y016415D01*
X009874Y016429D01*
X009811Y016448D01*
X009749Y016470D01*
X009689Y016496D01*
X009630Y016525D01*
X009573Y016558D01*
X009518Y016595D01*
X009465Y016634D01*
X009415Y016677D01*
X009367Y016722D01*
X009323Y016770D01*
X009281Y016821D01*
X009242Y016874D01*
X009207Y016930D01*
X009175Y016987D01*
X009146Y017047D01*
X009121Y017107D01*
X009100Y017170D01*
X009082Y017233D01*
X009069Y017298D01*
X009059Y017363D01*
X009053Y017428D01*
X009051Y017494D01*
X007176Y018503D02*
X007116Y018483D01*
X007057Y018459D01*
X007000Y018431D01*
X006945Y018400D01*
X006891Y018365D01*
X006840Y018328D01*
X006791Y018287D01*
X006745Y018243D01*
X006701Y018197D01*
X006660Y018148D01*
X006622Y018097D01*
X006588Y018044D01*
X006557Y017988D01*
X006529Y017931D01*
X006504Y017872D01*
X006484Y017812D01*
X006466Y017751D01*
X006453Y017689D01*
X006444Y017626D01*
X006438Y017563D01*
X006436Y017499D01*
X006438Y017435D01*
X006444Y017372D01*
X006453Y017309D01*
X006467Y017247D01*
X006484Y017186D01*
X006505Y017126D01*
X006529Y017067D01*
X006557Y017010D01*
X006589Y016954D01*
X006624Y016901D01*
X006661Y016850D01*
X019401Y013844D02*
X019401Y013144D01*
X019403Y013127D01*
X019407Y013110D01*
X019414Y013094D01*
X019424Y013080D01*
X019437Y013067D01*
X019451Y013057D01*
X019467Y013050D01*
X019484Y013046D01*
X019501Y013044D01*
X019651Y013044D01*
X019701Y013094D01*
X021601Y013094D01*
X021651Y013044D01*
X021801Y013044D01*
X021818Y013046D01*
X021835Y013050D01*
X021851Y013057D01*
X021865Y013067D01*
X021878Y013080D01*
X021888Y013094D01*
X021895Y013110D01*
X021899Y013127D01*
X021901Y013144D01*
X021901Y013844D01*
X021899Y013861D01*
X021895Y013878D01*
X021888Y013894D01*
X021878Y013908D01*
X021865Y013921D01*
X021851Y013931D01*
X021835Y013938D01*
X021818Y013942D01*
X021801Y013944D01*
X021651Y013944D01*
X021601Y013894D01*
X019701Y013894D01*
X019651Y013944D01*
X019501Y013944D01*
X019484Y013942D01*
X019467Y013938D01*
X019451Y013931D01*
X019437Y013921D01*
X019424Y013908D01*
X019414Y013894D01*
X019407Y013878D01*
X019403Y013861D01*
X019401Y013844D01*
X022801Y007994D02*
X024501Y007994D01*
X024518Y007992D01*
X024535Y007988D01*
X024551Y007981D01*
X024565Y007971D01*
X024578Y007958D01*
X024588Y007944D01*
X024595Y007928D01*
X024599Y007911D01*
X024601Y007894D01*
X024601Y007094D01*
X024599Y007077D01*
X024595Y007060D01*
X024588Y007044D01*
X024578Y007030D01*
X024565Y007017D01*
X024551Y007007D01*
X024535Y007000D01*
X024518Y006996D01*
X024501Y006994D01*
X022801Y006994D01*
X022784Y006996D01*
X022767Y007000D01*
X022751Y007007D01*
X022737Y007017D01*
X022724Y007030D01*
X022714Y007044D01*
X022707Y007060D01*
X022703Y007077D01*
X022701Y007094D01*
X022701Y007894D01*
X022703Y007911D01*
X022707Y007928D01*
X022714Y007944D01*
X022724Y007958D01*
X022737Y007971D01*
X022751Y007981D01*
X022767Y007988D01*
X022784Y007992D01*
X022801Y007994D01*
X025801Y007894D02*
X028501Y007894D01*
X029651Y007844D02*
X029651Y005144D01*
X029653Y005127D01*
X029657Y005110D01*
X029664Y005094D01*
X029674Y005080D01*
X029687Y005067D01*
X029701Y005057D01*
X029717Y005050D01*
X029734Y005046D01*
X029751Y005044D01*
X030551Y005044D01*
X030568Y005046D01*
X030585Y005050D01*
X030601Y005057D01*
X030615Y005067D01*
X030628Y005080D01*
X030638Y005094D01*
X030645Y005110D01*
X030649Y005127D01*
X030651Y005144D01*
X030651Y007844D01*
X030649Y007861D01*
X030645Y007878D01*
X030638Y007894D01*
X030628Y007908D01*
X030615Y007921D01*
X030601Y007931D01*
X030585Y007938D01*
X030568Y007942D01*
X030551Y007944D01*
X029751Y007944D01*
X029734Y007942D01*
X029717Y007938D01*
X029701Y007931D01*
X029687Y007921D01*
X029674Y007908D01*
X029664Y007894D01*
X029657Y007878D01*
X029653Y007861D01*
X029651Y007844D01*
X030151Y007094D02*
X030151Y006614D01*
X030151Y006364D02*
X030151Y005894D01*
X028601Y005894D02*
X028601Y005094D01*
X028599Y005077D01*
X028595Y005060D01*
X028588Y005044D01*
X028578Y005030D01*
X028565Y005017D01*
X028551Y005007D01*
X028535Y005000D01*
X028518Y004996D01*
X028501Y004994D01*
X025801Y004994D01*
X025784Y004996D01*
X025767Y005000D01*
X025751Y005007D01*
X025737Y005017D01*
X025724Y005030D01*
X025714Y005044D01*
X025707Y005060D01*
X025703Y005077D01*
X025701Y005094D01*
X025701Y005894D01*
X025703Y005911D01*
X025707Y005928D01*
X025714Y005944D01*
X025724Y005958D01*
X025737Y005971D01*
X025751Y005981D01*
X025767Y005988D01*
X025784Y005992D01*
X025801Y005994D01*
X028501Y005994D01*
X028501Y006094D02*
X025801Y006094D01*
X026551Y005494D02*
X027031Y005494D01*
X027281Y005494D02*
X027751Y005494D01*
X028501Y005994D02*
X028518Y005992D01*
X028535Y005988D01*
X028551Y005981D01*
X028565Y005971D01*
X028578Y005958D01*
X028588Y005944D01*
X028595Y005928D01*
X028599Y005911D01*
X028601Y005894D01*
X028501Y006094D02*
X028560Y006096D01*
X028618Y006102D01*
X028677Y006111D01*
X028734Y006125D01*
X028790Y006142D01*
X028845Y006163D01*
X028899Y006187D01*
X028951Y006215D01*
X029001Y006246D01*
X029049Y006280D01*
X029094Y006317D01*
X029137Y006358D01*
X029178Y006401D01*
X029215Y006446D01*
X029249Y006494D01*
X029280Y006544D01*
X029308Y006596D01*
X029332Y006650D01*
X029353Y006705D01*
X029370Y006761D01*
X029384Y006818D01*
X029393Y006877D01*
X029399Y006935D01*
X029401Y006994D01*
X029399Y007053D01*
X029393Y007111D01*
X029384Y007170D01*
X029370Y007227D01*
X029353Y007283D01*
X029332Y007338D01*
X029308Y007392D01*
X029280Y007444D01*
X029249Y007494D01*
X029215Y007542D01*
X029178Y007587D01*
X029137Y007630D01*
X029094Y007671D01*
X029049Y007708D01*
X029001Y007742D01*
X028951Y007773D01*
X028899Y007801D01*
X028845Y007825D01*
X028790Y007846D01*
X028734Y007863D01*
X028677Y007877D01*
X028618Y007886D01*
X028560Y007892D01*
X028501Y007894D01*
X030571Y009394D02*
X030951Y009394D01*
X030951Y011594D01*
X030541Y011594D01*
X032751Y011994D02*
X032751Y010994D01*
X032751Y011994D02*
X033247Y011994D01*
X033251Y011994D02*
X034401Y011994D01*
X036151Y011994D01*
X035851Y011994D01*
X036151Y011994D02*
X037051Y011994D01*
X037052Y011994D02*
X037551Y011994D01*
X037551Y010994D01*
X035901Y010244D02*
X035901Y008744D01*
X034401Y008744D01*
X034401Y010244D01*
X035901Y010244D01*
X033751Y009494D02*
X033753Y009569D01*
X033759Y009643D01*
X033769Y009717D01*
X033783Y009790D01*
X033800Y009862D01*
X033822Y009934D01*
X033847Y010004D01*
X033876Y010072D01*
X033909Y010140D01*
X033945Y010205D01*
X033984Y010268D01*
X034027Y010329D01*
X034073Y010388D01*
X034122Y010444D01*
X034174Y010497D01*
X034229Y010548D01*
X034286Y010595D01*
X034346Y010640D01*
X034408Y010681D01*
X034473Y010719D01*
X034539Y010753D01*
X034607Y010784D01*
X034676Y010811D01*
X034747Y010834D01*
X034819Y010854D01*
X034892Y010870D01*
X034965Y010882D01*
X035039Y010890D01*
X035114Y010894D01*
X035188Y010894D01*
X035263Y010890D01*
X035337Y010882D01*
X035410Y010870D01*
X035483Y010854D01*
X035555Y010834D01*
X035626Y010811D01*
X035695Y010784D01*
X035763Y010753D01*
X035829Y010719D01*
X035894Y010681D01*
X035956Y010640D01*
X036016Y010595D01*
X036073Y010548D01*
X036128Y010497D01*
X036180Y010444D01*
X036229Y010388D01*
X036275Y010329D01*
X036318Y010268D01*
X036357Y010205D01*
X036393Y010140D01*
X036426Y010072D01*
X036455Y010004D01*
X036480Y009934D01*
X036502Y009862D01*
X036519Y009790D01*
X036533Y009717D01*
X036543Y009643D01*
X036549Y009569D01*
X036551Y009494D01*
X036549Y009419D01*
X036543Y009345D01*
X036533Y009271D01*
X036519Y009198D01*
X036502Y009126D01*
X036480Y009054D01*
X036455Y008984D01*
X036426Y008916D01*
X036393Y008848D01*
X036357Y008783D01*
X036318Y008720D01*
X036275Y008659D01*
X036229Y008600D01*
X036180Y008544D01*
X036128Y008491D01*
X036073Y008440D01*
X036016Y008393D01*
X035956Y008348D01*
X035894Y008307D01*
X035829Y008269D01*
X035763Y008235D01*
X035695Y008204D01*
X035626Y008177D01*
X035555Y008154D01*
X035483Y008134D01*
X035410Y008118D01*
X035337Y008106D01*
X035263Y008098D01*
X035188Y008094D01*
X035114Y008094D01*
X035039Y008098D01*
X034965Y008106D01*
X034892Y008118D01*
X034819Y008134D01*
X034747Y008154D01*
X034676Y008177D01*
X034607Y008204D01*
X034539Y008235D01*
X034473Y008269D01*
X034408Y008307D01*
X034346Y008348D01*
X034286Y008393D01*
X034229Y008440D01*
X034174Y008491D01*
X034122Y008544D01*
X034073Y008600D01*
X034027Y008659D01*
X033984Y008720D01*
X033945Y008783D01*
X033909Y008848D01*
X033876Y008916D01*
X033847Y008984D01*
X033822Y009054D01*
X033800Y009126D01*
X033783Y009198D01*
X033769Y009271D01*
X033759Y009345D01*
X033753Y009419D01*
X033751Y009494D01*
X032751Y009944D02*
X032751Y009044D01*
X032751Y007994D02*
X032751Y006994D01*
X034401Y006994D01*
X035901Y006994D01*
X035851Y006994D01*
X035901Y006994D02*
X037552Y006994D01*
X037552Y007491D01*
X037551Y007494D02*
X037551Y007994D01*
X037551Y009044D02*
X037551Y009944D01*
X034451Y011994D02*
X034401Y011994D01*
X034501Y013544D02*
X034651Y013544D01*
X034701Y013594D01*
X036601Y013594D01*
X036651Y013544D01*
X036801Y013544D01*
X036818Y013546D01*
X036835Y013550D01*
X036851Y013557D01*
X036865Y013567D01*
X036878Y013580D01*
X036888Y013594D01*
X036895Y013610D01*
X036899Y013627D01*
X036901Y013644D01*
X036901Y014344D01*
X036899Y014361D01*
X036895Y014378D01*
X036888Y014394D01*
X036878Y014408D01*
X036865Y014421D01*
X036851Y014431D01*
X036835Y014438D01*
X036818Y014442D01*
X036801Y014444D01*
X036651Y014444D01*
X036601Y014394D01*
X034701Y014394D01*
X034651Y014444D01*
X034501Y014444D01*
X034484Y014442D01*
X034467Y014438D01*
X034451Y014431D01*
X034437Y014421D01*
X034424Y014408D01*
X034414Y014394D01*
X034407Y014378D01*
X034403Y014361D01*
X034401Y014344D01*
X034401Y013644D01*
X034403Y013627D01*
X034407Y013610D01*
X034414Y013594D01*
X034424Y013580D01*
X034437Y013567D01*
X034451Y013557D01*
X034467Y013550D01*
X034484Y013546D01*
X034501Y013544D01*
X034851Y014594D02*
X036451Y014594D01*
X036468Y014596D01*
X036485Y014600D01*
X036501Y014607D01*
X036515Y014617D01*
X036528Y014630D01*
X036538Y014644D01*
X036545Y014660D01*
X036549Y014677D01*
X036551Y014694D01*
X036551Y015294D01*
X036549Y015311D01*
X036545Y015328D01*
X036538Y015344D01*
X036528Y015358D01*
X036515Y015371D01*
X036501Y015381D01*
X036485Y015388D01*
X036468Y015392D01*
X036451Y015394D01*
X034851Y015394D01*
X034834Y015392D01*
X034817Y015388D01*
X034801Y015381D01*
X034787Y015371D01*
X034774Y015358D01*
X034764Y015344D01*
X034757Y015328D01*
X034753Y015311D01*
X034751Y015294D01*
X034751Y014694D01*
X034753Y014677D01*
X034757Y014660D01*
X034764Y014644D01*
X034774Y014630D01*
X034787Y014617D01*
X034801Y014607D01*
X034817Y014600D01*
X034834Y014596D01*
X034851Y014594D01*
X035251Y014744D02*
X035651Y014994D01*
X035651Y015244D01*
X035651Y014994D02*
X035651Y014744D01*
X035651Y014994D02*
X035051Y014994D01*
X035251Y014744D02*
X035251Y015244D01*
X035651Y014994D01*
X035901Y014994D01*
X036451Y015594D02*
X034851Y015594D01*
X034834Y015596D01*
X034817Y015600D01*
X034801Y015607D01*
X034787Y015617D01*
X034774Y015630D01*
X034764Y015644D01*
X034757Y015660D01*
X034753Y015677D01*
X034751Y015694D01*
X034751Y016294D01*
X034753Y016311D01*
X034757Y016328D01*
X034764Y016344D01*
X034774Y016358D01*
X034787Y016371D01*
X034801Y016381D01*
X034817Y016388D01*
X034834Y016392D01*
X034851Y016394D01*
X036451Y016394D01*
X036468Y016392D01*
X036485Y016388D01*
X036501Y016381D01*
X036515Y016371D01*
X036528Y016358D01*
X036538Y016344D01*
X036545Y016328D01*
X036549Y016311D01*
X036551Y016294D01*
X036551Y015694D01*
X036549Y015677D01*
X036545Y015660D01*
X036538Y015644D01*
X036528Y015630D01*
X036515Y015617D01*
X036501Y015607D01*
X036485Y015600D01*
X036468Y015596D01*
X036451Y015594D01*
X035901Y015994D02*
X035651Y015994D01*
X035651Y016244D01*
X035651Y015994D02*
X035651Y015744D01*
X035651Y015994D02*
X035251Y015744D01*
X035251Y016244D01*
X035651Y015994D01*
X035051Y015994D01*
X034651Y016544D02*
X034501Y016544D01*
X034484Y016546D01*
X034467Y016550D01*
X034451Y016557D01*
X034437Y016567D01*
X034424Y016580D01*
X034414Y016594D01*
X034407Y016610D01*
X034403Y016627D01*
X034401Y016644D01*
X034401Y017344D01*
X034403Y017361D01*
X034407Y017378D01*
X034414Y017394D01*
X034424Y017408D01*
X034437Y017421D01*
X034451Y017431D01*
X034467Y017438D01*
X034484Y017442D01*
X034501Y017444D01*
X034651Y017444D01*
X034701Y017394D01*
X036601Y017394D01*
X036651Y017444D01*
X036801Y017444D01*
X036801Y017544D02*
X036651Y017544D01*
X036601Y017594D01*
X034701Y017594D01*
X034651Y017544D01*
X034501Y017544D01*
X034484Y017546D01*
X034467Y017550D01*
X034451Y017557D01*
X034437Y017567D01*
X034424Y017580D01*
X034414Y017594D01*
X034407Y017610D01*
X034403Y017627D01*
X034401Y017644D01*
X034401Y018344D01*
X034403Y018361D01*
X034407Y018378D01*
X034414Y018394D01*
X034424Y018408D01*
X034437Y018421D01*
X034451Y018431D01*
X034467Y018438D01*
X034484Y018442D01*
X034501Y018444D01*
X034651Y018444D01*
X034701Y018394D01*
X036601Y018394D01*
X036651Y018444D01*
X036801Y018444D01*
X036818Y018442D01*
X036835Y018438D01*
X036851Y018431D01*
X036865Y018421D01*
X036878Y018408D01*
X036888Y018394D01*
X036895Y018378D01*
X036899Y018361D01*
X036901Y018344D01*
X036901Y017644D01*
X036899Y017627D01*
X036895Y017610D01*
X036888Y017594D01*
X036878Y017580D01*
X036865Y017567D01*
X036851Y017557D01*
X036835Y017550D01*
X036818Y017546D01*
X036801Y017544D01*
X036801Y017444D02*
X036818Y017442D01*
X036835Y017438D01*
X036851Y017431D01*
X036865Y017421D01*
X036878Y017408D01*
X036888Y017394D01*
X036895Y017378D01*
X036899Y017361D01*
X036901Y017344D01*
X036901Y016644D01*
X036899Y016627D01*
X036895Y016610D01*
X036888Y016594D01*
X036878Y016580D01*
X036865Y016567D01*
X036851Y016557D01*
X036835Y016550D01*
X036818Y016546D01*
X036801Y016544D01*
X036651Y016544D01*
X036601Y016594D01*
X034701Y016594D01*
X034651Y016544D01*
X034451Y006994D02*
X034401Y006994D01*
X025801Y007894D02*
X025742Y007892D01*
X025684Y007886D01*
X025625Y007877D01*
X025568Y007863D01*
X025512Y007846D01*
X025457Y007825D01*
X025403Y007801D01*
X025351Y007773D01*
X025301Y007742D01*
X025253Y007708D01*
X025208Y007671D01*
X025165Y007630D01*
X025124Y007587D01*
X025087Y007542D01*
X025053Y007494D01*
X025022Y007444D01*
X024994Y007392D01*
X024970Y007338D01*
X024949Y007283D01*
X024932Y007227D01*
X024918Y007170D01*
X024909Y007111D01*
X024903Y007053D01*
X024901Y006994D01*
X024903Y006935D01*
X024909Y006877D01*
X024918Y006818D01*
X024932Y006761D01*
X024949Y006705D01*
X024970Y006650D01*
X024994Y006596D01*
X025022Y006544D01*
X025053Y006494D01*
X025087Y006446D01*
X025124Y006401D01*
X025165Y006358D01*
X025208Y006317D01*
X025253Y006280D01*
X025301Y006246D01*
X025351Y006215D01*
X025403Y006187D01*
X025457Y006163D01*
X025512Y006142D01*
X025568Y006125D01*
X025625Y006111D01*
X025684Y006102D01*
X025742Y006096D01*
X025801Y006094D01*
D310*
X034761Y003664D03*
X034761Y003654D03*
X034761Y003644D03*
X034761Y003634D03*
X034761Y003624D03*
X034761Y003614D03*
X034761Y003604D03*
X034761Y003594D03*
X034761Y003584D03*
X034761Y003574D03*
X034761Y003564D03*
X034761Y003554D03*
X034761Y003544D03*
X034761Y003534D03*
X034761Y003524D03*
X034761Y003514D03*
X034761Y003504D03*
X034761Y003494D03*
X034761Y003484D03*
X034761Y003474D03*
X034761Y003464D03*
X034761Y003454D03*
X035211Y002764D03*
X035211Y002754D03*
X035211Y002744D03*
X035211Y002734D03*
X035211Y002724D03*
X035211Y002714D03*
X035211Y002704D03*
X035211Y002694D03*
X035211Y002684D03*
X035211Y002674D03*
X035211Y002664D03*
X035211Y002654D03*
X035211Y002644D03*
X035211Y002634D03*
X035211Y002624D03*
X035211Y002614D03*
X035211Y002604D03*
X035211Y002594D03*
X035211Y002584D03*
X035211Y002574D03*
X035211Y002564D03*
X035211Y002554D03*
X035881Y002554D03*
X035881Y002564D03*
X035881Y002574D03*
X035881Y002584D03*
X035881Y002594D03*
X035881Y002604D03*
X035881Y002614D03*
X035881Y002624D03*
X035881Y002634D03*
X035881Y002644D03*
X035881Y002654D03*
X035881Y002664D03*
X035881Y002674D03*
X035881Y002684D03*
X035881Y002694D03*
X035881Y002704D03*
X035881Y002714D03*
X035881Y002724D03*
X035881Y002734D03*
X035881Y002744D03*
X035881Y002754D03*
X035881Y002764D03*
X036331Y003454D03*
X036331Y003464D03*
X036331Y003474D03*
X036331Y003484D03*
X036331Y003494D03*
X036331Y003504D03*
X036331Y003514D03*
X036331Y003524D03*
X036331Y003534D03*
X036331Y003544D03*
X036331Y003554D03*
X036331Y003564D03*
X036331Y003574D03*
X036331Y003584D03*
X036331Y003594D03*
X036331Y003604D03*
X036331Y003614D03*
X036331Y003624D03*
X036331Y003634D03*
X036331Y003644D03*
X036331Y003654D03*
X036331Y003664D03*
D311*
X036221Y004124D03*
X036221Y004134D03*
X036221Y004144D03*
X036221Y004154D03*
X036221Y004164D03*
X036221Y004174D03*
X036221Y004184D03*
X036221Y004194D03*
X036221Y004204D03*
X036221Y004214D03*
X036221Y004224D03*
X036221Y004234D03*
X036221Y004244D03*
X036221Y004254D03*
X036221Y004264D03*
X036221Y004274D03*
X036221Y004284D03*
X036221Y004294D03*
X036221Y004304D03*
X036221Y004314D03*
X036221Y004324D03*
X036221Y004334D03*
X036221Y004344D03*
X034871Y004344D03*
X034871Y004334D03*
X034871Y004324D03*
X034871Y004314D03*
X034871Y004304D03*
X034871Y004294D03*
X034871Y004284D03*
X034871Y004274D03*
X034871Y004264D03*
X034871Y004254D03*
X034871Y004244D03*
X034871Y004234D03*
X034871Y004224D03*
X034871Y004214D03*
X034871Y004204D03*
X034871Y004194D03*
X034871Y004184D03*
X034871Y004174D03*
X034871Y004164D03*
X034871Y004154D03*
X034871Y004144D03*
X034871Y004134D03*
X034871Y004124D03*
X034421Y003214D03*
X034421Y003204D03*
X034421Y003194D03*
X034421Y003184D03*
X034421Y003174D03*
X034421Y003164D03*
X034421Y003154D03*
X034421Y003144D03*
X034421Y003134D03*
X034421Y003124D03*
X034421Y003114D03*
X034421Y003104D03*
X034421Y003094D03*
X034421Y003084D03*
X034421Y003074D03*
X034421Y003064D03*
X034421Y003054D03*
X034421Y003044D03*
X034421Y003034D03*
X034421Y003024D03*
X034421Y003014D03*
X034421Y003004D03*
X034421Y002994D03*
X034421Y002984D03*
X034421Y002974D03*
X034421Y002964D03*
X034421Y002954D03*
X034421Y002944D03*
X034421Y002934D03*
X034421Y002924D03*
X034421Y002914D03*
X034421Y002904D03*
X034421Y002894D03*
X034421Y002884D03*
X034421Y002874D03*
X034421Y002864D03*
X034421Y002854D03*
X034421Y002844D03*
X034421Y002834D03*
X034421Y002824D03*
X034421Y002814D03*
X034421Y002804D03*
X034421Y002794D03*
X034421Y002784D03*
X034421Y002774D03*
X034871Y002774D03*
X034871Y002784D03*
X034871Y002794D03*
X034871Y002804D03*
X034871Y002814D03*
X034871Y002824D03*
X034871Y002834D03*
X034871Y002844D03*
X034871Y002854D03*
X034871Y002864D03*
X034871Y002874D03*
X034871Y002884D03*
X034871Y002894D03*
X034871Y002904D03*
X034871Y002914D03*
X034871Y002924D03*
X034871Y002934D03*
X034871Y002944D03*
X034871Y002954D03*
X034871Y002964D03*
X034871Y002974D03*
X034871Y002984D03*
X034871Y002994D03*
X036221Y002994D03*
X036221Y002984D03*
X036221Y002974D03*
X036221Y002964D03*
X036221Y002954D03*
X036221Y002944D03*
X036221Y002934D03*
X036221Y002924D03*
X036221Y002914D03*
X036221Y002904D03*
X036221Y002894D03*
X036221Y002884D03*
X036221Y002874D03*
X036221Y002864D03*
X036221Y002854D03*
X036221Y002844D03*
X036221Y002834D03*
X036221Y002824D03*
X036221Y002814D03*
X036221Y002804D03*
X036221Y002794D03*
X036221Y002784D03*
X036221Y002774D03*
X036671Y002774D03*
X036671Y002784D03*
X036671Y002794D03*
X036671Y002804D03*
X036671Y002814D03*
X036671Y002824D03*
X036671Y002834D03*
X036671Y002844D03*
X036671Y002854D03*
X036671Y002864D03*
X036671Y002874D03*
X036671Y002884D03*
X036671Y002894D03*
X036671Y002904D03*
X036671Y002914D03*
X036671Y002924D03*
X036671Y002934D03*
X036671Y002944D03*
X036671Y002954D03*
X036671Y002964D03*
X036671Y002974D03*
X036671Y002984D03*
X036671Y002994D03*
X036671Y003004D03*
X036671Y003014D03*
X036671Y003024D03*
X036671Y003034D03*
X036671Y003044D03*
X036671Y003054D03*
X036671Y003064D03*
X036671Y003074D03*
X036671Y003084D03*
X036671Y003094D03*
X036671Y003104D03*
X036671Y003114D03*
X036671Y003124D03*
X036671Y003134D03*
X036671Y003144D03*
X036671Y003154D03*
X036671Y003164D03*
X036671Y003174D03*
X036671Y003184D03*
X036671Y003194D03*
X036671Y003204D03*
X036671Y003214D03*
D312*
X035546Y003214D03*
X035546Y003204D03*
X035546Y003194D03*
X035546Y003184D03*
X035546Y003174D03*
X035546Y003164D03*
X035546Y003154D03*
X035546Y003144D03*
X035546Y003134D03*
X035546Y003124D03*
X035546Y003114D03*
X035546Y003104D03*
X035546Y003094D03*
X035546Y003084D03*
X035546Y003074D03*
X035546Y003064D03*
X035546Y003054D03*
X035546Y003044D03*
X035546Y003034D03*
X035546Y003024D03*
X035546Y003014D03*
X035546Y003004D03*
X035546Y003674D03*
X035546Y003684D03*
X035546Y003694D03*
X035546Y003704D03*
X035546Y003714D03*
X035546Y003724D03*
X035546Y003734D03*
X035546Y003744D03*
X035546Y003754D03*
X035546Y003764D03*
X035546Y003774D03*
X035546Y003784D03*
X035546Y003794D03*
X035546Y003804D03*
X035546Y003814D03*
X035546Y003824D03*
X035546Y003834D03*
X035546Y003844D03*
X035546Y003854D03*
X035546Y003864D03*
X035546Y003874D03*
X035546Y003884D03*
X035546Y003894D03*
D313*
X035546Y003444D03*
X035546Y003434D03*
X035546Y003424D03*
X035546Y003414D03*
X035546Y003404D03*
X035546Y003394D03*
X035546Y003384D03*
X035546Y003374D03*
X035546Y003364D03*
X035546Y003354D03*
X035546Y003344D03*
X035546Y003334D03*
X035546Y003324D03*
X035546Y003314D03*
X035546Y003304D03*
X035546Y003294D03*
X035546Y003284D03*
X035546Y003274D03*
X035546Y003264D03*
X035546Y003254D03*
X035546Y003244D03*
X035546Y003234D03*
X035546Y003224D03*
D314*
X035546Y003454D03*
X035546Y003464D03*
X035546Y003474D03*
X035546Y003484D03*
X035546Y003494D03*
X035546Y003504D03*
X035546Y003514D03*
X035546Y003524D03*
X035546Y003534D03*
X035546Y003544D03*
X035546Y003554D03*
X035546Y003564D03*
X035546Y003574D03*
X035546Y003584D03*
X035546Y003594D03*
X035546Y003604D03*
X035546Y003614D03*
X035546Y003624D03*
X035546Y003634D03*
X035546Y003644D03*
X035546Y003654D03*
X035546Y003664D03*
D315*
X035096Y003904D03*
X035096Y003914D03*
X035096Y003924D03*
X035096Y003934D03*
X035096Y003944D03*
X035096Y003954D03*
X035096Y003964D03*
X035096Y003974D03*
X035096Y003984D03*
X035096Y003994D03*
X035096Y004004D03*
X035096Y004014D03*
X035096Y004024D03*
X035096Y004034D03*
X035096Y004044D03*
X035096Y004054D03*
X035096Y004064D03*
X035096Y004074D03*
X035096Y004084D03*
X035096Y004094D03*
X035096Y004104D03*
X035096Y004114D03*
X035996Y004114D03*
X035996Y004104D03*
X035996Y004094D03*
X035996Y004084D03*
X035996Y004074D03*
X035996Y004064D03*
X035996Y004054D03*
X035996Y004044D03*
X035996Y004034D03*
X035996Y004024D03*
X035996Y004014D03*
X035996Y004004D03*
X035996Y003994D03*
X035996Y003984D03*
X035996Y003974D03*
X035996Y003964D03*
X035996Y003954D03*
X035996Y003944D03*
X035996Y003934D03*
X035996Y003924D03*
X035996Y003914D03*
X035996Y003904D03*
D316*
X028501Y006294D02*
X025801Y006294D01*
X025750Y006296D01*
X025699Y006301D01*
X025649Y006311D01*
X025599Y006324D01*
X025551Y006340D01*
X025504Y006360D01*
X025458Y006384D01*
X025415Y006410D01*
X025373Y006440D01*
X025334Y006473D01*
X025297Y006508D01*
X025263Y006546D01*
X025232Y006587D01*
X025203Y006629D01*
X025178Y006674D01*
X025157Y006720D01*
X025138Y006768D01*
X025124Y006817D01*
X025113Y006867D01*
X025105Y006917D01*
X025101Y006968D01*
X025101Y007020D01*
X025105Y007071D01*
X025113Y007121D01*
X025124Y007171D01*
X025138Y007220D01*
X025157Y007268D01*
X025178Y007314D01*
X025203Y007359D01*
X025232Y007401D01*
X025263Y007442D01*
X025297Y007480D01*
X025334Y007515D01*
X025373Y007548D01*
X025415Y007578D01*
X025458Y007604D01*
X025504Y007628D01*
X025551Y007648D01*
X025599Y007664D01*
X025649Y007677D01*
X025699Y007687D01*
X025750Y007692D01*
X025801Y007694D01*
X028501Y007694D01*
X028552Y007692D01*
X028603Y007687D01*
X028653Y007677D01*
X028703Y007664D01*
X028751Y007648D01*
X028798Y007628D01*
X028844Y007604D01*
X028887Y007578D01*
X028929Y007548D01*
X028968Y007515D01*
X029005Y007480D01*
X029039Y007442D01*
X029070Y007401D01*
X029099Y007359D01*
X029124Y007314D01*
X029145Y007268D01*
X029164Y007220D01*
X029178Y007171D01*
X029189Y007121D01*
X029197Y007071D01*
X029201Y007020D01*
X029201Y006968D01*
X029197Y006917D01*
X029189Y006867D01*
X029178Y006817D01*
X029164Y006768D01*
X029145Y006720D01*
X029124Y006674D01*
X029099Y006629D01*
X029070Y006587D01*
X029039Y006546D01*
X029005Y006508D01*
X028968Y006473D01*
X028929Y006440D01*
X028887Y006410D01*
X028844Y006384D01*
X028798Y006360D01*
X028751Y006340D01*
X028703Y006324D01*
X028653Y006311D01*
X028603Y006301D01*
X028552Y006296D01*
X028501Y006294D01*
X034501Y008844D02*
X034501Y010144D01*
X035801Y010144D01*
X035801Y008844D01*
X034501Y008844D01*
X034851Y009494D02*
X034853Y009528D01*
X034859Y009562D01*
X034868Y009595D01*
X034882Y009626D01*
X034899Y009656D01*
X034919Y009684D01*
X034942Y009709D01*
X034968Y009732D01*
X034996Y009751D01*
X035026Y009767D01*
X035058Y009779D01*
X035091Y009788D01*
X035125Y009793D01*
X035160Y009794D01*
X035194Y009791D01*
X035227Y009784D01*
X035260Y009774D01*
X035291Y009759D01*
X035320Y009742D01*
X035347Y009721D01*
X035372Y009697D01*
X035394Y009670D01*
X035412Y009642D01*
X035427Y009611D01*
X035439Y009579D01*
X035447Y009545D01*
X035451Y009511D01*
X035451Y009477D01*
X035447Y009443D01*
X035439Y009409D01*
X035427Y009377D01*
X035412Y009346D01*
X035394Y009318D01*
X035372Y009291D01*
X035347Y009267D01*
X035320Y009246D01*
X035291Y009229D01*
X035260Y009214D01*
X035227Y009204D01*
X035194Y009197D01*
X035160Y009194D01*
X035125Y009195D01*
X035091Y009200D01*
X035058Y009209D01*
X035026Y009221D01*
X034996Y009237D01*
X034968Y009256D01*
X034942Y009279D01*
X034919Y009304D01*
X034899Y009332D01*
X034882Y009362D01*
X034868Y009393D01*
X034859Y009426D01*
X034853Y009460D01*
X034851Y009494D01*
X034751Y009494D02*
X034753Y009534D01*
X034759Y009573D01*
X034769Y009612D01*
X034782Y009649D01*
X034800Y009685D01*
X034821Y009719D01*
X034845Y009751D01*
X034872Y009780D01*
X034902Y009807D01*
X034934Y009830D01*
X034969Y009850D01*
X035005Y009866D01*
X035043Y009879D01*
X035082Y009888D01*
X035121Y009893D01*
X035161Y009894D01*
X035201Y009891D01*
X035240Y009884D01*
X035278Y009873D01*
X035316Y009859D01*
X035351Y009840D01*
X035384Y009819D01*
X035416Y009794D01*
X035444Y009766D01*
X035470Y009736D01*
X035492Y009703D01*
X035511Y009668D01*
X035527Y009631D01*
X035539Y009593D01*
X035547Y009554D01*
X035551Y009514D01*
X035551Y009474D01*
X035547Y009434D01*
X035539Y009395D01*
X035527Y009357D01*
X035511Y009320D01*
X035492Y009285D01*
X035470Y009252D01*
X035444Y009222D01*
X035416Y009194D01*
X035384Y009169D01*
X035351Y009148D01*
X035316Y009129D01*
X035278Y009115D01*
X035240Y009104D01*
X035201Y009097D01*
X035161Y009094D01*
X035121Y009095D01*
X035082Y009100D01*
X035043Y009109D01*
X035005Y009122D01*
X034969Y009138D01*
X034934Y009158D01*
X034902Y009181D01*
X034872Y009208D01*
X034845Y009237D01*
X034821Y009269D01*
X034800Y009303D01*
X034782Y009339D01*
X034769Y009376D01*
X034759Y009415D01*
X034753Y009454D01*
X034751Y009494D01*
X002901Y014394D02*
X002901Y014494D01*
X001951Y014494D01*
X001951Y014394D01*
X001951Y016694D02*
X002951Y016694D01*
X002951Y016794D01*
X001951Y016794D02*
X001951Y016694D01*
D317*
X019231Y013494D03*
X022071Y013494D03*
X034231Y013994D03*
X037071Y013994D03*
X037071Y016994D03*
X037071Y017994D03*
X034231Y017994D03*
X034231Y016994D03*
D318*
X030401Y006614D02*
X030151Y006614D01*
X029901Y006614D01*
X029901Y006364D02*
X030151Y006364D01*
X030401Y006364D01*
X027281Y005744D02*
X027281Y005494D01*
X027281Y005244D01*
X027031Y005244D02*
X027031Y005494D01*
X027031Y005744D01*
D319*
X027151Y013494D02*
X028151Y013494D01*
D320*
X036301Y014994D03*
X036301Y015994D03*
D321*
X036926Y015994D03*
X036926Y014994D03*
X034376Y014994D03*
X034376Y015994D03*
M02*
